<svg id="Layer_1" data-name="Layer 1" xmlns="http://www.w3.org/2000/svg" viewBox="0 0 67.5 46.99"><defs><style>.cls-1{fill:#1d1d1b;}</style></defs><path class="cls-1" d="M55.78,18.12H9.67a4,4,0,1,1,0-8H55.78a4,4,0,1,1,0,8Zm-46.11-7a3,3,0,1,0,0,6H55.78a3,3,0,1,0,0-6Z"/><path class="cls-1" d="M8.67,15.55q11.71.34,23.44.39c3.83,0,7.65,0,11.48,0l6-.08,3-.06,1.25,0,.75,0c1,.11.8-.46-.59-1.71l.65-1.11-.17.18,1.1-.64a12.11,12.11,0,0,1-3.17.16c-1.22,0-2.45.05-3.68.06q-3.44,0-6.87-.05-7.11-.18-14.2-.82v5a5.84,5.84,0,0,1,2.76.49l.66-4.91q-11,.42-22,.54c-3.21,0-3.22,5,0,5q11-.14,22-.54a2.51,2.51,0,0,0,2.46-2.17,2.55,2.55,0,0,0-1.79-2.74,9.23,9.23,0,0,0-4.09-.67,2.5,2.5,0,0,0,0,5q8.31.75,16.66.86c2.7,0,5.39,0,8.09,0,2.48-.06,6.58.27,6.59-3.29a3.5,3.5,0,0,0-1.8-3c-1.25-.71-2.73-.55-4.11-.52q-4.23.09-8.48.14-8.47.09-17,0-9.48-.08-19-.36c-3.22-.09-3.22,4.91,0,5Z"/><path class="cls-1" d="M55.7,30.15H9.58a4,4,0,0,1,0-8H55.7a4,4,0,0,1,0,8Zm-46.12-7a3,3,0,0,0,0,6H55.7a3,3,0,0,0,0-6Z"/><path class="cls-1" d="M8.61,23.17a5.18,5.18,0,0,0-2.53,3.29,2.51,2.51,0,0,0,2.41,3.16l12.13-.9c3.89-.29,7.8-.74,11.7-.79,8.35-.12,16.75.41,25.1.64,2.75.08,3.49-4.45.66-4.91A39.47,39.47,0,0,0,44,23.84a2.52,2.52,0,0,0-1.74,3.07,2.55,2.55,0,0,0,3.07,1.75l4.53-.7c2.84-.44,2.08-4.91-.66-4.91l-18.4,0-9.13,0H16.88c-1.35,0-3.15.32-4.42-.17l-.66,4.91a22.54,22.54,0,0,1,5.92,1.58l.66-4.91-2.12,0c-3.23.06-3.21,4.86,0,5a40.93,40.93,0,0,0,11-1l-1.93-4.57a2.84,2.84,0,0,1-1.56.64c-3.18.19-3.24,5,0,5q16.53-.06,33.06-.48l-2.41-3.16-.07.23L55,25c1.33-.16,1.71-.31,1.14-.44-.17,0-.2-.06-.08,0a3.21,3.21,0,0,0-.93-.5,17.79,17.79,0,0,0-2.34-1A16.88,16.88,0,0,0,48,22.19c-3.22-.12-3.22,4.88,0,5a13.14,13.14,0,0,1,5.65,1.68c2.1,1.08,4.8.86,5.59-1.7A2.53,2.53,0,0,0,56.86,24q-16.53.42-33.06.48v5a7.61,7.61,0,0,0,4.08-1.32A2.51,2.51,0,0,0,26,23.59a35.54,35.54,0,0,1-9.7.85v5l2.12,0a2.5,2.5,0,0,0,2.46-2.16,2.57,2.57,0,0,0-1.79-2.75,27.06,27.06,0,0,0-7.25-1.76A2.48,2.48,0,0,0,9.34,24.9a2.53,2.53,0,0,0,1.79,2.74c1.47.56,3.21.35,4.75.35h4.74l9.64,0,18.89,0-.67-4.91-4.53.7,1.33,4.82a32.5,32.5,0,0,1,11.47-.18l.67-4.91c-8.35-.23-16.75-.76-25.1-.64-3.82.05-7.65.48-11.46.77l-12.37.92,2.41,3.17c.17-.68-.27,0,.23-.3,2.81-1.58.29-5.9-2.52-4.32Z"/><path class="cls-1" d="M55.76,27.72c3.22,0,3.22-5,0-5s-3.22,5,0,5Z"/><path class="cls-1" d="M55.78,42H9.67a4,4,0,1,1,0-8H55.78a4,4,0,1,1,0,8ZM9.67,35a3,3,0,1,0,0,6H55.78a3,3,0,1,0,0-6Z"/><path class="cls-1" d="M9,40l23.82,0,11.9,0h8.69a6.19,6.19,0,0,0,1.49,0c.39-.12.22.07.07-.11l-.65-1.1,0-.18.34-1.26c1.21-.48,1.47-.68.79-.61H44.53l-11.88,0-11.9,0-5.7,0h-3a4.37,4.37,0,0,0-1.25,0c-.28.1-.26-.28.07.24-1.7-2.72-6-.21-4.32,2.53,1.89,3,6.16,2.24,9.22,2.23l10.4,0,21.29-.07h5.43c1.52,0,3.43.26,4.79-.58a3.22,3.22,0,0,0,1.14-4.31c-.88-1.5-2.64-1.84-4.24-1.86-7.11-.08-14.23,0-21.34,0L9,35c-3.22,0-3.22,5,0,5Z"/></svg>