<svg id="Layer_2" data-name="Layer 2" xmlns="http://www.w3.org/2000/svg" viewBox="0 0 595.28 382.36"><defs><style>.cls-1{fill:#1c1a1b;}</style></defs><path class="cls-1" d="M263,269.7l20.4-25.36,20.7-25.55L290,221.22c-1.32.37-13.35,3.73-14.7,3.73s-67.14-3.06-69.94-3.19l-54.11-2.65-25.05,10.36-18.22,1.17,24.39-17.46a6.06,6.06,0,0,1-.31-4c.49-3,1.28-3.63,2.71-4.81l.56-.47c.11-2.76-16.68-31.34-27.4-48.87L90,124.69l11.07-2.36a44.74,44.74,0,0,1,17.68,0l.52.11a4.92,4.92,0,0,0,2.48.36l.2,0,18.85,13.91,23.4,20a138.9,138.9,0,0,0,11.91,9.08c1.77,1.11,5.18,3,8.47,4.91,8.08,4.57,9.76,5.59,10,6.1,2.11.77,13.4,3.82,18.33,4.31a65.49,65.49,0,0,0,9.42,0c3.19-.18,4.09-.19,4.5.13.86.29,7.75.25,13.89.07l17.62-4.14,22.9-5.09.09,0c2.05.31,4.07.18,4.23-.26,0,0,.29-.95-4.57-4-10.73-6.78-27.8-20.42-28-20.55l-1-.78,19.6-1.83.11,0,47.75,20.46c14.39-2.32,81.25-15.56,81.93-15.7l42.18-8.22c.63-.15,16.08-4,23.46-4a61.07,61.07,0,0,0,7.37-.43,32.58,32.58,0,0,1,7.51-.13c4,.4,13.83,1.53,18.93,3.45a105.2,105.2,0,0,1,10.81,5.11c.77.07,5.9.56,9.54.56a15.47,15.47,0,0,1,9.44,3.77h0a1.36,1.36,0,0,0,.83.41.69.69,0,0,1,.54.29c.17.28.09.5-.13,1.16s-.56,1.65-1.08,3.55c-.39,1.44-.63,2.56-.84,3.54-.69,3.27-.95,4.49-5,8.1-4.47,4-27.45,17.45-30.77,15.77-1.22-.62-6.21-.48-23,3.72-4.54,1.13-34.14,5.48-35.39,5.67l-44.44,8.59-34.63,7.38-6.95,6.45H362l.14.29c3.41,7.39,4.59,17.15,4.6,17.25l0,.18-.1.16c-.1.14-2.46,3.59-8.84,5.33s-22.84,1.47-23.54,1.46l-.17,0-6.38-2.39L325,234.89l-8.29,7.22-30.39,25.62Zm43.55-52.35L284.15,245l-18.94,23.54L286,266.76l30.14-25.41,8.81-7.67,3.23,1.76,6.23,2.33c1.32,0,17.27.19,23.18-1.42,5.27-1.44,7.65-4.14,8.16-4.79-.18-1.38-1.38-9.83-4.36-16.46H347.28l9-8.37,34.91-7.44,44.47-8.6c.33-.05,30.83-4.53,35.31-5.65,13.94-3.48,21.69-4.67,23.72-3.65,2.34,1.18,24-10.63,29.66-15.62,3.81-3.39,4-4.44,4.69-7.56.2-1,.45-2.13.85-3.6.53-1.92.9-3,1.1-3.6l.07-.21a2.46,2.46,0,0,1-1-.57h0a14.39,14.39,0,0,0-8.79-3.53c-4,0-9.69-.57-9.74-.58l-.19-.06a109.16,109.16,0,0,0-10.77-5.1c-5-1.87-14.73-3-18.68-3.39a30.89,30.89,0,0,0-7.3.14,65.14,65.14,0,0,1-7.48.43c-7.26,0-23.09,3.94-23.24,4l-42.21,8.22c-.68.14-68,13.47-82.1,15.73l-.14,0-.14-.06-47.76-20.47-16.88,1.59c3.78,3,17.71,13.9,26.92,19.71,5,3.14,5.26,4.44,5,5.21-.54,1.46-4,1.09-5.22.92l-22.71,5-17.77,4.17c-13.89.41-14.44-.13-14.62-.31a30.93,30.93,0,0,0-3.79.1,64.84,64.84,0,0,1-9.58,0,101.09,101.09,0,0,1-11.58-2.38c-7.44-1.91-7.76-2.23-7.75-2.63-1.1-.8-5.68-3.4-9.43-5.52-3.3-1.88-6.72-3.81-8.51-4.93a145.13,145.13,0,0,1-12-9.16l-23.37-20-18.52-13.66a5.91,5.91,0,0,1-2.75-.43l-.33-.06a43.58,43.58,0,0,0-17.3,0l-9.71,2.07,17.19,29.17c.07.11,7.39,12.1,14.39,24.13,14.36,24.68,13.47,25.44,12.88,25.95l-.65.55c-1.37,1.13-1.93,1.59-2.37,4.2-.46,2.76.35,3.51.36,3.52l.46.41-.49.38-22,15.73,14.65-.94,25-10.38h.11l54.23,2.66c.68,0,68.58,3.19,69.89,3.19.92,0,9.17-2.21,14.48-3.7ZM194.1,177.47h0Zm0-1h0Z"/><path class="cls-1" d="M116.89,127.27a18.76,18.76,0,0,1,3.35.15l-.66-.09,1,.16a2.7,2.7,0,0,0,1.93-.25,2.56,2.56,0,0,0,1.15-1.49,2.6,2.6,0,0,0-.25-1.93,2.48,2.48,0,0,0-1.5-1.15,21.6,21.6,0,0,0-5-.4,2.66,2.66,0,0,0-1.77.73,2.5,2.5,0,0,0,1.77,4.27Z"/><path class="cls-1" d="M277.91,178.66l9-2.56a2.5,2.5,0,0,0,.6-4.57,3,3,0,0,0-1.93-.25l-5.93.86a2.26,2.26,0,0,0-1.3.9,2.42,2.42,0,0,0-.54,1.51,2.9,2.9,0,0,0,2.87,2.85,7.45,7.45,0,0,0,2.54-.54l4.63-1.35a2.5,2.5,0,1,0-1.33-4.82l-3.4,1-1.61.47c-.28.08-.57.15-.85.25-.5.17.4,0,.2,0s-.08,0,.16,0a1.65,1.65,0,0,1,1.09.52l.64,1.11.06.48L281,177l5.93-.86-1.33-4.82-9,2.56a2.5,2.5,0,0,0,1.33,4.82Z"/><path class="cls-1" d="M215.07,186.52a66.3,66.3,0,0,0,9.24-.17c2.84-.25,5.75-.62,8.53.17a2.5,2.5,0,1,0,1.33-4.82c-3.12-.89-6.32-.67-9.51-.38a68.25,68.25,0,0,1-9.59.2,2.52,2.52,0,0,0-2.5,2.5,2.55,2.55,0,0,0,2.5,2.5Z"/><path class="cls-1" d="M473.42,184.94a17.29,17.29,0,0,0,6.48-1.39,34.75,34.75,0,0,1,6.73-1.35,24.76,24.76,0,0,1,6.36-.53c2.21.26,4.14.32,5.91-1.24a2.54,2.54,0,0,0,0-3.54,2.56,2.56,0,0,0-3.54,0,7.65,7.65,0,0,1-1.32-.08,17.17,17.17,0,0,0-2.58-.22,57.07,57.07,0,0,0-6.62.85,33.94,33.94,0,0,0-6.08,1.22c-1.75.59-3.46,1.38-5.34,1.28-3.21-.17-3.2,4.83,0,5Z"/><path class="cls-1" d="M513.73,150.49a21.89,21.89,0,0,1,8.13-.74c.34.05,1.2.24,1.73.38s1.17.36,1.75.57a17.62,17.62,0,0,1,1.65.72c.26.13.51.28.77.4s.18,0,0-.15a.3.3,0,0,1,0-.21V152c0,.3,0,.6-.05.9a10.33,10.33,0,0,1-.23,1.56,10.84,10.84,0,0,1-1.18,3.31,6.87,6.87,0,0,1-1.93,2.27c-.13.11-.13.11,0,0l-.43.28c-.21.14-.44.26-.66.39-.44.26.1,0-.34.16s-.65.2-1,.28a2.5,2.5,0,0,0,1.33,4.82c5.09-1.19,8.36-6,9.16-10.93a14.53,14.53,0,0,0,.25-4.16,4.68,4.68,0,0,0-2.74-3.56,23.57,23.57,0,0,0-7.91-2.54,27.6,27.6,0,0,0-9.61.89,2.5,2.5,0,0,0,1.33,4.83Z"/><path class="cls-1" d="M454.81,149.66l-4.09,0,2.66,19.64c7.53-1.41,16.47-5.29,16.44-14.32,0-5.73-4.08-10.42-9.34-12.19-2.94-1-6.22-.83-9.3-.9l9.65,12.65A1.66,1.66,0,0,1,461,154l-1,2.39a1.41,1.41,0,0,1,.3-.46l-1.57,2a2.6,2.6,0,0,1,.43-.38l-2,1.56a5.57,5.57,0,0,1,.8-.43l-2.39,1c2.68-1,5.85-1.22,8.68-1.61l-2.66.36a134.12,134.12,0,0,1,20.32-1.18,10,10,0,0,0,2.66-19.64,21.63,21.63,0,0,0-10.81-.26,10,10,0,0,0-6,4.6,10.31,10.31,0,0,0-1.19,6.37,9.52,9.52,0,0,0,2.76,5.74c1.81,1.67,4.5,3.25,7.07,2.93a11.41,11.41,0,0,1,2.8,0l-2.66-.36c1.91.29,3.73.91,5.6,1.35a24.23,24.23,0,0,0,10.1.29l2.39-1,2-1.56a9.91,9.91,0,0,0,2.75-5.74,10,10,0,0,0-4.77-10,20.85,20.85,0,0,0-9-2.58,10,10,0,0,0-7.07,17.07,11.35,11.35,0,0,0,7.07,2.93l1.39.15-2.66-.36a63.6,63.6,0,0,1,8.43,1.83,71.71,71.71,0,0,1,7.92,2.42l-2.38-1a6.4,6.4,0,0,1,1,.6l-2-1.57a3.58,3.58,0,0,1,.52.51l-1.57-2a8,8,0,0,1,1,1.77l-1-2.39c1.1,2.66,2,4.94,4.11,7a13.78,13.78,0,0,0,9.63,3.69c3.84-.06,7.8-1.32,11.54-2.16L511.7,149.2l-2.23,2.74a10.94,10.94,0,0,0-2.75,5.74,9.52,9.52,0,0,0,1.18,6.37,10.43,10.43,0,0,0,11.3,4.6,14,14,0,0,0,4.27-1.77l-10.1-17.27-9,6a52.23,52.23,0,0,1-8.42,4.93l2.39-1a19.09,19.09,0,0,1-4.46,1.26l2.66-.35c-.42.05-.84.09-1.27.12a10.38,10.38,0,0,0-7.07,2.93,11,11,0,0,0-2.93,7.07,10.55,10.55,0,0,0,3.05,7.54,11,11,0,0,0,18.33-4.94c1.47-5.78-2-11.32-5.43-15.64-6-7.44-16.92-7.05-25.22-4.46a10.47,10.47,0,0,0-6,4.6,10.21,10.21,0,0,0-1,7.7c1.63,5,7,8.65,12.3,7a30.59,30.59,0,0,1,5-1.11l-2.66.36a23,23,0,0,1,5.31-.11l-2.66-.36a9.09,9.09,0,0,1,2,.51l-2.39-1a8.33,8.33,0,0,1,1.55.92l-2-1.57a11.29,11.29,0,0,1,1.76,1.83l-1.56-2a27.76,27.76,0,0,1,2.45,4.22l-1-2.38a4.27,4.27,0,0,1,.33,1.16l-.36-2.66,0,.38.36-2.66-.13.36,2.57-4.41-.14.18,2-1.56-.19.13,2.39-1-.22.08,2.66-.36a1.24,1.24,0,0,1-.47,0l2.66.36-.22-.06,2.39,1-.18-.1,2,1.56-.13-.14,2.57,4.41-.07-.18.36,2.66v-.21l-10,10a34,34,0,0,0,16.25-5.73c4-2.58,8-5.32,11.94-8a10.64,10.64,0,0,0,4.59-6,10.2,10.2,0,0,0-1-7.7c-2.87-4.45-8.94-6.55-13.69-3.59a4.47,4.47,0,0,1-.71.4l2.39-1a6.61,6.61,0,0,1-1.17.36l9.73,16.72,2.23-2.74a11,11,0,0,0,2.75-5.74,9.54,9.54,0,0,0-1.18-6.38,10.42,10.42,0,0,0-11.3-4.6c-2.63.6-5.27,1.33-7.93,1.73l2.66-.36a7.88,7.88,0,0,1-1.88,0l2.66.36a5.74,5.74,0,0,1-1-.31l2.39,1a3.17,3.17,0,0,1-.61-.39l2,1.56a3.41,3.41,0,0,1-.46-.47l1.56,2a7.59,7.59,0,0,1-.81-1.45l1,2.39a30.06,30.06,0,0,0-1.94-4.38,14.2,14.2,0,0,0-5.05-4.93,36.43,36.43,0,0,0-7.75-2.74,80.88,80.88,0,0,0-15.4-3.19v20a7.53,7.53,0,0,1,.83.08l-2.65-.35a10.8,10.8,0,0,1,2,.56l-2.39-1c.39.18.76.36,1.13.57l2.39-18.28-.4.07,2.66-.36a11.33,11.33,0,0,1-2.79,0l2.66.35c-4.21-.67-8.3-2.57-12.65-2L479,156.7a8,8,0,0,1,.85-.16l-2.66.36a12,12,0,0,1,3,0l-2.66-.36a16.16,16.16,0,0,1,1.67.39l2.65-19.64a133.2,133.2,0,0,0-18.4.93c-3.69.45-7.38,1-11,1.65-4.82.9-9.94,4.18-10.88,9.37-.59,3.25-.26,6.06,1.79,8.72a9.92,9.92,0,0,0,7.85,3.94c1.69,0,3.39,0,5.06.17l-2.66-.36a7.75,7.75,0,0,1,1.58.38l-2.39-1a5.42,5.42,0,0,1,.93.55l-2-1.56a3.55,3.55,0,0,1,.47.48l-1.56-2a2.82,2.82,0,0,1,.35.57l-1-2.39a2.39,2.39,0,0,1,.21.62l-.36-2.66a2,2,0,0,1,0,.65l.36-2.66a2.13,2.13,0,0,1-.2.65l1-2.39-.18.3,1.57-2a2.63,2.63,0,0,1-.49.51l2-1.56a8.3,8.3,0,0,1-1.58.91l2.38-1a31.83,31.83,0,0,1-6.63,2,10,10,0,0,0-6,4.6A10.32,10.32,0,0,0,440.9,161a10,10,0,0,0,9.82,8.67l4.09,0a10.35,10.35,0,0,0,7.07-2.93,10.18,10.18,0,0,0,2.93-7.07c-.25-5.39-4.4-10-10-10Z"/><path class="cls-1" d="M491.62,159.51a43.66,43.66,0,0,0-11.3-.34,38,38,0,0,1-8.12.17l2.66.35a17.08,17.08,0,0,1-4.1-1.07l2.39,1a13,13,0,0,1-2.38-1.35l2,1.56a10.55,10.55,0,0,1-1.69-1.65l1.57,2a6.87,6.87,0,0,1-.76-1.24l1.36,5.05,0-.41-1.37,5,.12-.24-1.56,2,.2-.17-2,1.56.25-.12-2.39,1a2.85,2.85,0,0,1,.58-.12l-2.66.36,6.19-.72a11.27,11.27,0,0,0,6.06-2.15,9.58,9.58,0,0,0,3.58-5.19,11.94,11.94,0,0,0,0-5.32,10,10,0,0,0-4.59-6,45.93,45.93,0,0,0-12.2-4.15,56.73,56.73,0,0,0-7.57-.84,52.25,52.25,0,0,1-5.46-.26l2.66.36a13.67,13.67,0,0,1-3-.81l2.39,1c-1.78-.75-3.53-1.63-5.35-2.28a18.22,18.22,0,0,0-6.34-1,33,33,0,0,0-9.73,1.89c-5.13,1.69-10.54,3.46-14.92,6.7-3.69,2.72-7.13,5.89-8.46,10.46a14.29,14.29,0,0,0-.06,7.54c.83,3.34,3.33,5.83,6,7.78,3.21,2.34,7.19,3.19,11.07,3.51a33.12,33.12,0,0,0,9.9-1.12c6.26-1.44,12.43-3,18.8-3.89l-2.66.36a73.62,73.62,0,0,1,19-.28l-2.66-.36a23.06,23.06,0,0,1,5,1l-2.38-1a4.87,4.87,0,0,1,.81.44l-2-1.57a2.66,2.66,0,0,1,.43.39l-1.56-2a1.58,1.58,0,0,1,.28.47l-1-2.39.08.27-.36-2.66a1.47,1.47,0,0,1,0,.59l.36-2.66-.08.28,1-2.39a1.93,1.93,0,0,1-.31.49l1.57-2a2.49,2.49,0,0,1-.46.4l2-1.56a7.09,7.09,0,0,1-.87.44l2.39-1a45,45,0,0,1-7.31,1.45c-2.66.45-5.32.86-8,1.23l2.66-.36c-4.45.59-8.93,1-13.41,1.25-4.83.22-9.92,0-14.52,1.7a10.75,10.75,0,0,0-6,4.6A10,10,0,0,0,429,187.28c2.26,1.19,5.22,1.93,7.71,1a18.16,18.16,0,0,1,3.86-.95l-2.66.36c3.13-.38,6.31-.3,9.46-.48,3.35-.19,6.68-.51,10-.92,4-.49,7.93-1.05,11.87-1.71,3.63-.61,7.43-1,10.73-2.72a11.78,11.78,0,0,0,2.74-18.81c-3.72-3.59-9.06-4-13.92-4.56-7.09-.81-14.14-.17-21.18.82-3.64.51-7.26,1.21-10.86,2s-7.11,1.9-10.75,2.43l2.66-.36a19,19,0,0,1-4.76.05l2.66.36a13.61,13.61,0,0,1-3.14-.84l2.39,1a10.84,10.84,0,0,1-2.08-1.21l2,1.57a7.24,7.24,0,0,1-.84-.82l1.56,2a4.7,4.7,0,0,1-.57-1l1,2.39a2.72,2.72,0,0,1-.16-.74l.36,2.66a3.14,3.14,0,0,1,0-.75l-.36,2.66a6.93,6.93,0,0,1,.32-1.1l-1,2.39a8.28,8.28,0,0,1,.82-1.37l-1.57,2a15.77,15.77,0,0,1,2.59-2.51l-2,1.56a29.19,29.19,0,0,1,6.3-3.56l-2.39,1a52.77,52.77,0,0,1,11.84-3.75l-2.65.35a14,14,0,0,1,3.54,0l-2.66-.36a12.11,12.11,0,0,1,2.52.72l-2.39-1c1.79.76,3.53,1.63,5.36,2.28a24.47,24.47,0,0,0,6.18,1.05c2.64.22,5.29.1,7.92.43l-2.66-.36a37.76,37.76,0,0,1,9.51,2.59l-2.39-1c.55.24,1.09.49,1.63.75l5.05-18.63c-2,.23-4,.45-6,.69-2.77.33-4.86.66-7.13,2.41a10.36,10.36,0,0,0-4.25,8.47,13.84,13.84,0,0,0,4.86,9.75,22.92,22.92,0,0,0,7.31,4.34,26.69,26.69,0,0,0,10.89,1.58c3.91-.17,7.79-.89,11.7-.46l-2.65-.36.92.14c2.74.44,5.23.44,7.71-1a10,10,0,0,0,3.59-13.68c-1.33-2.05-3.46-4.19-6-4.6Z"/><path class="cls-1" d="M428.26,192.89a108,108,0,0,1,16.93-4c2.22-.34,5-2.67,6-4.6a10.23,10.23,0,0,0,1.19-6.37c-.63-4.71-4.83-8.89-9.82-8.67l-10.92.47c-4.25.19-8.65,3-9.64,7.35a11.9,11.9,0,0,0,0,5.31c.48,2.12,2.54,5.08,4.59,6a29,29,0,0,0,6.26,2.34,21.08,21.08,0,0,0,6.76.29c3.78-.46,7.55-1,11.32-1.62,3-.48,6.08-1,9.1-1.68,1.54-.34,3.08-.71,4.6-1.12a39.09,39.09,0,0,1,4.09-1.08l-2.66.36a6.37,6.37,0,0,1,1.07,0l-2.65-.36a2.71,2.71,0,0,1,.66.18l-2.39-1a2.25,2.25,0,0,1,.6.35l5-18.63a12,12,0,0,0-5.53.68,10.78,10.78,0,0,0-6,4.6,10,10,0,0,0,3.59,13.68c2.26,1.2,5.21,1.93,7.7,1a7.53,7.53,0,0,1,1.21-.34l-2.66.36a6.67,6.67,0,0,1,1.67,0L471,186a7.45,7.45,0,0,0,3.4-1.79A9.56,9.56,0,0,0,478,179a11.94,11.94,0,0,0,0-5.32c-.6-2.59-2.53-4.51-4.6-6a12.11,12.11,0,0,0-7.2-1.9,25,25,0,0,0-5.56,1.07c-2.58.75-5.19,1.36-7.83,1.9-5.26,1.07-10.58,1.84-15.9,2.55l2.66-.36a16.51,16.51,0,0,1-3.65.13l2.66.36a14.08,14.08,0,0,1-3.48-1l2.38,1-.83-.37-5.05,18.63,10.92-.47-2.66-19.65a110.51,110.51,0,0,0-16.93,4,10.49,10.49,0,0,0-6,4.6,10.16,10.16,0,0,0-1,7.7c1.61,5,7,8.7,12.3,7Z"/><path class="cls-1" d="M391.08,172.59a9.3,9.3,0,0,1,1.71-1l-2.39,1c3.16-1.26,6.71-1.36,10-2.27a82.87,82.87,0,0,1,10.73-2.78l-2.66.35c2.53-.31,5.08-.23,7.63-.42a68.14,68.14,0,0,0,8.85-1.29c4.52-1,9-2.31,13.56-2.93l-2.65.36a31.56,31.56,0,0,1,5.75-.23c5.23.28,10.23-4.8,10-10a10.22,10.22,0,0,0-10-10c-8.91-.48-17.26,3-25.95,4.21l2.66-.35c-3,.38-5.95.26-8.93.55A55.26,55.26,0,0,0,398.55,150a64.69,64.69,0,0,1-8.22,2.09c-3.26.52-6.58,1.23-9.34,3.19a10.78,10.78,0,0,0-4.6,6,10.2,10.2,0,0,0,1,7.7,10.1,10.1,0,0,0,6,4.6c2.48.56,5.54.53,7.7-1Z"/><path class="cls-1" d="M445.23,141.34l-7.36,1.92L449.16,158c0-.09.09-.17.15-.26l-1.56,2a1.31,1.31,0,0,1,.2-.21l-2,1.56a2,2,0,0,1,.43-.25l-2.39,1a3.18,3.18,0,0,1,.74-.17l-2.66.35c.59-.06,1.19,0,1.78,0a34.17,34.17,0,0,0,4.51-.49,11.84,11.84,0,0,0,2.93-1,13.15,13.15,0,0,0,2-.89,18.26,18.26,0,0,0,2.7-2.1,7.55,7.55,0,0,0,2.07-3.21,9.07,9.07,0,0,0,0-7.71,7.64,7.64,0,0,0-2.07-3.22l-2-1.56a10,10,0,0,0-5-1.37l-2.66.36a10,10,0,0,0-4.41,2.57l-.38.32,2-1.56a4.93,4.93,0,0,1-1.05.6l2.39-1a7.44,7.44,0,0,1-1.8.46l2.66-.35c-1.06.14-2.12.08-3.18.13a25.65,25.65,0,0,0-3.27.42,14.22,14.22,0,0,0-2.9,1.15,2.44,2.44,0,0,0-.28.14l-.16.11-2,1.57a7.9,7.9,0,0,0-1.91,2.5l-1,2.39-.36,2.66.36,2.65a7.49,7.49,0,0,0,1.79,3.41,9.84,9.84,0,0,0,6.52,3.76,7.53,7.53,0,0,0,4-.18l7.36-1.93a7.5,7.5,0,0,0,3.4-1.79,7.61,7.61,0,0,0,2.57-2.8,11.19,11.19,0,0,0,1-7.71l-1-2.39a9.94,9.94,0,0,0-3.59-3.58l-2.38-1a10,10,0,0,0-5.32,0Z"/><path class="cls-1" d="M421.36,166.4c5.23,0,10.24-4.6,10-10a10.18,10.18,0,0,0-10-10c-5.23,0-10.24,4.6-10,10a10.17,10.17,0,0,0,10,10Z"/><path class="cls-1" d="M320.83,185a83.22,83.22,0,0,0,13.94-.46,103.07,103.07,0,0,0,13.09-3c8.15-2.18,16.5-3.67,24.76-5.38l14.48-3a10,10,0,0,0,2.38-18.27,10.93,10.93,0,0,0-7.7-1q-12.84,2.63-25.67,5.28c-4.3.89-8.61,1.78-12.86,2.89s-8.21,2.46-12.47,3.05l2.66-.36a81.67,81.67,0,0,1-12.61.28c-5.23-.17-10.24,4.72-10,10a10.2,10.2,0,0,0,10,10Z"/><path class="cls-1" d="M328.25,184.64a13.25,13.25,0,0,0,7.24-1.79l2-1.57,1.56-2a9.92,9.92,0,0,0,1.19-6.38,9.51,9.51,0,0,0-2-4.73c-1.2-1.55-3.17-3.28-5.2-3.58a18.2,18.2,0,0,0-5.09-.37,11.11,11.11,0,0,0-7.08,2.93,10.32,10.32,0,0,0-2.75,5.74,9.63,9.63,0,0,0,1.19,6.38c1.35,2.09,3.44,4.1,6,4.59a20.07,20.07,0,0,0,8.06-.07c1.21-.2,2.4-.45,3.59-.71,2.38-.52,4.76-1.08,7.17-1.41l-2.65.36c3.09-.39,6.41-.25,9.34-1.41a12.25,12.25,0,0,0,4.41-2.57,9.82,9.82,0,0,0,2.75-5.74,9.48,9.48,0,0,0-.68-5.18,9.37,9.37,0,0,0-4.09-4.79,12.86,12.86,0,0,0-4.63-1.47,13.47,13.47,0,0,0-5.13.3,37.69,37.69,0,0,0-5.15,2.12l2.39-1a33.39,33.39,0,0,1-7.67,2.09l2.66-.36a10.43,10.43,0,0,1-2.23.11l2.66.36a5.23,5.23,0,0,1-.89-.2l2.39,1a2.56,2.56,0,0,1-.55-.27,10.39,10.39,0,0,0-7.7-1,10.18,10.18,0,0,0-6,4.6,10.08,10.08,0,0,0-1,7.7,10.42,10.42,0,0,0,4.6,6c4.32,2.49,9,2,13.69,1a50.18,50.18,0,0,0,9.36-3.4l-2.39,1a7.69,7.69,0,0,1,1.63-.5l-2.66.36a2.83,2.83,0,0,1,.65,0l-2.66-.36a2.23,2.23,0,0,1,.62.14l-2.39-1,.3.14,2.38-18.27a11.4,11.4,0,0,1-2.36.62l2.65-.36c-3.4.45-6.82.65-10.19,1.33-2.7.55-5.37,1.24-8.1,1.66l2.66-.36a8,8,0,0,1-1.83.06l2.65.36-.36-.07L328,184.2a8.59,8.59,0,0,1,2.09,0l-2.66-.35.35.05-2.39-18.28-.29.15,2.39-1a5.08,5.08,0,0,1-.94.28l2.66-.36a3.94,3.94,0,0,1-1,0c-2.41-.22-5.42,1.28-7.07,2.93a10,10,0,0,0,0,14.15l2,1.56a9.94,9.94,0,0,0,5.05,1.36Z"/><path class="cls-1" d="M246.69,201.21a23.72,23.72,0,0,0,9.34-1.69,35.81,35.81,0,0,1,7.05-2.21l-2.66.35a49.53,49.53,0,0,0,6.77-.86,40.2,40.2,0,0,0,5.8-2.43l-2.39,1a36.09,36.09,0,0,1,7.87-2c2.33-.41,4.82-2.63,6-4.6a10,10,0,0,0-3.59-13.68,11.32,11.32,0,0,0-7.7-1,49.43,49.43,0,0,0-5.53,1.18,63,63,0,0,0-7,2.86l2.38-1a10.3,10.3,0,0,1-2.51.65l2.66-.36a39.34,39.34,0,0,0-10,1.88,34.41,34.41,0,0,1-7.19,2.23l2.66-.36a13.46,13.46,0,0,1-2,.06c-5.23-.27-10.23,4.79-10,10a10.24,10.24,0,0,0,10,10Z"/><path class="cls-1" d="M230.38,201.28a34.28,34.28,0,0,0,9.84.65,76.29,76.29,0,0,0,9.72-1.81l15.56-3.69c5.09-1.21,8.6-7.29,7-12.3a10.22,10.22,0,0,0-12.3-7L249,179.79c-3.63.86-7.27,1.91-11,2.44l2.66-.36a25.06,25.06,0,0,1-6.24,0l2.66.36c-.47-.07-1-.14-1.42-.23a10.71,10.71,0,0,0-7.71,1,10,10,0,0,0-3.58,13.68c1.34,2.08,3.44,4.13,6,4.59Z"/><path class="cls-1" d="M175.36,192.55l4.76.72a23.25,23.25,0,0,1,4.54.9l-2.39-1c1.22.55,2.3,1.34,3.51,1.9a40.31,40.31,0,0,0,5.82,2.17c2.84.8,5.71,1.51,8.59,2.17q8.73,2,17.61,3.21a11.18,11.18,0,0,0,7.7-1,10,10,0,0,0,3.59-13.68c-1.3-2-3.47-4.25-6-4.6-5-.69-10-1.57-15-2.63-4.74-1-9.72-1.95-14.23-3.74l2.39,1c-2.79-1.19-5.17-3.06-8.26-3.59-2.43-.41-4.89-.74-7.34-1.11-2.76-.42-5.2-.46-7.7,1A10,10,0,0,0,169.38,188c1.32,2,3.47,4.22,6,4.6Z"/><path class="cls-1" d="M113.51,142.88l.31,0-2.39-1a1.5,1.5,0,0,1,.55.31l-2-1.57a17.88,17.88,0,0,0,3.12,2.57,11.45,11.45,0,0,0,5.94,1.53,11.17,11.17,0,0,0,7.52-3.1,10.11,10.11,0,0,0,3.13-7.63l-15,8.63a31.37,31.37,0,0,1,4.23,2.72l-2-1.56a29.11,29.11,0,0,1,4,3.73,16.22,16.22,0,0,0,3.35,2.94c2.13,1.4,4.32,1.55,6.77,1.84l-2.66-.36a5.9,5.9,0,0,1,1.44.39l-2.39-1a6.55,6.55,0,0,1,1.16.71l-2-1.56a11.54,11.54,0,0,1,1.76,1.87l-1.57-2c2.53,3.36,4.7,7,8.55,9a10.22,10.22,0,0,0,14.29-13.13c-1.21-2.85-3.83-5.54-7-6.16a10.78,10.78,0,0,0-6.52.5,9.56,9.56,0,0,0-4.78,4.09,11.93,11.93,0,0,0-1.36,5.05c-.1,2.19,1.13,5.67,2.93,7.07,2.31,1.8,4.63,3.6,6.79,5.57,1.06,1,2.07,2,3,3a14.47,14.47,0,0,0,6.95,4.6l-2.39-1a9,9,0,0,1,1.53.89l-2-1.56c1.57,1.22,2.77,2.83,4.23,4.18a20.83,20.83,0,0,0,4.18,3.11c1.69.9,3.5,1.54,5.26,2.28l-2.39-1a14.58,14.58,0,0,1,2.93,1.65l-2-1.57c3.46,2.79,6.73,5.74,10.43,8.22a63.2,63.2,0,0,0,9.84,5.34c2.56,1.12,4.9,1.79,7.7,1a10.21,10.21,0,0,0,6-4.59,10.1,10.1,0,0,0,1-7.71c-.75-2.31-2.27-5-4.6-6a63.88,63.88,0,0,1-13.22-7.79l2,1.57c-1.62-1.26-3.12-2.63-4.68-4a22.46,22.46,0,0,0-4.15-2.95c-1.51-.77-3.12-1.37-4.69-2l2.39,1a14.5,14.5,0,0,1-3.18-1.75l2,1.57c-1.27-1.05-2.31-2.31-3.46-3.47a24.54,24.54,0,0,0-3.49-2.87,21.19,21.19,0,0,0-4.26-2.05l2.39,1a3.89,3.89,0,0,1-.68-.33l2,1.56a30.09,30.09,0,0,1-2.59-2.7c-.89-.91-1.83-1.78-2.78-2.62-1.92-1.68-3.94-3.25-6-4.82l-9.73,16.71.22.05-2.39-1,.18.14L131.56,155l.12.19-1-2.38,0,.22-.36-2.66,0,.23,1.37-5-.13.19,13.68-3.59a10,10,0,0,1-1-.61l2,1.56a11.48,11.48,0,0,1-1.85-1.9l1.57,2a74.44,74.44,0,0,0-4.64-6.08,16.24,16.24,0,0,0-3.64-2.86,17.41,17.41,0,0,0-7.21-2l2.66.35a4.72,4.72,0,0,1-1-.25l2.39,1-.32-.18,2,1.56a22.61,22.61,0,0,1-2.18-2.3,29.11,29.11,0,0,0-2.29-2.15,41.69,41.69,0,0,0-7.07-4.94,10.2,10.2,0,0,0-10.09,0c-2.81,1.65-5.29,5.23-5,8.64l0,.23.36-2.66-.08.19,2.58-4.42-.15.15,2-1.56-.2.1,2.39-1-.25.06,2.66-.36a1.35,1.35,0,0,1-.53,0l2.66.36-.26-.08,2.39,1-.22-.14,2,1.57c-.67-.6-1.27-1.16-2-1.72a9.67,9.67,0,0,0-4.27-2.15c-2.75-.42-5.2-.46-7.7,1a10,10,0,0,0-3.59,13.68c1.32,2,3.47,4.21,6,4.6Z"/><path class="cls-1" d="M112.37,142.72c5.23,0,10.24-4.6,10-10a10.17,10.17,0,0,0-10-10c-5.23,0-10.24,4.6-10,10a10.17,10.17,0,0,0,10,10Z"/><path class="cls-1" d="M110.92,141.45c5.23,0,10.25-4.6,10-10a10.18,10.18,0,0,0-10-10c-5.23,0-10.24,4.6-10,10a10.18,10.18,0,0,0,10,10Z"/><path class="cls-1" d="M106.77,141.63c5.23,0,10.24-4.59,10-10a10.19,10.19,0,0,0-10-10c-5.24,0-10.25,4.6-10,10a10.17,10.17,0,0,0,10,10Z"/><path class="cls-1" d="M101.53,141.2a7.91,7.91,0,0,1,.93.56l-2-1.56a7.7,7.7,0,0,1,1.06,1l-1.57-2a7.48,7.48,0,0,1,.93,1.56l-1-2.38a7.46,7.46,0,0,1,.31,1l18.28-7.71a5.28,5.28,0,0,1-.54-.92l1,2.39-.11-.34-18.28,7.7a61.46,61.46,0,0,0,4.07,6.42,10.78,10.78,0,0,0,6,4.59,10,10,0,0,0,11.3-14.69c-1.55-2.91-4.13-4.42-7.09-5.58l-2.66-.36-2.65.36a10.14,10.14,0,0,0-6,14.69,52.89,52.89,0,0,1,4.16,7.51l-1-2.39a45.1,45.1,0,0,0,3.19,6.78l3.31,5.37q3,4.88,6,9.75c4,6.55,7.89,13.12,11.4,19.94,2,3.88,3.6,7.92,6.45,11.27a16.34,16.34,0,0,0,16.33,4.91,16.12,16.12,0,0,0,11.54-12.22,17.5,17.5,0,0,0-.71-9.43,58.16,58.16,0,0,0-3.24-6.81,188.79,188.79,0,0,0-13.78-21.77c-1.59-2.17-3.3-3.86-6-4.6a10.2,10.2,0,0,0-7.7,1,10,10,0,0,0-4.6,6c-.56,2.47-.55,5.58,1,7.71q4.57,6.24,8.63,12.84a102.78,102.78,0,0,1,7.38,13.35l-1-2.39a11.35,11.35,0,0,1,.69,2.47l-.35-2.65a9,9,0,0,1,0,1.64l.36-2.66a7.09,7.09,0,0,1-.5,1.76l1-2.38a9.51,9.51,0,0,1-.75,1.26l1.56-2a8.43,8.43,0,0,1-1,1l2-1.56a7.37,7.37,0,0,1-1.58.93l2.39-1a7.78,7.78,0,0,1-1.42.36l2.65-.36a7.47,7.47,0,0,1-1.83,0l2.66.35a7.9,7.9,0,0,1-1.42-.4l2.39,1a7,7,0,0,1-1.28-.72l2,1.56a8.8,8.8,0,0,1-1.34-1.32l1.57,2a31.16,31.16,0,0,1-2.94-5.38q-1.48-3-3.06-6-3.24-6.15-6.84-12.11t-7.12-11.71q-1.77-2.91-3.55-5.8a55.5,55.5,0,0,1-3.55-6l1,2.38c-1-2.31-1.86-4.67-3-6.89-.86-1.59-1.83-3.12-2.79-4.66l-11.29,14.69.28.12-2.39-1,.26.16-2-1.56a2,2,0,0,1,.42.44l-1.57-2,.15.27,17.27-10.1a60.29,60.29,0,0,1-4.07-6.41,10,10,0,0,0-12.49-4.09c-4.36,1.84-7.37,7-5.79,11.79a13.4,13.4,0,0,0,1.66,3.65c1.51,2.07,3.35,4,6,4.6a10.39,10.39,0,0,0,6.51-.5,10.09,10.09,0,0,0,5.79-11.8,15.77,15.77,0,0,0-7.83-10.16,10.57,10.57,0,0,0-7.71-1,10.16,10.16,0,0,0-6,4.6c-2.42,4.58-1.38,11.12,3.59,13.68Z"/><path class="cls-1" d="M150,190.44a13.18,13.18,0,0,1,3.32,0l-2.66-.36a16.48,16.48,0,0,1,3.21.9l-2.39-1a16.75,16.75,0,0,1,3.59,2.09l-2-1.56a20.08,20.08,0,0,1,3.36,3.41l-1.56-2a24.91,24.91,0,0,1,3,5.18l-1-2.38a7.39,7.39,0,0,1,.35,1.13l-.36-2.66a5.46,5.46,0,0,1,0,1.21l.35-2.65a7,7,0,0,1-.32,1.17l1-2.39a11.71,11.71,0,0,1-1.31,2.17l1.56-2c-.81,1-1.65,2.07-2.48,3.11a15.77,15.77,0,0,1-2.46,2.76l2-1.56a4.44,4.44,0,0,1-.67.38l2.39-1a6.85,6.85,0,0,1-1.48.38l2.66-.36a13.5,13.5,0,0,1-2.77-.11l2.66.36-.39-.06L160,212.85a17,17,0,0,1,3.09-1.79l-2.39,1a20.59,20.59,0,0,1,5-1.37l-2.66.36a31.9,31.9,0,0,1,8.34.08l-2.65-.36c5.53.76,10.95,2.15,16.5,2.84a64,64,0,0,0,16.93-.46c2.29-.32,4.86-2.7,6-4.6a10,10,0,0,0-3.59-13.68l-2.38-1a10.21,10.21,0,0,0-5.32,0l-.48.07,2.66-.36a54.9,54.9,0,0,1-14,0l2.66.36c-6.48-.89-12.8-2.77-19.36-3.1-6.23-.32-13.26,1-18.38,4.73a12.53,12.53,0,0,0-3.59,3.59,9.92,9.92,0,0,0-1.18,6.38,9.46,9.46,0,0,0,2,4.73c1.19,1.53,3.19,3.31,5.2,3.58,3.38.46,6.63,1,10-.22a14.32,14.32,0,0,0,6-3.77c.72-.79,1.36-1.67,2-2.51,1.72-2.15,3.71-4.22,4.9-6.72a14.88,14.88,0,0,0,1.72-7,15.93,15.93,0,0,0-1.92-6.94,31,31,0,0,0-9.82-11.82A22.4,22.4,0,0,0,150,170.44c-2.73.3-5,.91-7.07,2.93a10,10,0,0,0,0,14.14c1.83,1.68,4.49,3.22,7.07,2.93Z"/><path class="cls-1" d="M195.35,215.88q19.14,1.5,38.33,2.09c5.23.16,10.24-4.71,10-10a10.2,10.2,0,0,0-10-10q-19.19-.58-38.33-2.09a10,10,0,0,0-7.07,2.93,10,10,0,0,0,0,14.14,11.16,11.16,0,0,0,7.07,2.93Z"/><path class="cls-1" d="M235.12,219.55q7.38,0,14.76,0a123.39,123.39,0,0,0,14.26-.46,49.73,49.73,0,0,0,9.05-1.75c2.2-.7,4.35-1.53,6.54-2.28q6.61-2.25,13.42-3.85c2.56-.61,5.14-1.11,7.73-1.6a19.54,19.54,0,0,0,8.19-3.19c2.16-1.65,3.84-3.24,4.59-6a10.24,10.24,0,0,0-1-7.7,10.1,10.1,0,0,0-6-4.6c-2.44-.55-5.62-.58-7.71,1a9.07,9.07,0,0,1-2,1.16l2.39-1c-2.77,1.08-5.86,1.36-8.75,2q-4.87,1-9.65,2.42c-3.1.89-6.16,1.9-9.19,3a50.8,50.8,0,0,1-9.58,2.65l2.66-.36a114.86,114.86,0,0,1-14.72.54c-5,0-10,0-15,0-5.23,0-10.24,4.61-10,10a10.18,10.18,0,0,0,10,10Z"/><path class="cls-1" d="M254.56,212.74c6.5.31,13,.37,19.37-1.09,5.68-1.31,11-3.93,16.34-6.2l-2.38,1A50.37,50.37,0,0,1,300,202.68l-2.65.36.42,0a11.26,11.26,0,0,0,7.07-2.93,10,10,0,0,0,0-14.15c-1.81-1.65-4.52-3.27-7.07-2.92a50.76,50.76,0,0,0-11.23,2.6c-3.61,1.34-7.12,2.94-10.66,4.44l2.39-1a50.9,50.9,0,0,1-12.85,3.91l2.66-.35a79,79,0,0,1-13.5.16c-5.23-.25-10.24,4.77-10,10a10.22,10.22,0,0,0,10,10Z"/><path class="cls-1" d="M284.65,202.85a60.82,60.82,0,0,1,9.49-8.86l-2,1.56a21.79,21.79,0,0,1,4.64-2.82l-2.39,1a21.86,21.86,0,0,1,5.11-1.21l-2.66.36c5.39-.71,11.11-1.89,16.55-1.24l-2.66-.36a16.62,16.62,0,0,1,3.74,1l-2.39-1,.4.18V174.17a24.62,24.62,0,0,0-7.93,9.17,45.54,45.54,0,0,1-4,7.17l1.57-2a30.84,30.84,0,0,1-5.35,5.3l2-1.56a48.39,48.39,0,0,1-10.42,5.88l2.39-1c-2.73,1.15-5.51,2.16-8.3,3.14a46.74,46.74,0,0,1-8.89,2.47l2.65-.36a18.71,18.71,0,0,1-4.67,0c-2.36-.29-5.46,1.32-7.07,2.93a10,10,0,0,0,0,14.14l2,1.56a9.94,9.94,0,0,0,5,1.37c4.68.57,9.57-.6,14-2.08s8.82-3.17,13.13-5a45.74,45.74,0,0,0,19.74-15.48c2.14-3.05,3.23-6.7,5.46-9.7l-1.57,2a12,12,0,0,1,2-2l-2,1.56.3-.21c2.95-2.1,4.95-4.87,4.95-8.64,0-3.2-1.83-7.27-4.95-8.63a28.81,28.81,0,0,0-4.83-1.85,36.62,36.62,0,0,0-5-.74,30.71,30.71,0,0,0-5.91.1c-4.64.45-9.37,1-14,1.76-5.25.88-9.46,3.65-13.5,6.93a60.57,60.57,0,0,0-8.83,8.33,10.79,10.79,0,0,0-2.93,7.07,10,10,0,0,0,10,10c2.5-.11,5.42-.91,7.07-2.92Z"/><path class="cls-1" d="M167.16,219.25a73.09,73.09,0,0,1,13.47.54l-2.66-.35,1.14.16a11.18,11.18,0,0,0,7.7-1,10,10,0,0,0,3.59-13.68l-1.56-2a9.94,9.94,0,0,0-4.42-2.57,22.68,22.68,0,0,0-12.17-.64,11.2,11.2,0,0,0-6,4.6,7.39,7.39,0,0,0-1.18,3.71,7.53,7.53,0,0,0,.18,4,10.11,10.11,0,0,0,4.59,6l2.39,1a10.21,10.21,0,0,0,5.32,0l.76-.13-2.66.36a13.41,13.41,0,0,1,3.35,0l-2.66-.35a13.11,13.11,0,0,1,2.75.72l5.31-19.28a85.31,85.31,0,0,0-17.26-1.07,10.56,10.56,0,0,0-7.08,2.93,10,10,0,0,0,7.08,17.07Z"/><path class="cls-1" d="M178.72,219.35A124.55,124.55,0,0,0,196,220.72c5.15,0,10.3,0,15.44.06v-20a31.51,31.51,0,0,0-4.21.66,32.28,32.28,0,0,0-3.88,1.54c-2.05.88-4.11,3.88-4.59,6a10.38,10.38,0,0,0,.5,6.51,10.07,10.07,0,0,0,11.8,5.79,8,8,0,0,1,.85-.17l-2.66.36a13.76,13.76,0,0,1,3.45.11L210,221.2c2,.29,4.09.69,6.16.8a33.86,33.86,0,0,0,6.42-.66l-2.66.36a51.16,51.16,0,0,1,7.83-.24l-5.05-18.63a9.25,9.25,0,0,1-1.13.58l2.39-1a9.18,9.18,0,0,1-1.64.42l2.66-.36a8.68,8.68,0,0,1-1.69,0v20a31.69,31.69,0,0,1,7,.14l-2.66-.36c.61.1,1.22.2,1.83.32a10.67,10.67,0,0,0,7.71-1,10,10,0,0,0,3.58-13.68c-1.35-2.1-3.44-4.09-6-4.59a40,40,0,0,0-11.44-.82,10.72,10.72,0,0,0-7.07,2.93,10,10,0,0,0,0,14.14,11.48,11.48,0,0,0,7.07,2.93,15.93,15.93,0,0,0,9.5-2.36c3.66-2.21,6-7.07,4.6-11.29a10.36,10.36,0,0,0-9.64-7.35,66.56,66.56,0,0,0-11.45.74l2.66-.36a16.23,16.23,0,0,1-4.12,0l2.66.36c-2-.27-3.94-.62-5.93-.8a18.71,18.71,0,0,0-5.87.54l7.71,18.28.41-.18-2.38,1a12.45,12.45,0,0,1,2.17-.6l-2.65.36.44-.06a11.11,11.11,0,0,0,7.08-2.93,10,10,0,0,0-7.08-17.07c-9.5,0-19.14.38-28.59-.87l2.66.36-1.43-.2c-2.76-.42-5.2-.46-7.71,1a10.23,10.23,0,0,0-4.59,6,10.08,10.08,0,0,0,1,7.71c1.31,2,3.46,4.22,6,4.59Z"/><path class="cls-1" d="M235.59,222.9q8.59-.12,17.19-.38l-2.66-19.65a20.24,20.24,0,0,1-2.19.45l2.66-.36a19.36,19.36,0,0,1-3.57.14c-5.23-.26-10.23,4.79-10,10a10.13,10.13,0,0,0,2.93,7.07A11,11,0,0,0,247,223.1q6.6.43,13.2.25a10.38,10.38,0,0,0,7.07-2.93,10.14,10.14,0,0,0,2.93-7.07c-.23-5.29-4.4-10.16-10-10q-6.6.19-13.2-.25v20a28.44,28.44,0,0,0,8.42-.94,10,10,0,0,0,7.16-11c-.64-4.76-4.82-8.83-9.82-8.67q-8.59.25-17.19.38a10.38,10.38,0,0,0-7.07,2.93,10.14,10.14,0,0,0-2.93,7.07c.24,5.35,4.4,10.08,10,10Z"/><path class="cls-1" d="M266.28,223.33l1-.26L262,203.78a3.91,3.91,0,0,1-.94.28l2.66-.35a5.24,5.24,0,0,1-1,0l2.66.35a2.66,2.66,0,0,1-.63-.17l-5.32,19.28a41.7,41.7,0,0,0,19.21-.25l-9.73-16.71a1.8,1.8,0,0,1-.36.37l2-1.56a2.46,2.46,0,0,1-.45.25l2.39-1a4.6,4.6,0,0,1-1.05.25l2.66-.36-.54.05a10.42,10.42,0,0,0-7.07,2.93,10.25,10.25,0,0,0-2.75,5.74,10,10,0,0,0,7.16,11c5.89,1.88,11.43-1.41,16.66-3.66,2.14-.91,4-3.84,4.6-6a10.23,10.23,0,0,0-1-7.71,10.07,10.07,0,0,0-6-4.59l-2.66-.36a9.94,9.94,0,0,0-5.05,1.36c-1.67.72-3.33,1.44-5,2.15l2.39-1a9.74,9.74,0,0,1-2.31.68l2.66-.35a6.54,6.54,0,0,1-1,0l2.66.35a2.81,2.81,0,0,1-.65-.16l-2.66,19.64c3.38-.25,7.2-1,9.46-3.85l1.56-2a7.4,7.4,0,0,0,1.19-3.71,9.55,9.55,0,0,0-1.19-6.38,10.34,10.34,0,0,0-11.29-4.6,31.84,31.84,0,0,1-3.34.67l2.66-.36a31,31,0,0,1-7.94.05l2.66.35c-.88-.12-1.74-.27-2.61-.45a10.61,10.61,0,0,0-7.71,1,10,10,0,0,0-3.58,13.69,11,11,0,0,0,6,4.59,12.46,12.46,0,0,0,3.94.58,15.79,15.79,0,0,0,3-.38,5,5,0,0,0,.93-.28,11.2,11.2,0,0,0,6-4.6,10,10,0,0,0-3.59-13.68,10.53,10.53,0,0,0-7.7-1l-1,.26a10,10,0,0,0-7,12.3,10.11,10.11,0,0,0,4.59,6,10.56,10.56,0,0,0,7.71,1Z"/><path class="cls-1" d="M271.27,217.44l.17.22-1-2.39.07.27a10.2,10.2,0,0,0,9.64,7.34c3.52.12,6.64-1.48,9.81-2.76l-9.73-16.72a4.71,4.71,0,0,1-.67.67l2-1.56a3.71,3.71,0,0,1-.54.33A10,10,0,0,0,277,215.33a9.52,9.52,0,0,0,4.09,4.78,11.27,11.27,0,0,0,7.7,1,56.75,56.75,0,0,0,7.59-2l-9.73-16.71-.64.64A10,10,0,0,0,283.9,214c1.47,3.5,5.17,6.35,9.14,6.15a36,36,0,0,0,7-1c1.41-.36,2.78-.88,4.23-1.12l-2.66.36a9.2,9.2,0,0,1,1.17-.08,10.36,10.36,0,0,0,7.07-2.93,10,10,0,0,0,0-14.14,10.27,10.27,0,0,0-7.07-2.93c-3.6,0-6.73,1.44-10.21,2l2.66-.36c-.73.1-1.45.17-2.18.2l7.07,17.07.63-.64c3-3,4-8.4,1.56-12.12a12.13,12.13,0,0,0-3.58-3.59,10.09,10.09,0,0,0-7.71-1,58.13,58.13,0,0,1-7.58,2l7.7,18.28a11.44,11.44,0,0,0,3.25-2.57,10.76,10.76,0,0,0,2.75-5.74,9.59,9.59,0,0,0-1.19-6.37,11.82,11.82,0,0,0-3.59-3.59c-1.89-1.22-5.55-1.88-7.7-1a35.33,35.33,0,0,1-6.35,2.39l2.65-.36a3.05,3.05,0,0,1-.8,0l9.64,7.35a8.94,8.94,0,0,0-1.25-2.88,7.48,7.48,0,0,0-2.57-2.81,7.6,7.6,0,0,0-3.4-1.79,10.23,10.23,0,0,0-7.71,1,10.1,10.1,0,0,0-4.59,6c-.56,2.43-.59,5.64,1,7.71Z"/><path class="cls-1" d="M143,220.94c5.23,0,10.25-4.6,10-10a10.17,10.17,0,0,0-10-10c-5.23,0-10.24,4.6-10,10a10.18,10.18,0,0,0,10,10Z"/><path class="cls-1" d="M142.67,220.94c5.23,0,10.24-4.6,10-10a10.18,10.18,0,0,0-10-10c-5.23,0-10.25,4.6-10,10a10.17,10.17,0,0,0,10,10Z"/><path class="cls-1" d="M138.48,206l-.06.21,1-2.39-.11.2,1.57-2a1.3,1.3,0,0,1-.31.31l2-1.56-.19.11,2.39-1-.21.07,7.71,18.28a2.38,2.38,0,0,1,.41-.23l-2.39,1a4.16,4.16,0,0,1,.9-.25l-2.66.35a21.36,21.36,0,0,1,3.2,0l3.65.11,7.3.22a10,10,0,0,0,7.07-17.07,10.63,10.63,0,0,0-7.07-2.93l-8.52-.25c-4.1-.13-8.29-.48-12,1.78a10.19,10.19,0,0,0-4.6,6l-.36,2.66a7.59,7.59,0,0,0,.86,3.85,5,5,0,0,0,1.29,2.21,7.51,7.51,0,0,0,2.81,2.58c2.28,1.2,5.17,1.89,7.7,1a12.33,12.33,0,0,0,5-2.9,12.16,12.16,0,0,0,2.88-5,10.28,10.28,0,0,0-1-7.71,10.17,10.17,0,0,0-6-4.59,10.05,10.05,0,0,0-7.7,1,10.69,10.69,0,0,0-4.6,6Z"/><path class="cls-1" d="M309.34,213.48a145.32,145.32,0,0,0,24.73-4.57c7.53-1.93,15.06-3.9,22.58-5.85l45.82-11.88c8.47-2.2,17-4.61,24.64-9.06a10.06,10.06,0,0,0-2.39-18.28c-14.43-3.68-29.43-2.37-43.77,1.06-13,3.1-25.43,8.06-38.19,12a138.39,138.39,0,0,1-21.73,5l2.66-.35c-.77.1-1.54.2-2.31.28-2.74.31-5.05.91-7.07,2.93a10.15,10.15,0,0,0-2.93,7.07,10,10,0,0,0,2.93,7.07c1.82,1.68,4.49,3.23,7.07,2.93a159.3,159.3,0,0,0,31.38-7.17c9.49-3.09,18.86-6.57,28.49-9.21A128.2,128.2,0,0,1,398,182l-2.66.35a76.84,76.84,0,0,1,19.87-.17l-2.66-.36a63.35,63.35,0,0,1,6.83,1.33L417,164.85a53.08,53.08,0,0,1-6,3l2.39-1c-6,2.51-12.38,4.06-18.68,5.69l-20.26,5.25-41,10.63c-7.45,1.93-14.89,3.95-22.53,5l2.66-.35c-1.43.18-2.85.33-4.28.45a10.63,10.63,0,0,0-7.07,2.93,10,10,0,0,0,0,14.14c1.86,1.71,4.44,3.13,7.07,2.93Z"/><path class="cls-1" d="M308,181.9c1.62-4.68.27-10.09-2.2-14.2-1.31-2.18-3.13-4-4.13-6.4l1,2.39c-.15-.39-.28-.79-.39-1.19l-16.71,9.73a28.44,28.44,0,0,0,3.36,3.13,43.19,43.19,0,0,0,5.65,4,44.55,44.55,0,0,0,6.24,2.77,27.61,27.61,0,0,0,4.55,1.25,7.74,7.74,0,0,0,4,.18,7.57,7.57,0,0,0,3.72-1.19,10.25,10.25,0,0,0,4.6-6,10.14,10.14,0,0,0-1-7.7c-1.34-2.08-3.45-4.13-6-4.6a27.78,27.78,0,0,1-5.71-1.7l2.38,1a28.64,28.64,0,0,1-6.21-3.64l2,1.57a28.5,28.5,0,0,1-3.46-3.22l-2-1.56a7.47,7.47,0,0,0-3.72-1.19,5,5,0,0,0-2.66,0,7.47,7.47,0,0,0-3.72,1.19,12,12,0,0,0-3.59,3.59,10.24,10.24,0,0,0-1,7.7,20.82,20.82,0,0,0,3.4,6.95,26.33,26.33,0,0,1,3,4.65l-1-2.39a10,10,0,0,1,.63,2.2l-.36-2.66a7.23,7.23,0,0,1,0,1.47l.35-2.66a5.62,5.62,0,0,1-.29,1.21,7.74,7.74,0,0,0-.18,4,7.47,7.47,0,0,0,1.19,3.72,10.2,10.2,0,0,0,6,4.59,10.05,10.05,0,0,0,7.7-1l2-1.56A10.05,10.05,0,0,0,308,181.9Z"/><path class="cls-1" d="M329.72,196c-4.76,4.62-9.6,9.18-14.27,13.9a84.28,84.28,0,0,0-7.25,8.41c-1.94,2.55-3.3,5.45-5.17,8l1.56-2a26,26,0,0,1-4.63,4.33c-1.85,1.46-3.65,3-5.4,4.53a108.92,108.92,0,0,0-9.74,9.95,10.67,10.67,0,0,0-2.93,7.07,10.18,10.18,0,0,0,2.93,7.07,10.07,10.07,0,0,0,7.07,2.93c2.54-.11,5.35-.93,7.07-2.93a109.1,109.1,0,0,1,13.74-13.36c1.12-.91,2.28-1.77,3.38-2.71a27,27,0,0,0,4.35-4.95c1.86-2.6,3.22-5.48,5.17-8l-1.56,2a98.51,98.51,0,0,1,9.17-9.77l10.65-10.34c3.76-3.65,3.94-10.53,0-14.14a10.18,10.18,0,0,0-14.14,0Z"/><path class="cls-1" d="M327.41,230.63q11.19,3.28,22.38,6.65a10.32,10.32,0,0,0,7.71-1A10,10,0,0,0,355.11,218q-11.19-3.36-22.39-6.65a10.3,10.3,0,0,0-7.7,1,10,10,0,0,0,2.39,18.28Z"/><path class="cls-1" d="M345.79,217l5.5-4.91c.79-.71,1.58-1.42,2.31-2.2s1.19-1.41,1.76-2.14A21.28,21.28,0,0,0,357,205.4L338.73,203a3.93,3.93,0,0,0,.53,1.31,8,8,0,0,0,.56,1.3,10.43,10.43,0,0,0,3.67,3.68,10.24,10.24,0,0,0,5.49,1.49,7.59,7.59,0,0,0,3.85-.86,10.28,10.28,0,0,0,6.15-9.14l-.36-2.66a10,10,0,0,0-2.57-4.41l-2-1.57a9.94,9.94,0,0,0-5-1.36h-.12l2.66.36a.48.48,0,0,1-.23-.07l2.39,1-.1-.07,2,1.57-.08-.09,1.56,2-.06-.11,1,2.39,0-.11-1-2.39-1.57-2-2-1.56a7.47,7.47,0,0,0-3.72-1.19,5.21,5.21,0,0,0-2.66,0,10.05,10.05,0,0,0-4.73,2,7.56,7.56,0,0,0-2.57,2.81,11.44,11.44,0,0,1-.87,1.31l1.56-2a32.48,32.48,0,0,1-4,4l-4.74,4.24a9.68,9.68,0,0,0-2.07,10.93,7.61,7.61,0,0,0,2.07,3.21,10.07,10.07,0,0,0,7.07,2.93l2.66-.35a10,10,0,0,0,4.41-2.58Z"/><path class="cls-1" d="M358.82,206.9q6.36-1.58,12.66-3.35l-5.32-19.29-1.91.61a10.54,10.54,0,0,0-6,4.6,10,10,0,0,0,3.59,13.68,11.41,11.41,0,0,0,7.71,1c5.58-1,11.19-1.88,16.74-3,2.66-.54,5.3-1.14,7.91-1.84s5.37-1.87,8.12-2.38l-2.66.36a8.25,8.25,0,0,1,1.79-.05l-2.66-.36.45.07,2.66-19.64a15.06,15.06,0,0,0-6.24.86,10.72,10.72,0,0,0-6,4.59,10.28,10.28,0,0,0-1,7.71,10.14,10.14,0,0,0,4.6,6c2.26,1.2,5.21,1.93,7.71,1a10.51,10.51,0,0,1,1.75-.47l-2.65.36a9.21,9.21,0,0,1,1.82,0,10,10,0,0,0,7.07-2.93,10.32,10.32,0,0,0,2.75-5.74,9.63,9.63,0,0,0-1.19-6.38c-1.33-2.06-3.45-4.16-6-4.59a19.24,19.24,0,0,0-8.67.22c-1.43.38-2.83.91-4.25,1.34-3,.9-6,1.65-9,2.3-6.09,1.3-12.24,2.29-18.38,3.35l5.32,19.29,1.91-.61a10.49,10.49,0,0,0,6-4.6,10,10,0,0,0-11.29-14.69q-6.3,1.78-12.66,3.35c-5.08,1.26-8.61,7.26-7,12.3a10.2,10.2,0,0,0,12.3,7Z"/><path class="cls-1" d="M406.36,197.21l.31-.13-2.38,1a42,42,0,0,1,9.23-2.43l10-1.76c2.33-.41,4.82-2.62,6-4.59a10,10,0,0,0-3.58-13.68l-2.39-1a10,10,0,0,0-5.32,0l-10.34,1.82c-1.62.29-3.23.57-4.82,1a48.12,48.12,0,0,0-6.75,2.53c-2.14.91-4,3.86-4.59,6a10.22,10.22,0,0,0,1,7.71,10.12,10.12,0,0,0,6,4.59l2.66.36a10,10,0,0,0,5.05-1.37Z"/><path class="cls-1" d="M346.92,234.88a69.18,69.18,0,0,0,10.82-1.3,7.6,7.6,0,0,0,3.4-1.79,10.33,10.33,0,0,0,3.58-10.51l-1-2.39a10,10,0,0,0-3.58-3.59l-2.39-1a10.21,10.21,0,0,0-5.32,0c-1,.21-2.07.38-3.12.52l2.66-.36a50.13,50.13,0,0,1-5,.43,7.59,7.59,0,0,0-3.85.86,9,9,0,0,0-5.29,5.29,7.49,7.49,0,0,0-.86,3.85l.36,2.66a10,10,0,0,0,2.57,4.41l2,1.56a10,10,0,0,0,5.05,1.37Z"/><path class="cls-1" d="M324.21,232.83c.44-.1,1.23.65,1.53.87.73.53,1.43,1.09,2.21,1.56a21,21,0,0,0,5.21,2.2,34.3,34.3,0,0,0,12,.84c4.16-.34,8.35-.88,12.49-1.46,3.69-.52,7.74-2.39,8.31-6.52.31-2.27-.77-4.51-1.48-6.62l-2.38-7c-1-3-5.86-1.73-4.82,1.33l2.54,7.45c.35,1,.74,2.08,1.05,3.14a1.71,1.71,0,0,1-.17,1.71c-1.06,1.46-3.45,1.55-5.06,1.75-2.36.28-4.71.58-7.07.85-4.52.53-9.21,1-13.67-.2a16.56,16.56,0,0,1-5.47-2.5c-2.05-1.46-3.86-2.84-6.54-2.24-3.13.7-1.81,5.52,1.33,4.82Z"/><path class="cls-1" d="M305.85,249.86c2.27-1,4.22-3,6.11-4.54s3.93-3.38,5.84-5.13a66.64,66.64,0,0,1,5.15-4.81,3,3,0,0,1,4.08.19c2.32,2.24,5.86-1.29,3.54-3.54a8.21,8.21,0,0,0-7.34-2.18c-2.75.55-4.68,2.77-6.62,4.61q-3.15,3-6.44,5.84c-2.11,1.82-4.29,4.1-6.85,5.24a2.53,2.53,0,0,0-.89,3.43,2.56,2.56,0,0,0,3.42.89Z"/><path class="cls-1" d="M316.28,209c-3-.3-5,2.45-6.69,4.52L303.41,221l-12.36,15a2.56,2.56,0,0,0,0,3.53,2.5,2.5,0,0,0,3.53,0L306,225.72l5.55-6.73,2.85-3.46c.48-.56,1.08-1.59,1.89-1.51a2.51,2.51,0,0,0,2.5-2.5,2.55,2.55,0,0,0-2.5-2.5Z"/><path class="cls-1" d="M282.29,246.84a8.45,8.45,0,0,1-2.93,3.89l3,3.93a33.58,33.58,0,0,0,2.6-3.34l-4.57-1.93c-.36,1.3-1.55,2.31-2.42,3.29l-3.42,3.89a2.5,2.5,0,0,0,3.53,3.53,16.6,16.6,0,0,0,3.68-4.45,2.5,2.5,0,1,0-4.31-2.53,97.81,97.81,0,0,1-8.82,10,2.53,2.53,0,0,0,1.77,4.27l6.81.34a26.58,26.58,0,0,0,6.67-.12,12.24,12.24,0,0,0,5.44-3.26l5.07-4.48a2.51,2.51,0,0,0-1.1-4.18l-5.52-1.31-3-.71a9.59,9.59,0,0,0-2.94-.49c-1.84.14-2.93,2.14-4,3.43l-3.67,4.44c-1.12,1.35-.89,3.73,1.1,4.18a23.77,23.77,0,0,0,9.35.45c3-.54,5.52-3.82,3.59-6.7a2.61,2.61,0,0,0-2.83-1.15l-7.25,1.84,2.43,4.18a12.8,12.8,0,0,1,5.49-2.54,2.5,2.5,0,0,0-1.32-4.83,18.37,18.37,0,0,0-7.71,3.83c-2,1.67.19,4.75,2.44,4.18l7.25-1.84L284,261.54a1.42,1.42,0,0,1,0-.62c0-.42.48-.19-.08-.13-.72.07-1.42.17-2.16.18a21.82,21.82,0,0,1-5-.53l1.1,4.18,3-3.62,1.36-1.65.82-1,.27-.32c.45-.48.34-.46-.31,0h-1.33c3.5.63,7,1.65,10.43,2.48l-1.1-4.18-4.76,4.2c-1.1,1-2.14,2-3.65,2.27a26.9,26.9,0,0,1-5.67-.1l-6.38-.32,1.77,4.27a109.47,109.47,0,0,0,9.59-11l-4.31-2.53a13,13,0,0,1-2.9,3.45l3.53,3.53,4-4.53a12.56,12.56,0,0,0,3.13-4.85c.78-2.83-3-4.2-4.57-1.92a24,24,0,0,1-1.81,2.32,2.51,2.51,0,0,0-.2,3.28,2.48,2.48,0,0,0,3.23.65,14.33,14.33,0,0,0,5.22-6.88,2.5,2.5,0,1,0-4.82-1.33Z"/><path class="cls-1" d="M360.42,219.38c3.22,0,3.22-5,0-5s-3.22,5,0,5Z"/><path class="cls-1" d="M258.6,150.61a47,47,0,0,1,5.63,3.85l3-3.92-1.81-1.24c-2.33-1.58-5.19,2.07-3,3.93a142.65,142.65,0,0,0,21.83,15.5c2.8,1.61,5.32-2.71,2.53-4.32A135.77,135.77,0,0,1,266,149.69l-3,3.93,1.82,1.23c2.32,1.58,5.25-2.14,3-3.92a55.7,55.7,0,0,0-6.65-4.64c-2.78-1.63-5.3,2.69-2.52,4.32Z"/><path class="cls-1" d="M262.44,151l5.32-.42c.87-.07,1.74-.16,2.6-.21.23,0,.77.12.38-.1a2.69,2.69,0,0,1,.62.64,23.53,23.53,0,0,1,4.33,7.76l1.15-2.82c.6-.25-.17-.47-.47-.74-.65-.61-1.23-1.29-1.83-1.95l-3.92-4.23-3,3.93a28.23,28.23,0,0,1,6.82,4.27c2.14,1.85,3.8,4.21,6.12,5.85a7.76,7.76,0,0,0,7.84.89,8.24,8.24,0,0,0,2.93-3,3.77,3.77,0,0,1,2.69-1.66,2.51,2.51,0,0,0,1.1-4.18c-2.64-2.2-5.84-3.28-9-4.5l-10.15-3.87c-2.12-.81-3.84,1.91-2.82,3.67a50.58,50.58,0,0,0,5.11,7.3c1.76,2.08,3.73,4.39,6.39,5.28a5.08,5.08,0,0,0,4.06-.2,3.28,3.28,0,0,0,1.55-4c-.53-1.51-2.2-2.36-3.54-3.05a23.91,23.91,0,0,0-4.22-1.67c-3.09-.9-4.41,3.92-1.33,4.82,1.56.45,3.78,1.14,4.91,2.34l-.64-1.11,0-.09.34-1.26c.07-.15.76-.45.75-.47s-.43-.09-.5-.12a4.61,4.61,0,0,1-1.24-.82,26.75,26.75,0,0,1-2.74-2.89,43.76,43.76,0,0,1-4.62-6.61l-2.82,3.67,9.24,3.53c2.57,1,5.58,1.77,7.73,3.56l1.1-4.18a8,8,0,0,0-3.4,1.47,13,13,0,0,0-2.62,3c-1.18,1.61-3.27.13-4.33-.88-1.8-1.73-3.36-3.63-5.32-5.2a33.18,33.18,0,0,0-6.88-4.26c-2.51-1.14-5.05,1.74-3,3.93,1.82,2,3.58,4,5.47,5.91s4.2,2.89,6.8,1.79a2.47,2.47,0,0,0,1.15-2.82A28.15,28.15,0,0,0,274.64,147c-1.55-1.64-3.3-1.79-5.43-1.62l-6.77.54a2.57,2.57,0,0,0-2.5,2.5,2.52,2.52,0,0,0,2.5,2.5Z"/><path class="cls-1" d="M297.58,162.4l2.67.1a2.5,2.5,0,0,0,.66-4.91,12.73,12.73,0,0,1-1.37-.57,2.53,2.53,0,0,0-3.23.64,2.48,2.48,0,0,0,.2,3.28c2.89,2.53,6.48,3.46,10,4.74,3.35,1.22,6.52,4.12,10.43,3.92a2.56,2.56,0,0,0,2.5-2.5,2.53,2.53,0,0,0-2.5-2.5,7.42,7.42,0,0,1-4-1.35,33.25,33.25,0,0,0-4.78-2.28c-2.81-1.05-5.92-1.67-8.09-3.56l-3,3.92a22.94,22.94,0,0,0,2.57,1.08l.67-4.91-2.67-.1a2.5,2.5,0,0,0,0,5Z"/><path class="cls-1" d="M300.66,162.91a74.23,74.23,0,0,0,12.82,5.63,2.52,2.52,0,0,0,3.08-1.74,2.57,2.57,0,0,0-1.75-3.08c-1.07-.36-2.14-.73-3.2-1.14l-1.47-.59-.24-.1-.84-.36q-3-1.34-5.87-2.94a2.5,2.5,0,0,0-2.53,4.32Z"/><path class="cls-1" d="M283,179.56c3.22,0,3.22-5,0-5s-3.22,5,0,5Z"/><path class="cls-1" d="M133.06,213.56a4.31,4.31,0,0,1-2.49,2.14l1.93,4.57a8.21,8.21,0,0,0,3.59-3.21l-4.32-2.53a7,7,0,0,1-2.49,2.13l-4.38,2.75-8.55,5.37a2.53,2.53,0,0,0,.6,4.57c4.91,1.46,9.61-.55,14-2.69a77.62,77.62,0,0,1,13.35-5.13c1.89-.53,2.66-3.67.6-4.57a14.25,14.25,0,0,0-14.93,2,2.53,2.53,0,0,0,0,3.54,2.56,2.56,0,0,0,3.54,0,9,9,0,0,1,8.86-1.22l.6-4.57a83.29,83.29,0,0,0-12.86,4.82c-3.64,1.72-7.64,4.25-11.81,3l.6,4.57,9.39-5.9c2.75-1.73,6.08-3.28,7.83-6.14s-2.59-5.23-4.32-2.53A3.64,3.64,0,0,1,130,216c-2.59,1.14-.75,5.44,1.92,4.57a9.51,9.51,0,0,0,5.48-4.43c1.56-2.82-2.76-5.35-4.32-2.53Z"/><path class="cls-1" d="M93.26,128.44c.15.16.3.32.44.49l-.39-.5A15.43,15.43,0,0,1,95,131.6a8.7,8.7,0,0,0,2.31,3.3,2.62,2.62,0,0,0,2.43.65,2.68,2.68,0,0,0,1.75-1.75q1.28-3.15,2.25-6.4a7.71,7.71,0,0,0,.49-2.11,2.9,2.9,0,0,0-2.16-2.85,3.65,3.65,0,0,0-2.62.46c-.47.26-.92.51-1.41.73l.6-.26a10.89,10.89,0,0,1-2.68.74l.66-.09a10.78,10.78,0,0,1-2.78,0,2.44,2.44,0,0,0-1.76.73,2.47,2.47,0,0,0,0,3.53,3,3,0,0,0,1.76.74,12.36,12.36,0,0,0,4.41-.27,13,13,0,0,0,2.32-.81c.56-.24,1.07-.59,1.63-.84l-.6.25.29-.08-.67.09h.19l-.67-.09.08,0-.59-.25.07,0-.5-.39.06,0-.39-.51,0,.08-.25-.6,0,.12-.09-.66v.13l.09-.67a14.9,14.9,0,0,1-.58,2c-.2.63-.4,1.27-.62,1.9-.44,1.32-.93,2.61-1.46,3.9l4.18-1.1a5.25,5.25,0,0,1-.83-.87l.39.51a14.91,14.91,0,0,1-1.52-2.91,10.51,10.51,0,0,0-2.06-3.2,2.5,2.5,0,0,0-3.53,3.54Z"/><path class="cls-1" d="M258.45,150.65c3.22,0,3.22-5,0-5s-3.22,5,0,5Z"/><path class="cls-1" d="M255.52,148.5l.68.19a1,1,0,0,0,.5,0,1,1,0,0,0,.47-.15,1,1,0,0,0,.35-.32.93.93,0,0,0,.22-.43l.05-.33a1.29,1.29,0,0,0-.17-.63l-.2-.25a1.18,1.18,0,0,0-.55-.32l-.69-.19a.94.94,0,0,0-.5,0,1,1,0,0,0-.46.15.84.84,0,0,0-.35.32.94.94,0,0,0-.23.43l0,.33a1.29,1.29,0,0,0,.17.63l.19.25a1.21,1.21,0,0,0,.56.32Z"/><path class="cls-1" d="M266.25,269.27a3.73,3.73,0,0,0,3.48-2.25,1.5,1.5,0,0,0-1.41-1.92,1.75,1.75,0,0,0-1,.25,1.63,1.63,0,0,0-.49.45c-.1.11-.51.5-.1.19a1.28,1.28,0,0,0,0,2.16,8,8,0,0,0,4.83,1.07,30.78,30.78,0,0,0,5.21-.78,1.26,1.26,0,0,0,.87-1.54,1.28,1.28,0,0,0-1.54-.87,27.91,27.91,0,0,1-4.35.68A5.92,5.92,0,0,1,268,266v2.16a3.47,3.47,0,0,0,.64-.63l.16-.23a.74.74,0,0,1-1,.22l-.45-.45-.07-.14v-.66c.06-.24,0,0-.11.1a.84.84,0,0,1-.27.21,1.47,1.47,0,0,1-.71.2,1.25,1.25,0,0,0,0,2.5Z"/><path class="cls-1" d="M112.72,230.32c1-.44,2-.9,2.94-1.33l-.3.13a3.21,3.21,0,0,1,.8-.24l-.34.05a.67.67,0,0,1,.2,0l-.33-.05.06,0-.3-.13,0,0-.45-.45,0,0-.12-.3a.3.3,0,0,1,0,.1l0-.34c0,.24,0,.48,0,.71l.91-1.2h-.07l.33,0a2.26,2.26,0,0,1-.45,0l.33,0-.22,0a1.25,1.25,0,0,0-.66,2.41,3.35,3.35,0,0,0,1.41,0,1.11,1.11,0,0,0,.65-.45,1.24,1.24,0,0,0,.27-.76c0-.29,0-.58-.07-.87a1.43,1.43,0,0,0-1.06-1.23,3.41,3.41,0,0,0-2.09.43c-.94.41-1.87.84-2.8,1.26a1.25,1.25,0,0,0,.3,2.29,1.4,1.4,0,0,0,1-.13Z"/></svg>