<svg id="Layer_1" data-name="Layer 1" xmlns="http://www.w3.org/2000/svg" viewBox="0 0 70.12 66.12"><defs><style>.cls-1{fill:#1d1d1b;}</style></defs><path class="cls-1" d="M18,54.62a3.73,3.73,0,0,1-2.64-6.37L50.09,13.5a3.73,3.73,0,0,1,5.27,5.28L20.61,53.53A3.71,3.71,0,0,1,18,54.62ZM52.73,13.4a2.77,2.77,0,0,0-1.94.8L16,49a2.74,2.74,0,0,0,0,3.86,2.81,2.81,0,0,0,3.87,0L54.66,18.07a2.74,2.74,0,0,0-1.93-4.67Z"/><path class="cls-1" d="M52.73,54.62a3.71,3.71,0,0,1-2.64-1.09L15.33,18.78a3.73,3.73,0,0,1,5.28-5.28L55.36,48.25a3.73,3.73,0,0,1-2.63,6.37ZM18,13.4A2.74,2.74,0,0,0,16,18.07L50.79,52.82a2.81,2.81,0,0,0,3.87,0,2.74,2.74,0,0,0,0-3.86L19.91,14.2A2.77,2.77,0,0,0,18,13.4Z"/><path class="cls-1" d="M17.7,13.21c-2.36.42-4.13,3.31-2.19,5.3.61.62,1.46.86,2.11,1.41s1.19,1.46,1.85,2.12A13.54,13.54,0,0,0,22,23.8a5.77,5.77,0,0,1,1.63,1.81,16.43,16.43,0,0,0,4.47,4.08,17,17,0,0,1,3.57,3.75,42,42,0,0,0,3.76,4.35c2.65,2.59,5.62,4.82,8.32,7.35a27.36,27.36,0,0,1,3.81,4.24c1.29,1.87,2.35,4,4.76,4.55a2.54,2.54,0,0,0,3.07-1.75c.58-2.49-1.15-4.15-2.71-5.83s-3.5-2.8-5.92-2.33a2.51,2.51,0,0,0-1.49,3.67l1,1.49,3.92-3A86.63,86.63,0,0,1,42.39,38L40,42.12A5.64,5.64,0,0,1,43.4,44l2.43-4.18c-.61-.17-1.17-1-1.59-1.44C43.6,37.64,43,37,42.33,36.25c-1.21-1.33-2.42-2.68-3.68-4a44.35,44.35,0,0,0-4-3.67c-.95-.77-2.81-1.73-3.3-2.93l-4.18,2.43,1.49,1.55C31,32,34.35,28.52,32.24,26.12a114.31,114.31,0,0,0-8-8.18c-1.36-1.27-3.1-3.49-5.11-3.4-2.52.12-3.08,2.86-2.21,4.79.73,1.63,2.19,2.55,3.56,3.58a34.52,34.52,0,0,1,3.92,3.53c1.29,1.3,2.54,2.65,3.78,4,.6.66,1.19,1.32,1.75,2a6.21,6.21,0,0,1,1.42,2V33.18c.32-.31.31-.33,0,0l-.32.27c-.33.27-.65.55-1,.83-.63.57-1.24,1.16-1.83,1.78a40,40,0,0,0-3.36,4.1,2.51,2.51,0,0,0,.89,3.42,2.57,2.57,0,0,0,3.43-.89,37.45,37.45,0,0,1,5.69-6c3-2.7.12-6-1.84-8.27S29.1,24,27,22a39.33,39.33,0,0,0-3.39-2.93c-.5-.38-1.05-.73-1.54-1.14-.95-.78-.12-.54-.78.39l-2.16,1.24h.29l-1.26-.34a22,22,0,0,1,2.55,2.28c.95.88,1.89,1.78,2.81,2.69,1.79,1.78,3.51,3.61,5.18,5.5l3.54-3.54-1.5-1.54c-1.62-1.69-5.15,0-4.18,2.43.88,2.15,2.34,3.37,4.12,4.76a43.5,43.5,0,0,1,4.43,4c1.46,1.51,2.86,3.07,4.27,4.62S42.31,44,44.5,44.59a2.52,2.52,0,0,0,2.43-4.18,10,10,0,0,0-5.65-3.11,2.52,2.52,0,0,0-2.43,4.18,86.84,86.84,0,0,0,7.84,8.21c2,1.83,5.58-.57,3.93-3l-1-1.49-1.49,3.67c-.4.08,0,0,.21.22s.57.54.84.83.61.67.91,1c.61.68.33.76.52,0l3.07-1.75c-.6-.14-.9-.91-1.23-1.43a29,29,0,0,0-2-2.7,37.39,37.39,0,0,0-4.31-4.41c-3.05-2.71-6.35-5.18-9-8.28-1.36-1.57-2.5-3.34-4-4.83s-3.69-2.4-5-4.08c-.64-.82-1.14-1.74-1.86-2.51a15.58,15.58,0,0,0-2.84-2,16.28,16.28,0,0,1-2-2.2A9,9,0,0,0,20,15.49a6.2,6.2,0,0,0-.69-.44c-.37-.24-.46-.27-.27-.08l.64,1.11-.08-.29v1.33l.08-.3L19,17.92c-.43.18-.44.21,0,.11a2.5,2.5,0,1,0-1.32-4.82Z"/><path class="cls-1" d="M48.3,48c3.22,0,3.23-5,0-5s-3.22,5,0,5Z"/><path class="cls-1" d="M24.49,39.91a63.35,63.35,0,0,0-5.42,4.94c-.84.86-1.65,1.75-2.43,2.66-1.19,1.37-2.3,2.88-1.38,4.76a3.07,3.07,0,0,0,1.89,1.56A3.12,3.12,0,0,0,20,53c1-.87,2-1.85,3-2.77,1.93-1.81,3.86-3.61,5.78-5.43,2.15-2,4.27-4.11,6.31-6.26A2.5,2.5,0,1,0,31.53,35c-2.4,2.52-4.9,4.93-7.43,7.32l-3.74,3.51-2,1.84-1,1-.46.44c-.16.14-.63.38-.16.15L18,48.91h-.19l1.26.34.51.48L19.92,51c0,.32-.54,1-.12.48l.47-.55,1.05-1.18c.68-.75,1.38-1.47,2.1-2.18A58.16,58.16,0,0,1,28,43.45a2.52,2.52,0,0,0,0-3.54,2.58,2.58,0,0,0-3.54,0Z"/><path class="cls-1" d="M38.15,32.89a50.34,50.34,0,0,0,4-3.39c.39-.44.75-.91,1.09-1.38l.33-.45c0-.05.36-.49.19-.27a19.5,19.5,0,0,1,1.89-2l4.23-4,2.1-2,1.12-1.06s.33-.28.15-.15l.36-.22c.32-.17.15-.13-.52.12l-1.76-.73.1.1-.64-1.1,0,.14V15.19c-.05.26,0,.22.07-.12l-.38.51-.57.76c-.52.66-1.06,1.32-1.61,2C47.28,19.58,46.14,20.82,45,22c-2.4,2.49-4.87,4.93-7.32,7.39A2.5,2.5,0,0,0,41.19,33c4.71-4.74,9.55-9.35,13.57-14.72a3.92,3.92,0,0,0,1-2.37,2.78,2.78,0,0,0-2.64-2.75c-1.8-.15-3.34,1.53-4.53,2.66-2.32,2.21-4.68,4.38-7,6.62a18.7,18.7,0,0,0-1.73,1.95c-.53.68-.88,1.24-1.34,1.73-1.22,1.31-2.56,2-3.94,3.28a2.5,2.5,0,1,0,3.54,3.54Z"/></svg>