<svg id="Layer_1" data-name="Layer 1" xmlns="http://www.w3.org/2000/svg" viewBox="0 0 333.28 269.21"><defs><style>.cls-1{fill:#a2bfd9;}</style></defs><path class="cls-1" d="M45.58,96.68c-3.83-16.23,10-29.77,24.32-34.23,8-2.51,17.5-3.84,25.9-2.64,7.83,1.11,12.78,7.09,15.2,14.3,6.09,18.12-1.32,37.47-9.86,53.46-9.08,17-19.23,33.35-27.4,50.89A429.89,429.89,0,0,0,50.57,240.1c-2.7,9.29,11.77,13.25,14.46,4a405.58,405.58,0,0,1,24.41-63.84c9.82-20.24,23-38.91,31.59-59.69,7.86-18.9,11.45-43.42-.81-61.4C114,50,105,45.35,94,44.66A77.28,77.28,0,0,0,62.86,49c-21,7.85-37.22,28.39-31.75,51.64,2.22,9.39,16.68,5.42,14.47-4Z"/><path class="cls-1" d="M121.27,58.66a157.94,157.94,0,0,0-.22,48.19,119.22,119.22,0,0,0,5.4,22.83c2.2,6.07,6,11.77,12.67,13.15,14.87,3,23.64-17.06,25.59-28.57,2.62-15.48-1.55-31,.6-46.46l-14.74-2a171.71,171.71,0,0,0,2.94,48.09c1.32,6.48,2.54,14,7.58,18.77,5.72,5.38,13.53,3.63,19.58-.18,21.82-13.7,22.27-44.46,23.42-67.28.77-15.46.52-31.35-3.79-46.33-1.91-6.65-5.18-13.12-12.53-14.64C181.1,2.84,174.15,7,171,12.72c-3.49,6.32-2.65,13.79-2.12,20.67.57,7.4,1.26,14.78,2.22,22.13,1.89,14.39,4.65,28.74,10,42.3,3,7.57,6.42,15.19,11.13,21.85s13.45,11.46,20.49,5c5.29-4.81,7.14-13.94,8.26-20.68a76.22,76.22,0,0,0-.3-26.48c-1.58-8.79-14.15-5.94-14.73,2-.92,12.6.93,26.43,10.23,35.8,8.36,8.42,21.59,11.72,32.2,5.51,9-5.26,13.28-15.64,14.81-25.5,1.38-8.85,3.32-25.28-8.59-27.77-2.51-.52-5.52-.15-7.3,1.93-6.72,7.84-6.72,20.29-6.43,30.2s2.37,20.24,9,28c16.4,19.22,42.85,7.22,58.14-6.61,7.18-6.48-3.45-17.06-10.6-10.6-8.71,7.87-26.83,19.43-36.71,6.86-3.7-4.7-4.59-11.19-4.81-17A92.36,92.36,0,0,1,256.07,90c.2-2.72-.09-7.73,1.77-9.89l-7.3,1.92c-1.68-2.33-2.19-2.56-1.52-.71a9.88,9.88,0,0,0,0,1.54,43.13,43.13,0,0,1-.08,4.55,45.31,45.31,0,0,1-1.33,9.12c-1.18,4.55-3.26,9.93-7.93,11.92-5.43,2.31-11.46-1.29-14.66-5.66-4.8-6.56-4.72-15.55-4.16-23.26l-14.73,2a55,55,0,0,1-1.45,26.14,40.69,40.69,0,0,1-1.36,4.13l-.36.94q-1.41,2.3.67-.15l3.79,1c-3.53-1.51-5.34-6.17-7.08-9.39a101.26,101.26,0,0,1-6.05-13.54,159.66,159.66,0,0,1-6.81-26.18c-1.69-9.45-2.68-19-3.45-28.57-.35-4.29-1.18-9-.66-13.28a9.14,9.14,0,0,1,1.37-3.46c.05-.1,1.3-.48.07-.4-1,.06,0,.14,0,1,.12,2.09,1.4,4.55,1.89,6.61.57,2.35,1.05,4.73,1.42,7.12a115.94,115.94,0,0,1,1.23,16.12c.18,10-.5,20-1.24,30-1,12.84-2.46,29.89-13.24,38.66a16.44,16.44,0,0,1-4.52,2.78c.71-.25,1.08,1.25.56.18a17.36,17.36,0,0,1-1.07-3,131.36,131.36,0,0,1-3.41-16.67,158.15,158.15,0,0,1-.92-35.73c.67-8.31-13.56-10.39-14.73-2-1.77,12.73.09,25.13,0,37.88a52.64,52.64,0,0,1-1.9,14.46c-.91,3.1-3.45,10.6-7,11.65-.32.09.22.28.29.29-.39-.05-1.14-2.07-1.27-2.4a64.89,64.89,0,0,1-2.46-8.34,130.33,130.33,0,0,1-3.29-17.08,137.4,137.4,0,0,1,.57-37.62c.62-4-1-8-5.24-9.22-3.55-1-8.61,1.24-9.23,5.23Z"/><path class="cls-1" d="M220.63,58.86a244.69,244.69,0,0,1,34.94-33.47c3.21-2.53,2.59-8,0-10.61-3.11-3.18-7.44-2.49-10.6,0A245.3,245.3,0,0,0,210,48.25c-6.24,7.3,4.32,18,10.61,10.61Z"/></svg>