<svg id="Layer_4" data-name="Layer 4" xmlns="http://www.w3.org/2000/svg" viewBox="0 0 159.51 150.67"><defs><style>.cls-1{fill:none;stroke:#e4ddd4;stroke-miterlimit:10;stroke-width:3px;}.cls-2{fill:#1d1d1b;}</style></defs><circle class="cls-1" cx="76.13" cy="75.72" r="68.96"/><rect class="cls-2" x="27.34" y="50.22" width="16.31" height="50.08" rx="7.2"/><path class="cls-2" d="M36.56,100.57H34.42c-4.07,0-7.38-3-7.38-6.78V56.73C27,53,30.35,50,34.42,50h2.14c4.07,0,7.38,3,7.38,6.78V93.79C43.94,97.53,40.63,100.57,36.56,100.57ZM34.42,50.49a6.54,6.54,0,0,0-6.79,6.24V93.79A6.54,6.54,0,0,0,34.42,100h2.14a6.54,6.54,0,0,0,6.79-6.24V56.73a6.54,6.54,0,0,0-6.79-6.24Z"/><rect class="cls-2" x="22.75" y="70.64" width="6.59" height="9.75" rx="2.91"/><path class="cls-2" d="M26.73,80.66H25.37A2.8,2.8,0,0,1,22.46,78V73a2.8,2.8,0,0,1,2.91-2.67h1.36A2.81,2.81,0,0,1,29.64,73V78A2.81,2.81,0,0,1,26.73,80.66Zm-1.36-9.75A2.24,2.24,0,0,0,23.05,73V78a2.24,2.24,0,0,0,2.32,2.13h1.36A2.24,2.24,0,0,0,29.05,78V73a2.24,2.24,0,0,0-2.32-2.13Z"/><rect class="cls-2" x="108.3" y="50.22" width="16.31" height="50.08" rx="7.2" transform="translate(232.91 150.52) rotate(-180)"/><path class="cls-2" d="M117.52,100.57h-2.13c-4.07,0-7.38-3-7.38-6.78V56.73C108,53,111.32,50,115.39,50h2.13c4.07,0,7.39,3,7.39,6.78V93.79C124.91,97.53,121.59,100.57,117.52,100.57Zm-2.13-50.08a6.54,6.54,0,0,0-6.79,6.24V93.79a6.54,6.54,0,0,0,6.79,6.24h2.13a6.55,6.55,0,0,0,6.8-6.24V56.73a6.55,6.55,0,0,0-6.8-6.24Z"/><rect class="cls-2" x="122.6" y="70.64" width="6.59" height="9.75" rx="2.91" transform="translate(251.8 151.03) rotate(-180)"/><path class="cls-2" d="M126.58,80.66h-1.36A2.8,2.8,0,0,1,122.31,78V73a2.8,2.8,0,0,1,2.91-2.67h1.36A2.81,2.81,0,0,1,129.49,73V78A2.81,2.81,0,0,1,126.58,80.66Zm-1.36-9.75A2.24,2.24,0,0,0,122.9,73V78a2.24,2.24,0,0,0,2.32,2.13h1.36A2.24,2.24,0,0,0,128.9,78V73a2.24,2.24,0,0,0-2.32-2.13Z"/><rect class="cls-2" x="48.26" y="40.56" width="17" height="69.62" rx="7.51"/><path class="cls-2" d="M58.18,110.45H55.35c-4.07,0-7.38-3-7.38-6.78V47.08c0-3.74,3.31-6.79,7.38-6.79h2.83c4.07,0,7.38,3.05,7.38,6.79v56.59C65.56,107.41,62.25,110.45,58.18,110.45ZM55.35,40.84a6.53,6.53,0,0,0-6.79,6.24v56.59a6.54,6.54,0,0,0,6.79,6.24h2.83A6.54,6.54,0,0,0,65,103.67V47.08a6.54,6.54,0,0,0-6.79-6.24Z"/><rect class="cls-2" x="86.81" y="40.71" width="17" height="69.62" rx="7.51"/><path class="cls-2" d="M96.72,110.6H93.89c-4.07,0-7.38-3-7.38-6.79V47.22c0-3.74,3.31-6.79,7.38-6.79h2.83c4.07,0,7.38,3,7.38,6.79v56.59C104.1,107.55,100.79,110.6,96.72,110.6ZM93.89,41a6.54,6.54,0,0,0-6.79,6.24v56.59a6.54,6.54,0,0,0,6.79,6.24h2.83a6.54,6.54,0,0,0,6.79-6.24V47.22A6.54,6.54,0,0,0,96.72,41Z"/><rect class="cls-2" x="56.02" y="70.57" width="42.17" height="9.89" rx="4.94"/><path class="cls-2" d="M92.81,80.73H61.4a5.23,5.23,0,1,1,0-10.43H92.81a5.23,5.23,0,1,1,0,10.43ZM61.4,70.84a4.69,4.69,0,1,0,0,9.35H92.81a4.69,4.69,0,1,0,0-9.35Z"/></svg>