<svg xmlns="http://www.w3.org/2000/svg" viewBox="0 0 159.51 150.67"><defs><style>.cls-1{fill:none;stroke:#e4ddd4;stroke-miterlimit:10;stroke-width:3px;}.cls-2{fill:#1d1d1b;}</style></defs><g id="Layer_4" data-name="Layer 4"><circle class="cls-1" cx="76.13" cy="75.17" r="68.96"/></g><g id="Layer_6" data-name="Layer 6"><path class="cls-2" d="M85.78,114.12l-17.85,4.16-.12-.13c-1.86-1.93,1.38-26.28,2-30.61L51.62,92l-5.27,11.15L36.26,105.8,32.77,104l2.52-19L24.38,68.3l12.82-3,9.72,6.59L64.65,68l-5.19-9.17c-3.82-7.06-8.57-14-8.62-14.07l0,0a10.05,10.05,0,0,1-.72-3.17c.14-.93,3.65-1.84,5.15-2.2l10.57-2.46,6.56,5.85L84.18,54.25,92,61.14,114.5,55.9a8.5,8.5,0,0,1,4.33.12,8.22,8.22,0,0,0,2.2.38,11.56,11.56,0,0,1,5.19,1.42l.78.47c2.53,1.48,4.06,2.38,4.37,3.75a7.26,7.26,0,0,0,.53,1.35c.42.91.86,1.85.37,2.77a21.88,21.88,0,0,1-4.08,4.51c-.42.35-.89.8-1.39,1.29a18.33,18.33,0,0,1-3.39,2.8c-1.64.9-24.26,5.72-26.79,6.25Zm-17.57,3.53,17.07-4L96.12,80.56l.2,0c7-1.48,25.44-5.48,26.77-6.22a17.31,17.31,0,0,0,3.25-2.69c.51-.49,1-1,1.42-1.32A21.11,21.11,0,0,0,131.7,66c.37-.69,0-1.48-.39-2.32a8.75,8.75,0,0,1-.56-1.44c-.27-1.17-1.72-2-4.13-3.44l-.79-.47a10.89,10.89,0,0,0-4.91-1.34,8.88,8.88,0,0,1-2.38-.41,7.84,7.84,0,0,0-3.91-.1L91.75,61.75l-8-7.11L71.89,43.16l-6.3-5.63L55.37,39.91c-2.4.56-4.57,1.35-4.65,1.7a9.63,9.63,0,0,0,.69,2.91c.31.46,4.91,7.22,8.63,14.08l5.53,9.8L46.74,72.51,37,65.92,25.35,68.64,35.94,84.81l-2.5,18.88,3,1.52,9.5-2.47,5.28-11.16,19.35-4.79-.06.39C68.91,98.44,67.07,115.54,68.21,117.65Z"/><path class="cls-2" d="M44.81,74.58Q40.29,72,36,69.15c-1.81-1.2-4.78-.37-6.18,1.11a3.76,3.76,0,0,0,0,5.4c2.8,3.27,5.93,6.91,6,11.28s-1.14,9.19-1.8,13.64c-.41,2.73,2.77,4.6,5.65,4,6.31-1.37,7.72-7.35,9.55-11.91.89-2.21,1.37-3.61,4.06-4.42,3.35-1,6.76-1.88,10.14-2.79q19.6-5.28,39.41-9.8c6.71-1.53,13.43-2.93,20.15-4.39,2.82-.61,5.72-1.59,6.79-4.24,1-2.39-.34-4.9-2.64-6.1-4.67-2.45-11.94-1.07-17.17-.13-6.69,1.21-13.35,2.59-20,4q-11,2.35-22,5c-7.52,1.84-15,4.26-22.57,5.84h2.47l.89.48L50,79.08,48.63,81l1.2-.28a14.71,14.71,0,0,0,2.41-.55L57.05,79l9.64-2.2c5.44-1.25,12.25-3.64,11-9.65-.92-4.51-6.18-7.23-8.56-11.11-2.9-4.71-5.08-9.82-7.52-14.73l-3.31,6.06c.45-.12,4.4-.82,4.46-1-.11.33-2.83-1.88-.86.58.42.53.85,1,1.3,1.54a53.62,53.62,0,0,0,6.29,5.72c4.36,3.56,9,7.17,10,12.65l3.72-5c-1.24.24-3.58-2.75-4.44-3.67L72.06,51c-3.71-4-10.8,1.92-7.1,5.87,3,3.19,5.8,6.67,9.11,9.62a12.41,12.41,0,0,0,11,3.28,4.54,4.54,0,0,0,3.73-5.05c-1.32-7.47-7.46-12.44-13.36-17.32a51.44,51.44,0,0,1-4.11-3.67c-1.21-1.23-2.08-2.75-3.39-3.89-3-2.62-7.66-1.39-11.47-.38-3.15.84-4.52,3.63-3.32,6.06C56.86,53,59.87,61.21,66.46,67.11c.35.32,1.17,1.48,1.65,1.59.14,0,.53,1,.39-.19-.13-1.05.35-.23-.38-.37s-2.5.59-3.28.77L60,70c-4.86,1.11-10.6,1.74-15.18,3.65-4.2,1.75-6,6.52-2.25,9.13S53.16,82,57.14,81q15.74-4.14,31.65-7.62,8.86-1.95,17.78-3.68c2.64-.51,5.28-1.06,7.94-1.45a32.58,32.58,0,0,1,4.06-.37c.53,0,1.06,0,1.59,0,1,0,1.53.48,1-.43l-.49-2.11q3.43-2.83,1.14-2.16l-1.84.38-3.06.64-6.11,1.32Q104.38,66.92,98,68.4q-12.78,3-25.49,6.24-6,1.56-12.08,3.19c-4,1.08-8.28,2-12.11,3.53a13.43,13.43,0,0,0-7.16,7.13c-.65,1.4-1.17,2.85-1.74,4.27-.36.9-.68,1.83-1.08,2.71-.21.46-.85,1.24-.45,1.15l5.65,4c.81-5.46,2.39-11.3,1.6-16.71S40.53,74,36.94,69.78l-6.19,6.51q4.29,2.85,8.78,5.43c4.93,2.83,10.19-4.32,5.28-7.14Z"/><path class="cls-2" d="M79.84,63.3c3.08,6.75,12.31,6.55,19.5,5,4-.84,8.08-1.8,12.14-2.57,2.27-.43,8.47-1.55,9.84.64l-.49-2.11c1.07-1.36,1.23-1.66.48-.92l-1.19,1.09-2.37,2.17c-4.31,4,1.94,9.75,6.29,5.76,3.49-3.21,9.06-7.3,4.74-11.56-3-3-8.27-4.06-12.91-3.82-5.25.27-10.49,1.71-15.63,2.81-3.46.74-10.2,3-11.92-.73-2.17-4.79-10.65-.57-8.48,4.19Z"/><path class="cls-2" d="M120.37,65.74C108.7,69.66,96.06,71.66,84,74.33L46.74,82.62c-6,1.33-4.16,9.26,1.85,7.93l37.29-8.29c12-2.68,24.67-4.67,36.34-8.59,2.44-.82,4.27-2.74,3.73-5a4.51,4.51,0,0,0-5.58-2.88Z"/><path class="cls-2" d="M31.47,73.79a28.48,28.48,0,0,0,9.08,5.11c2.24.81,5.36-.92,6-2.9.81-2.4-.54-4.17-2.93-5,.44.16.19.07-.09,0s-.65-.27-1-.42c-.57-.27-1.12-.55-1.65-.86l-.7-.42c-.26-.16-.48-.31-.1,0a19.17,19.17,0,0,1-1.58-1.24,5.34,5.34,0,0,0-6.7.06c-1.8,1.61-2.22,4.25-.4,5.81Z"/><path class="cls-2" d="M33.07,75.3c6-1.39,4.15-9.32-1.85-7.93s-4.15,9.33,1.85,7.93Z"/><path class="cls-2" d="M50.07,91.54Q70.16,87,90.47,83.79c6.07-1,4.19-8.89-1.84-7.93q-20.31,3.24-40.4,7.76c-6,1.35-4.16,9.28,1.84,7.92Z"/><path class="cls-2" d="M71,86.34A44.93,44.93,0,0,1,69.56,99a30.84,30.84,0,0,0-1.38,5.75c-.08,1.36,1.34,4.64.59,5.79-3.08,4.73,4.79,8.83,7.89,4.08a9.53,9.53,0,0,0,1.51-7,12.24,12.24,0,0,1-.44-3.66,25.59,25.59,0,0,1,.8-2.81,52,52,0,0,0,1.88-14.81c-.11-5.23-9.57-5.28-9.46,0Z"/><path class="cls-2" d="M76.53,115.89c3.77-1.12,7.59-1.86,8.91-5.59a97.65,97.65,0,0,1,3.44-9.21,46.33,46.33,0,0,0,3.35-9c.62-2.69.7-5.53,2.63-7.88s0-6.47-3.6-6.15c-6.26.56-10.14,4.57-11.77,9.67-1.5,4.69-4.38,9.4-3.9,14.23.22,2.2,3.26,3.42,5.57,2.88a4.56,4.56,0,0,0,3.73-5c-.22-2.24,2.16-5.21,2.84-7.42.31-1,1.09-5.94,2.84-6.1L87,80.16c-3.65,4.46-3.29,10-5.3,14.88-1.08,2.64-2.43,5.2-3.52,7.84-.49,1.17-1.37,2.76-1.36,4l-.25,1.06,1.79-1c-.07-.08-3.45,1-3.64,1.08-5.86,1.75-4.06,9.69,1.84,7.93Z"/><path class="cls-2" d="M29.62,69.67,29,69.36c-1.39-.7-2.88.71-2.3,1.89l.38.78,2.83-1.4a14.78,14.78,0,0,0-1.63-2.08l-.88,2.3,5.51-1.27L35.69,69c.69-.16.87-.25,1.36.18a52.48,52.48,0,0,0,7.83,5.21,1.81,1.81,0,0,0,2.19-.51A1.24,1.24,0,0,0,46.64,72c-1.52-.92-3-1.82-4.56-2.75a16.26,16.26,0,0,1-1.86-1.3,11.13,11.13,0,0,0-1.75-1.43c-1.65-.9-3.74-.09-5.54.32l-6.11,1.41a1.38,1.38,0,0,0-.88,2.3A10.61,10.61,0,0,1,27.11,72c1,1.5,3.6.17,2.83-1.4l-.38-.78-2.29,1.89.6.31c1.7.86,3.46-1.52,1.75-2.38Z"/><path class="cls-2" d="M27,70.44a1.37,1.37,0,1,0-.61-2.64A1.37,1.37,0,1,0,27,70.44Z"/><path class="cls-2" d="M37.29,68.45a1.37,1.37,0,1,0-.61-2.64,1.37,1.37,0,1,0,.61,2.64Z"/><path class="cls-2" d="M30.22,77a7.79,7.79,0,0,1,.76.64l.2.2c-.08-.1-.08-.08,0,0s.15.26.22.39q-.06-.15,0,.09l.12.29c.08.2.16.41.26.61a6.29,6.29,0,0,0,.61.94c.93,1.25,1.92,2.46,2.88,3.68a1.67,1.67,0,0,0,2.12.48c.69-.37,1.19-1.26.71-1.87-1-1.27-2-2.51-3-3.81a5.74,5.74,0,0,1-.58-1c.08.16-.09-.24-.09-.23a7.35,7.35,0,0,0-.32-.77,5.62,5.62,0,0,0-1.6-1.7,1.78,1.78,0,0,0-2.23,0A1.27,1.27,0,0,0,30.22,77Z"/><path class="cls-2" d="M38.3,90.12a1.37,1.37,0,1,0-.61-2.65,1.37,1.37,0,1,0,.61,2.65Z"/><path class="cls-2" d="M36.34,102.85A87.38,87.38,0,0,0,38.24,87c0-1.76-3.11-1.77-3.16,0a85.75,85.75,0,0,1-1.9,15.88c-.16.73.68,1.37,1.46,1.37a1.69,1.69,0,0,0,1.7-1.37Z"/><path class="cls-2" d="M34,104.16c1.27,1.46,3.62,1.34,5.54.85,1.13-.28,2.26-.59,3.38-.89A7.57,7.57,0,0,0,46,103a7.66,7.66,0,0,0,1.44-2.79l1.22-2.86,2.57-6c.73-1.69-2.26-2.39-3-.71l-4.13,9.59-.22.52c-.1.22-.48.63,0,.38s-.12-.06-.25,0l-.74.2-2.69.71c-1.11.3-3,1.12-3.85.17a1.76,1.76,0,0,0-2.23,0,1.28,1.28,0,0,0-.14,1.94Z"/><path class="cls-2" d="M50.39,92.66c.16-.11.18-.14.08-.07l.22-.13a4.49,4.49,0,0,1,.54-.26,3.72,3.72,0,0,1,.74-.27c.77-.23,1.56-.41,2.34-.61l4.95-1.25a1.37,1.37,0,1,0-.62-2.64l-5.33,1.34a13.8,13.8,0,0,0-5,2,1.26,1.26,0,0,0-.13,1.94,1.82,1.82,0,0,0,2.23,0Z"/><path class="cls-2" d="M47.87,74.85Q54.11,73.32,60.4,72a1.37,1.37,0,1,0-.61-2.64c-4.2.89-8.37,1.84-12.54,2.86a1.37,1.37,0,1,0,.62,2.64Z"/><path class="cls-2" d="M61.47,71.91l6.32-1.55A1.49,1.49,0,0,0,69,68.68a1.51,1.51,0,0,0-1.86-1l-6.31,1.55a1.37,1.37,0,1,0,.61,2.64Z"/><path class="cls-2" d="M68.77,67.89l-3.49-6.47A1.65,1.65,0,0,0,63.16,61a1.37,1.37,0,0,0-.71,1.87L66,69.29a1.65,1.65,0,0,0,2.12.48,1.37,1.37,0,0,0,.7-1.88Z"/><path class="cls-2" d="M62.66,63.33a2.28,2.28,0,0,1,.3.17l-.31-.21a1.72,1.72,0,0,1,.37.34l-.23-.28a1.47,1.47,0,0,1,.24.4l-.14-.34a1.43,1.43,0,0,1,.08.22l1.66-1.73h-.07l.4,0-.2,0,.36.13a.44.44,0,0,1-.15-.08,1.21,1.21,0,0,0-.57-.15,1.45,1.45,0,0,0-.62,0,1.34,1.34,0,0,0-.57.25,1.28,1.28,0,0,0-.44.39l-.18.33a1.16,1.16,0,0,0-.05.71l.13.34a1.35,1.35,0,0,0,.54.49,2.13,2.13,0,0,0,.56.23,2.66,2.66,0,0,0,.63.09,1.81,1.81,0,0,0,.82-.2,1.22,1.22,0,0,0,.48-.35,1.21,1.21,0,0,0,.31-.47,1.25,1.25,0,0,0,.06-.71L66,62.73a4.55,4.55,0,0,0-.21-.51,3.06,3.06,0,0,0-.44-.58,1.5,1.5,0,0,0-.29-.27,3.62,3.62,0,0,0-.65-.42,1.21,1.21,0,0,0-.57-.15,1.31,1.31,0,0,0-.62,0,1.34,1.34,0,0,0-.57.25,1.28,1.28,0,0,0-.44.39l-.18.33a1.16,1.16,0,0,0,0,.71l.13.34a1.35,1.35,0,0,0,.54.49Z"/><path class="cls-2" d="M54.41,39.59l-2.12.67a3.06,3.06,0,0,0-2.08,1.41,1.88,1.88,0,0,0,.38,2.09,6.27,6.27,0,0,0,.61.53c.17.13.19.13.25.33A10,10,0,0,0,52,46.43,9.8,9.8,0,0,0,53,47.89l2.33,3.24a1.69,1.69,0,0,0,2.13.48,1.36,1.36,0,0,0,.7-1.88c-1-1.4-2.12-2.77-3-4.23a10.33,10.33,0,0,1-.65-1.92,2.82,2.82,0,0,0-.87-1.25l-.4-.31c-.14-.13-.16-.15-.06-.05-.07.56,0,.7.09.41l-.44.6c.13-.13.14-.14,0,0l.12,0,.64-.2L55,42.24a1.53,1.53,0,0,0,1.24-1.69,1.5,1.5,0,0,0-1.86-1Z"/><path class="cls-2" d="M63.11,40.61l1-.25c.31-.08.62-.17.94-.22l-.42,0h.21l-.4,0,.1,0L64.22,40l.18.09-.31-.21a6.9,6.9,0,0,1,.72.71l.74.76a1.63,1.63,0,0,0,1.07.39,1.9,1.9,0,0,0,1.16-.41,1.28,1.28,0,0,0,.14-1.94l-.86-.87a3.19,3.19,0,0,0-1.09-.9,2.37,2.37,0,0,0-.89-.21,3.36,3.36,0,0,0-.63.06,5.78,5.78,0,0,0-.57.12L62.49,38a1.8,1.8,0,0,0-1,.64,1.22,1.22,0,0,0,.43,1.87,1.73,1.73,0,0,0,1.19.13Z"/><path class="cls-2" d="M66.75,42a48.13,48.13,0,0,0,7.36,6.72,1.8,1.8,0,0,0,2.19-.51,1.25,1.25,0,0,0-.43-1.87l-.33-.23-.49-.38-.82-.67c-.6-.52-1.18-1-1.74-1.6-1.15-1.12-2.27-2.27-3.38-3.42a1.76,1.76,0,0,0-2.23,0A1.28,1.28,0,0,0,66.75,42Z"/><path class="cls-2" d="M74.43,49.68a22.54,22.54,0,0,0,2.41,2.78c1,.95,3.17,0,2.73-1.34a6.7,6.7,0,0,0-1.4-2.4,1.76,1.76,0,0,0-2.23,0,1.28,1.28,0,0,0-.13,1.94c3.67,4.32,8.31,8,12.62,11.84,1.37,1.22,3.74-.73,2.37-2-4.31-3.83-9-7.51-12.63-11.84l-2.36,2a3.57,3.57,0,0,1,.66,1.17l2.74-1.34a18.54,18.54,0,0,1-1.95-2.23,1.69,1.69,0,0,0-2.13-.48,1.36,1.36,0,0,0-.7,1.88Z"/><path class="cls-2" d="M96.15,63.31l12.64-3.11c2-.48,4-1.05,6-1.42,1.48-.26,3.3-.35,4.45.53a1.8,1.8,0,0,0,2.23,0,1.26,1.26,0,0,0,.14-1.94c-3.39-2.6-8.11-1.09-12.17-.09L95.53,60.67a1.37,1.37,0,1,0,.62,2.64Z"/><path class="cls-2" d="M115.78,58.49l.66-.16.42-.07c.28,0-.2,0,.08,0a9.76,9.76,0,0,1,1.43,0l.33,0,.1,0,.74.13a13.86,13.86,0,0,1,1.34.38l.42.16.6.26c.42.2.83.41,1.24.63.83.45,1.63,1,2.43,1.45a1.81,1.81,0,0,0,2.19-.51,1.25,1.25,0,0,0-.43-1.87c-3.44-2.14-7.54-4.33-12.16-3.08-.81.21-1.46.95-1.25,1.68a1.52,1.52,0,0,0,1.86,1Z"/><path class="cls-2" d="M126,61.13a4.29,4.29,0,0,1,2.31,1.57,5,5,0,0,1,1.12,2.79.85.85,0,0,1-.09.48,3.21,3.21,0,0,1-.39.52,16.34,16.34,0,0,1-1.54,1.24c-1.32,1-2.68,1.92-4.06,2.83a1.25,1.25,0,0,0-.14,1.93,1.78,1.78,0,0,0,2.23,0c1.64-1.06,3.24-2.17,4.77-3.36s2.53-2.52,2.34-4.26a7.49,7.49,0,0,0-5.52-6.36c-1.91-.51-2.93,2.14-1,2.64Z"/><path class="cls-2" d="M117.36,76.22c2-.48,4.08-.94,6.11-1.46a20.07,20.07,0,0,0,5.29-2c3.24-1.9,5.31-5.36,3.69-8.46-.82-1.56-3.65-.16-2.83,1.4,1.12,2.14-1.27,4.31-3.39,5.28a22.8,22.8,0,0,1-4.13,1.31c-1.78.43-3.57.84-5.35,1.26a1.37,1.37,0,1,0,.61,2.65Z"/><path class="cls-2" d="M116.28,73.78q-11.5,2.72-23.12,4.9c-2,.38-1.39,3,.61,2.65q11.63-2.19,23.13-4.9a1.37,1.37,0,1,0-.62-2.65Z"/><path class="cls-2" d="M87.62,107.47c.71-2,1.47-4.08,2.11-6.13.31-1,.47-2,.7-3a18.29,18.29,0,0,1,1.06-2.86c.73-1.69-2.26-2.4-3-.71a20.55,20.55,0,0,0-1.06,2.86c-.25,1-.39,2-.69,2.95-.64,2.05-1.41,4.09-2.12,6.13a1.28,1.28,0,0,0,1,1.68,1.79,1.79,0,0,0,2-1Z"/><path class="cls-2" d="M92.25,93.51a12,12,0,0,1,1-2.57,22.73,22.73,0,0,0,.82-3.17c.55-2.22,1.31-4.42,2-6.62a1.28,1.28,0,0,0-1-1.68,1.77,1.77,0,0,0-2,1c-.69,2.27-1.47,4.54-2,6.83a19.74,19.74,0,0,1-.85,3.14,12.61,12.61,0,0,0-1.1,3.1c-.11.74.64,1.37,1.46,1.37a1.67,1.67,0,0,0,1.69-1.37Z"/><path class="cls-2" d="M70.28,86.87c-.87,2.36-.54,4.76-.76,7.15a61.82,61.82,0,0,1-1.26,7.44c-.16.73.69,1.37,1.46,1.37a1.7,1.7,0,0,0,1.7-1.37,63.54,63.54,0,0,0,1.23-7.19c.22-2.2-.18-4.53.62-6.69.62-1.71-2.36-2.42-3-.71Z"/><path class="cls-2" d="M68.06,106a4.58,4.58,0,0,0-.26,2.58,3.38,3.38,0,0,0,0,.44c0,.23,0,.46-.07.69-.06.43-.15.86-.24,1.28a10.33,10.33,0,0,0-.26,2.64c0,1,.2,1.9.15,2.86a1.36,1.36,0,0,0,1.46,1.37,1.66,1.66,0,0,0,1.69-1.36,23.15,23.15,0,0,0-.15-2.77,10.09,10.09,0,0,1,.23-2.56,11.68,11.68,0,0,0,.35-2.49c0-.27,0-.55,0-.82,0,0,0-.44,0-.23a3.79,3.79,0,0,1,0-.58c0,.16.11-.26.15-.34.37-.69-.24-1.5-1-1.68a1.8,1.8,0,0,0-2,1Z"/><path class="cls-2" d="M69.48,117.69l2.6-.41a1.79,1.79,0,0,0,1-.65,1.27,1.27,0,0,0,.23-1,1.24,1.24,0,0,0-.67-.82l-.36-.14a1.94,1.94,0,0,0-.83,0l-2.6.41a1.76,1.76,0,0,0-1,.65,1.28,1.28,0,0,0-.24,1,1.31,1.31,0,0,0,.67.83l.37.13a1.89,1.89,0,0,0,.82,0Z"/><path class="cls-2" d="M79.56,115.44c1.56-.33,3.11-.67,4.66-1a1.37,1.37,0,1,0-.62-2.64c-1.54.36-3.1.71-4.65,1a1.49,1.49,0,0,0-1.24,1.68,1.51,1.51,0,0,0,1.85,1Z"/><path class="cls-2" d="M85.76,113.11c.26-.79.22-1.57.41-2.36l-.09.35a6.09,6.09,0,0,1,.61-1.42l-.18.32c.11-.2.23-.4.35-.6a1.35,1.35,0,0,0,.23-1,1.28,1.28,0,0,0-.67-.83,1.79,1.79,0,0,0-1.19-.13,1.7,1.7,0,0,0-1,.65,9.85,9.85,0,0,0-1.08,2.15,6.85,6.85,0,0,0-.25,1.26,7.28,7.28,0,0,1-.14,1l.09-.35-.08.26a1.28,1.28,0,0,0,.08,1,1.44,1.44,0,0,0,.9.62,1.77,1.77,0,0,0,2-1Z"/><path class="cls-2" d="M84.52,107.52a4.81,4.81,0,0,0-.42.77,3.89,3.89,0,0,0-.22.81,2,2,0,0,0,0,.49,3.43,3.43,0,0,0,.09.84,1.27,1.27,0,0,0,.67.82,1.21,1.21,0,0,0,.56.16,1.49,1.49,0,0,0,.63,0,1.76,1.76,0,0,0,1-.65,1.28,1.28,0,0,0,.24-1,2.25,2.25,0,0,1-.06-.36l0,.36a2.26,2.26,0,0,1,0-.68l-.08.35a2.55,2.55,0,0,1,.24-.63l-.18.32.11-.18a1.32,1.32,0,0,0,.24-1,.93.93,0,0,0-.25-.48,1,1,0,0,0-.42-.35,1.79,1.79,0,0,0-1.19-.13,1.77,1.77,0,0,0-1,.64Z"/></g></svg>