<svg xmlns="http://www.w3.org/2000/svg" viewBox="0 0 159.51 150.67"><defs><style>.cls-1{fill:none;stroke:#e4ddd4;stroke-miterlimit:10;stroke-width:3px;}.cls-2{fill:#020202;}.cls-3{fill:#edafd0;}</style></defs><g id="Layer_4" data-name="Layer 4"><circle class="cls-1" cx="76.13" cy="75.81" r="68.96"/></g><g id="Layer_7" data-name="Layer 7"><path class="cls-2" d="M68.14,125.2a118.57,118.57,0,0,1-13.44-.75c-5.78-.64-6.23-1.85-7.73-5.85-.22-.59-.46-1.25-.75-2a105.44,105.44,0,0,1-6.65-34c0-2.93.55-4.84,1.83-6s3.73-1.74,7.46-1.39c19.24,1.82,39.63,2.18,54.53,1,3.64-.29,6.2.25,7.83,1.66a7,7,0,0,1,2.17,5.15c.57,8.87-3.72,25.6-6.8,34.12-1.79,5-3.11,7-8.86,7h-.14c-5.81,0-10.87.28-15.77.58C77.3,124.93,72.92,125.2,68.14,125.2ZM46.56,75.68c-2.25,0-3.75.43-4.74,1.34-1.14,1.06-1.66,2.82-1.62,5.56a104.57,104.57,0,0,0,6.6,33.82c.29.73.54,1.38.76,2,1.46,3.92,1.81,4.85,7.21,5.45,10.78,1.2,18.66.71,27,.2,4.9-.3,10-.62,15.8-.58h.15c5.39,0,6.5-1.73,8.27-6.61,3-8.46,7.32-25.08,6.76-33.86a6.47,6.47,0,0,0-2-4.72c-1.5-1.29-3.91-1.78-7.37-1.5-14.93,1.21-35.36.85-54.64-1C48,75.72,47.24,75.68,46.56,75.68Z"/><path class="cls-2" d="M91.08,93.39a167.45,167.45,0,0,0-4.6,20.66c-.23,1.47,2,2.11,2.26.62A169.68,169.68,0,0,1,93.33,94a1.17,1.17,0,0,0-2.25-.62Z"/><path class="cls-2" d="M73,88.73a175.41,175.41,0,0,0-.78,26.53c.08,1.5,2.42,1.51,2.35,0a174.11,174.11,0,0,1,.77-26.53c.16-1.5-2.19-1.48-2.34,0Z"/><path class="cls-2" d="M48.64,93.83A145.48,145.48,0,0,0,62.49,118.4c.86,1.22,2.89,0,2-1.18A145.92,145.92,0,0,1,50.66,92.65c-.61-1.38-2.63-.19-2,1.18Z"/><path class="cls-2" d="M38.82,83.35a115.12,115.12,0,0,0,5,27.54q1.05,3.35,2.31,6.62a14.27,14.27,0,0,0,2.83,5A9.4,9.4,0,0,0,54.55,125c2.38.37,4.78.63,7.17.82a100.9,100.9,0,0,0,16.4-.08c1.49-.13,1.5-2.47,0-2.35a100.22,100.22,0,0,1-14,.24q-3.5-.18-7-.61c-1.92-.24-4.16-.37-5.81-1.48a8.79,8.79,0,0,1-2.81-4.22c-.81-2-1.54-4.13-2.21-6.23A111.29,111.29,0,0,1,43,98.24a109.59,109.59,0,0,1-1.88-14.89c-.09-1.5-2.43-1.51-2.34,0Z"/><path class="cls-2" d="M77.89,125.9a122.53,122.53,0,0,0,14.21.22c2.21-.1,4.43-.2,6.62-.52a10.71,10.71,0,0,0,5.3-2c3.1-2.48,3.89-7.06,4.86-10.68q1.82-6.69,3.11-13.52,1.47-7.71,2.27-15.52a1.18,1.18,0,0,0-1.17-1.17,1.2,1.2,0,0,0-1.18,1.17,181.19,181.19,0,0,1-4.63,25.94c-.54,2.1-1.11,4.18-1.72,6.26a14,14,0,0,1-2.06,4.74c-2.33,3-7.06,2.79-10.47,3a121.42,121.42,0,0,1-15.14-.17c-1.5-.11-1.49,2.23,0,2.34Z"/><ellipse class="cls-3" cx="76.51" cy="60.6" rx="43.03" ry="20.45"/><path class="cls-3" d="M50.48,49c7.38,3.91,5.64,15.33,2.84,20.94S41.55,86.18,34.58,82s-7.17-16.81-3.43-23.8S43.1,45.08,50.48,49Z"/><ellipse class="cls-3" cx="62.57" cy="72.33" rx="14.76" ry="17.54"/><ellipse class="cls-3" cx="91.12" cy="70.66" rx="17.3" ry="17.54"/><path class="cls-3" d="M102.18,47.37c6.46-2.76,11.27,1.93,16.29,8.88s8.86,28.09-4.15,27.72S103.41,73.2,100.48,66.89,95.71,50.13,102.18,47.37Z"/><path class="cls-2" d="M87.35,35.61c-.39-7.77-6.07-8.38-12.73-7.4l-.31.05-.45-.49c-1,1.15-4.38.47-6.71.9-3.34.61-4.42,2.95-4.73,6.18-.79,8.22,4.9,13.29,12.16,13.56S87.74,43.39,87.35,35.61Z"/><path class="cls-2" d="M87.74,35.61c-.17-3-1.25-6-4.21-7.32s-6.28-.83-9.32-.41l.38.1-.45-.49a.39.39,0,0,0-.55,0c-.64.66-1.85.59-2.69.61-1.11,0-2.23,0-3.34.11a5.81,5.81,0,0,0-4.34,2.51A10.49,10.49,0,0,0,62,36.22a13,13,0,0,0,1.16,5.63c3.23,6.95,13,8.94,19.21,4.87a12.41,12.41,0,0,0,5.41-11.11c0-.5-.8-.5-.78,0a11.76,11.76,0,0,1-4.11,9.77,12.78,12.78,0,0,1-10.37,2.41,11.72,11.72,0,0,1-8.25-5.5,11.59,11.59,0,0,1-1.47-5.2,11.21,11.21,0,0,1,.87-5.52c1-2,3-2.59,5.13-2.66,1.09,0,2.19,0,3.28-.09a3.21,3.21,0,0,0,2.1-.78h-.55c.48.53.59.63,1.33.52s1.76-.22,2.64-.27a14,14,0,0,1,4.57.34,6.1,6.1,0,0,1,3.38,2.18A8.79,8.79,0,0,1,87,35.61C87,36.11,87.77,36.12,87.74,35.61Z"/><path class="cls-2" d="M62.63,17.69a17.33,17.33,0,0,1,11.59,12.1,1.56,1.56,0,0,0,3-.83A20.5,20.5,0,0,0,63.46,14.68c-1.93-.58-2.75,2.43-.83,3Z"/></g></svg>