<svg id="Layer_1" data-name="Layer 1" xmlns="http://www.w3.org/2000/svg" viewBox="0 0 2025.8 1782.94"><defs><style>.cls-1{fill:#fff;}.cls-2{fill:#f2caa2;}.cls-3{opacity:0.5;}.cls-12,.cls-4{fill:#db9e61;}.cls-5{opacity:0.51;}.cls-6{opacity:0.52;}.cls-15,.cls-7{opacity:0.6;}.cls-11,.cls-8{fill:none;}.cls-8{stroke:#000;stroke-miterlimit:10;stroke-width:0.3px;}.cls-9{fill:#0071bc;}.cls-10{fill:#025930;}.cls-12,.cls-14,.cls-15,.cls-16,.cls-17,.cls-18,.cls-19,.cls-20,.cls-21,.cls-23{isolation:isolate;}.cls-12{font-size:37.48px;font-family:Noteworthy-Light, Noteworthy;font-weight:300;}.cls-13{fill:#f4de3b;}.cls-14,.cls-15,.cls-16,.cls-17,.cls-18,.cls-19,.cls-20,.cls-21,.cls-22,.cls-23{fill:#f7d50b;}.cls-14{opacity:0.59;}.cls-16{opacity:0.65;}.cls-17{opacity:0.56;}.cls-18{opacity:0.66;}.cls-19{opacity:0.62;}.cls-20{opacity:0.55;}.cls-21{opacity:0.54;}.cls-23{opacity:0.58;}.cls-24{fill:#6d0630;}.cls-25{fill:#e58cac;}</style></defs><g id="Layer_1-2" data-name="Layer 1"><g id="Layer_12" data-name="Layer 12"><path class="cls-1" d="M600,1046.81c-15.55,20.69-22.22,43-27.77,67,.28.14.42.14.7.28a17.55,17.55,0,0,1,3.47-3.75,10.33,10.33,0,0,0,1.11-1.38c5.13-5.7,10.27-11.67,15.41-17.5.83-1,1.66-2.08,2.49-3a5.19,5.19,0,0,0,1.11-1.39,24.17,24.17,0,0,1,2.92-3.61c.28-.27.28-.14.42-.27h0a29.92,29.92,0,0,1,3.33-4c1.53-1.81,2.77-3.61,4.3-5.41a3.71,3.71,0,0,0,.7-.84,19.11,19.11,0,0,1,3.19-5l.83-1.24a22.58,22.58,0,0,1,2.78-3.61,6.59,6.59,0,0,0,1.11-1.53c.41-.7,1.25-1.39,1.94-2.5a21.26,21.26,0,0,1,2.64-3.33c.83-.83,1.39-2,2.08-2.78s1.67-1.8,2.36-2.64,1.39-1.66,2.08-2.36a24.85,24.85,0,0,0,1.67-2.08c.69-.69,1.53-1.39,2.22-2.08a19.62,19.62,0,0,0,1.53-1.94,8.63,8.63,0,0,0,1.39-1.67,6.16,6.16,0,0,1,1.38-1.94l.84-.84a2.77,2.77,0,0,1,1.66-1.11,4.11,4.11,0,0,1,1.39-1.66,11.53,11.53,0,0,1,1.39-1.25,3.57,3.57,0,0,0,.69-.83,23.81,23.81,0,0,1,2.92-4.31,12.54,12.54,0,0,1,1-1.94,17.12,17.12,0,0,1,1.39-2.08C621.09,1022.52,617.62,1023.49,600,1046.81Z"/><path class="cls-2" d="M983.27,1137.05c2.92,8.19,5.28,16.66,8.33,24.85,56.09-18.19,141.74-42.9,193-68-4.85-9.85-10-19-14.29-29.15C1107.66,1089.15,1045.88,1114.28,983.27,1137.05Z"/><path class="cls-2" d="M1173,1072.77c-4.86,12.22-3.33-.55,1.53,12.91s57.19,21.52,63.16,4.45-10.13-42.62-25-45.82S1177.9,1060.56,1173,1072.77Z"/><path class="cls-2" d="M1230.51,1086.66c4.31,11.38,18.75,10,30.13,5.27s21.79-20.55,12.91-33.46-12.63,10.83-22.49,11.67S1226.21,1075.27,1230.51,1086.66Z"/><path class="cls-2" d="M1219.83,1072.63c1.38,9.44,13.88,15.14,25.12,12.78s39.84-31.24,26.66-40.4-23.6,7.91-30.68,11.66S1218.58,1063.19,1219.83,1072.63Z"/><path class="cls-2" d="M1214.27,1055.7c7.22,7.36-5,12.77,10,15.82s39.56-16.1,41.92-33.45-42.76-23.6-45.53-12.36S1207.19,1048.34,1214.27,1055.7Z"/><path class="cls-2" d="M1225,1046.12c4.44-7.08-6.11-34.57-18.46-25.54s-38.73,39.7-28.6,52.61,21.24,1.39,28.18-6S1220.52,1053.2,1225,1046.12Z"/><path class="cls-2" d="M1220.38,1070.69c-10.55,1.25-4.44-19.16-14.44-29.85s-4.58-15.54,2.22-21.93,20.55,8.75,24.85,18.88S1230.79,1069.44,1220.38,1070.69Z"/><path class="cls-2" d="M1167.07,1066.53c1.39,2.63,2.92,5.27,4.45,7.77,3.74-2.64,7.63-4.86,11.24-7.64a69.88,69.88,0,0,0-5.69-8.46C1174.29,1061.67,1171.24,1064.86,1167.07,1066.53Z"/><g class="cls-3"><path class="cls-4" d="M1261.61,1041.68a28.15,28.15,0,0,1-11.52,10.55,21.69,21.69,0,0,1-8.19,2.08,15.58,15.58,0,0,1-8.33-1.39c-2.36-1.25-4.44,2.36-2.08,3.61,6,3.33,13.88,2.36,19.85-.28a30.26,30.26,0,0,0,13.88-12.49c1.39-2.22-2.22-4.3-3.61-2.08Z"/></g><g class="cls-5"><path class="cls-4" d="M1269.66,1058.61c-5.69,8.47-13.88,15.69-24.43,16.66a17.71,17.71,0,0,1-13.88-4.86c-1.81-1.66-3.75-3.88-4.17-6.38s1.67-4.31,3.47-5.42c2.36-1.38.14-5-2.08-3.61-4.16,2.5-6.94,6.81-5,11.67a21.17,21.17,0,0,0,10.55,10.82c9,4.31,20.27,1.11,28.05-4.58a50.93,50.93,0,0,0,11.1-12.08c1.39-2.36-2.22-4.44-3.61-2.22Z"/></g><g class="cls-3"><path class="cls-4" d="M1236.21,1090.54l-.56-.41c-.28-.14,0,0-.14-.14s-.55-.42-.83-.7l-.42-.41c-.14-.14,0,.14,0-.14s-.41-.56-.55-.84-.28-.55,0-.13c0-.14-.14-.28-.14-.42a2.77,2.77,0,0,0-.28-.83h0V1085h0c0-.28,0-.28.14-.42s.14-.69.28-1,.14-.28.14-.42-.14.28,0,0a3.56,3.56,0,0,1,.55-1l.56-.69.14-.14c.13-.14.13-.28.27-.42a8.16,8.16,0,0,1,1.53-1.52,2.06,2.06,0,1,0-2.91-2.92,13.69,13.69,0,0,0-4.72,8.89,9.84,9.84,0,0,0,5,8.88,2.22,2.22,0,0,0,2.92-.69,2.71,2.71,0,0,0-1-3.06Z"/></g><g class="cls-6"><path class="cls-4" d="M1232.87,1041.12c.14-.28.14-.69.28-1,0,0,.14-.56.14-.28l.14-.28a5.89,5.89,0,0,1,1-1.52l.28-.42c-.28.42,0,0,.14-.14l.55-.55.7-.7.28-.27.13-.14h-.13a8.59,8.59,0,0,1,1.52-1l.84-.42c-.28.14,0,0,.13,0l.42-.14c.56-.14,1.11-.28,1.81-.42h1.52a2.08,2.08,0,1,0,0-4.16,14.28,14.28,0,0,0-13.74,10.27,2.07,2.07,0,0,0,1.53,2.5,2,2,0,0,0,2.49-1.39Z"/></g><g class="cls-5"><path class="cls-4" d="M1218.58,1024.46a40.79,40.79,0,0,1,7.91,12.5c1.8,4.86,3.19,10.55,1.66,15.68-.41,1.39-1.8,5.42-4,4.45s-2.92-4.17-3.61-6c-2.08-5.28-4.58-10.41-5.55-16.25-.42-2.63-4.45-1.52-4,1.12.83,5.55,3.33,10.68,5.41,15.82,1.53,3.75,3.61,9.72,8.61,9.58s7.36-6.94,7.91-11.24a33.92,33.92,0,0,0-2.49-14.86,48.28,48.28,0,0,0-8.75-13.88c-1.94-1.94-4.86,1-3.05,3.05Z"/></g><g class="cls-3"><path class="cls-4" d="M1209.69,1053.2c1.94,6.38-3.75,12.63-9,15.55a22.69,22.69,0,0,1-17.77,1.94c-2.5-.83-3.61,3.19-1.11,4a27,27,0,0,0,21.65-2.78c6.53-3.89,12.64-11.8,10.14-19.85-.56-2.5-4.58-1.39-3.89,1.11Z"/></g><path class="cls-2" d="M680.09,1054.17C674.26,1060.7,669,1067.64,663,1074c-45-38-114.94-93.29-152.84-135.9,8.19-7.22,16.38-13.89,24.15-21.66C583.05,962.69,630.67,1009.33,680.09,1054.17Z"/><path class="cls-2" d="M528.77,922.71c-.14,13.18,3.19.69-6.39,11.38s-61.08-1.8-60.11-19.71,25.55-35.68,40.54-33S528.91,909.52,528.77,922.71Z"/><path class="cls-2" d="M470.33,914c-8.19,8.89-21.24,2.08-29.85-6.38s-12.36-27.21.69-36,7.5,14.72,16.38,19.3S478.52,905.08,470.33,914Z"/><path class="cls-2" d="M485.46,904.8c-4.72,8.19-18.47,8.74-28,2.36s-25.13-44-9.44-47.48,18.88,16.24,24,22.35S490.18,896.75,485.46,904.8Z"/><path class="cls-2" d="M497,891.33c-9.44,4.17-.28,13.75-15.27,10.83s-30.54-29.85-26.1-46.78,48.45-5.69,46.78,5.83S506.42,887.31,497,891.33Z"/><path class="cls-2" d="M490.73,878.42c-1.39-8.33,18.74-29.71,26.8-16.66s20.82,51.37,6.66,59.56-20.13-6.8-23.88-16.24S492.12,886.61,490.73,878.42Z"/><path class="cls-2" d="M485.73,903c9.31,5.14,11.39-16,24.72-22.21s10.13-12.63,6.24-21.1-22.21.28-30.12,8.05S476.43,897.86,485.73,903Z"/><path class="cls-2" d="M536.68,919.24c-2.36,1.94-4.58,3.88-7.08,5.55-2.36-3.89-5.13-7.5-7.49-11.38a81.4,81.4,0,0,1,8.46-5.7C531.82,911.88,533.35,916.18,536.68,919.24Z"/><g class="cls-3"><path class="cls-4" d="M454.36,861.35a31,31,0,0,0,8.05,16.52,25.72,25.72,0,0,0,8,5.69,17.91,17.91,0,0,0,10,2.08,2.08,2.08,0,1,0,0-4.16,15.18,15.18,0,0,1-8.47-1.81,21,21,0,0,1-6.94-5.13,28,28,0,0,1-6.8-14.44,1.89,1.89,0,0,0-2.5-1.39,2.52,2.52,0,0,0-1.39,2.64Z"/></g><g class="cls-5"><path class="cls-4" d="M440.62,874c1.94,9.86,6.38,18.74,14.57,24.85A23,23,0,0,0,468.38,904a22,22,0,0,0,14-4.17,9.54,9.54,0,0,0,4.31-6.66,11.05,11.05,0,0,0-2.5-7.64c-1.53-2.08-5.14,0-3.61,2.08s2.77,4.45,1.25,6.81a12.69,12.69,0,0,1-6.11,4.3,17.82,17.82,0,0,1-14.58-.83c-9.58-5-14.43-14.72-16.52-25-.55-2.64-4.58-1.53-4,1.11Z"/></g><g class="cls-3"><path class="cls-4" d="M464.5,919.37a9.66,9.66,0,0,0,7.77-6.52,13.9,13.9,0,0,0-1.25-10,2,2,0,1,0-3.47,2.08l.28.55c.27.56-.14-.28.14.14a2.78,2.78,0,0,1,.27,1,12.32,12.32,0,0,1,.42,1.95h0v1.94c0,.42.14-.42,0,.14a8.67,8.67,0,0,0-.28,1c-.14.42-.14.28-.14.42s-.14.27,0,0c-.14.27-.27.55-.41.83a1.08,1.08,0,0,1-.28.42c-.28.41.28-.28,0,0l-.69.69c-.28.28.27-.28,0,0l-.42.28c-.28.14-.7.41-1,.55.27-.14,0,0-.14,0l-.56.14a4,4,0,0,1-1.25.28,2,2,0,0,0-1.38,2.5,2.11,2.11,0,0,0,2.49,1.39Z"/></g><g class="cls-6"><path class="cls-4" d="M489.48,871.06a14.38,14.38,0,0,0-9-14.57,2,2,0,1,0-1.11,3.89c.55.27-.42-.14.14,0l.28.13.83.42.69.56c.14.13-.28-.14.14,0,.14.13.28.41.56.55l1.25,1.25s.27.42.13.28.14.14.14.28.42.55.56.83l.42.83.13.42c.28.55,0-.28,0,.14a8.88,8.88,0,0,1,.56,1.8c0,.28.14.56.14.83h0v2.36a2.13,2.13,0,0,0,2.08,2.09,2,2,0,0,0,2.08-2.09Z"/></g><g class="cls-5"><path class="cls-4" d="M503,857c-8.89,4.31-16.94,11.39-20.55,20.69-1.52,4-2.36,10.41,1.11,13.74,4,3.89,9.17-.41,12.08-3.47,4.3-4.44,8.89-8.61,12.08-13.88a2.08,2.08,0,0,0-.83-2.78,2.16,2.16,0,0,0-2.78.7,54.79,54.79,0,0,1-8.61,10.13c-1.52,1.53-2.91,3.05-4.44,4.44-1,.84-3.05,2.78-4.44,2.09s-1.39-2.64-1.39-3.89a17.71,17.71,0,0,1,1.25-6.53A33.9,33.9,0,0,1,493.79,868,44.69,44.69,0,0,1,505,860.38c2.5-.84.28-4.45-2.08-3.34Z"/></g><g class="cls-3"><path class="cls-4" d="M499.06,888c-5.27,6.53-3.05,16,1.53,22.21a27.09,27.09,0,0,0,19.43,11c2.64.28,2.64-3.89,0-4.17a22.49,22.49,0,0,1-15.54-8.74c-3.47-4.44-6.53-12.36-2.36-17.35,1.52-1.95-1.39-4.86-3.06-2.92Z"/></g><path class="cls-1" d="M985.22,1487.16c-103.43-6.11-171.17,15.82-301.8-3.06a12.7,12.7,0,0,1-10.83-14c12.49-108.83.42-228.22,57.61-325.54a12.57,12.57,0,0,1,11.24-6.24c66.92,1.25,130.36,24.85,196.44,31.23a12.74,12.74,0,0,1,11.38,13.88c0,.42-.14.84-.14,1.25-20.82,107,23.19,188.8,49.15,286.39a12.72,12.72,0,0,1-8.89,15.55A9,9,0,0,1,985.22,1487.16Z"/><path class="cls-1" d="M748,1112.34c-11.66-17.22-86.9-84-102.45-90.1-22.35,31.93-46.51,61.5-72,90.93-3.19,3.61-4.16,8,.83,12.22,39,32.48,85.1,53.3,131.88,72.18,6.53,2.64,11.25,0,13.05-6,7.22-23,12.22-49.83,26.8-68.3C749.91,1118.17,749.36,1114.42,748,1112.34Z"/><g class="cls-7"><path class="cls-8" d="M645.8,1021.83c-23.88,32.9-46.09,61.63-73.3,91.9"/></g><path class="cls-1" d="M912.2,1174.25c16.1-13.19,107.31-55.53,124-57,12.22,36.92,27.07,72.18,43,107.72,1.94,4.44,1.66,8.89-4.17,11.52-46.64,19.86-96.75,26.66-147,31.52-6.94.69-10.69-3.2-10.83-9.44-.41-24,2.5-51.23-6.1-73C908.73,1179.25,910.25,1175.92,912.2,1174.25Z"/><path class="cls-9" d="M614,1154.4c11.38,6.11,22.35,12.77,34.15,17.91,17.63-41.37,28-67.89,66.21-94.68-9.85-9-20-17.63-30.12-26.24C655.51,1083.32,632.33,1115.11,614,1154.4Z"/><path class="cls-9" d="M995.77,1130.8c-7.5,4-15.83,6.53-23.46,10-5.83,2.77-11,6.38-16.66,9.3-3.61,53.44-8.19,67.46,30.12,110.92a17.78,17.78,0,0,1,4.72-.14c6-1.39,11.94-2.5,17.91-3.89,1.25-.28,2.64-.56,3.89-1a40.89,40.89,0,0,1,6-1.39c1.94-.28,3.47-.56,5.27-.83C996,1201.88,992.57,1190.36,995.77,1130.8Z"/><path class="cls-9" d="M954.68,1325c-2.09-12.21-5.42-24.15-7.22-36.37-94.54,12.77-166.87-18.88-257-30-5,15.13-4,30.81-6.25,46.5C780.87,1320.71,855.28,1335.42,954.68,1325Z"/><path class="cls-9" d="M978.28,1404.42c-4.31-13.47-9.17-26.66-12.64-40.4-116.61,16.8-173.11,5.83-284.3-18.32-5.56,16.66-2.92,34.43-4.86,51.64C762.41,1410,891,1430.66,978.28,1404.42Z"/><path class="cls-9" d="M998.4,1472c-2.49-9.3-5.27-18.46-8-27.62l-.14-.28a30.48,30.48,0,0,1-3.33-4,23.18,23.18,0,0,1-7.49-6.25A22.29,22.29,0,0,1,963,1425.1c-12.35,5.14-26.93,6.25-39.28,5.69-15.41-.69-30.68-.55-46.09-.69-19.44-.28-38.87,1.53-58.44,2.64a342.46,342.46,0,0,1-68.58-2.92l11.52,1.53c-11.38-1.39-22.63-3-33.87-4.72a23.62,23.62,0,0,1-22.35,17.08,20.61,20.61,0,0,1-9.58-2.23,20.5,20.5,0,0,1-7.64,1.39,17.9,17.9,0,0,1-4.72-.55h-.69a18.5,18.5,0,0,1-2.78-.14,3.79,3.79,0,0,1-1.25.14,34.24,34.24,0,0,1-3.88,1.94l-.28.28c0,.14,0,.14-.14.28s-.14.27-.14.41-.14.28-.14.56c-.69,8.19-1.39,16.24-2.36,24.29A12.66,12.66,0,0,0,683.14,1484c130.77,18.74,198.65-2.77,302.35,3.47a12.58,12.58,0,0,0,13.33-11.8A17.89,17.89,0,0,0,998.4,1472Z"/><path class="cls-1" d="M990.21,1443.29l-.41-.83a5.85,5.85,0,0,1-.7-1.25,3.87,3.87,0,0,1-1.11-2.09,4.6,4.6,0,0,1-1.8-3.61,3.89,3.89,0,0,1-1.25-1.38,56.49,56.49,0,0,1-2.64-5.83c-.14-.28-.14-.56-.28-.84a23.35,23.35,0,0,1-8.74-6.38c-13.75,5.13-29.71,6.24-43.59,5.69-16.94-.69-34-.56-51-.69-21.66-.28-43,1.52-64.69,2.77a420.56,420.56,0,0,1-75.94-3l12.64,1.52c-12.5-1.38-25-3-37.49-4.72-2.77,9.72-13.46,17.22-24.71,17.22a26.48,26.48,0,0,1-10.69-2.22l-1.24.41a4.63,4.63,0,0,1-.84,4.17,3.78,3.78,0,0,1-1.11,2.08v.56c98.43,16.38,182.69,26,315.4-.84A1.21,1.21,0,0,0,990.21,1443.29Z"/><ellipse class="cls-9" cx="828.81" cy="1151.35" rx="54.14" ry="95.93" transform="translate(-494.34 1663.01) rotate(-75.39)"/><path class="cls-2" d="M1236.9,762.09c-7.36,24.29-24.29,36.37-47.34,38.31a30.1,30.1,0,0,1-18-3.6C1082.67,925.48,993.41,1054,897.76,1174.53c-.42.42-.7,1-1.11,1.39l-.84.83c-14.57,13.61-62,1.81-73.57-1.11-12.08-3.05-76.08-34.71-72.6-49.84h-.14c13.46-56.36,24.43-113.14,36.65-169.64,32.62,7.5,65.66,3.47,98.42-.28a9.27,9.27,0,0,0,2.64-.83c.55-.14,1.11-.28,1.53-.41,16.1-2.36,31-9.86,44-18.61,14.44-9.71,24.71-20.13,35.26-33.31a61.07,61.07,0,0,0,18-31.1,7.87,7.87,0,0,0,.83-5,8.28,8.28,0,0,0-1.25-3,8.54,8.54,0,0,0-1.39-1.81,1.7,1.7,0,0,0-1.38-.69H982a12.68,12.68,0,0,0-5.13.14c-.14,0-.42.14-.56.14s-.83.14-1.11.14h-.69a4,4,0,0,0-1.25.27,40.46,40.46,0,0,0-10.55,4c-7.08,2.78-13.75,6.11-21,8.61A154.86,154.86,0,0,1,905.53,882a12.21,12.21,0,0,0-2.36.28h-.27c-6.81,1.67-13.75,1.53-20.83,2.08-5.83.42-11.52,1.53-17.35,1.67-10.83.28-21.8.14-32.62-.14-4.17-.14-8.19-.42-12.22-.7-5.69-.41-11.25-1.11-16.8-1.94-.41,0-.83-.14-1.25-.14C837.93,716,874,548.72,926.49,385.88c145.91,42.34,290.84,88.57,432.44,143.68-47.62,65.11-94.27,131.74-140.49,198.66C1231.63,733.35,1241.62,746.54,1236.9,762.09Z"/><path class="cls-2" d="M896.51,1175.92l-.7.83-.13-.14C896.09,1176.47,896.23,1176.2,896.51,1175.92Z"/><path class="cls-1" d="M927.47,613.41c-14.16,48.17-45.81,80.93-96.48,70.11s-67.19-54.7-54.7-100.65,46-73.71,96.76-75.8C923.72,505.13,941.49,565.38,927.47,613.41Z"/><ellipse class="cls-10" cx="852.05" cy="628.16" rx="18.46" ry="13.88" transform="translate(98.74 1371.87) rotate(-81.03)"/><ellipse class="cls-1" cx="856.11" cy="622.71" rx="3.47" ry="4.86"/><path class="cls-2" d="M902.2,815.26c-41-2.78-98-9.44-139-14.44-36.09-4.58-50.67-13.6-52.89-46.64-1.53-23,6-46.23,16-65.8,14.3-28,27.07-34.71,60.67-31,38,4.3,87.87,8.47,125.77,13.6,33.46,4.58,54.56,14.72,57.47,47.06,1.95,22.63,1.95,40.68-4.3,62.89C957,812.62,938.57,817.76,902.2,815.26Z"/><path class="cls-1" d="M978.69,673.1c-8.47,32.77-44.7,53.59-77.18,32.91s-30.82-51.92-19.16-80.94,49.56-51.08,75.93-33C984.94,609.94,987.3,640.34,978.69,673.1Z"/><ellipse class="cls-10" cx="910.97" cy="645.61" rx="18.05" ry="12.49" transform="translate(131.24 1444.8) rotate(-81.03)"/><ellipse class="cls-1" cx="914.05" cy="638.94" rx="4.44" ry="2.78" transform="translate(-60.28 1181.55) rotate(-64.07)"/><line class="cls-11" x1="1198.31" y1="735.85" x2="1209.41" y2="763.62"/><text class="cls-12" transform="translate(1189.15 779.17)">3</text><ellipse class="cls-13" cx="1068.51" cy="456.82" rx="64.55" ry="65.25"/><circle class="cls-13" cx="1145.56" cy="483.2" r="59.69"/><ellipse class="cls-13" cx="981.06" cy="465.11" rx="58.44" ry="65.52" transform="translate(274.31 1289.31) rotate(-74.75)"/><circle class="cls-13" cx="914.42" cy="424.2" r="50.67"/><ellipse class="cls-13" cx="1199.7" cy="501.94" rx="47.2" ry="64.55"/><ellipse class="cls-13" cx="1258.7" cy="521.37" rx="40.95" ry="17.35"/><ellipse class="cls-13" cx="1313.53" cy="611.61" rx="55.53" ry="45.12"/><ellipse class="cls-13" cx="1264.94" cy="495.69" rx="81.9" ry="47.2"/><ellipse class="cls-13" cx="1356.56" cy="549.83" rx="54.14" ry="47.2"/><ellipse class="cls-13" cx="1280.21" cy="546.36" rx="55.53" ry="45.12"/><ellipse class="cls-14" cx="963.7" cy="459.33" rx="36.65" ry="40.4" transform="translate(314.74 1307.01) rotate(-78.05)"/><ellipse class="cls-15" cx="1103.91" cy="469.31" rx="48.59" ry="31.93"/><circle class="cls-14" cx="1242.04" cy="513.04" r="38.18"/><ellipse class="cls-15" cx="947.04" cy="425.59" rx="33.32" ry="34.01"/><circle class="cls-16" cx="1064.34" cy="446.41" r="21.52"/><ellipse class="cls-17" cx="1355.87" cy="544.28" rx="40.95" ry="33.32"/><path class="cls-13" d="M928.16,378.39a50.67,50.67,0,1,1,101.34,0"/><ellipse class="cls-13" cx="986.79" cy="413.75" rx="58.03" ry="65.24" transform="translate(329.47 1258.07) rotate(-74.85)"/><ellipse class="cls-13" cx="1063.76" cy="366.87" rx="58.44" ry="65.52" transform="translate(430.04 1296.7) rotate(-74.75)"/><ellipse class="cls-13" cx="1133.18" cy="423.78" rx="58.44" ry="65.52" transform="translate(426.29 1405.62) rotate(-74.75)"/><ellipse class="cls-13" cx="1165.1" cy="366.85" rx="58.44" ry="65.52" transform="matrix(0.26, -0.96, 0.96, 0.26, 504.75, 1394.45)"/><ellipse class="cls-13" cx="1241.6" cy="395.54" rx="58.44" ry="90.1" transform="translate(533.45 1489.4) rotate(-74.75)"/><ellipse class="cls-13" cx="1302.78" cy="452.54" rx="29.85" ry="20.27" transform="translate(523.54 1590.44) rotate(-74.75)"/><ellipse class="cls-13" cx="1364.61" cy="483.97" rx="51.36" ry="46.78" transform="translate(538.79 1673.25) rotate(-74.75)"/><ellipse class="cls-13" cx="1327.62" cy="444.74" rx="32.76" ry="26.1" transform="matrix(0.26, -0.96, 0.96, 0.26, 549.37, 1608.66)"/><ellipse class="cls-18" cx="1203.17" cy="434.61" rx="43.73" ry="30.54"/><circle class="cls-19" cx="1091.42" cy="415.17" r="37.48"/><ellipse class="cls-20" cx="992.1" cy="405.6" rx="29.15" ry="39.56" transform="translate(273.27 1200.62) rotate(-70.12)"/><circle class="cls-20" cx="1289.93" cy="448.49" r="45.81"/><ellipse class="cls-21" cx="1197.61" cy="378.39" rx="38.18" ry="25.68"/><ellipse class="cls-22" cx="1211.5" cy="535.25" rx="46.51" ry="31.23"/><circle class="cls-23" cx="1301.73" cy="610.22" r="35.4"/><ellipse class="cls-19" cx="1059.49" cy="340.9" rx="47.2" ry="25.68"/><ellipse class="cls-19" cx="899.84" cy="418.64" rx="24.99" ry="32.62"/><ellipse class="cls-19" cx="1145.5" cy="465.7" rx="24.99" ry="32.62" transform="translate(91.14 1111.75) rotate(-53.62)"/><ellipse class="cls-19" cx="1152.62" cy="340.64" rx="32.62" ry="24.99" transform="translate(-21.99 85.94) rotate(-4.23)"/><ellipse class="cls-13" cx="1025.82" cy="392.18" rx="38.04" ry="53.31" transform="translate(377.66 1278.74) rotate(-74.75)"/><ellipse class="cls-13" cx="1120.68" cy="405.73" rx="38.04" ry="53.31" transform="translate(434.49 1380.26) rotate(-74.75)"/><ellipse class="cls-13" cx="1205.37" cy="396.02" rx="38.04" ry="53.31" transform="translate(506.28 1454.8) rotate(-74.75)"/><ellipse class="cls-13" cx="1224.81" cy="494.57" rx="38.04" ry="53.31" transform="translate(425.53 1546.19) rotate(-74.75)"/><ellipse class="cls-13" cx="1277.55" cy="465.42" rx="38.04" ry="53.31" transform="translate(492.52 1575.59) rotate(-74.75)"/><ellipse class="cls-13" cx="1330.32" cy="569.52" rx="38.04" ry="53.31" transform="translate(430.98 1703.23) rotate(-74.75)"/><ellipse class="cls-13" cx="1054.05" cy="465.43" rx="38.04" ry="53.31" transform="translate(327.79 1359.97) rotate(-74.75)"/><path class="cls-24" d="M981.61,883.14c.69-2.77,1.94-5.27,2.77-7.91a34.54,34.54,0,0,0,1-3.61c0-3-.14-6-1.12-6.39-1.8-.83-8.46,1.67-10.55,2.09-10.13,1.66-19.85,3-29.56,6s-19.72,6.8-29.85,9.3c-9.44,2.36-19.3,3-29,4.16a5.8,5.8,0,0,1-5.13-1.8c-20.41,11.8-39.29,39.28-58,57-2.5,2.36-20.82,17.22-24.57,21.94,9.16.27,18.05,1,28,.55,9.3-.41,18.88-.41,28.6-2.22a14.57,14.57,0,0,0,5.41-1.11c17.77-.14,76.77-18.74,83.43-25.82a324.51,324.51,0,0,0,37.49-49.56A23.93,23.93,0,0,1,981.61,883.14Z"/><path class="cls-25" d="M921.36,908.27c-19.58,8.74-34.15,18.88-49.7,33.73-3.47,3.33-6.25,12.5-10.41,16.24.14.7-1,1.81-.14,2.09a23.74,23.74,0,0,0,6.94.69,5.67,5.67,0,0,0,1.53-.14,18.27,18.27,0,0,1,2.77,0c12.78-1.66,25.27-5.27,37.49-8.88,1.38-.42,2.36-.42,3.33-.83,6.52-2.36,12.63-4.59,18.74-7.5a3,3,0,0,0,.69-.42c4.86-3.33,9.72-6.24,14-10.41A138.69,138.69,0,0,0,958.84,918a134.78,134.78,0,0,0,9.58-13.61,2,2,0,0,0,.28-.83A73,73,0,0,0,921.36,908.27Z"/><path class="cls-1" d="M985.91,867.32a28.77,28.77,0,0,1-.14-3.47c-.14-.28-.28-.56-.41-.84l-.56-1c-.28-.42-1.25-1.66.14,0a17.93,17.93,0,0,1-1.39-2.08,10.48,10.48,0,0,0-4.44-1.81,4.91,4.91,0,0,1-1.39.28c-71.22,26.38-87,25.55-166.86,26.79-.56,5.84,1.8,11.94,2.22,17.91,79.82,4.31,101.06-7.77,172.41-32.34a4,4,0,0,1,.28-1.25A5.75,5.75,0,0,1,985.91,867.32Z"/></g></g></svg>