<?xml version="1.0" encoding="utf-8"?>
<!-- Generator: Adobe Illustrator 26.0.2, SVG Export Plug-In . SVG Version: 6.00 Build 0)  -->
<svg version="1.1" id="Layer_1" xmlns="http://www.w3.org/2000/svg" xmlns:xlink="http://www.w3.org/1999/xlink" x="0px" y="0px"
	 viewBox="0 0 461.8 466.2" style="enable-background:new 0 0 461.8 466.2;" xml:space="preserve">
<style type="text/css">
	.st0{fill:#438D34;}
	.st1{fill:#025A30;}
	.st2{fill:#8EC046;}
</style>
<ellipse transform="matrix(0.1602 -0.9871 0.9871 0.1602 48.5728 448.0905)" class="st0" cx="287.6" cy="195.5" rx="35.8" ry="35.8"/>
<circle class="st1" cx="248.4" cy="202.6" r="31.8"/>
<path class="st1" d="M248.4,234.9c-17.8,0-32.3-14.5-32.3-32.3c0-17.8,14.5-32.3,32.3-32.3c17.8,0,32.3,14.5,32.3,32.3l0,0
	C280.7,220.4,266.2,234.9,248.4,234.9z M248.4,171.3c-17.3,0-31.3,14-31.3,31.3s14,31.3,31.3,31.3s31.3-14,31.3-31.3l0,0
	C279.7,185.3,265.7,171.3,248.4,171.3z"/>
<ellipse class="st2" cx="142.1" cy="209.1" rx="30.6" ry="27.9"/>
<circle class="st1" cx="194.1" cy="59" r="40.8"/>
<path class="st1" d="M194.1,100.3c-22.8,0-41.3-18.5-41.3-41.3c0-22.8,18.5-41.3,41.3-41.3s41.3,18.5,41.3,41.3c0,0,0,0,0,0
	C235.4,81.8,216.9,100.3,194.1,100.3z M194.1,18.7c-22.3,0-40.3,18-40.3,40.3s18,40.3,40.3,40.3s40.3-18,40.3-40.3l0,0
	C234.4,36.8,216.4,18.8,194.1,18.7z"/>
<ellipse transform="matrix(0.5721 -0.8202 0.8202 0.5721 45.3346 223.8376)" class="st0" cx="237.2" cy="68.5" rx="41.1" ry="49.4"/>
<circle class="st1" cx="151" cy="80.3" r="40.8"/>
<path class="st1" d="M151,121.6c-22.8,0-41.3-18.5-41.3-41.3S128.2,39,151,39s41.3,18.5,41.3,41.3c0,0,0,0,0,0
	C192.3,103.1,173.8,121.6,151,121.6z M151,40c-22.3,0-40.3,18-40.3,40.3s18,40.3,40.3,40.3s40.3-18,40.3-40.3l0,0
	C191.3,58.1,173.3,40,151,40z"/>
<ellipse class="st2" cx="302.5" cy="162.7" rx="35.8" ry="39.8"/>
<path class="st0" d="M175.3,228h45.7c6.6,0,12,5.4,12,12v144.1c0,6.6-5.4,12-12,12h-45.7c-6.6,0-12-5.4-12-12V240
	C163.3,233.4,168.7,228,175.3,228z"/>
<rect x="145.9" y="165.8" transform="matrix(0.8449 -0.5349 0.5349 0.8449 -84.6403 117.8593)" class="st0" width="30" height="78.2"/>
<rect x="183.1" y="157.1" class="st0" width="30" height="78.2"/>
<rect x="177.7" y="180.5" transform="matrix(0.3877 -0.9218 0.9218 0.3877 -34.7278 338.7126)" class="st0" width="119.7" height="30"/>
<ellipse class="st0" cx="142.1" cy="159.6" rx="41.1" ry="49.4"/>
<ellipse class="st2" cx="115.2" cy="94.4" rx="35.8" ry="39.8"/>
<circle class="st1" cx="169.1" cy="174.1" r="31.8"/>
<path class="st1" d="M169.1,206.4c-17.8,0-32.3-14.5-32.3-32.3c0-17.8,14.5-32.3,32.3-32.3s32.3,14.5,32.3,32.3c0,0,0,0,0,0
	C201.4,191.9,187,206.4,169.1,206.4z M169.1,142.8c-17.3,0-31.3,14-31.3,31.3c0,17.3,14,31.3,31.3,31.3c17.3,0,31.3-14,31.3-31.3
	c0,0,0,0,0,0C200.4,156.8,186.4,142.8,169.1,142.8z"/>
<circle class="st1" cx="89.9" cy="115.9" r="31.8"/>
<path class="st1" d="M89.9,148.2c-17.8,0-32.3-14.5-32.3-32.3s14.5-32.3,32.3-32.3c17.8,0,32.3,14.5,32.3,32.3c0,0,0,0,0,0
	C122.2,133.7,107.8,148.2,89.9,148.2z M89.9,84.6c-17.3,0-31.3,14-31.3,31.3c0,17.3,14,31.3,31.3,31.3s31.3-14,31.3-31.3
	c0,0,0,0,0,0C121.2,98.6,107.2,84.6,89.9,84.6z"/>
<circle class="st1" cx="262.7" cy="168" r="31.8"/>
<path class="st1" d="M262.7,200.3c-17.8,0-32.3-14.5-32.3-32.3s14.5-32.3,32.3-32.3c17.8,0,32.3,14.5,32.3,32.3c0,0,0,0,0,0
	C295,185.9,280.6,200.3,262.7,200.3z M262.7,136.7c-17.3,0-31.3,14-31.3,31.3s14,31.3,31.3,31.3c17.3,0,31.3-14,31.3-31.3v0
	C294,150.7,280,136.7,262.7,136.7z"/>
<circle class="st1" cx="223" cy="115.9" r="31.8"/>
<path class="st1" d="M223,148.2c-17.8,0-32.3-14.5-32.3-32.3s14.5-32.3,32.3-32.3s32.3,14.5,32.3,32.3c0,0,0,0,0,0
	C255.3,133.7,240.8,148.2,223,148.2z M223,84.6c-17.3,0-31.3,14-31.3,31.3s14,31.3,31.3,31.3s31.3-14,31.3-31.3c0,0,0,0,0,0
	C254.3,98.6,240.3,84.6,223,84.6z"/>
<circle class="st1" cx="312.5" cy="122.9" r="31.8"/>
<path class="st1" d="M312.5,155.2c-17.8,0-32.3-14.5-32.3-32.3s14.5-32.3,32.3-32.3c17.8,0,32.3,14.5,32.3,32.3v0
	C344.8,140.7,330.3,155.2,312.5,155.2z M312.5,91.6c-17.3,0-31.3,14-31.3,31.3s14,31.3,31.3,31.3s31.3-14,31.3-31.3l0,0
	C343.8,105.6,329.8,91.6,312.5,91.6z"/>
<ellipse class="st2" cx="101" cy="166.1" rx="35.8" ry="39.8"/>
<circle class="st0" cx="186.8" cy="130.3" r="35.8"/>
<ellipse class="st0" cx="273" cy="121.1" rx="35.8" ry="30"/>
<ellipse class="st2" cx="230.9" cy="174.1" rx="35.8" ry="39.8"/>
<circle class="st2" cx="212.6" cy="72.1" r="35.8"/>
<circle class="st2" cx="302.5" cy="91.1" r="32.1"/>
<ellipse class="st1" cx="259.7" cy="94.6" rx="28.8" ry="26.2"/>
<path class="st1" d="M259.7,121.3c-16.1,0-29.3-12-29.3-26.7S243.6,68,259.7,68s29.2,12,29.2,26.7S275.8,121.3,259.7,121.3z
	 M259.7,69c-15.6,0-28.3,11.5-28.3,25.7s12.7,25.7,28.3,25.7s28.2-11.5,28.2-25.7S275.2,69,259.7,69z"/>
</svg>
