<svg xmlns="http://www.w3.org/2000/svg" viewBox="0 0 466 423"><defs><style>.cls-1{fill:#fcd0fc;}.cls-2{fill:#fff;}.cls-3{fill:#f4deb8;}.cls-4{fill:#603813;}.cls-5{fill:#068406;}.cls-6{fill:#4c33e2;}.cls-7{fill:#f42745;}.cls-8{fill:#8c6239;}.cls-9{fill:#c90eaf;}</style></defs><g id="Layer_9" data-name="Layer 9"><path class="cls-1" d="M341.28,143.19C344.15,163,274.7,176.8,200.59,174.5c-61.87-1.91-106.68-14.79-108.75-29s38.88-27.9,100-30.94C265.12,110.88,338.4,123.4,341.28,143.19Z"/><path class="cls-2" d="M341.08,210.5c2.88,19.79-66.58,33.61-140.69,31.31-61.87-1.92-106.68-14.8-108.75-29s38.88-27.9,100-30.94C264.92,178.19,338.2,190.71,341.08,210.5Z"/><path class="cls-2" d="M216.8,242.56q-8.13,0-16.43-.25c-60.09-1.86-107-14.53-109.22-29.47-.36-2.43.46-4.87,2.42-7.26,10.1-12.27,48.6-21.79,98.08-24.25,68.41-3.4,146.81,7.72,149.92,29.1h0c.42,2.85-.58,5.65-3,8.31C326,232.88,275.16,242.56,216.8,242.56Zm.29-60.86c-8.45,0-17,.21-25.4.63-48.45,2.41-87.57,12-97.35,23.89a8.28,8.28,0,0,0-2.2,6.48c2.1,14.46,48.65,26.76,108.26,28.61,63.69,2,124.08-8.23,137.47-23.23,2.17-2.44,3.08-5,2.71-7.51-1.31-9-18.77-17.31-47.91-22.7C270.86,183.84,244.27,181.7,217.09,181.7Z"/><path class="cls-2" d="M341.46,213.49l-1-.09a415.12,415.12,0,0,0,0-69.63l1-.08A415,415,0,0,1,341.46,213.49Z"/><path class="cls-2" d="M97.31,147.71c-1.42,5.32-.39,10.93,0,16.42.19,2.66.22,5.32.25,8q.2,19.73-.23,39.46"/><path class="cls-2" d="M97.82,211.59l-1,0c.28-13.07.35-26.34.23-39.45,0-2.83-.07-5.37-.25-8-.08-1.13-.18-2.26-.29-3.4-.41-4.36-.83-8.88.32-13.19l1,.26c-1.1,4.14-.68,8.56-.28,12.84.11,1.14.21,2.28.29,3.42.18,2.6.22,5.17.25,8C98.17,185.23,98.1,198.51,97.82,211.59Z"/><path class="cls-2" d="M91.53,146.12c-2.16,10,0,20.78.06,30.93q.09,17.26-.27,34.53c-.15,7.72,11.85,7.72,12,0q.33-16.28.28-32.56c0-4.69,0-9.4-.25-14.09-.31-5.19-1.37-10.47-.25-15.62,1.63-7.53-9.94-10.75-11.57-3.19Z"/><path class="cls-2" d="M97.21,217.87h-.15c-3.07-.06-6.32-2.06-6.24-6.3.24-11.81.33-23.43.27-34.52,0-3.28-.27-6.71-.51-10-.5-7-1-14.22.46-21a5.63,5.63,0,0,1,3.78-4.41,7.24,7.24,0,0,1,6.84,1.61,6.27,6.27,0,0,1,1.93,6.2c-.82,3.77-.44,7.69-.08,11.49.13,1.31.26,2.67.34,4,.23,3.84.23,7.76.24,11.54V179c0,10.49,0,21.45-.28,32.57A6.3,6.3,0,0,1,97.21,217.87Zm-.46-75.56a5.43,5.43,0,0,0-1.62.24A4.59,4.59,0,0,0,92,146.22h0c-1.44,6.66-.92,13.81-.43,20.73.24,3.33.49,6.78.51,10.1.06,11.1,0,22.72-.27,34.54a5.06,5.06,0,0,0,5.26,5.28c2.7,0,5.67-1.58,5.74-5.3.23-11.12.32-22.07.28-32.55v-2.58c0-3.77,0-7.67-.24-11.48-.08-1.31-.21-2.66-.33-4-.37-3.88-.76-7.88.09-11.8A5.32,5.32,0,0,0,101,144,6.43,6.43,0,0,0,96.75,142.31Z"/><path class="cls-2" d="M98.53,212.83a35.76,35.76,0,0,0,6.33,6.15,33.38,33.38,0,0,0,8.63,3.87,247.3,247.3,0,0,0,57.73,11.75c3.22.26,6.44.46,9.67.65,4,.25,8,.5,12,.72q16.77.92,33.56,1.22"/><path class="cls-2" d="M226.43,237.69c-11.13-.2-22.43-.61-33.57-1.23-4-.21-8-.46-12-.71-3.18-.19-6.46-.39-9.68-.66a247.17,247.17,0,0,1-57.85-11.76,33.84,33.84,0,0,1-8.76-3.94,36.1,36.1,0,0,1-6.42-6.23l.76-.66a35.44,35.44,0,0,0,6.23,6.07,33,33,0,0,0,8.5,3.81,246.86,246.86,0,0,0,57.62,11.72c3.21.26,6.49.46,9.66.66,4,.24,8,.49,12,.71,11.13.61,22.42,1,33.54,1.22Z"/><path class="cls-2" d="M94.29,217.07c7.57,8.63,16.84,11.58,27.61,14.65a250.39,250.39,0,0,0,34.47,7.22c23.11,3.19,46.76,3.8,70.07,4.25,7.72.14,7.72-11.86,0-12-21.51-.41-43.32-1-64.7-3.55a235.21,235.21,0,0,1-31.13-6c-5.22-1.36-10.41-2.87-15.53-4.58a26.48,26.48,0,0,1-12.31-8.48c-5.1-5.82-13.56,2.7-8.48,8.48Z"/><path class="cls-2" d="M226.58,243.69h-.15c-24-.46-47.46-1.13-70.13-4.25a251.15,251.15,0,0,1-34.53-7.24c-11.61-3.31-20.4-6.31-27.86-14.8A6.38,6.38,0,0,1,92.58,211a7.23,7.23,0,0,1,5.16-4.73,5.58,5.58,0,0,1,5.41,2c3.83,4.36,7.22,6.69,12.09,8.33s9.92,3.13,15.49,4.58a236.57,236.57,0,0,0,31.07,6c20.92,2.53,42.52,3.12,64.65,3.54,4.21.08,6.34,3.45,6.28,6.75C232.67,240.47,230.72,243.69,226.58,243.69ZM98.83,207.14a4.87,4.87,0,0,0-.89.09,6.22,6.22,0,0,0-4.42,4.07,5.37,5.37,0,0,0,1.14,5.44h0C101.94,225,110.6,228,122,231.24a251.05,251.05,0,0,0,34.4,7.21c22.62,3.12,46,3.78,70,4.24a4.85,4.85,0,0,0,4.47-2.32,6.25,6.25,0,0,0,.07-6.05,5.08,5.08,0,0,0-4.56-2.63c-22.16-.42-43.78-1-64.75-3.55a240.19,240.19,0,0,1-31.2-6c-5.6-1.46-10.69-3-15.56-4.6-5.06-1.7-8.57-4.12-12.52-8.62A4.69,4.69,0,0,0,98.83,207.14Z"/><path class="cls-2" d="M226.29,237.31,246.52,236c5.78-.37,11.56-.74,17.31-1.37,4.09-.45,8.16-1,12.23-1.61,15.11-2.14,30.38-4.33,44.62-9.82"/><path class="cls-2" d="M226.32,237.81l-.06-1,20.23-1.31c5.69-.36,11.55-.74,17.29-1.37,4.05-.44,8.15-1,12.12-1.59,15-2.12,30.34-4.31,44.6-9.8l.36.93c-14.37,5.53-29.81,7.73-44.73,9.85-4.07.58-8.18,1.16-12.24,1.61-5.76.63-11.64,1-17.32,1.37Z"/><path class="cls-2" d="M226.29,243.31c16.29-1.05,32.57-1.86,48.74-4.13,16-2.24,32.06-4.5,47.25-10.19,7.16-2.69,4.06-14.29-3.19-11.57-29.27,11-61.95,11.9-92.8,13.89-7.67.49-7.72,12.5,0,12Z"/><path class="cls-2" d="M225.84,243.82a5.46,5.46,0,0,1-4.75-2.41,7.23,7.23,0,0,1-.31-7,6.38,6.38,0,0,1,5.48-3.59l9.53-.59c28-1.69,56.92-3.45,83.12-13.27a5.5,5.5,0,0,1,7.45,3.43c1.21,3.24.26,7.52-3.91,9.08-15.26,5.72-31.57,8-47.35,10.21-14,2-28.21,2.85-42,3.71l-6.78.43h-.48ZM321.2,217.5a5.63,5.63,0,0,0-1.94.38c-26.34,9.88-55.35,11.64-83.41,13.34-3.19.19-6.37.38-9.53.59a5.34,5.34,0,0,0-4.64,3,6.18,6.18,0,0,0,.24,6,4.5,4.5,0,0,0,4.34,2h0l6.78-.43c13.77-.86,28-1.75,41.93-3.7,15.72-2.2,32-4.48,47.13-10.16a5.87,5.87,0,0,0,3.32-7.79A4.58,4.58,0,0,0,321.2,217.5Z"/><path class="cls-2" d="M318.79,223.72c3.28-.39,6.33-1.87,9.3-3.33a14.54,14.54,0,0,0,3.65-2.25c2.12-2,2.87-4.95,3.54-7.77"/><path class="cls-2" d="M318.85,224.21l-.12-1c3.23-.38,6.24-1.85,9.14-3.27a14.36,14.36,0,0,0,3.53-2.18c2.08-1.93,2.81-5,3.39-7.51l1,.23c-.61,2.62-1.38,5.88-3.68,8a15.07,15.07,0,0,1-3.77,2.33C325.33,222.3,322.25,223.81,318.85,224.21Z"/><path class="cls-2" d="M320.38,229.5a34.5,34.5,0,0,0,13.56-5.5c4.17-2.9,6-7.24,7.12-12,1.8-7.51-9.77-10.71-11.57-3.19-.64,2.69-.95,4.62-3.46,5.95a28,28,0,0,1-8.84,3.2c-3.2.5-5,4.52-4.19,7.38.94,3.43,4.17,4.69,7.38,4.19Z"/><path class="cls-2" d="M319,230.11a6.32,6.32,0,0,1-6.47-4.66,7.05,7.05,0,0,1,1-5.51,5.33,5.33,0,0,1,3.64-2.5,28,28,0,0,0,8.68-3.15c2.14-1.14,2.52-2.72,3.08-5.11l.12-.52a5.77,5.77,0,0,1,4-4.41,7.24,7.24,0,0,1,6.83,1.72,6.14,6.14,0,0,1,1.73,6.12c-1,4.29-2.71,9.11-7.33,12.32A35.18,35.18,0,0,1,320.46,230h0A9.27,9.27,0,0,1,319,230.11ZM334.83,205a5.38,5.38,0,0,0-1.55.22,4.79,4.79,0,0,0-3.3,3.69l-.12.51c-.59,2.47-1.05,4.42-3.6,5.76a28.66,28.66,0,0,1-9,3.26,4.39,4.39,0,0,0-2.95,2,6.14,6.14,0,0,0-.84,4.7c.95,3.46,4.27,4.22,6.83,3.83h0a34.1,34.1,0,0,0,13.34-5.43c4.35-3,5.94-7.62,6.93-11.73a5.19,5.19,0,0,0-1.45-5.16A6.36,6.36,0,0,0,334.83,205Z"/><path class="cls-2" d="M335.46,209.16c-.34-6.31,1.07-12.57,1.62-18.87.25-2.9.31-5.8.38-8.7l.55-24a78.43,78.43,0,0,0-.1-8.26,19.4,19.4,0,0,1-6.41,6.27c-5.06,3-11.22,3.61-16.56,6.12"/><path class="cls-2" d="M335,209.19a68.9,68.9,0,0,1,.89-12.7c.27-2.05.55-4.16.73-6.25.25-2.87.31-5.82.38-8.66l.55-24c.05-2.22.1-4.5,0-6.76a19.92,19.92,0,0,1-5.75,5.22,38.77,38.77,0,0,1-9.34,3.61,49.9,49.9,0,0,0-7.26,2.53l-.43-.91a51.65,51.65,0,0,1,7.41-2.58,38.11,38.11,0,0,0,9.11-3.51,18.91,18.91,0,0,0,6.25-6.11l.79-1.26.13,1.49a79.64,79.64,0,0,1,.1,8.31l-.55,24c-.07,2.86-.13,5.82-.38,8.73-.19,2.1-.47,4.23-.74,6.29a69,69,0,0,0-.88,12.52Z"/><path class="cls-2" d="M341.46,209.16c-.27-9.84,1.82-19.7,2.05-29.57.23-10,1-20.23.4-30.24a6.05,6.05,0,0,0-11.18-3c-4.55,6.63-13.93,7.25-20.82,10.23-7.07,3.06-1,13.4,6,10.37,4.69-2,9.8-2.81,14.44-5a27,27,0,0,0,10.69-9.52l-11.18-3c.63,10-.17,20.22-.4,30.24-.23,9.87-2.32,19.73-2.05,29.57.2,7.71,12.21,7.74,12,0Z"/><path class="cls-2" d="M335.62,215.46a6.36,6.36,0,0,1-6.66-6.28,126.89,126.89,0,0,1,1-16.57c.46-4.27.93-8.69,1-13,.06-2.84.18-5.74.28-8.55s.22-5.45.29-8.21a61.7,61.7,0,0,1-6.71,2.28,58.26,58.26,0,0,0-6.71,2.28,7.11,7.11,0,0,1-9.35-3.91,5.31,5.31,0,0,1,2.9-7.37,60.75,60.75,0,0,1,6.59-2.26c5.36-1.61,10.9-3.27,14-7.8a6.67,6.67,0,0,1,7.32-2.81,6.51,6.51,0,0,1,4.77,6.09,216.06,216.06,0,0,1-.12,21.75c-.11,2.8-.22,5.7-.28,8.53-.11,4.38-.58,8.82-1,13.12a123.38,123.38,0,0,0-1,16.43h0c.11,4.21-3.1,6.22-6.14,6.3Zm-3-53.09c-.07,2.92-.18,5.83-.3,8.7s-.22,5.7-.28,8.53c-.11,4.38-.58,8.82-1,13.12a123.38,123.38,0,0,0-1,16.43,5.39,5.39,0,0,0,5.66,5.31h.18c2.63-.07,5.25-1.73,5.16-5.27h0a126.89,126.89,0,0,1,1-16.57c.46-4.27.93-8.69,1-13,.06-2.84.18-5.74.28-8.55.24-6.07.49-12.32.27-18.46l-.06.09a27.44,27.44,0,0,1-10.89,9.7Zm-1.22-13.67c-3.37,3.28-8.14,4.71-12.78,6.1a60.63,60.63,0,0,0-6.48,2.21,4.28,4.28,0,0,0-2.38,6.06,6.12,6.12,0,0,0,8,3.39,60.08,60.08,0,0,1,6.81-2.32,56.55,56.55,0,0,0,7-2.42c.08-4.13.07-8.27-.19-12.34Zm1.08,1.31c.21,3.72.23,7.48.16,11.23a26.34,26.34,0,0,0,9.66-8.56Zm-1.07-1.32L343.54,152c0-.87-.08-1.73-.13-2.6a5.53,5.53,0,0,0-4-5.19,5.61,5.61,0,0,0-6.23,2.42A13.71,13.71,0,0,1,331.38,148.69Z"/><path class="cls-2" d="M102.91,155.38a223.73,223.73,0,0,0,3.34,54.68l31.42,8.06c5.57,1.43,11.22,2.88,17,2.92,3.07,0,6.15-.36,9.22-.17a83.83,83.83,0,0,1,9.8,1.64c9.87,1.8,20,1.25,30,.7l36.81-2.06c-1.55,3.6-5.82,5.06-9.66,5.84-17,3.46-34.55,1.54-51.78-.4l35,2.87c9.34.76,18.73,1.53,28.08.8,10.66-.83,21.05-3.59,31.38-6.33q12.36-3.28,24.71-6.6c4.43-1.19,9.21-2.64,11.86-6.37-6.3-2.27-13.26-.88-19.77.69-18.21,4.4-36.22,10.1-54.86,12-6.9.72-14.39.77-20.14-3.12a622.92,622.92,0,0,0,82.69-13.44c3.18-.74,6.91-2,7.63-5.22a357.54,357.54,0,0,0-86.84,8.31c28.15-8.38,58-8.45,87.38-8.44-31.2-7.21-63.91-1.26-94.77,7.3a236.92,236.92,0,0,1,49.67-17.27c6.21-1.45,12.57-2.71,18.15-5.78s10.4-8.31,11.12-14.64c-29.94,8.82-59.86,18.89-91,21.23-12.43.93-24.92.61-37.39.29"/><path class="cls-2" d="M234.2,231.05c-6.77,0-13.54-.55-20.14-1.09l-7.05-.58c-9.4-.2-18.79-1.25-28-2.29l.09-1L207,228.38a106.72,106.72,0,0,0,23.71-1.88,18.48,18.48,0,0,0,6.73-2.52c-.64.07-1.28.15-1.93.21-5.47.58-11.58.8-16.9-1.32l-14.93.83c-9.91.56-20.16,1.13-30.14-.69-.92-.17-1.85-.36-2.77-.55a49.54,49.54,0,0,0-7-1.09,47.37,47.37,0,0,0-5.33.06c-1.27.06-2.58.13-3.87.11-5.85,0-11.57-1.51-17.1-2.93l-31.72-8.14-.06-.32a224.68,224.68,0,0,1-3.35-54.8l1,.06a223.21,223.21,0,0,0,3.28,54.25l31.1,8c5.47,1.4,11.13,2.86,16.86,2.9,1.27,0,2.56,0,3.81-.11a49.26,49.26,0,0,1,5.44-.06,49.19,49.19,0,0,1,7.11,1.11c.92.19,1.83.37,2.75.54,9.86,1.8,20.05,1.23,29.9.69l13.06-.73a18.2,18.2,0,0,1-1.64-1l-1.15-.79,1.39-.13a623.75,623.75,0,0,0,82.62-13.42c2.6-.61,6.06-1.7,7.07-4.26-2.32-.06-4.64-.09-7-.11-2.66,0-5.34,0-8,.05A356.53,356.53,0,0,0,219,210.72l-.25-1c23.18-6.91,47.43-8.18,71.33-8.41,2.68-.05,5.35-.06,8-.05h3.33c-31.57-5.92-64.39,1.24-89.79,8.28l-.36-.93A238,238,0,0,1,261,191.33l1.81-.41c5.52-1.27,11.23-2.58,16.21-5.31,5.89-3.23,9.86-8.24,10.76-13.52q-5.67,1.68-11.32,3.39c-25.58,7.68-52,15.62-79,17.65-12.48.93-25.17.61-37.44.29l0-1c12.25.32,24.92.64,37.35-.29,26.88-2,53.28-9.94,78.81-17.61,4-1.21,8.05-2.42,12.07-3.6l.72-.22-.08.75c-.67,5.88-4.92,11.5-11.38,15-5.1,2.8-10.88,4.13-16.47,5.41l-1.81.42a241,241,0,0,0-44.36,14.8c47.39-12.44,72.66-9.69,89.46-5.81l4.28,1H306.1c-.94,3.34-5,4.65-7.93,5.34a625.72,625.72,0,0,1-81.27,13.31,16.91,16.91,0,0,0,1.92.92l22.46-1.25-.32.74a7.64,7.64,0,0,1-.69,1.26c12.18-1.69,24.25-4.83,36-7.88,4.59-1.2,9.33-2.44,14-3.57,6.64-1.6,13.66-3,20.05-.68l.62.23-.38.53c-2.68,3.77-7.27,5.26-12.14,6.57q-12.34,3.34-24.71,6.6c-10.2,2.71-20.74,5.51-31.47,6.35C239.55,231,236.88,231.05,234.2,231.05Zm-16.93-1.84a158.71,158.71,0,0,0,24.87.55c10.64-.83,21.14-3.62,31.29-6.31q12.36-3.28,24.71-6.6c4.44-1.2,8.63-2.54,11.17-5.64-6-1.9-12.57-.59-18.83.92-4.67,1.13-9.41,2.37-14,3.56-12.09,3.15-24.55,6.4-37.16,8.06-2.25,2.23-5.71,3.19-8.38,3.73A94.62,94.62,0,0,1,217.27,229.21Zm4.14-6.49c4.53,1.18,9.51.95,14,.48,1.13-.12,2.26-.25,3.39-.4a6.42,6.42,0,0,0,.82-1.1Z"/><path class="cls-2" d="M96.91,155.38a237.52,237.52,0,0,0,3.56,56.28,5.9,5.9,0,0,0,4.19,4.19c11.09,2.84,22.17,5.76,33.27,8.53A73,73,0,0,0,154.65,227c5.77.07,10.9,0,16.61,1.1,11.08,2.09,22.21,1.63,33.4,1l35.84-2-5.18-9c-1.67,3.06-6.78,3.29-9.85,3.76a102,102,0,0,1-15.61,1c-10.31,0-20.57-1.16-30.8-2.31v12c23.71,1.94,48.51,6.24,72.2,2.57,11.63-1.8,23-5.2,34.35-8.22,9.29-2.48,22.29-3.77,28.76-11.74,2.83-3.48,2-8.62-2.65-10-7.65-2.34-15.32-1.12-23,.69-8.22,1.95-16.35,4.23-24.54,6.27a242.19,242.19,0,0,1-23.83,5c-7.23,1.06-15.46,2.33-22-1.68l-3,11.18q27-2.58,53.74-7.35,13.42-2.43,26.75-5.43c6.76-1.53,13-3.16,15.62-10.29,1.38-3.79-2.17-7.5-5.79-7.59a372.25,372.25,0,0,0-88.43,8.52L220.44,216c27.89-8.12,57-8.22,85.78-8.22,6.62,0,8.34-10.29,1.59-11.79-32.75-7.28-66.1-1.47-97.95,7.31l4.62,11a236.13,236.13,0,0,1,48.24-16.66c13.82-3.25,30.77-8.29,33.46-24.62.7-4.3-2.62-8.79-7.39-7.38-20.36,6-40.62,12.56-61.43,16.91-21.71,4.53-43.27,5-65.35,4.4-7.73-.19-7.72,11.81,0,12,22.52.58,44.55,0,66.71-4.45,21.45-4.34,42.31-11.1,63.26-17.29l-7.38-7.38c-2.39,14.52-22.6,15.4-33.89,18.44a246,246,0,0,0-42.29,15.67c-6.22,3-1.81,12.74,4.63,11,29.7-8.18,61-14.11,91.57-7.31l1.6-11.78c-29.85,0-60.08.24-89,8.65-7.45,2.17-4.34,13.22,3.19,11.57a358,358,0,0,1,85.24-8.09l-5.79-7.6c-.32.89-6.28,1.69-7.23,1.91q-5.24,1.19-10.48,2.27-11,2.28-22,4.17-22.27,3.79-44.79,5.91c-5.72.55-8.41,7.89-3,11.18,13.35,8.17,31.77,3.28,46,.11,8.24-1.84,16.39-4,24.56-6.15s17.26-5.55,25.67-3l-2.64-10c-2.61,3.22-6.32,4-10.16,5.09-5.7,1.55-11.4,3.06-17.11,4.58-10.76,2.86-21.6,6.15-32.69,7.51-10.58,1.29-21.26.43-31.83-.43l-35-2.87c-7.77-.63-7.53,11.16,0,12,12.76,1.43,25.62,2.88,38.47,2.1,9.45-.57,23-1.06,28.15-10.51,2.07-3.78-.46-9.29-5.18-9L206.6,217c-11.29.63-22.61,1.43-33.78-.79a62.28,62.28,0,0,0-14.48-1.32,60.37,60.37,0,0,1-17.22-2.12c-11.11-2.77-22.18-5.69-33.27-8.53l4.19,4.19a224.34,224.34,0,0,1-3.13-53.09c.44-7.71-11.56-7.69-12,0Z"/><path class="cls-2" d="M231,237.09a322.93,322.93,0,0,1-32.48-2.1c-6.58-.44-13.12-1.18-19.54-1.9h0l-.45-.06a6.77,6.77,0,0,1-5.08-4c-.77-.12-1.54-.25-2.31-.4a84.22,84.22,0,0,0-15-1.08h-1.5c-5.38-.07-10.62-1.12-16.83-2.67-7.48-1.87-15.06-3.83-22.4-5.73l-10.87-2.81a6.37,6.37,0,0,1-4.56-4.58,238.61,238.61,0,0,1-3.57-56.4,6.28,6.28,0,0,1,3.52-5.47,7.25,7.25,0,0,1,7,.28,5.6,5.6,0,0,1,2.46,5.25,225.71,225.71,0,0,0,2.5,49.4l7,1.8c7.32,1.89,14.9,3.85,22.35,5.72a59.05,59.05,0,0,0,17.08,2.1,63.18,63.18,0,0,1,14.6,1.33c10.52,2.09,21.38,1.48,31.88.88l6-.33a6.66,6.66,0,0,1,.78-.72h0a6.75,6.75,0,0,1-6.12-4.58c-1-2.62-.48-6,2.83-7.55l1-.46v0l.11,0q8.91-4.23,18.17-7.73c-23.41,4.57-46.2,4.69-65.46,4.2-4.24-.11-6.37-3.52-6.28-6.84.07-3,2-6.16,6.1-6.16h.2c20.45.53,42.51.35,65.24-4.39,16.81-3.51,33.54-8.54,49.72-13.41q5.83-1.76,11.67-3.49a5.87,5.87,0,0,1,5.74,1.18,7.54,7.54,0,0,1,2.28,6.76c-1.59,9.65-8.25,15.45-15.74,19.14a136.66,136.66,0,0,1,27,3.3,5.93,5.93,0,0,1,4.64,6.73,7.28,7.28,0,0,1-.71,2.44h0a6.28,6.28,0,0,1,4.35,4.19,7.24,7.24,0,0,1-1.46,6.63c-5.3,6.53-14.8,8.65-23.17,10.52-2.07.47-4,.9-5.85,1.39l-6.23,1.68c-9.16,2.5-18.64,5.08-28.18,6.56A133.15,133.15,0,0,1,231,237.09Zm-17.44-1.73c12.61.95,25.28,1.21,37.58-.69,9.48-1.47,18.93-4,28.07-6.53l6.24-1.69c1.84-.49,3.8-.93,5.88-1.39,8.22-1.84,17.53-3.92,22.61-10.18a6.22,6.22,0,0,0,1.28-5.71,5.3,5.3,0,0,0-3.68-3.52l-.25-.08a6.76,6.76,0,0,1-.76.92,13.32,13.32,0,0,1-3.29,3.54l2,7.45-.86-.26c-7-2.13-14.34-.07-21.49,1.92-1.32.37-2.63.73-3.91,1.06l-5.2,1.35c-6.33,1.65-12.88,3.36-19.38,4.81l-2.62.59c-4.61,1-9.59,2.17-14.65,2.92-6.27,4.3-15.46,4.84-22.64,5.27l-.94.05C216.24,235.27,214.92,235.33,213.6,235.36Zm-15-1.37a148.58,148.58,0,0,0,18.87.2l.94-.05c6.32-.38,14.23-.85,20.17-3.93-7.07.86-14.21.83-20.64-1.3l-13.28.74c-8.83.49-17,.83-25.13.12v2.36c5.14.43,10.41,1,15.52,1.5Zm-24-4.78a5.63,5.63,0,0,0,3.9,2.8v-2.33C177.26,229.55,176,229.4,174.66,229.21Zm46.4-.47c6.22,1.45,13,1.15,19.69.18a14.78,14.78,0,0,0,4.17-4.41c-1.71.18-3.42.32-5.13.4l1.55,2.7Zm-41.5,0c8.07.71,16.25.37,25.07-.12l11-.61a29,29,0,0,1-3.59-1.85,6.75,6.75,0,0,1-2.5-2.6l-2.71-.22c-9.16-.2-18.36-1.22-27.3-2.22Zm-5.39-.64c1.47.22,2.93.4,4.39.55v-7.61h-.09a4.46,4.46,0,0,0-4.62,4.29A6.72,6.72,0,0,0,174.17,228.13Zm72-3.77,0,.06a15.16,15.16,0,0,1-3.35,4.18c4.42-.73,8.76-1.71,12.8-2.63l2.62-.59c6.48-1.44,13-3.15,19.35-4.8l5.2-1.35c1.28-.33,2.58-.69,3.89-1.06,7-1.94,14.22-4,21.2-2.15l-1.43-5.39c-3.12,2-6.92,2.86-10.44,3.66-8.8,2-17.81,3.81-26.77,5.43l-3.12.55A154,154,0,0,1,246.15,224.36ZM103.25,150.1a6.53,6.53,0,0,0-2.87.67,5.32,5.32,0,0,0-3,4.64h0A238.16,238.16,0,0,0,101,211.57a5.39,5.39,0,0,0,3.82,3.79l10.88,2.81c7.34,1.9,14.92,3.86,22.39,5.73,6.15,1.54,11.32,2.57,16.6,2.64h1.5a84.48,84.48,0,0,1,15.2,1.1l1.74.31a7.43,7.43,0,0,1-.23-2.69,5.45,5.45,0,0,1,5.61-5.2h.09v0l.55.07,10.79.88,17,1.39c.73,0,1.46,0,2.2,0a6,6,0,0,1,0-2.94,6.62,6.62,0,0,1,.87-2.1l-5.09.28c-10.57.6-21.49,1.22-32.13-.9a61.84,61.84,0,0,0-14.37-1.31A60.86,60.86,0,0,1,141,213.3c-7.46-1.87-15-3.83-22.36-5.72l-6.55-1.69c.14.83.29,1.66.44,2.49l.29,1.57-6.62-6.61,1.77.45,2.89.74a226.23,226.23,0,0,1-2.45-49.18,4.57,4.57,0,0,0-2-4.36A5.76,5.76,0,0,0,103.25,150.1ZM215.87,227c.73.32,1.48.6,2.24.86l21.55-1.2-1-1.74c-1.57.06-3.15.09-4.69.09C228,225.79,221.93,226.45,215.87,227Zm-5.06-3.35a6,6,0,0,0,1.79,1.65,24.54,24.54,0,0,0,2.25,1.23l.67-2.49-1.46-.12Zm5.73.47L216,226q5.51-.52,11-1.15C223.5,224.7,220,224.43,216.54,224.16Zm.8-.94c5.48.43,11,.81,16.58.83l3.93-.5-2.56-4.48c-1.83,2.26-5.6,2.76-8.42,3.13l-1.33.18C223,222.78,220.29,223.05,217.34,223.22Zm18.6-5,3,5.21c2.29-.3,4.58-.62,6.85-.94A6.07,6.07,0,0,0,245,218a5.4,5.4,0,0,0-.82-1c-1.22.21-2.44.41-3.67.59l-.31,0C238.79,217.82,237.37,218,235.94,218.2Zm-24.7-.91a5.91,5.91,0,0,0-1.19,2.39,5,5,0,0,0,.11,2.73c2.07,0,4,0,5.85-.13l1.45-5.34Zm34.09-.5c.17.21.33.44.49.68a7.14,7.14,0,0,1,1,4.85q9.61-1.38,19-3c2.4-.63,4.78-1.28,7.14-1.92l5.49-1.49,2.27-.6q7.42-2,14.84-4l.69-.19a22.1,22.1,0,0,0,7.07-2.76q-12-.23-24,.37L274.49,210q-5.07,1.33-10.14,2.62C258.65,214,252.1,215.59,245.33,216.79Zm-26.82.09-1.45,5.35c3-.16,5.73-.44,8.33-.83.42-.07.87-.13,1.35-.19,2.68-.35,6.29-.83,7.84-2.85-5,.52-10.09.51-14.62-1.56Zm3.9-.22c4,1.26,8.48,1.11,12.8.62l.1-.18.09.16c1.57-.18,3.12-.41,4.63-.63l.3,0c.9-.12,1.79-.26,2.68-.41a4.93,4.93,0,0,0-2.48-.52ZM305,208.4c-2.37,2.08-5.32,2.87-8.4,3.7l-.69.19c-4.94,1.34-9.89,2.65-14.84,4l-2.27.6-.57.15c5.9-1.15,11.77-2.39,17.56-3.7,4.14-.94,7.67-1.88,10.4-3.68l-.32-1.21h-.15Zm-90.09,6.76a5.84,5.84,0,0,0-2.5,1.06l3.77-.21A5.87,5.87,0,0,1,214.86,215.16Zm26-.51a5.65,5.65,0,0,1,3.64,1.28c7-1.21,13.77-2.82,19.64-4.28,3.39-.85,6.76-1.73,10.14-2.62l.07,0a357.15,357.15,0,0,0-49,6.49l15.19-.84Zm-22.47.14.3.18c.38.24.77.45,1.16.65h0l-.26-1Zm-2,.2a4.8,4.8,0,0,0,1.52.58l.2-.75Zm4.25-.42.23.82q2.63-.75,5.26-1.42Q223.31,214.29,220.56,214.57Zm-11-10.65-.93.44c-2.93,1.41-3.08,4.27-2.32,6.3a5.55,5.55,0,0,0,6.59,3.74l1-.27,0-.07a6.94,6.94,0,0,1-1.14-2.43,5.05,5.05,0,0,1-.12-.56Zm5.16,9.67h0c1.32-.63,2.65-1.25,4-1.86l-1.83-6.66a5,5,0,0,0-3.36,5.71Zm5.53-.13,0,.13q7.94-.83,15.77-1.83c6.22-1.19,12.47-2.07,18.73-2.71l5.27-.88c5.52-.94,11.09-2,16.61-3.06h-.25C256.89,205.11,237.73,208.93,220.26,213.46Zm-1.25-.74-.2.09.21-.06Zm.93-.42.05.2c19-4.93,39.95-9,61.23-8.31l.86-.18c3.51-.73,7-1.49,10.47-2.27.2,0,.6-.12,1.13-.2,1.32-.23,5.32-.91,5.77-1.44l.31-.86.53.78,2.55,3.35c.62,0,1.23,0,1.84,0l.95-7a366.53,366.53,0,0,0-41.36,1.33l-1.44.34A242.4,242.4,0,0,0,219.94,212.3Zm-2.07-7.48,1.8,6.51a238.63,238.63,0,0,1,37.53-12.88A373.57,373.57,0,0,0,217.87,204.82Zm88.94,3.44.2.74a11.77,11.77,0,0,0,1.12-1A6.05,6.05,0,0,1,306.81,208.26Zm-96.27-4.62,2.09,5a6,6,0,0,1,4-4.48v0l.5-.11c16.35-4.76,33.21-6.91,49.68-7.88a90.82,90.82,0,0,0,9.24-2.85C252.21,193.3,229.37,198.47,210.54,203.64Zm70.77,1.55c-5,1-10.11,2-15.18,2.93,4.64-.29,9.28-.47,13.9-.6,2.6-.67,5.21-1.33,7.82-2Q284.58,205.3,281.31,205.19Zm9.7.67-2.13.49c-1.46.34-2.93.7-4.4,1.07,5.45-.1,10.88-.12,16.28-.13C297.51,206.68,294.26,206.21,291,205.86Zm15.11-.23.43,1.65a5,5,0,0,0,3.23-1.39c.12-.2.25-.42.37-.64a29.23,29.23,0,0,0-4.6-.76l-.28,2.06.05.07.18-.22Zm-196.62-.41,1.77,1.77-.24-1.38Zm184.67,0c3.34.44,6.69,1,10,1.74l0-.14-1.87-2.46A49.46,49.46,0,0,0,294.17,205.23Zm9.45-.85.79,1.05.14-1Zm-18.41,0q2.87.18,5.75.48a58.81,58.81,0,0,1,10.64-1.46l-1.78-2.34c-.81.48-2.57.9-6,1.47l-1.08.19C290.28,203.28,287.75,203.83,285.21,204.37Zm20.47-.87a29.93,29.93,0,0,1,4.92.83c.14-.31.27-.64.4-1a4.65,4.65,0,0,0-.62-4.27,6.26,6.26,0,0,0-3.76-2.54Zm-71.23-9.74q-9.85,3.41-19.36,7.63c27.4-7.16,47.79-9.38,63.58-9.22,8.51-3.69,15.38-9.34,17-19.26a6.51,6.51,0,0,0-1.95-5.85,4.9,4.9,0,0,0-4.79-1c-3.9,1.15-7.78,2.32-11.67,3.49-16.2,4.87-33,9.91-49.81,13.43-22.88,4.78-45.93,4.91-65.46,4.41-3.53-.1-5.21,2.54-5.28,5.19a5.39,5.39,0,0,0,5.3,5.81c19.58.5,42.81.36,66.6-4.44q2.77-.57,5.55-1.18,8.12-2.81,16.41-5c2.13-.57,4.56-1.07,7.13-1.59,10.92-2.22,24.51-5,26.4-16.45l.16-1,8.66,8.66-.8.24q-5.85,1.72-11.69,3.5C265.46,185.66,250,190.3,234.45,193.76Zm44.26-.52a66.47,66.47,0,0,1-7.19,2.6c10.29-.48,20.4-.54,30.1-.55A146.21,146.21,0,0,0,278.71,193.24Zm6.21-22.42c-1.08,4.77-4.09,8-8,10.36l3.27-1L291,176.94Z"/><path class="cls-2" d="M109.17,160.15a252.38,252.38,0,0,0,32,9.51c16,3.83,32.26,7,48.71,7.32,8.08.14,16.17-.43,24.24-1l60.38-4.23"/><path class="cls-2" d="M192.43,177.5l-2.52,0c-17.29-.31-34.38-3.88-48.82-7.34a253.09,253.09,0,0,1-32.1-9.52l.36-.94a251.84,251.84,0,0,0,32,9.49c14.39,3.45,31.41,7,48.6,7.31,8.07.14,16.27-.44,24.2-1l60.38-4.24.07,1-60.38,4.23C207.07,177,199.72,177.5,192.43,177.5Z"/><path class="cls-2" d="M107.58,165.93c12.8,4.86,26.09,8.26,39.43,11.23,13.78,3.06,27.82,5.45,42,5.79,13.91.34,27.88-1.15,41.74-2.13l43.83-3.07c7.66-.53,7.72-12.54,0-12l-42.85,3c-13.57,1-27.23,2.38-40.84,2.23s-27.27-2.43-40.65-5.4-26.63-6.37-39.43-11.23c-7.23-2.74-10.36,8.86-3.19,11.57Z"/><path class="cls-2" d="M193,183.5c-1.36,0-2.71,0-4.06-.05-12.2-.29-25.56-2.14-42.05-5.8-11.11-2.47-25.63-6-39.51-11.25h0a6.57,6.57,0,0,1-4.28-5.21,7.21,7.21,0,0,1,2.27-6.59,5.44,5.44,0,0,1,5.55-.7c13.83,5.24,28.3,8.74,39.37,11.2,16.16,3.59,28.66,5.25,40.54,5.39,10.45.1,21.12-.72,31.42-1.53,3.13-.24,6.26-.48,9.38-.7l42.85-3c4.06-.27,6.08,2.59,6.29,5.56a6.73,6.73,0,0,1-6.22,7.44l-43.82,3.07c-3,.22-6.09.45-9.13.69C212.24,182.75,202.58,183.5,193,183.5Zm-84.38-29.05a4,4,0,0,0-2.61.93A6.16,6.16,0,0,0,104.1,161a5.57,5.57,0,0,0,3.65,4.44c13.82,5.24,28.3,8.74,39.37,11.2,16.43,3.65,29.73,5.49,41.86,5.78,10.84.26,21.88-.6,32.56-1.43,3.05-.24,6.1-.48,9.14-.69l43.82-3.08a5.74,5.74,0,0,0,5.29-6.37c-.16-2.29-1.63-4.89-5.22-4.63l-42.85,3c-3.12.22-6.25.47-9.38.71-10.32.81-21,1.63-31.5,1.53-12-.14-24.52-1.81-40.74-5.41-11.1-2.47-25.63-6-39.51-11.25A5.62,5.62,0,0,0,108.64,154.45Z"/><path class="cls-2" d="M249,177.56l-49.56-.09c-6.1,0-12.22,0-18.32.37-8.76.56-17.54,1.94-26.28,1.06-9.22-.93-19-4.29-27.41-.47a82.27,82.27,0,0,1,17,11c2.69,2.27,5.4,4.79,8.82,5.64a11.35,11.35,0,0,0-1.67-11.25,94.54,94.54,0,0,0,11.32,7,4.18,4.18,0,0,0,1.83.61,4.52,4.52,0,0,0,2.05-.67c9-4.53,19.53-4.88,29.65-5.14l31-.8"/><path class="cls-2" d="M153.49,195.69l-.42-.1c-3.2-.79-5.76-3-8.23-5.06l-.79-.68a82.37,82.37,0,0,0-16.89-11l-1-.47,1-.44c6.46-2.91,13.68-1.73,20.66-.58,2.32.38,4.71.78,7,1,6.37.64,12.87.06,19.17-.5,2.31-.2,4.69-.41,7-.56,6.12-.39,12.34-.38,18.36-.37l49.56.09v1L199.39,178c-6,0-12.2,0-18.28.37-2.34.15-4.71.36-7,.56-6.35.56-12.91,1.14-19.36.49-2.34-.23-4.74-.63-7.07-1-6.47-1.06-13.14-2.16-19.08.09a83.22,83.22,0,0,1,16.1,10.62l.8.67c2.27,1.93,4.61,3.93,7.39,4.75a10.91,10.91,0,0,0-1.74-10.33l-2.39-2.92,3.07,2.2a93.33,93.33,0,0,0,11.25,6.93,3.8,3.8,0,0,0,1.61.56,4.06,4.06,0,0,0,1.73-.57c9.4-4.71,20.31-5,29.94-5.24l31-.8,0,1-31,.8c-9.53.24-20.32.52-29.44,5.09a5.74,5.74,0,0,1-2.27.72,4.64,4.64,0,0,1-2.06-.67,94.61,94.61,0,0,1-9.33-5.58,12,12,0,0,1,.37,9.6Z"/><path class="cls-2" d="M249,171.56c-21.36,0-42.87-.78-64.22.09-9.95.41-20,2.26-29.94,1.25-9.81-1-19.4-4.07-29-.26-4.34,1.73-6.51,8.43-1.44,11a81.91,81.91,0,0,1,14.47,9c4.12,3.28,7.66,6.61,12.77,8.25,3.2,1,6.4-1.21,7.38-4.19a17.62,17.62,0,0,0-2.27-15.87L148.49,189c4.3,3,10.62,8.4,16.18,8.41,3,0,5.57-1.87,8.28-2.82a47.67,47.67,0,0,1,9.87-2.23c14.61-1.84,29.8-1.18,44.51-1.56,7.71-.19,7.74-12.19,0-12-14,.36-28.07.12-42,1.31A61.74,61.74,0,0,0,167.42,184c-.25.1-3.68,1.71-3.73,1.64,2.37.39,2.85.27,1.44-.34-.73-.38-1.46-.78-2.18-1.2a99.71,99.71,0,0,1-8.4-5.38c-4.83-3.41-11.6,3.38-8.21,8.21a6.48,6.48,0,0,1,1.06,6.62l7.38-4.19c-4.27-1.37-7.8-5.54-11.37-8.18a87.78,87.78,0,0,0-13-7.89l-1.43,11c9-3.56,18.49.22,27.69.83,10,.67,19.94-1.15,29.9-1.46,20.76-.65,41.61-.07,62.38,0,7.73,0,7.74-12,0-12Z"/><path class="cls-2" d="M153.24,201.65a6,6,0,0,1-1.8-.28c-4.44-1.43-7.68-4.07-11.12-6.87-.59-.49-1.2-1-1.81-1.47a80.67,80.67,0,0,0-14.38-9,5.49,5.49,0,0,1-3.21-5.29,7.75,7.75,0,0,1,4.68-6.59c7.49-3,15.08-1.82,22.42-.7,2.24.34,4.54.69,6.82.92,6.59.67,13.32.07,19.83-.51,3.29-.3,6.7-.6,10-.74,14.89-.6,30.08-.43,44.77-.26,6.39.08,13,.15,19.48.17h0a5.93,5.93,0,0,1,5.38,3,7.27,7.27,0,0,1,0,7,5.93,5.93,0,0,1-5.36,3h0c-5.1,0-10.28-.05-15.37-.1a7.36,7.36,0,0,1-.81,4.17,6.09,6.09,0,0,1-5.43,3.21c-4.33.12-8.78.14-13.08.16-10.37.05-21.09.1-31.38,1.4a47.05,47.05,0,0,0-9.77,2.2c-.84.3-1.67.69-2.54,1.1a14.09,14.09,0,0,1-5.88,1.75h0a13.18,13.18,0,0,1-5.18-1.22s0,.08,0,.13A6.87,6.87,0,0,1,153.24,201.65Zm-17-30.37A27.29,27.29,0,0,0,126,173.11a6.7,6.7,0,0,0-4,5.7,4.46,4.46,0,0,0,2.66,4.35,82,82,0,0,1,14.55,9.09l1.83,1.47c3.35,2.74,6.53,5.32,10.79,6.7,2.95,1,5.88-1.24,6.75-3.88,0-.07.05-.15.07-.23a48,48,0,0,1-7.14-4.51l-4.91,2.78.41-1.23a6,6,0,0,0-1-6.17,5.39,5.39,0,0,1-1-3.3c-5.3-.81-10.68-1.21-15.76.8l-.79.31,1.63-12.5.63.31a87.37,87.37,0,0,1,13.08,7.94c.53.39,1.06.81,1.58,1.26a7.46,7.46,0,0,1,1.73-2.67c1.92-1.92,5.08-3,7.82-1.06,3,2.1,5.71,3.86,8.35,5.36.56.32,1.13.63,1.69.93l1.51-.69.84-.38c5-2,10.58-3.19,18.08-3.83,9.81-.85,19.88-1,29.62-1.1,4.06-.06,8.27-.11,12.39-.22a5.77,5.77,0,0,1,5.32,2.74,6.32,6.32,0,0,1,.77,1.88c5.14,0,10.38.09,15.55.1h0a5,5,0,0,0,4.49-2.46,6.25,6.25,0,0,0,0-6.06,5,5,0,0,0-4.52-2.48c-6.48,0-13.09-.09-19.49-.17-14.67-.17-29.85-.35-44.71.26-3.32.14-6.71.44-10,.73-6.56.59-13.34,1.2-20,.51-2.3-.23-4.62-.58-6.87-.92A77.37,77.37,0,0,0,136.23,171.28Zm23.54,24.48a12.39,12.39,0,0,0,4.91,1.19h0a13.22,13.22,0,0,0,5.45-1.66c.86-.4,1.75-.82,2.64-1.13a47.62,47.62,0,0,1,10-2.26c10.34-1.3,21.09-1.35,31.49-1.4,4.3,0,8.75,0,13.07-.16a5.11,5.11,0,0,0,4.57-2.69,6.26,6.26,0,0,0,.69-3.7l-2.83,0c-14.17-.14-28.81-.28-43.17.17-3.74.11-7.56.45-11.26.78-2.94.26-5.93.52-8.93.68a.56.56,0,0,1,0,.34c-.16.52-.62.55-2.73.22-.22,0-.27-.07-.38-.21l-.17-.22c-1.17,0-2.33,0-3.49,0A18.35,18.35,0,0,1,159.77,195.76Zm-7.39-4.5a46.14,46.14,0,0,0,6.47,4.07,17.38,17.38,0,0,0-.28-9.68c-.65,0-1.29-.06-1.94-.1-1.18-.08-2.37-.21-3.57-.37L151.29,187a14.07,14.07,0,0,0,3.65,1.88l1.08.35Zm-4.22-1.84a6.44,6.44,0,0,1,0,3.06l2.34-1.33-.28-.21c-.72-.53-1.41-1-2-1.49Zm1.11-.44,1.58,1.15.65.48,2.11-1.2a16.73,16.73,0,0,1-3-1.73ZM145.93,184a4.3,4.3,0,0,0,.82,2.56,9.93,9.93,0,0,1,1.23,2.25l1.77-1.77c-1.13-.87-2.23-1.83-3.31-2.77l-.26-.23Zm2.13.35c.79.68,1.59,1.36,2.41,2l1.36-1.36c-1.21-.18-2.41-.38-3.59-.58Zm11.23.28c1.24,0,2.48,0,3.73,0l-.32-.18c-1.62-.93-3.28-1.94-5-3.07A18.35,18.35,0,0,1,159.29,184.67Zm-5.33-.38c.92.11,1.83.2,2.74.26l1.5.09a17.43,17.43,0,0,0-1.57-3Zm73.55-4.95h-.17c-4.12.11-8.33.16-12.4.22-9.72.12-19.77.25-29.55,1.09-7.39.63-12.88,1.8-17.79,3.77l-.15.07c2.62-.16,5.22-.39,7.79-.62,3.7-.33,7.54-.67,11.31-.78,14.38-.45,29-.31,43.21-.17l2.62,0a5.57,5.57,0,0,0-.59-1.34A4.79,4.79,0,0,0,227.51,179.34Zm-80.89,3.8,1.78.29c1.42.24,2.87.49,4.31.69l3.61-3.61-2.06-1.42c-2.26-1.6-4.91-.67-6.54.95a6.3,6.3,0,0,0-1.6,2.66ZM130.81,174l-1.23,9.45c5-1.74,10.11-1.37,15.17-.62-.55-.46-1.09-.89-1.63-1.29A86.76,86.76,0,0,0,130.81,174Z"/><path class="cls-2" d="M269,174.23a108.64,108.64,0,0,0,34.95-7.12c4.51-1.73,9.17-3.8,14-3.21a2.25,2.25,0,0,1,1.47.6,2.35,2.35,0,0,1,.42,1.12l3.1,15.47c-6.16-1.66-12.38-3.34-17.94-6.46-1.45-.81-2.94-1.75-4.6-1.79a7.21,7.21,0,0,0-4,1.36c-5.55,3.52-9,10-15.09,12.5a24.8,24.8,0,0,0-4.22,1.74c-1.27.83-2.29,2.34-1.92,3.82.46,1.85,2.68,2.59,4.58,2.75,7.39.6,14.43-2.82,21.6-4.7a53.35,53.35,0,0,1,14.34-1.74l4.24-14.38c.48-1.62.43-4.07-1.25-4.2a2.73,2.73,0,0,0-1.6.58,78.58,78.58,0,0,0-7,5.5,70.88,70.88,0,0,1-23.83,12.75l3,.32"/><path class="cls-2" d="M281.42,195.58c-.59,0-1.17,0-1.77-.08-2.72-.22-4.6-1.38-5-3.12s.76-3.46,2.14-4.36a13.3,13.3,0,0,1,2.93-1.28c.46-.16.92-.32,1.37-.5,3.35-1.37,5.86-4,8.51-6.72a37.08,37.08,0,0,1,6.5-5.75,7.6,7.6,0,0,1,4.25-1.43,9.58,9.58,0,0,1,4.42,1.63l.4.22a40.92,40.92,0,0,0,4,2l.58-.47,1.79-1.49a51.1,51.1,0,0,1,5.25-4,3.14,3.14,0,0,1,1.9-.65,1.86,1.86,0,0,1,1.45.82,1.74,1.74,0,0,1,.11.18l-1-4.78a2,2,0,0,0-.31-.89,1.85,1.85,0,0,0-1.15-.43c-4.21-.52-8.39,1.11-12.43,2.68l-1.28.5A108.82,108.82,0,0,1,269,174.73l0-1a107.65,107.65,0,0,0,34.79-7.09l1.27-.49c4.16-1.62,8.45-3.29,12.93-2.74a2.65,2.65,0,0,1,1.78.77,2.92,2.92,0,0,1,.54,1.34l3.25,16.26-.78-.21-4.16-1.14L316,189.08h-.38a52.78,52.78,0,0,0-14.21,1.72c-2,.52-4,1.16-5.9,1.79C291,194.05,286.25,195.58,281.42,195.58Zm18.77-22.24a6.76,6.76,0,0,0-3.58,1.28,36,36,0,0,0-6.32,5.6c-2.61,2.7-5.3,5.49-8.85,6.94-.47.19-.95.36-1.42.52a12.54,12.54,0,0,0-2.71,1.18c-1.05.68-2,2-1.72,3.28.48,1.92,3.29,2.3,4.14,2.37,5.26.42,10.46-1.26,15.48-2.88,2-.63,4-1.28,6-1.81a54.41,54.41,0,0,1,14.09-1.75l2.33-7.91a77.58,77.58,0,0,1-8.31-2.85,72,72,0,0,1-20.71,11.26l.68.07-.1,1-5.43-.58,2.33-.72a70.49,70.49,0,0,0,22.18-11.49c-1.21-.54-2.41-1.13-3.58-1.79l-.4-.23a9,9,0,0,0-4-1.49Zm18.64,6.13c1.13.32,2.25.62,3.36.92l-1.56-7.82a7.12,7.12,0,0,1-.28,1.76Zm-8.65-2.88a77.29,77.29,0,0,0,7.69,2.61l1.52-5.16a4.26,4.26,0,0,0-.11-3.15.9.9,0,0,0-.7-.4,2.29,2.29,0,0,0-1.29.5,49.66,49.66,0,0,0-5.15,4c-.59.5-1.19,1-1.8,1.5Z"/><path class="cls-2" d="M269,180.23a120.83,120.83,0,0,0,24.6-3.53,116,116,0,0,0,11.95-3.8c2-.75,8.9-4.44,10.79-3.21l-2.76-3.59c2,5.12,2.45,11.19,3.52,16.58l7.38-7.38c-5.36-1.45-10.79-2.85-15.74-5.44-4.72-2.47-9-4.13-14.14-1.54-4.06,2.06-7.13,5.61-10.3,8.78-3.47,3.46-7.85,4.1-11.46,7.1s-5,8.06-2.39,12.07,7.47,4.92,11.84,4.78c11.51-.37,21.71-6.46,33.39-6.48a6.12,6.12,0,0,0,5.79-4.4c1.63-5.54,4.94-12.28,4.7-18.12-.21-5.14-4.71-9.27-9.93-7.69-5.48,1.66-10,7.44-14.66,10.56A67.49,67.49,0,0,1,284.6,183c-6.73,2.17-5,11.08,1.6,11.79l3,.32c7.67.82,7.61-11.18,0-12l-3-.32,1.59,11.78a74.63,74.63,0,0,0,25.15-13.23c1.38-1.08,2.71-2.23,4.07-3.34l1.57-1.27q3.27-1.78-.74-.65l-3.58-2.76c-.7-1.06-.27-.14-.7,1-.54,1.46-.89,3-1.33,4.5L309.85,187l5.78-4.41a73.92,73.92,0,0,0-22.53,4c-3.54,1.13-7.13,2.35-10.86,2.52a18.57,18.57,0,0,1-2.11,0q-.44,5.4,2.71,3.43c1.24-.13,2.9-1.26,3.9-1.89a38.39,38.39,0,0,0,6.5-5.51c1.56-1.58,4.69-6,7.16-6.09,1.11-.05,3.59,1.94,4.56,2.39,1.52.7,3.08,1.34,4.64,1.94a118.28,118.28,0,0,0,11.64,3.55c4.66,1.25,8.27-3,7.38-7.38l-2.12-10.63c-.58-2.86-.83-6.36-2.94-8.6-3.9-4.13-11.48-2.38-16.12-.87-6.31,2.06-12.33,4.62-18.82,6.17A104.35,104.35,0,0,1,269,168.23c-7.69.34-7.73,12.34,0,12Z"/><path class="cls-2" d="M281.44,201.56c-3.93,0-8.84-.93-11.46-5-2.9-4.5-.88-9.92,2.49-12.72a25.43,25.43,0,0,1,5.36-3.19c.53-.25,1.05-.51,1.56-.77-3.4.42-6.88.71-10.42.87a5.64,5.64,0,0,1-5.28-2.58,7.23,7.23,0,0,1-.21-7,6.2,6.2,0,0,1,5.45-3.39,103.9,103.9,0,0,0,19.58-2.66,117.67,117.67,0,0,0,12.35-3.92c2.09-.75,4.26-1.53,6.42-2.23,8-2.59,13.57-2.26,16.64,1,1.86,2,2.35,4.82,2.79,7.34.09.51.18,1,.28,1.5l2.13,10.63a7.11,7.11,0,0,1-2,6.53,6.22,6.22,0,0,1-4.32,1.67c-.32.94-.62,1.84-.88,2.72a6.61,6.61,0,0,1-6.26,4.76c-6,0-11.65,1.65-17.15,3.24-5.21,1.5-10.6,3.06-16.24,3.24Zm.6-22.06a34.73,34.73,0,0,1-3.78,2,24.86,24.86,0,0,0-5.15,3.05c-3,2.54-4.88,7.4-2.29,11.42s7.61,4.68,11.4,4.55c5.51-.18,10.84-1.72,16-3.2,5.57-1.61,11.32-3.27,17.42-3.28a5.6,5.6,0,0,0,5.31-4c.24-.83.52-1.67.82-2.53-.22,0-.43-.09-.65-.15l-.26-.07c-2.54-.68-5.13-1.38-7.69-2.2l-4.22,3.22,1.24-4.22c-1.53,1.11-3,2.1-4.48,3a75.22,75.22,0,0,1-10.84,5.47,5.59,5.59,0,0,1-.59,1,5.36,5.36,0,0,1-5.12,2l-3-.32a7,7,0,0,1-4.17-1.89,1.69,1.69,0,0,1-1.36-.14c-.86-.52-1.18-1.88-1-4.28l0-.48h.16a6.21,6.21,0,0,1,4.62-6,67.93,67.93,0,0,0,15.46-7.18c-2.12.68-4.19,1.28-6.23,1.8A114.11,114.11,0,0,1,282,179.5Zm7.23,15.14a4.32,4.32,0,0,0,4.06-1.47C292,193.69,290.65,194.18,289.27,194.64ZM283,193a6.07,6.07,0,0,0,3.27,1.33l1,.11-.44-3.3-.11.07A11,11,0,0,1,283,193Zm4.76-2.46.47,3.41q3-1,5.88-2.15a6.46,6.46,0,0,0-.23-4.72,2.14,2.14,0,0,0-.1-.22l-.51.16-.76.24-1.15.37A33.9,33.9,0,0,1,287.74,190.53ZM280.8,192a1,1,0,0,0,.29.44C281,192.26,280.89,192.11,280.8,192Zm.13-2.39a6.14,6.14,0,0,0,1.3,2.68l.35-.2.21-.07a10.21,10.21,0,0,0,3.38-1.63l.3-.19.2-.13-.15-1.08a26.47,26.47,0,0,1-4.26.59C281.82,189.57,281.38,189.59,280.93,189.58Zm13.8-3a.37.37,0,0,0,0,.11,7.69,7.69,0,0,1,.49,4.64,73.48,73.48,0,0,0,9.9-5.07c1.28-.78,2.57-1.64,3.9-2.58l-.4-.16A80.68,80.68,0,0,0,294.73,186.55Zm-7.23,2.18.09.68c.49-.35,1-.71,1.41-1.09C288.51,188.47,288,188.6,287.5,188.73Zm-6.67-.15,1.38,0a23.64,23.64,0,0,0,4.18-.59l-.65-4.78-1,.33A5.16,5.16,0,0,0,280.83,188.58Zm5.95-5.2.59,4.35c1.16-.29,2.31-.64,3.45-1,.58-.53,1.13-1.07,1.68-1.61a5.65,5.65,0,0,0-3.35-1.48ZM326.62,172v0c.17,4.31-1.48,8.95-3.09,13.44l-.39,1.11a5.07,5.07,0,0,0,3.27-1.39,6,6,0,0,0,1.72-5.6Zm-12.48,12.34c2.32.72,4.67,1.36,7,2l.26.07.72.15.5-1.41c1.57-4.4,3.2-8.95,3-13.06a8.19,8.19,0,0,0-3.29-6.3,6.78,6.78,0,0,0-6-.93,13.56,13.56,0,0,0-2.37,1l4.51,5.86L316,170.1a1.5,1.5,0,0,0-.79-.17c.19.77.36,1.55.52,2.33,2.69.91,5.45,1.65,8.15,2.38l1.5.4-8.65,8.65-.19-.91a2.21,2.21,0,0,0-.05-.25Zm-21,1.53-.18.18.25-.08A.36.36,0,0,0,293.16,185.87Zm18-1.46-.37,1.25,1.25-.95Zm-17.26.74a4.67,4.67,0,0,1,.36.51,86.52,86.52,0,0,1,12.57-2.93c-.72-.3-1.4-.6-2.05-.9a13.83,13.83,0,0,1-1.39-.84,9.13,9.13,0,0,0-2.9-1.5h0c-1.71.09-4,2.76-5.56,4.52C294.5,184.44,294.17,184.83,293.87,185.15Zm-6.14-2.67,1.52.16a6.73,6.73,0,0,1,3.94,1.77c.28-.3.59-.66.93-1.06,1.74-2,4.12-4.74,6.26-4.86.86-.06,2,.69,3.52,1.66a13.88,13.88,0,0,0,1.27.77c1.12.52,2.33,1,3.63,1.55.64-.07,1.28-.14,1.91-.19h0l1-3.52c.15-.5.28-1,.42-1.5.27-1,.55-2,.91-3a4.05,4.05,0,0,0,.21-1,1,1,0,0,1,.21-.65c-1-.39-2-.8-3-1.25-1.1.44-2.14.92-2.91,1.26s-1.44.66-1.89.82l-2.29.84c-.52.41-1,.79-1.57,1.14A68.48,68.48,0,0,1,287.73,182.48Zm23.68,1L313,184l1.15-.88c-.87,0-1.76.07-2.64.14Zm4.57-3.92-.07.06c-.88.73-1.76,1.47-2.66,2.18l-.49.38c1-.05,1.92-.07,2.87-.08h.8C316.27,181.24,316.12,180.38,316,179.53Zm.89-.74c.16,1,.32,1.93.5,2.87l6.1-6.1c-2.49-.67-5-1.35-7.5-2.17,0,.25.09.5.14.75l1.84,1.42c1.87-.52,2.36-.52,2.56,0s-.34.93-1.69,1.66l-1.5,1.23Zm-2.67-4.85a4.62,4.62,0,0,1-.18.62c-.34.95-.62,2-.89,2.95-.13.51-.27,1-.42,1.52l-.72,2.45.64-.5c.9-.7,1.77-1.43,2.64-2.16l.52-.44c0-.21-.07-.43-.1-.64-.16-1-.32-2-.5-3Zm2.27-15.75a29.54,29.54,0,0,0-8.88,1.68c-2.15.7-4.31,1.47-6.39,2.22A118.25,118.25,0,0,1,288.74,166,104.17,104.17,0,0,1,269,168.73a5.22,5.22,0,0,0-4.61,2.86,6.23,6.23,0,0,0,.17,6,4.67,4.67,0,0,0,4.4,2.11h0a127.3,127.3,0,0,0,12.75-1.19,14.64,14.64,0,0,0,2.22-1.79c.52-.52,1-1.05,1.55-1.58,2.66-2.72,5.41-5.54,8.88-7.3,5.09-2.58,9.39-1.09,13.66,1.06a34.07,34.07,0,0,1,4.73-3.54l-.89-2.32,1.51,2a15.54,15.54,0,0,1,2.7-1.15,7.75,7.75,0,0,1,6.87,1.08,8.91,8.91,0,0,1,3.13,4.16l0-.16c-.1-.5-.19-1-.28-1.53-.44-2.5-.89-5.08-2.53-6.83C321.68,159,319.43,158.19,316.47,158.19Zm-16.7,9.33a10.9,10.9,0,0,0-5,1.24c-3.32,1.69-6,4.44-8.61,7.11l-1.56,1.58c-.28.28-.56.53-.84.77,3.31-.54,6.54-1.21,9.66-2s6.17-1.73,9.46-2.9c1.11-.87,2.23-1.85,3.38-2.88l.9-.79A16.84,16.84,0,0,0,299.77,167.52Zm16.58,8.07.33,2a.13.13,0,0,0,0,.06h0l1.31-1.06h0l-.24.07ZM314.63,173l.29.22a1.55,1.55,0,0,0,0-.21l-.32-.11A.86.86,0,0,1,314.63,173Zm-6.5-2.88-1.19,1.05-1.25,1.1c.39-.16.9-.39,1.46-.65l2.1-.93-.79-.4Zm3.66.64c.94.4,1.9.77,2.86,1.11-.13-.62-.27-1.23-.42-1.84A16.67,16.67,0,0,0,311.79,170.77ZM309,169.42c.51.27,1,.53,1.54.77a20,20,0,0,1,3.49-1.11c-.26-.94-.56-1.86-.89-2.74A31.93,31.93,0,0,0,309,169.42Zm6-.7.06.22h.1Z"/><path class="cls-2" d="M322.77,185.48c3,7.53,2.34,16,1.64,24-.25,2.79-.66,5.9-2.86,7.64-1.61,1.27-3.79,1.47-5.83,1.62-2.84.2-6.28.11-7.73-2.34s.09-5.44,1.23-8a27.77,27.77,0,0,0,2.25-13.1c-.09-1.34-.15-3,1-3.69,1.69-1.07,3.56,1.14,4.13,3.05a21.83,21.83,0,0,1-.59,14c-.63,1.6-1.47,3.34-.89,5a55.47,55.47,0,0,0,13.15-49.95"/><path class="cls-2" d="M313.91,219.33c-2.5,0-5.07-.49-6.35-2.65-1.47-2.48-.18-5.38.95-7.93l.25-.56A27.39,27.39,0,0,0,311,195.33c-.09-1.21-.24-3.24,1.21-4.16a2.19,2.19,0,0,1,2-.19,5.59,5.59,0,0,1,2.85,3.52,22.25,22.25,0,0,1-.61,14.39l-.19.48a8.58,8.58,0,0,0-.85,3.22,52.93,52.93,0,0,0,9.09-14.28,35.18,35.18,0,0,0-2.19-12.65l.93-.37A33.82,33.82,0,0,1,325.43,196a54.89,54.89,0,0,0,2.33-32.21l1-.23a56.09,56.09,0,0,1-3.22,34.9c0,3.77-.3,7.51-.61,11-.26,3-.72,6.15-3,8-1.78,1.41-4.18,1.58-6.11,1.72C315.16,219.3,314.54,219.33,313.91,219.33Zm-.53-27.51a1.24,1.24,0,0,0-.66.2c-.86.55-.84,1.9-.75,3.23a28.12,28.12,0,0,1-2.3,13.34l-.24.56c-1,2.34-2.22,5-1,7,1.32,2.22,4.57,2.29,7.26,2.09,1.79-.13,4-.29,5.56-1.52,2-1.58,2.42-4.47,2.67-7.29s.5-5.73.58-8.71a53.49,53.49,0,0,1-9,13.26l-.56.61-.28-.78c-.58-1.64.1-3.33.7-4.83l.19-.48a21.19,21.19,0,0,0,.58-13.73,4.63,4.63,0,0,0-2.24-2.88A1.45,1.45,0,0,0,313.38,191.82Z"/><path class="cls-2" d="M317,187.07c2.24,6.2,2.19,12.45,1.71,19-.19,2.54.3,5.7-2.24,6.65-.94.35-2.42-.28-3.26.14-1-.39-1.15-.21-.32.55.57,1.13.89.91,1-.68,1.38-1.92,2.2-5.19,2.73-7.46.35-1.5,2.12-8.87.88-9.93l-6.68,1a10.12,10.12,0,0,1,.55,2.72,15.58,15.58,0,0,1-.12,4.72c-.66,3.53-2.5,6.27-2.12,10,.49,4.76,6.44,8.45,10.25,4.25A62.42,62.42,0,0,0,334,162.12c-1.69-7.53-13.27-4.35-11.57,3.19a49.73,49.73,0,0,1-11.6,44.11l10.24,4.24c-.32-3.19,1.88-6.87,2.2-10.15a27.19,27.19,0,0,0-.5-8.72c-1.17-5.1-5-10.39-10.92-9.25-6.81,1.31-6,7.9-6.37,13.11-.39,5.91-5,11.34-3.9,17.31,2.06,11,19.58,11.61,25.61,3.84,3.48-4.48,3.35-11,3.65-16.4.36-6.61,0-13.25-2.31-19.52-2.61-7.2-14.21-4.09-11.57,3.19Z"/><path class="cls-2" d="M314.92,225.54a19.12,19.12,0,0,1-4.45-.52c-5.11-1.24-8.52-4.5-9.35-9-.67-3.56.63-6.94,1.89-10.21a25.58,25.58,0,0,0,2-7.23c.05-.68.07-1.38.1-2.1.17-4.8.37-10.24,6.68-11.46a8.09,8.09,0,0,1,4.32.28,5.6,5.6,0,0,1,4-5.59,8,8,0,0,1,3-.44,49,49,0,0,0-1.1-13.88c-1-4.22,1.91-7.18,5.22-7.92a5.83,5.83,0,0,1,7.33,4.51,63,63,0,0,1-3,37.43c0,1.28,0,2.61-.11,4,0,.61-.06,1.23-.09,1.87-.23,5-.48,10.71-3.66,14.81C325,223.53,320,225.54,314.92,225.54Zm-1.47-39.66A7.66,7.66,0,0,0,312,186c-5.52,1.07-5.7,5.87-5.86,10.52,0,.72-.06,1.44-.1,2.13a26.21,26.21,0,0,1-2.07,7.52c-1.26,3.28-2.46,6.38-1.84,9.67.76,4.06,3.9,7,8.6,8.17,6,1.47,13-.49,16.13-4.55,3-3.85,3.23-9.37,3.45-14.25,0-.63.05-1.26.09-1.87s.05-1,.06-1.47a63,63,0,0,1-10.71,16.34,5.6,5.6,0,0,1-6.11,1.7,7.52,7.52,0,0,1-5-6.23,15,15,0,0,1,1.12-6.58,25.91,25.91,0,0,0,1-3.54,14.78,14.78,0,0,0,.11-4.57,9.45,9.45,0,0,0-.52-2.61l-.2-.58,7.51-1.07.17.15a1.86,1.86,0,0,1,.54,1.16,33.05,33.05,0,0,0-1.82-8.83h0a7.32,7.32,0,0,1-.23-.76A7,7,0,0,0,313.45,185.88Zm-2,10.77a11,11,0,0,1,.39,2.27,16,16,0,0,1-.13,4.85,26.21,26.21,0,0,1-1,3.67,14.12,14.12,0,0,0-1.08,6.17,6.51,6.51,0,0,0,4.32,5.38,4.61,4.61,0,0,0,5.06-1.42c.92-1,1.81-2.07,2.66-3.14l-4.17-1.73a3.69,3.69,0,0,1-.84.44,4.16,4.16,0,0,1-1.83.08l-.48-.05c-.07.79-.25,1.29-.73,1.38s-.92-.51-1.11-.89c-.39-.35-.85-.81-.57-1.27s.82-.28,1.28-.12a2.88,2.88,0,0,1,.4-.09,9,9,0,0,0,.51-.87l-4.09-1.7.48-.53a48.74,48.74,0,0,0,6.69-9.42c.38-2.58.22-3.5.07-3.83Zm10.49-5.71a16.25,16.25,0,0,1,1.35,3.74,27.69,27.69,0,0,1,.51,8.88,22.2,22.2,0,0,1-1.11,4.44,14.61,14.61,0,0,0-1.09,5.61l.08.77a62,62,0,0,0,8.8-15.13,43.94,43.94,0,0,0-2.39-15.2,5.46,5.46,0,0,0-4.1-3.62A50.12,50.12,0,0,1,321.94,190.94Zm-3.71,21,2.34,1a18.33,18.33,0,0,1,1.16-5.21,21.17,21.17,0,0,0,1.07-4.23,26.6,26.6,0,0,0-.48-8.56,15.6,15.6,0,0,0-.83-2.56,52.68,52.68,0,0,1-2.07,5.12,74.52,74.52,0,0,1-.23,8.6c0,.46,0,.94-.05,1.42C319.1,209,319.06,210.74,318.23,211.93Zm-3.48.28h.15a3.66,3.66,0,0,0,1.37,0l-1.24-.52C314.94,211.87,314.85,212,314.75,212.21Zm.7-1.43,1.81.75c.8-.93.84-2.47.88-4.07,0-.5,0-1,.06-1.48.17-2.31.27-4.49.26-6.59l-.31.59c-.2,1.34-.53,3-1,5.2l0,.15A36.62,36.62,0,0,1,315.45,210.78Zm-3.75-1.55,2.82,1.17a33,33,0,0,0,1.58-5.29l0-.15c.21-.9.38-1.7.53-2.43A49.2,49.2,0,0,1,311.7,209.23Zm6.71-12h0Zm5.65-17.83a6.44,6.44,0,0,1,5,4.29,42.86,42.86,0,0,1,2.4,13,62,62,0,0,0,2.11-34.53c-.76-3.38-3.63-4.32-6.14-3.76A5.53,5.53,0,0,0,323,165.2,49.93,49.93,0,0,1,324.06,179.42Zm-6.5,7.78a33,33,0,0,1,1.72,8.12c.59-1.4,1.12-2.84,1.58-4.29A10.9,10.9,0,0,0,317.56,187.2Zm-.4-1.42a10.84,10.84,0,0,1,4.1,3.95A49.26,49.26,0,0,0,323,180.3a6.64,6.64,0,0,0-2.55.38A4.59,4.59,0,0,0,317.16,185.78Z"/><path class="cls-2" d="M234.36,195.68c-10.64-1.21-21.27,1.53-31.76,3.71-22.08,4.6-45.18,6.74-67.09,1.37a11.66,11.66,0,0,1-4.2-1.66,12,12,0,0,1-2.57-2.84q-9.6-13.17-18.16-27c-2.69,1.84-3.43,5.44-3.69,8.69a63.07,63.07,0,0,0,3.32,25.85,6.28,6.28,0,0,0,1.44,2.6,6.62,6.62,0,0,0,3.85,1.27q40.31,4.32,80.74,7.31c7,.52,14.16,1,21-.67-6.87-4.08-15-5.52-23-6-11.54-.7-23.27.41-34.57-2-9-1.93-17.37-6-25.64-10.06a47.83,47.83,0,0,1-9.05-5.29c-6.6-5.28-10.33-14-17.92-17.7-1.87,6.83,2.83,13.48,5.49,20a24.74,24.74,0,0,0,2.65,5.65c1.24,1.68,3.27,3,5.33,2.66a166.18,166.18,0,0,0-5-28.17,4.16,4.16,0,0,1-.21-2c.5-2.13,3.52-2.07,5.64-1.56a127.38,127.38,0,0,0,16.91,2.89c12.28,1.25,24.67.71,37,.18l47.62-2.08"/><path class="cls-2" d="M206.28,215.92c-3.47,0-6.88-.25-10.08-.49-26.83-2-54-4.44-80.75-7.31a7.08,7.08,0,0,1-4.13-1.4,6.61,6.61,0,0,1-1.58-2.81,63.75,63.75,0,0,1-3.41-25.22,13.34,13.34,0,0,1,.27-5.61l.15-.59.55.27.08,0a8,8,0,0,1,2.92-4l.43-.3.28.45q2.35,3.81,4.8,7.6c-.25-1-.52-2-.78-3a4.45,4.45,0,0,1-.21-2.25,2.51,2.51,0,0,1,1.18-1.63c1.59-1,4.07-.53,5.06-.29a127.66,127.66,0,0,0,16.84,2.87c12.28,1.25,24.81.7,36.94.18l47.62-2.08,0,1-47.62,2.08c-12.16.53-24.73,1.07-37.08-.19a128.4,128.4,0,0,1-17-2.89c-1.39-.34-3.26-.47-4.29.17a1.52,1.52,0,0,0-.74,1,3.76,3.76,0,0,0,.2,1.76c.52,1.92,1,3.84,1.45,5.78q3.77,5.73,7.7,11.33l.17.14a48.44,48.44,0,0,0,9,5.23c5,2.46,10.17,5,15.48,7,15.33,1.66,32.46.39,52.75-3.83l3.72-.79c9.21-2,18.73-4,28.2-2.94l-.12,1c-9.3-1-18.74,1-27.87,2.92-1.24.27-2.48.54-3.72.79C184,203.77,168,205.17,153.6,204.1c2,.65,4.1,1.22,6.19,1.67,7.42,1.58,15.17,1.64,22.67,1.69,3.88,0,7.9.06,11.83.3,9.87.6,17.24,2.53,23.19,6.07l1.06.63-1.19.29A47.14,47.14,0,0,1,206.28,215.92Zm-99.09-33.73a62.92,62.92,0,0,0,3.49,21.39A5.75,5.75,0,0,0,112,206a6,6,0,0,0,3.57,1.14c26.73,2.87,53.89,5.33,80.71,7.31,6.14.45,13,1,19.59-.37-5.62-3.06-12.54-4.75-21.63-5.3-3.91-.24-7.91-.27-11.77-.3-7.55-.05-15.36-.11-22.88-1.72a69,69,0,0,1-10.07-3,108,108,0,0,1-14.12-2.47A12.18,12.18,0,0,1,131,199.5a12.93,12.93,0,0,1-2.68-2.94q-2-2.73-3.93-5.49a42,42,0,0,1-5.67-5.95c1,5.43,1.82,10.91,2.32,16.4l0,.47-.46.07c-2.46.38-4.61-1.22-5.81-2.85a18.74,18.74,0,0,1-2.25-4.58c-.16-.39-.31-.79-.47-1.18-.6-1.51-1.34-3-2-4.54A59.41,59.41,0,0,1,107.19,182.19Zm19.75,10.73,2.2,3.05a12.18,12.18,0,0,0,2.46,2.73,11.29,11.29,0,0,0,4,1.58q5,1.22,10.21,2c-4.09-1.73-8.08-3.68-12-5.6A67.67,67.67,0,0,1,126.94,192.92Zm-19.61-14.29c.52,3.31,2.09,6.62,3.63,9.85.71,1.5,1.45,3.06,2.07,4.59.16.4.32.8.47,1.2a18.66,18.66,0,0,0,2.12,4.35,5.68,5.68,0,0,0,4.38,2.49,164.71,164.71,0,0,0-2.62-17.65h0c-2.9-3.6-5.65-7-9.4-9.2a22.15,22.15,0,0,0-.59,3.69C107.37,178.17,107.35,178.4,107.33,178.63Zm11,4.39c1,1.21,2,2.44,3,3.62q-1.67-2.41-3.28-4.85C118.14,182.2,118.22,182.61,118.31,183Zm-10-9.75c3.46,2,6.14,5,8.65,8q-.19-.93-.42-1.86-3.09-4.72-6-9.51A7.43,7.43,0,0,0,108.27,173.27Z"/><path class="cls-2" d="M234.36,189.68C223,188.63,212,191.33,201,193.61a192.62,192.62,0,0,1-33.9,4.27,132,132,0,0,1-15.91-.51c-4.71-.44-12-.58-16.09-3.07-1.91-1.15-3.27-3.93-4.55-5.74-1.66-2.34-3.29-4.71-4.91-7.09q-5.1-7.53-9.89-15.29c-2.15-3.47-6.46-3.75-9.42-1.21-8.94,7.65-6,25-3.53,35,1.46,5.8,3.27,11.69,9.72,13.26,6.87,1.67,14.63,1.63,21.66,2.33q21.65,2.16,43.32,3.92c13.56,1.11,27.85,3.5,41.31.58,5.08-1.11,5.8-8.52,1.44-11-19.8-11.1-42.53-3.64-63.43-9.75a98.45,98.45,0,0,1-14.77-5.9c-4.65-2.2-10-4.28-13.89-7.67-6.52-5.64-10.22-13.5-18.06-17.73-3.19-1.72-8-.36-8.82,3.58-1.63,8.1,1.52,14.43,4.76,21.64,3.14,7,5.53,14.08,14.5,14.32,3,.08,6.3-2.83,6-6-.54-5.61-1.27-11.19-2.3-16.73-.46-2.5-1-5-1.56-7.47-.17-.76-.53-4-1.15-4.64-.18-1.61-.7-1.3-1.57,1q-2.56,1.88-1,1.91c.79,1,6.41,1.35,7.81,1.6,2.72.49,5.46.87,8.2,1.21a156.07,156.07,0,0,0,17.43,1.08c23.31.23,46.75-1.64,70-2.65,7.69-.34,7.73-12.34,0-12l-39.68,1.73c-13.34.58-26.75,1.45-40.1.57a133.09,133.09,0,0,1-19.24-2.86c-4.41-.94-9.27-1.27-12.43,2.6-3.45,4.23-.75,10,.3,14.62a161.75,161.75,0,0,1,3.22,20.08l6-6c-1.47,0-4.2-8.48-4.86-9.9-1.57-3.37-3.6-7-2.83-10.87l-8.81,3.59c7.28,3.94,10.9,12.17,17.31,17.23,8.1,6.39,19.11,10.79,28.79,14.16,10.53,3.66,21.49,4.08,32.53,4.18,10.75.1,21.88.08,31.52,5.48l1.43-11c-10.4,2.26-21.72.3-32.21-.53q-17.25-1.37-34.47-3-8.37-.78-16.73-1.62l-8.85-.91c-1.91-.2-6,.18-7.65-.8,1.19.72-.33-1.3-.59-2.18-.36-1.19-.68-2.4-1-3.62a54.09,54.09,0,0,1-1.33-8.58c-.27-3.94-1.29-11,2-13.82l-9.43-1.21c3.37,5.43,6.83,10.8,10.43,16.08C119,193,122.1,198.49,126.1,202.5s10,4.68,15.16,5.57a131.23,131.23,0,0,0,18.35,1.81,182.26,182.26,0,0,0,36.26-3.1c12.78-2.24,25.38-6.31,38.49-5.1,7.69.71,7.64-11.3,0-12Z"/><path class="cls-2" d="M204.37,222c-6.41,0-12.86-.64-19.19-1.26-2.59-.26-5.16-.51-7.71-.72-14.41-1.17-29-2.49-43.33-3.92-2.15-.21-4.43-.36-6.63-.51a90.33,90.33,0,0,1-15.1-1.83c-6.53-1.59-8.5-7.36-10.09-13.63-2-7.77-3.43-17.14-2-24.8a22.74,22.74,0,0,1,.44-3.76,5.55,5.55,0,0,1,2.26-3.47,14.57,14.57,0,0,1,3-3.46,7.06,7.06,0,0,1,5.68-1.73,6.26,6.26,0,0,1,2.58,1c3-1.16,6.38-.73,9.29-.11a131.51,131.51,0,0,0,19.17,2.85c11.43.76,23.08.21,34.36-.31l5.68-.26,39.68-1.73a5.71,5.71,0,0,1,5.29,2.58,7.25,7.25,0,0,1,.2,7,6.2,6.2,0,0,1-5.45,3.39c-6.69.29-13.51.66-20.11,1-16.39.88-33.34,1.78-50,1.63a155.88,155.88,0,0,1-17.49-1.08c-3.07-.38-5.76-.78-8.22-1.22-.33-.06-.89-.12-1.57-.2l-1.7-.21c.87,1.33,1.74,2.63,2.62,3.92,1.14,1.69,2.3,3.38,3.45,5a52.57,52.57,0,0,0,10.12,5.55c.89.41,1.77.81,2.63,1.22,2.68,1.27,5.68,2.65,8.89,3.89h.08a134.87,134.87,0,0,0,15.86.5,192,192,0,0,0,33.81-4.26l3.3-.69c9.8-2.06,19.93-4.2,30.2-3.25h0a6.87,6.87,0,0,1,6.17,7.73,5.52,5.52,0,0,1-6.27,5.27c-8.18-.76-16.31.59-24.24,2.22a46.47,46.47,0,0,1,10.43,4.24,6.46,6.46,0,0,1,3.05,6.71,6,6,0,0,1-4.62,5.19A69,69,0,0,1,204.37,222Zm-103.58-41.5c-.25,6.35,1,13.35,2.5,19.38,1.57,6.2,3.35,11.44,9.36,12.9a88.58,88.58,0,0,0,14.93,1.82c2.21.14,4.49.29,6.66.51,14.33,1.42,28.91,2.74,43.31,3.92,2.55.2,5.13.46,7.73.71,11.1,1.09,22.59,2.23,33.44-.13a5.06,5.06,0,0,0,3.84-4.35,5.44,5.44,0,0,0-2.55-5.69,46.53,46.53,0,0,0-12.17-4.65l-2,.42c-3.24.69-6.58,1.4-9.89,2q-2.66.47-5.22.86c8.29.82,16.83,1.59,24.79-.14l.69-.15-1.62,12.4-.64-.36c-9.32-5.22-20.13-5.32-30.58-5.41h-.7c-11.14-.1-22-.49-32.7-4.21l-2-.71q-3.4-.4-6.78-1l-1.11-.19c-4.53-.75-9.62-1.61-13.31-4.62a6.35,6.35,0,0,1-1.33,2.11,6.75,6.75,0,0,1-4.89,2.21c-8.6-.23-11.34-6.45-14.24-13-.23-.52-.46-1.05-.7-1.57l-.51-1.14C103.29,188.36,101.57,184.54,100.79,180.45ZM152.36,210c9.89,3,20,3.39,30.33,3.48h.7c10.34.09,21,.18,30.41,5.18l1.25-9.54c-8.18,1.63-16.85.77-25.24-.07l-3.21-.31a168,168,0,0,1-27,1.65C157.19,210.32,154.78,210.18,152.36,210Zm-4.18-1.42c3.81.44,7.64.72,11.44.82a158.15,158.15,0,0,0,22.17-1.06c-11-.87-22-1.83-32.89-2.85q-5.66-.53-11.3-1.08C141.21,206,144.82,207.36,148.18,208.56ZM128,203.43c3.45,2.48,8.09,3.26,12.25,4l1.12.18c.77.14,1.53.26,2.3.38-3-1.15-6.07-2.42-9.11-3.86l-2.36-.24Zm6.83-.32q7.09.7,14.2,1.37c11.38,1.06,23,2.06,34.46,3l3.12.27q4.47-.6,9.21-1.43c3.22-.57,6.49-1.26,9.66-1.94-7.1-1.36-14.38-1.49-21.53-1.62-9-.15-18.34-.32-27.23-2.92-2-.58-3.9-1.24-5.76-2l-2.24-.18c-4.58-.35-10.28-.79-13.84-2.94-1.52-.92-2.69-2.76-3.71-4.38-.34-.53-.66-1-1-1.5-.46-.64-.91-1.29-1.37-1.94-.32-.25-.64-.51-.95-.78a40.51,40.51,0,0,1-3.49-3.44c.13.68.27,1.37.39,2.06.82,4.38,1.48,9,2,14A82.31,82.31,0,0,0,134.8,203.11Zm-33.45-27.75c-.18,5.86,2.08,10.88,4.64,16.55l.51,1.14c.24.53.47,1,.7,1.58,2.77,6.29,5.39,12.22,13.36,12.44a5.75,5.75,0,0,0,4.13-1.89,5.18,5.18,0,0,0,1.18-2l-2.55-.26c-.55-.06-1.33-.07-2.15-.07-2,0-4.18,0-5.47-.68l-.24-.12.21-.36a2.72,2.72,0,0,0-.18-.39l-1.34,1.34-.1-1.06c-.52-5.34-1.29-10.64-2.31-15.8a28.26,28.26,0,0,0-7.93-7l-.93-.5,4.58-1.87q-1.23-1.94-2.48-4l-.56-.89,4.41.57a9,9,0,0,1,.73-3.87,6.18,6.18,0,0,0-5.07.06,4.33,4.33,0,0,0-.7.39A20,20,0,0,0,101.35,175.36Zm53.4,22.8q1.09.36,2.22.69c8.76,2.56,18,2.73,27,2.88,7.94.14,16.06.28,23.92,2.11,8.63-1.82,17.53-3.49,26.55-2.66,3.49.33,5-2.15,5.17-4.37a5.88,5.88,0,0,0-5.27-6.63c-10.11-.94-20.17,1.18-29.89,3.23l-3.31.69a193.1,193.1,0,0,1-34,4.28C162.9,198.49,158.75,198.42,154.75,198.16Zm-27.69,4.17,4.89.5c-1.72-.88-3.42-1.81-5-2.8l.15,1.49A5.48,5.48,0,0,1,127.06,202.33Zm-10.42-.83a19.84,19.84,0,0,0,4.54.38,21.21,21.21,0,0,1,2.24.08l1.62.16a50.32,50.32,0,0,1-4.54-5.8l-4.27,4.27A4,4,0,0,1,116.64,201.5Zm5.4-4.73a44,44,0,0,0,4,5s0-.08,0-.13c-.07-.75-.15-1.5-.23-2.24C124.51,198.54,123.25,197.68,122,196.77Zm-6.14,4.58-.09.06a.43.43,0,0,0-.14.31Zm-1-1.11,0,.23.06-.06A1.3,1.3,0,0,1,114.92,200.24Zm-1.55-12.45a53.11,53.11,0,0,0,1.28,8c.28,1.2.61,2.41,1,3.59a3.54,3.54,0,0,0,.14.33l4-4a7.48,7.48,0,0,1-1.36-2.08c-1.65-1.68-3.15-3.52-4.61-5.32Zm8.27,7.41,0,0c1.27,1,2.62,2,4,2.86-.52-4.7-1.15-9-1.92-13.16-.23-1.25-.48-2.5-.74-3.75-.7-.81-1.39-1.64-2.07-2.46s-1.48-1.79-2.23-2.65a.87.87,0,0,1-.8-.56.77.77,0,0,1,0-.37c-.62-.7-1.25-1.37-1.91-2l-.84.71a6.5,6.5,0,0,0-1.89,3.8,22.51,22.51,0,0,0,2.41,6.83l.47,1c.16.34.43,1,.76,1.94s.95,2.53,1.62,4.1c0,.05.07.11.11.17.46.71.92,1.42,1.39,2.13.48.45,1,.88,1.48,1.29h.24Zm9.53-6.64c.27.39.54.82.81,1.25,1,1.53,2.07,3.26,3.39,4.06,3.13,1.89,8.17,2.39,12.46,2.73-2.12-.9-4.13-1.83-6-2.72l-2.62-1.21A70.83,70.83,0,0,1,131.17,188.56Zm-17.93-2.51,1.3,1.59,1.3,1.59-.42-.63c-.75-1.1-1.5-2.2-2.25-3.32,0,.18,0,.37,0,.55S113.23,186,113.24,186.05Zm-.21-2.8q1.43,2.15,2.83,4.23c-.28-.74-.5-1.32-.62-1.6l-.47-1a39.53,39.53,0,0,1-1.8-4.18C113,181.56,113,182.42,113,183.25Zm-7.84-4.78a28.25,28.25,0,0,1,6.14,5.34c-.14-.66-.29-1.33-.44-2q-1.44-2.19-2.89-4.49ZM124,180.73c.75.86,1.52,1.72,2.33,2.55l-1-1.53c-.53-.77-1-1.55-1.57-2.34C123.76,179.85,123.86,180.29,124,180.73Zm-12.12.69.14.22a22.53,22.53,0,0,1,.28-4,9.45,9.45,0,0,1,0-2l-1.77.72c.19.77.41,1.54.62,2.31.27,1,.53,1.86.73,2.75C111.82,181.39,111.83,181.4,111.83,181.42Zm8.83-4.61,1.06,1.27.85,1c-.12-.55-.24-1.09-.37-1.63,0-.1,0-.23-.07-.39h0C121.59,177,121.1,176.91,120.66,176.81Zm2.34-.61c.86.13,1.7.22,2.27.29s1.29.15,1.63.21c2.44.43,5.11.83,8.17,1.2A151.23,151.23,0,0,0,152.44,179c16.61.16,33.53-.75,49.9-1.63,6.6-.36,13.42-.73,20.12-1a5.23,5.23,0,0,0,4.61-2.85,6.21,6.21,0,0,0-.17-6,4.59,4.59,0,0,0-4.4-2.12l-39.68,1.73-5.67.26c-11.31.52-23,1.07-34.48.31a133.63,133.63,0,0,1-19.31-2.87c-2.71-.58-5.64-1-8.19-.14a7.32,7.32,0,0,1,1,1.3c1.33,2.14,2.63,4.21,3.92,6.22.38-.71.72-1,1.11-.91.6.08.74.83.8,1.31A10.86,10.86,0,0,1,123,176.2Zm-14.06.74,1.14,1.78c-.19-.66-.37-1.34-.55-2Zm-2.56-4.07c.68,1.09,1.35,2.16,2,3.21l.9-.37a19.74,19.74,0,0,1-.41-2.52Zm12.81,2.22h0l.15.18a4.37,4.37,0,0,0,2,.67l-1.17-1.81a9.08,9.08,0,0,0-1.07.89Zm-9.29-1.77a18,18,0,0,0,.34,2l3.3-1.34-.05.24c.09-.14.19-.28.29-.41Zm10.84-.2.94,1.46a4,4,0,0,0-.51-1.5l-.11-.13,0-.16c0-.09,0-.16,0-.22C120.94,172.7,120.85,172.88,120.74,173.12Zm-9.83-5.22a31.4,31.4,0,0,1,7.55,6.37,11.55,11.55,0,0,1,1.1-.91l0-.14c-1.4-2.19-2.82-4.44-4.27-6.78a6.13,6.13,0,0,0-1.21-1.41,7.94,7.94,0,0,0-2.71,2.16A6.65,6.65,0,0,0,110.91,167.9Zm-1.08,4.4,6.14.8a26.8,26.8,0,0,0-5.53-4.31A8,8,0,0,0,109.83,172.3Zm-2.73-5.51a6.84,6.84,0,0,1,2.93.64,7.28,7.28,0,0,1,.62-.87,8.7,8.7,0,0,1,2.55-2.16,5.26,5.26,0,0,0-1.65-.55,6.08,6.08,0,0,0-4.88,1.5,13.14,13.14,0,0,0-1.73,1.77A7.26,7.26,0,0,1,107.1,166.79Z"/><path class="cls-3" d="M91.76,145.6a2.94,2.94,0,0,0-1.52,2.63,1.76,1.76,0,0,0,2.27,1.52c-.38,1-.72,2.3,0,3.1s2.18.5,3.26.09a2.22,2.22,0,0,0,3.63,2.5,4.36,4.36,0,0,0,1,3.34c.85.83,2.54.82,3-.26a2.9,2.9,0,0,0,1.4,2.46,1.81,1.81,0,0,0,2.48-.82"/><path class="cls-3" d="M91,144.3c-1.49,1-2.68,2.76-2.14,4.64a3.25,3.25,0,0,0,4,2.25l-1.84-1.84c-.57,1.54-.8,3.38.48,4.64s3.14.94,4.64.39l-1.69-2.2a3.72,3.72,0,0,0,6,4.33l-2.56-1.07c-.06,1.87.43,4,2.2,5a3.4,3.4,0,0,0,4.6-1.15l-2.79-.75a4.32,4.32,0,0,0,2.69,4,3.3,3.3,0,0,0,4-1.6,1.54,1.54,0,0,0-.53-2,1.52,1.52,0,0,0-2.06.54c-.39.88-1-.44-1.08-.88-.12-1.39-2-2.16-2.8-.76-.12.19-.13.22,0,.1s.09-.1-.09,0,.32.05-.08,0a.88.88,0,0,1-.49-.15c-.6-.48-.55-1.6-.53-2.28a1.51,1.51,0,0,0-2.56-1.06c-.52.52-1.65.16-1.27-.69.48-1.06-.34-2.7-1.7-2.2-.42.16-1.33.59-1.78.32,0,0,0,.25,0-.14,0-.11,0-.22,0-.33a5.45,5.45,0,0,1,.36-1.19,1.51,1.51,0,0,0-1.85-1.85c-.22.08-.35,0-.39-.29s.48-.91.79-1.12c1.59-1.07.09-3.67-1.51-2.59Z"/><path class="cls-3" d="M105.73,159.56l2,.86a.89.89,0,0,1,.43.3,1.37,1.37,0,0,1,0,.78,1.42,1.42,0,0,0,1.43,1.4,1.81,1.81,0,0,0,1.63-1.32,4.7,4.7,0,0,0,1.58,2.59c.87.57,2.33.26,2.49-.76a2.25,2.25,0,0,0,1.73,2.47,2,2,0,0,0,2.26-1.86,3.26,3.26,0,0,0,5.33,1.64"/><path class="cls-3" d="M105,160.85a8.45,8.45,0,0,1,2.1.93l-.39-.66c.08.29,0,.7,0,1a2.67,2.67,0,0,0,.47,1,2.92,2.92,0,0,0,1.94,1.2,3.3,3.3,0,0,0,3.53-2.37h-2.89c.55,1.61,1.37,3.44,3.2,3.88a3.07,3.07,0,0,0,3.76-2.05l-2.95-.4a3.71,3.71,0,0,0,3.23,4,3.51,3.51,0,0,0,3.76-3.36l-2.94.4a4.83,4.83,0,0,0,7.83,2.3,1.51,1.51,0,0,0,0-2.12,1.54,1.54,0,0,0-2.12,0,1.79,1.79,0,0,1-2.82-1,1.51,1.51,0,0,0-3,.4.48.48,0,0,1-.61.36c-.38-.13-.4-.66-.38-1,.13-1.7-2.54-2-2.94-.4.1-.43.31.17,0,0-.06,0-.19-.05-.25-.08-.5-.24-.73-1.22-.89-1.7a1.51,1.51,0,0,0-2.89,0c-.06.15-.32.23-.14.25s0,0,0-.2a1.89,1.89,0,0,0-.11-.91c-.4-1.23-2-1.6-3.09-2.06a1.56,1.56,0,0,0-2,.54,1.5,1.5,0,0,0,.54,2Z"/><path class="cls-3" d="M108.73,161.19c1.85-.35,3.68.52,5.43,1.23a33.16,33.16,0,0,0,8.77,2.23"/><path class="cls-3" d="M109.13,162.64a6.27,6.27,0,0,1,3.18.64c1.11.43,2.2.9,3.33,1.28a35.67,35.67,0,0,0,7.29,1.59,1.5,1.5,0,0,0,1.5-1.5,1.54,1.54,0,0,0-1.5-1.5,32.36,32.36,0,0,1-7.25-1.75c-2.44-.89-4.66-2.09-7.34-1.65a1.51,1.51,0,0,0-1,1.84,1.53,1.53,0,0,0,1.84,1Z"/><path class="cls-3" d="M125.07,165.68c-.62.76.07,2,1,2.24a3,3,0,0,0,2.65-1,3,3,0,0,0,4.69,1.56,2.66,2.66,0,0,0,5.07.27,4.76,4.76,0,0,0,2.44,2.76,2.5,2.5,0,0,0,3.2-1.14,2.32,2.32,0,0,0,4.38.67,4.84,4.84,0,0,0,2.94,2.61c1.33.28,2.94-.75,2.78-2.1a2.87,2.87,0,0,0,4.6.93"/><path class="cls-3" d="M123.77,164.92a3,3,0,0,0,1.16,4.13c1.69,1,3.57.1,4.88-1.06l-2.51-.66a4.52,4.52,0,0,0,7.2,2.22l-2.51-.66c1.17,3.56,6.17,4.26,7.81.63h-2.59a5.72,5.72,0,0,0,3.95,3.6,4,4,0,0,0,4.29-2l-2.74-.36a3.84,3.84,0,0,0,7.11,1h-2.59c1,1.75,2.67,3.48,4.87,3.39a3.72,3.72,0,0,0,3.65-3.64l-2.95.4a4.4,4.4,0,0,0,7.11,1.59,1.5,1.5,0,0,0-2.12-2.12,1.4,1.4,0,0,1-2.1-.27c-.6-1.44-3-1.44-2.94.4,0,.62-.77.73-1.23.55a3.85,3.85,0,0,1-1.7-1.82,1.52,1.52,0,0,0-2.59,0c-.5.87-1.43.6-1.63-.31a1.51,1.51,0,0,0-2.74-.36c-.92,1.86-2.68-.76-3.06-1.61a1.5,1.5,0,0,0-2.59,0c-.48,1.06-1.88,1.43-2.32.08a1.53,1.53,0,0,0-2.51-.66,1.52,1.52,0,0,1-2.19-.9,1.51,1.51,0,0,0-2.5-.66,1.86,1.86,0,0,1-1.08.58c-.26,0-.2-.1-.25,0,1-1.65-1.59-3.16-2.59-1.51Z"/><path class="cls-3" d="M123.72,165.08a27.6,27.6,0,0,1,6.87,1.35,155.15,155.15,0,0,0,28.12,5.06"/><path class="cls-3" d="M123.72,166.58c2.92.1,5.73,1.11,8.54,1.85s5.87,1.45,8.83,2A163.5,163.5,0,0,0,158.71,173c1.93.17,1.92-2.83,0-3a152.32,152.32,0,0,1-17.76-2.6q-4.32-.88-8.58-2a38.33,38.33,0,0,0-8.65-1.78c-1.93-.06-1.93,2.94,0,3Z"/><path class="cls-3" d="M158.94,171.77a1.53,1.53,0,1,0,2.78,0,4.14,4.14,0,0,0,.75,1.93,2.36,2.36,0,0,0,.85.78,1.52,1.52,0,0,0,2.12-.89c.18-.86-.95-1.73-1.67-1.21l2.39,1.7a3.43,3.43,0,0,0,1.55.74,1.18,1.18,0,0,0,1.32-.84c.09-.55-.36-1-.77-1.41a.56.56,0,0,0-.42-.2c-.4,0-.22.68.09.95a7.37,7.37,0,0,0,3,1.62.88.88,0,0,0,.62,0,.86.86,0,0,0,.33-.42,1.52,1.52,0,0,0,0-1.58c-.36-.42-1.24-.29-1.27.27,0,.35.28.62.56.84A3.46,3.46,0,0,0,173,175c.7,0,1.47-.58,1.31-1.27a2.71,2.71,0,0,0,3.89,1"/><path class="cls-3" d="M157.49,171.38a3,3,0,1,0,5.68,0,1.5,1.5,0,0,0-2.89.8,4.93,4.93,0,0,0,2.28,3.6,3.1,3.1,0,0,0,3.48-.42,2.64,2.64,0,0,0-3-4.26,1.52,1.52,0,0,0,0,2.59c1.22.86,2.53,2.14,4,2.53a2.76,2.76,0,0,0,3.42-1.72,3.15,3.15,0,0,0-2-3.52,1.85,1.85,0,0,0-2.08,2.76c.64,1.2,2.22,2,3.43,2.42,1.65.62,3.21.22,3.68-1.63a2.55,2.55,0,0,0-1.71-3.26,2.12,2.12,0,0,0-2.63,2.36c.28,1.45,2.07,2.6,3.45,2.82a2.71,2.71,0,0,0,3.21-2.71l-2.8.76a4.26,4.26,0,0,0,6,1.56c1.61-1,.11-3.65-1.52-2.59a1.24,1.24,0,0,1-1.84-.48c-.66-1.27-2.94-.74-2.79.75,0-.39.58,0,0-.35-.2-.12-.71-.39-.74-.56v.8c-.86-.4-1.35-.35-1.45.17a.08.08,0,0,1-.07.1l.66-.39-.3,0h.79a5.17,5.17,0,0,1-1.56-.54,6.71,6.71,0,0,1-.68-.4l-.2-.14c-.29-.31-.33-.27-.12.11l-.2.76-.32.32-1.15.15.22.06-.66-.39c.12.09.28.3.4.35l.14.14.27-.63a5,5,0,0,0-.78-.48c-.84-.58-1.67-1.18-2.5-1.77v2.59c-.74.4-.38-.4-.45-.59,0,0-.14.06-.16,0a4.77,4.77,0,0,1-.75-1.74l-2.89.8c.23.65,0-.07.07.18,0-.12-.08.39,0,.11l.09,0a.23.23,0,0,1-.11-.11c.09-.2-.17.43,0-.18.61-1.83-2.29-2.62-2.9-.79Z"/><path class="cls-3" d="M158.9,170.79a28.76,28.76,0,0,1,6.94.27c1.28.26,2.53.7,3.79,1a48.77,48.77,0,0,0,8.44,1.21"/><path class="cls-3" d="M158.9,172.29a38.19,38.19,0,0,1,5.13,0,24.2,24.2,0,0,1,4.51,1,49.44,49.44,0,0,0,9.53,1.45c1.92.16,1.91-2.84,0-3a46.79,46.79,0,0,1-9.41-1.54,29.21,29.21,0,0,0-9.76-1c-1.93.08-1.94,3.08,0,3Z"/><path class="cls-3" d="M178.66,174.35a2.31,2.31,0,0,0,4.31,1,3.54,3.54,0,0,0,6.44-.29,4.48,4.48,0,0,0,6.4.72,3.35,3.35,0,0,0,4.81,1.25c.47-.35.95-.86,1.53-.75a2.23,2.23,0,0,1,.92.64,3.51,3.51,0,0,0,5.26-1.09,9.38,9.38,0,0,0,3.95,2.6c1.55.38,3.48-.29,3.92-1.82a3,3,0,0,0,3.16,1.11,3,3,0,0,0,2.15-2.56"/><path class="cls-3" d="M177.21,174.75c.52,3.66,5.14,4.18,7,1.36h-2.59a5.09,5.09,0,0,0,9-.3h-2.59a6,6,0,0,0,8.75,1l-2.36-.31A4.8,4.8,0,0,0,198,179a4.93,4.93,0,0,0,2.26-.13,4.51,4.51,0,0,0,1.15-.55l.57-.45c-.27-.21-.29-.22-.08,0s.63.54.92.71a4.48,4.48,0,0,0,1,.43,5.05,5.05,0,0,0,2.19.11,4.89,4.89,0,0,0,3.61-2.51l-2.35.3c1.61,1.51,3.47,3.1,5.8,3.14a4.65,4.65,0,0,0,4.58-3l-2.51.66a4.47,4.47,0,0,0,7.82-2.11c.31-1.89-2.58-2.71-2.89-.8a1.52,1.52,0,0,1-2.81.79c-.78-1-2.15-.3-2.5.66s-1.54.92-2.27.72a8.13,8.13,0,0,1-3.1-2.16,1.52,1.52,0,0,0-2.36.3,2,2,0,0,1-2.1,1.1c-1.09-.15-1.62-1.3-2.78-1.39s-1.8.94-2.86,1.25a1.9,1.9,0,0,1-2.19-1,1.51,1.51,0,0,0-2.35-.3,3,3,0,0,1-4-.42c-.61-.79-2.07-1.14-2.59,0-.79,1.7-2.85,2-3.86.29a1.52,1.52,0,0,0-2.59,0c-.62.93-1.45.17-1.56-.64-.27-1.9-3.16-1.09-2.9.8Z"/><path class="cls-3" d="M179.12,172.68l27.9,2.91a21.84,21.84,0,0,0,4.64.15c2.84-.32,5.67-1.74,8.42-1"/><path class="cls-3" d="M179.12,174.18l21,2.19a93.11,93.11,0,0,0,10.11.94,21.24,21.24,0,0,0,4.76-.72,9.94,9.94,0,0,1,4.65-.38c1.87.45,2.67-2.44.79-2.89-3.24-.78-6.09.72-9.27,1-3.46.26-7.11-.5-10.55-.86l-21.53-2.24c-1.92-.2-1.9,2.8,0,3Z"/><path class="cls-3" d="M221.84,175.16a4.33,4.33,0,0,0,2.11,2c1,.3,2.22-.34,2.16-1.33a3.38,3.38,0,0,0,2.95,2.43,3.42,3.42,0,0,0,3.28-2,5.75,5.75,0,0,0,7.39-.35,6.3,6.3,0,0,0,6.17-.46,5.77,5.77,0,0,0,6.22,1.1,17.66,17.66,0,0,1,2.45-1.16,15.91,15.91,0,0,1,3.24-.07,2.6,2.6,0,0,0,2.56-1.61,4.74,4.74,0,0,0,7.06.27,5.65,5.65,0,0,0,7.2-.66"/><path class="cls-3" d="M220.55,175.92c.91,1.4,2.16,2.86,4,2.82a3.08,3.08,0,0,0,3.06-2.9l-3,.4a4.86,4.86,0,0,0,9,.81l-2,.54a7.28,7.28,0,0,0,9.21-.58l-1.82.23a8,8,0,0,0,7.68-.45l-1.81-.23a7.43,7.43,0,0,0,8.56,1.07,5.11,5.11,0,0,1,2.54-.83,17.36,17.36,0,0,0,2.6,0,3.93,3.93,0,0,0,3.27-2.63l-2.5.66a6.26,6.26,0,0,0,9.18.28l-1.82.23a7.23,7.23,0,0,0,9-.9c1.38-1.36-.74-3.48-2.12-2.13a4.23,4.23,0,0,1-5.39.44,1.5,1.5,0,0,0-1.81.23,3.27,3.27,0,0,1-4.94-.27c-.76-.95-2.18-.3-2.51.66s-2.14.48-2.74.46a6.89,6.89,0,0,0-3.61.86c-1.89,1-3.89,1.32-5.61-.24a1.54,1.54,0,0,0-1.82-.23,4.93,4.93,0,0,1-4.66.45,1.57,1.57,0,0,0-1.81.24,4.33,4.33,0,0,1-5.58.11,1.5,1.5,0,0,0-2.05.54c-.77,1.52-2.89,1.7-3.49-.1a1.5,1.5,0,0,0-2.94.4c0-.21-.24-.1-.54-.28a3.75,3.75,0,0,1-.93-1.16c-1-1.61-3.65-.11-2.59,1.52Z"/><path class="cls-3" d="M223.66,174.41A298.15,298.15,0,0,0,274,172.12"/><path class="cls-3" d="M223.66,175.91A300.25,300.25,0,0,0,274,173.62a1.55,1.55,0,0,0,1.5-1.5,1.52,1.52,0,0,0-1.5-1.5,300.25,300.25,0,0,1-50.33,2.29c-1.93-.08-1.93,2.92,0,3Z"/><path class="cls-3" d="M275,172.29a3.51,3.51,0,0,0,6.58-1,6.42,6.42,0,0,0,3.55,1.57c1.32,0,2.7-1.22,2.32-2.48a5.6,5.6,0,0,0,5,.66c.51-.18,1-.43,1.51-.58,1.25-.35,2.59,0,3.88-.22s2.69-1.18,2.46-2.46a3.83,3.83,0,0,0,6.53-.7"/><path class="cls-3" d="M273.65,173.05a5.07,5.07,0,0,0,9.33-1.32l-2.21.9c1.59,1.13,3.52,2.22,5.52,1.56a3.62,3.62,0,0,0,2.56-4.17l-2.21,1.69a7.15,7.15,0,0,0,4.36,1.15c1.61-.11,3-1,4.58-1a8,8,0,0,0,4.19-.67,3.61,3.61,0,0,0,1.94-3.33l-2.56,1.06a5.38,5.38,0,0,0,8.88-1c.9-1.71-1.69-3.23-2.59-1.52a2.39,2.39,0,0,1-4.17.4,1.52,1.52,0,0,0-2.56,1.06c.12,1.55-3.88,1-4.82,1.14s-1.76.73-2.7.88a4.29,4.29,0,0,1-3-.72,1.53,1.53,0,0,0-2.21,1.7c.12.6-1.17.56-1.43.49a7.28,7.28,0,0,1-2.23-1.27,1.5,1.5,0,0,0-2.2.9,2.05,2.05,0,0,1-3.85.59,1.5,1.5,0,0,0-2.59,1.52Z"/><path class="cls-3" d="M274.83,172.07c6.26.82,12.56-.78,18.67-2.37l13.08-3.39"/><path class="cls-3" d="M274.83,173.57c5.41.66,10.83-.36,16.08-1.66s10.71-2.77,16.07-4.16c1.86-.48,1.07-3.37-.8-2.89-5.2,1.35-10.4,2.74-15.61,4s-10.41,2.32-15.74,1.67c-1.92-.23-1.9,2.77,0,3Z"/><path class="cls-3" d="M307.61,166.25a2.94,2.94,0,0,0,5.62-1.34,3.93,3.93,0,0,0,4.25,1.6,3.25,3.25,0,0,0,2.2-3.8,3,3,0,0,0,5.6-1.68,3.07,3.07,0,0,0,5.18-3.15,3.66,3.66,0,0,0,3.63,1,2.53,2.53,0,0,0,1.58-3.16c.31.94,1.86.9,2.37.05a2.44,2.44,0,0,0-.47-2.75"/><path class="cls-3" d="M306.31,167a4.44,4.44,0,0,0,8.42-2.1l-2.8.75a5.49,5.49,0,0,0,6.26,2.19,4.82,4.82,0,0,0,2.94-5.54l-2.74,1.15a4.53,4.53,0,0,0,8.39-2.43l-2.56,1.06a4.6,4.6,0,0,0,7.69-4.61l-2.51,1.46a5.11,5.11,0,0,0,5.6,1.12,4.05,4.05,0,0,0,2.11-4.79l-2.74,1.15a2.85,2.85,0,0,0,4.21.86c1.66-1.23,1.43-3.58.29-5.07s-3.77,0-2.59,1.52a3.65,3.65,0,0,1,.53,1c.17.47-.15-.48.15.14-.74-1.53-3.26-.46-2.74,1.15.58,1.79-1.86,1.49-2.7.76-1-.91-3-.06-2.51,1.46a1.59,1.59,0,0,1-2.67,1.69,1.52,1.52,0,0,0-2.56,1.06,1.54,1.54,0,0,1-2.8.92,1.51,1.51,0,0,0-2.74,1.15c.49,2.28-2.63,2.49-3.72,1.05a1.51,1.51,0,0,0-2.79.76,1.46,1.46,0,0,1-2.83.58c-.91-1.7-3.5-.19-2.59,1.52Z"/><path class="cls-3" d="M307.6,165.79a33.62,33.62,0,0,0,12.64-2.9"/><path class="cls-3" d="M307.6,167.29a36.1,36.1,0,0,0,13.4-3.11,1.52,1.52,0,0,0,.54-2.05,1.54,1.54,0,0,0-2.05-.54,32.11,32.11,0,0,1-11.89,2.7c-1.93.07-1.94,3.07,0,3Z"/><path class="cls-3" d="M337.68,153.06a4.07,4.07,0,0,0,4,1.21,1.05,1.05,0,0,0,.63-.38,1,1,0,0,0,.1-.65,4.75,4.75,0,0,0-1.76-3.23,7.41,7.41,0,0,0,1.65,1.07.71.71,0,0,0,.67.06.69.69,0,0,0,.24-.39,5,5,0,0,0-.84-4.46,1.85,1.85,0,0,0,.7-1.78,1.87,1.87,0,0,0-1.27-1.43,73.72,73.72,0,0,1-3.34,10"/><path class="cls-3" d="M336.62,154.13a5.5,5.5,0,0,0,2.81,1.61,4.56,4.56,0,0,0,3.56-.47c1.12-.82,1-2.33.61-3.52a6.31,6.31,0,0,0-1.91-2.8,1.55,1.55,0,0,0-2.12,0,1.51,1.51,0,0,0,0,2.12,6.85,6.85,0,0,0,2.66,1.57,2.11,2.11,0,0,0,2.51-1.91,6.47,6.47,0,0,0-1.09-5.19l-.24,1.81a3.38,3.38,0,0,0,1.07-3.32,3.47,3.47,0,0,0-2.3-2.4,1.52,1.52,0,0,0-1.85,1.05,76.54,76.54,0,0,1-3.33,10,1.51,1.51,0,0,0,1,1.85,1.55,1.55,0,0,0,1.85-1.05,75.08,75.08,0,0,0,3.33-10l-1.84,1c-.15-.05,0,0,.06,0-.12-.1,0,0,.06.06s.08.12.07.1a.44.44,0,0,1,0,.2c0-.11-.11.18-.05.1l-.23.21a1.5,1.5,0,0,0-.23,1.82,3.58,3.58,0,0,1,.8,1.77,4,4,0,0,1,0,.82,1.14,1.14,0,0,1,0,.29l-.06.26c-.09.26-.05.22.1-.11l.67-.39c.16-.06.35.14.22,0a3.62,3.62,0,0,0-.43-.24,6,6,0,0,1-.66-.46l-2.12,2.12a3.41,3.41,0,0,1,1.05,1.29,3.66,3.66,0,0,1,.25.77c0,.17,0,.12,0,.2,0,.25.08.12.25-.39.3-.15.36-.2.19-.14-.41,0-.29.09-.67.09a1.7,1.7,0,0,1-.68-.1,2.48,2.48,0,0,1-1.24-.79,1.5,1.5,0,0,0-2.12,2.13Z"/><path class="cls-2" d="M341,142.49c2.87,19.79-66.58,33.61-140.69,31.32-61.88-1.92-106.68-14.8-108.75-29s38.88-27.91,100-30.94C264.81,110.19,338.09,122.71,341,142.49Z"/><path class="cls-3" d="M216.71,174.31c-5.42,0-10.91-.08-16.44-.25-60-1.86-106.83-14.44-109-29.26-.34-2.36.46-4.73,2.37-7.06,10.06-12.22,48.48-21.71,97.89-24.16,35.64-1.77,72.51.25,101.16,5.55,29.9,5.53,47.13,13.82,48.51,23.33.41,2.77-.57,5.5-2.9,8.11C325.74,164.66,275,174.31,216.71,174.31Zm.27-60.86c-8.46,0-17,.21-25.41.63-48.52,2.41-87.72,12-97.53,24a8.5,8.5,0,0,0-2.26,6.67c2.12,14.58,48.76,27,108.5,28.83,31,1,62.11-.88,87.63-5.18,25.68-4.32,43.44-10.76,50-18.14,2.23-2.49,3.16-5.09,2.78-7.71h0c-1.33-9.15-18.87-17.5-48.11-22.91C270.78,115.58,244.17,113.45,217,113.45Z"/><path class="cls-4" d="M323.68,160l-.42-.28a52.15,52.15,0,0,0,4.13-8.54c2.27-5.53,4.63-11.25,10.24-14.55l.25.43c-5.47,3.21-7.68,8.6-10,14.31A52.79,52.79,0,0,1,323.68,160Z"/><path class="cls-4" d="M283,170.21l-.34-.36c2.23-2.07,4.15-4,5.12-6.93l.06-.1,3-3c5-9,8-18.1,11-26.93,1.92-4.79,7.95-10.28,14.32-8.16l.1.06c1,1,2.07,2.08,2.07,3.18.48,5.79-1.16,11.47-2.74,17-1.72,6-3.51,12.17-2.7,18.73l-.5.06c-.81-6.66,1-12.9,2.72-18.93,1.64-5.7,3.2-11.08,2.72-16.8,0-.9-.95-1.87-1.88-2.8-6.06-2-11.81,3.29-13.64,7.87-3,8.85-6,18-11,27l0,.06-3,3C287.21,166.13,285.25,168.11,283,170.21Z"/><path class="cls-4" d="M246.9,173.34l-.36-.34c7.77-8.39,11.16-19.7,14.43-30.64,1.45-4.83,2.95-9.83,4.8-14.45s6.38-8,12.18-9.16l.15,0,.09.11c6.94,8.48,1.61,19.25-3.1,28.76a86.28,86.28,0,0,0-3.85,8.48c-1.72,4.3-1.95,8.52-2.19,13,0,.68-.07,1.36-.11,2l-.5,0c0-.68.07-1.36.11-2,.23-4.3.47-8.75,2.22-13.12a89.79,89.79,0,0,1,3.87-8.54c4.62-9.32,9.85-19.88,3.26-28.09-5.56,1.15-9.92,4.44-11.67,8.81-1.84,4.61-3.33,9.59-4.78,14.42C258.16,153.5,254.75,164.87,246.9,173.34Z"/><path class="cls-4" d="M196.91,173.73l-.28-.41a27.22,27.22,0,0,1,2.8-1.61,18.36,18.36,0,0,0,4.32-2.81v-3l0-.06c1-1.49,2-3.27,3-5s2-3.51,3-5c3.36-5,5.6-10.78,7.76-16.34,4.29-11,8.33-21.41,20.38-24.76,2.94-1,7.11.86,9.28,4.1a17,17,0,0,1,1,12.2c-1.58,6.32-4.28,12.12-6.88,17.72a96.38,96.38,0,0,0-6.12,15.29c-.2.6-.43,1.19-.66,1.76-1,2.45-1.89,4.76-.28,7.24l-.41.27c-1.77-2.69-.75-5.23.22-7.69.23-.57.46-1.16.65-1.73a98.08,98.08,0,0,1,6.14-15.35c2.6-5.58,5.29-11.36,6.86-17.63a16.58,16.58,0,0,0-1-11.83c-2-3-5.94-4.79-8.7-3.87-11.82,3.28-15.83,13.57-20.07,24.47-2.17,5.58-4.41,11.35-7.8,16.43-1,1.49-2,3.27-3,5s-2,3.46-3,5v3l-.07.08a18.45,18.45,0,0,1-4.52,3A26.44,26.44,0,0,0,196.91,173.73Z"/><path class="cls-4" d="M189.43,173.52c-2.68-3.43-2.68-6.53-2.68-9.52,2.59-13,8.91-24.49,15-35.62q1.51-2.76,3-5.5c1.38-2.06,1.65-3.87.84-5.4-1.14-2.12-4.19-3.23-6.62-3.23-4.88,0-7.75,3.84-10.8,7.9-6.22,8.09-10.83,16.06-15.7,24.51-2.9,5-5.89,10.19-9.29,15.47-3.12,4.16-7.28,6.17-10.93,7.73l-.2-.46c3.6-1.53,7.69-3.51,10.72-7.55,3.38-5.26,6.37-10.44,9.26-15.44C177,138,181.56,130,187.8,121.85c3-4,6.08-8.1,11.2-8.1,2.58,0,5.83,1.2,7.06,3.49.62,1.17,1,3.15-.85,5.9q-1.47,2.72-3,5.48c-6.1,11.1-12.4,22.58-15,35.43,0,3,0,5.86,2.57,9.16Z"/><path class="cls-4" d="M145.53,168.25c-1.91-7.7-.47-16.08,4.53-26.37,1.66-3.42,3.56-6.77,5.39-10l.53-.93c.34-.61.73-1.23,1.14-1.89,1.37-2.18,2.92-4.66,2.94-7.08,0-1.69-.53-2.82-1.61-3.37-3.23-1.63-10.4,2.08-12.72,3.83-10.4,7.84-19.77,22.71-25.08,39.76l-.48-.15c5.34-17.15,14.78-32.11,25.26-40,2.47-1.86,9.78-5.62,13.24-3.88,1.27.64,1.91,1.93,1.89,3.82,0,2.57-1.61,5.11-3,7.35-.41.65-.79,1.27-1.13,1.86l-.52.94c-1.83,3.24-3.73,6.59-5.38,10-4.95,10.18-6.38,18.45-4.49,26Z"/><path class="cls-5" d="M206.11,166.07a9.13,9.13,0,0,1,4.64-2.83,7.17,7.17,0,0,1-3.07,5.85c-1.11.81-2.49,1.39-2.65.21A4.26,4.26,0,0,1,206.11,166.07Z"/><path class="cls-5" d="M211,163.2a7.4,7.4,0,0,1-3.16,6,4,4,0,0,1-2.33.94.8.8,0,0,1-.73-.78A4.46,4.46,0,0,1,205.9,166a9.53,9.53,0,0,1,4.82-2.93L211,163ZM207.53,169a7,7,0,0,0,3-5.49,8.77,8.77,0,0,0-4.19,2.64h0a4.08,4.08,0,0,0-1,3.11c0,.33.19.51.43.54h.16A4,4,0,0,0,207.53,169Z"/><path class="cls-5" d="M184.56,112.92a11.79,11.79,0,0,1,8.92-3.47c-.83,4.79-3.21,9.67-7.58,12-2.21,1.15-4.74,1.55-4.51-1.43A11.43,11.43,0,0,1,184.56,112.92Z"/><path class="cls-5" d="M193.92,109.52c-1,5.72-3.85,10.19-7.82,12.27-1.06.55-3,1.37-4.26.58A2.42,2.42,0,0,1,181,120a11.78,11.78,0,0,1,3.29-7.33,12.25,12.25,0,0,1,9.27-3.6l.49,0ZM185.69,121c3.62-1.89,6.25-5.94,7.27-11.16a11.38,11.38,0,0,0-8.09,3.36h0a10.93,10.93,0,0,0-3,6.79c-.07.84.1,1.39.49,1.64a.89.89,0,0,0,.26.12A4.67,4.67,0,0,0,185.69,121Z"/><path class="cls-5" d="M149.11,144c-1.86-2-3.27-5.81-3.77-10.13,3.09-.81,6.52.34,8.72,5.07,1.11,2.39,1.82,5.49-.05,6.37C152.37,146,150.61,145.6,149.11,144Z"/><path class="cls-5" d="M145.31,133.25c3.68-1,6.94.94,8.94,5.24a10.4,10.4,0,0,1,1.14,5.26,2.48,2.48,0,0,1-1.32,2.1c-1.73.81-3.54.33-5.09-1.36-1.92-2.1-3.39-6-3.91-10.52l-.07-.64Zm8.55,6.07c-1.82-3.92-4.78-5.71-8.17-5,.55,3.89,1.85,7.26,3.54,9.1h0c1.44,1.56,3.11,2,4.72,1.25a1.54,1.54,0,0,0,.91-1.27,2.38,2.38,0,0,0,0-.39A9.68,9.68,0,0,0,153.86,139.32Z"/><path class="cls-6" d="M167.17,122.39a3.59,3.59,0,0,1-4,3.48,4.2,4.2,0,0,1-4-4,3.59,3.59,0,0,1,4-3.48A4.2,4.2,0,0,1,167.17,122.39Z"/><path class="cls-6" d="M145.5,132.75a3.59,3.59,0,0,1-4,3.48,4.2,4.2,0,0,1-4-4,3.59,3.59,0,0,1,4-3.48A4.19,4.19,0,0,1,145.5,132.75Z"/><path class="cls-6" d="M169.74,118a3.59,3.59,0,0,1-4,3.48,4.2,4.2,0,0,1-4-4,3.59,3.59,0,0,1,4-3.48A4.19,4.19,0,0,1,169.74,118Z"/><path class="cls-6" d="M171.74,140a3.59,3.59,0,0,1-4,3.48,4.2,4.2,0,0,1-4-4,3.59,3.59,0,0,1,4-3.48A4.19,4.19,0,0,1,171.74,140Z"/><path class="cls-7" d="M156.26,131.51a11.49,11.49,0,0,0-3.09,7.79,3.61,3.61,0,0,0,1.18,3,4,4,0,0,0,1.79.55,28.08,28.08,0,0,0,2.9.22,4.73,4.73,0,0,0,3.08-.72,3.43,3.43,0,0,0,1.11-2.82,10.09,10.09,0,0,0-.78-3l-2.85-7.7a1.9,1.9,0,0,0-.57-.94,1.33,1.33,0,0,0-1.55.14,4,4,0,0,0-1,1.35l-3.85,7.48c-.76,1.47-1.53,3.18-.89,4.7.85,2,3.53,2.35,5.73,2.37l4.5,0c1.06,0,2.29,0,3-.89a2.46,2.46,0,0,0,.13-2.49,9.09,9.09,0,0,0-1.57-2.09,25.74,25.74,0,0,1-4.54-7.22c-.13-.31-.37-.7-.7-.61a.64.64,0,0,0-.35.28,22.6,22.6,0,0,0-3.87,7.54,1.86,1.86,0,0,0,1.65,2.89c.75.13,1.51.22,2.28.28.93.07,2.15-.11,2.34-1a2,2,0,0,0-.29-1.25l-1.87-4a6.46,6.46,0,0,0-2,3.45,1.18,1.18,0,0,0,0,.67c.13.4.58.58,1,.72,1,.36,2.6.46,2.84-.61a2,2,0,0,0-.11-1l-1.55-5.36a28.71,28.71,0,0,0,5.45,7.7"/><path class="cls-7" d="M155.2,130.45a13.3,13.3,0,0,0-3,5.37,9.59,9.59,0,0,0-.07,5.9c.92,2.31,3.14,2.64,5.35,2.82,2,.15,4.39.29,5.92-1.24s1.57-4,.92-6.08c-.72-2.26-1.64-4.48-2.46-6.7-.71-1.92-1.36-4.84-4.08-4.23a3.7,3.7,0,0,0-2.29,1.92c-.59,1-1.1,2.13-1.65,3.19-1.08,2.09-2.29,4.16-3.18,6.34-.79,1.93-.85,4.2.69,5.79a7.43,7.43,0,0,0,4.71,1.84,55.54,55.54,0,0,0,6.45.11c2.14-.06,4.28-1.06,4.39-3.48.09-2.19-1.54-3.64-2.82-5.18a23.88,23.88,0,0,1-3.32-5.27c-.42-.92-.74-2-1.85-2.32-1.4-.38-2.21.89-2.89,1.86a23.57,23.57,0,0,0-3.12,6.22,5.51,5.51,0,0,0-.34,3.44,3.29,3.29,0,0,0,2.79,2.09c1.87.33,4.8.93,6.09-1,.78-1.16.34-2.36-.2-3.51s-1.15-2.45-1.73-3.68a1.52,1.52,0,0,0-2.36-.3,7.42,7.42,0,0,0-2.53,4.74c-.11,2,2,2.85,3.74,2.91s3.34-1.14,3.08-3a20.84,20.84,0,0,0-.79-2.91l-.9-3.13L157,134.1a30.65,30.65,0,0,0,5.67,8c1.36,1.38,3.48-.74,2.13-2.12a28.14,28.14,0,0,1-5.21-7.4c-.75-1.54-3.21-.46-2.74,1.16l1,3.57c.17.6.35,1.19.51,1.79s0,.22.14.12c.43-.35.17-.17.1-.2s-.59,0-.85-.11a2.4,2.4,0,0,0-.4-.14c-.27-.17-.2,0,.22.51a2.49,2.49,0,0,1,.09-.37,5.23,5.23,0,0,1,1.57-2.42l-2.35-.31,1.2,2.55a10.81,10.81,0,0,0,.67,1.42,1.22,1.22,0,0,0,.1.23l.05-.17c.22-.18.25-.23.11-.14s-.34.09-.44.1a5.7,5.7,0,0,1-1-.05c-.39,0-.78-.08-1.17-.14-.24,0-.9-.05-1.08-.24.09.08.05-.25.07-.35a6.32,6.32,0,0,1,.29-1,18.81,18.81,0,0,1,.84-2.2,20.31,20.31,0,0,1,1.23-2.3A7.05,7.05,0,0,1,159,132l-.76.21h.19l-.76-.21c-.07,0-.09-.17-.09-.07a1.59,1.59,0,0,0,.18.4c.1.26.22.51.33.76.28.58.57,1.16.89,1.72a28.17,28.17,0,0,0,2,3c.73,1,1.61,1.82,2.33,2.78.32.42.89,1.33.29,1.72a2.32,2.32,0,0,1-1.14.2c-.63,0-1.27,0-1.91,0-1.26,0-2.52,0-3.78-.05s-3.5-.23-3.72-1.83a5.44,5.44,0,0,1,.9-3l1.86-3.61,1.86-3.6c.12-.23.23-.47.36-.7s.36-.42.36-.49-.32-.4-.32-.15a3,3,0,0,0,.3.75c.94,2.55,1.91,5.09,2.82,7.65a5,5,0,0,1,.43,3c-.29.9-1.09,1.08-2,1.11a15.31,15.31,0,0,1-3.94-.3c-1-.25-1.07-1.25-1.06-2.15a10,10,0,0,1,2.65-6.6c1.31-1.42-.81-3.55-2.12-2.12Z"/><path class="cls-7" d="M164.21,141.26c.94-2.68-.41-5.56-1.72-8.08l-2.29-4.39a57.68,57.68,0,0,1,5.31,13"/><path class="cls-7" d="M165.65,141.66c.79-2.42.14-4.88-.84-7.13s-2.19-4.35-3.32-6.5l-2.59,1.52a57.24,57.24,0,0,1,5.17,12.64,1.5,1.5,0,0,0,2.89-.8A60.46,60.46,0,0,0,161.49,128c-.94-1.69-3.48-.19-2.59,1.52,1,1.94,2.09,3.87,3,5.85.8,1.71,1.44,3.6.83,5.46a1.5,1.5,0,1,0,2.89.8Z"/><path class="cls-8" d="M157.88,131.19a.23.23,0,0,0,0-.45.23.23,0,0,0,0,.45Z"/><path class="cls-8" d="M154.77,136.84a.23.23,0,0,0,0-.45.23.23,0,0,0,0,.45Z"/><path class="cls-8" d="M161.34,139.61a.23.23,0,0,0,0-.45.23.23,0,0,0,0,.45Z"/><path class="cls-8" d="M163.53,136.27a.23.23,0,0,0,0-.45.23.23,0,0,0,0,.45Z"/><path class="cls-8" d="M158.81,134.88a.23.23,0,0,0,0-.45.23.23,0,0,0,0,.45Z"/><path class="cls-8" d="M155.12,133.5a.23.23,0,0,0,0-.45.23.23,0,0,0,0,.45Z"/><path class="cls-8" d="M158.57,139a.23.23,0,0,0,0-.45.23.23,0,0,0,0,.45Z"/><path class="cls-8" d="M151.89,141.45a.23.23,0,0,0,0-.45.23.23,0,0,0,0,.45Z"/><path class="cls-8" d="M156.15,144.11a.23.23,0,0,0,0-.45.23.23,0,0,0,0,.45Z"/><path class="cls-8" d="M155.46,141.22a.23.23,0,0,0,0-.45.23.23,0,0,0,0,.45Z"/><path class="cls-8" d="M152.35,138.92a.23.23,0,0,0,0-.45.23.23,0,0,0,0,.45Z"/><path class="cls-8" d="M157,138.23a.23.23,0,0,0,0-.45.23.23,0,0,0,0,.45Z"/><path class="cls-8" d="M157,135.23a.23.23,0,0,0,0-.45.23.23,0,0,0,0,.45Z"/><path class="cls-8" d="M157,130.39a.23.23,0,0,0,0-.45.23.23,0,0,0,0,.45Z"/><path class="cls-8" d="M158.34,128a.23.23,0,0,0,0-.45.23.23,0,0,0,0,.45Z"/><path class="cls-8" d="M161,131.08a.23.23,0,0,0,0-.45.23.23,0,0,0,0,.45Z"/><path class="cls-8" d="M163.65,133a.23.23,0,0,0,0-.45.23.23,0,0,0,0,.45Z"/><path class="cls-8" d="M161.57,136.27a.23.23,0,0,0,0-.45.23.23,0,0,0,0,.45Z"/><path class="cls-8" d="M163.88,139.49a.23.23,0,0,0,0-.45.23.23,0,0,0,0,.45Z"/><path class="cls-8" d="M163.07,142.38a.23.23,0,0,0,0-.45.23.23,0,0,0,0,.45Z"/><path class="cls-8" d="M159.73,142.49a.23.23,0,0,0,0-.45.23.23,0,0,0,0,.45Z"/><path class="cls-8" d="M158.46,143.18a.23.23,0,0,0,0-.45.23.23,0,0,0,0,.45Z"/><path class="cls-8" d="M123,135.34a.23.23,0,0,0,0-.45.23.23,0,0,0,0,.45Z"/><path class="cls-8" d="M124.1,130a.23.23,0,0,0,0-.45.23.23,0,0,0,0,.45Z"/><path class="cls-8" d="M125.26,136.73a.23.23,0,0,0,0-.45.23.23,0,0,0,0,.45Z"/><path class="cls-8" d="M125.6,139.61a.23.23,0,0,0,0-.45.23.23,0,0,0,0,.45Z"/><path class="cls-7" d="M123.17,137.56c2.49,1.6,5.61,1.73,8.56,1.76,1.91,0,4,0,5.41-1.35a5.32,5.32,0,0,0,1.41-2.51c.95-3.48-.44-7.12-1.8-10.47l-1.79-4.4c-.12-.29-.28-.62-.59-.68a.94.94,0,0,0-.62.16,25.3,25.3,0,0,0-11.45,13c-.78,2-1.1,4.69.66,5.9a4.63,4.63,0,0,0,2.19.66,18.37,18.37,0,0,0,8.83-1.25,3.73,3.73,0,0,0,1.34-.81,3.64,3.64,0,0,0,.77-1.65,17.33,17.33,0,0,0-1.61-12.62.75.75,0,0,0-.41-.41.69.69,0,0,0-.48.09c-3.36,1.51-5.52,4.79-7.5,7.91-1,1.53-2,3.18-1.88,5a2.17,2.17,0,0,0,.67,1.64,2.87,2.87,0,0,0,2.06.39c1.23-.1,2.46-.22,3.68-.38a6.65,6.65,0,0,0,3.24-1.05,4.72,4.72,0,0,0,1.62-3.77,14.09,14.09,0,0,0-.86-4.14c-.36-1.13-1.06-2.5-2.24-2.37-.73.08-1.25.75-1.66,1.37a64.94,64.94,0,0,0-3.37,5.75c-.45.87-.77,2.16.09,2.63a2.3,2.3,0,0,0,1.08.17,8.57,8.57,0,0,0,2,0,3.38,3.38,0,0,0,2.43-2.55,9.79,9.79,0,0,0,.06-3.7,1,1,0,0,0-.26-.7c-.35-.29-.88,0-1.21.32a8.9,8.9,0,0,0-2.56,4.5,4.56,4.56,0,0,0,2.4-.14"/><path class="cls-7" d="M122.42,138.85c2.79,1.73,6.11,2,9.31,2,3,0,6.28-.49,7.72-3.53,1.54-3.22.88-6.91-.26-10.14-.59-1.66-1.29-3.29-2-4.93-.51-1.27-.92-3.35-2.46-3.76s-3.15,1.07-4.24,1.84a27,27,0,0,0-3.45,2.86,26.55,26.55,0,0,0-5.22,7.18c-1.16,2.34-2.34,5.26-1.29,7.86,1.29,3.22,5.43,3.2,8.36,2.9s7.3-1,8.43-4.22a17.81,17.81,0,0,0,.25-9.66,18.67,18.67,0,0,0-1.68-4.41c-.89-1.67-2.25-1.65-3.78-.82-2.67,1.46-4.6,3.93-6.26,6.42s-3.93,5.53-3,8.61a3.45,3.45,0,0,0,3.59,2.37,37.15,37.15,0,0,0,5.16-.54,6,6,0,0,0,5.34-6.18,14.69,14.69,0,0,0-1-4.79c-.46-1.28-1.22-2.68-2.62-3.1-1.6-.47-2.89.51-3.77,1.76a47.2,47.2,0,0,0-2.75,4.51c-.7,1.28-1.56,2.64-1.4,4.16.17,1.71,1.55,2.3,3.08,2.37s3,.11,4.29-1a5.94,5.94,0,0,0,1.79-4.07c.1-1.42.19-3.86-1.25-4.66s-3,.54-3.86,1.67a10.67,10.67,0,0,0-2,4.1,1.52,1.52,0,0,0,1,1.85,6.67,6.67,0,0,0,3.2-.15c1.84-.55,1.06-3.45-.8-2.89a3.35,3.35,0,0,1-1.6.14l1,1.85a8.37,8.37,0,0,1,.88-2.22,8.94,8.94,0,0,1,.66-.95l.42-.46c.27-.18.32-.24.14-.2l-.76-.2c-.64-.31-.08-.48-.21-.12a3.54,3.54,0,0,0,.07.75,9.4,9.4,0,0,1,0,1.3,2.91,2.91,0,0,1-.81,2.05,2,2,0,0,1-1.62.29,4,4,0,0,0-1.08-.06l.31.41v-.24a2.52,2.52,0,0,0,.13-.47,29.14,29.14,0,0,1,2.68-4.74c.23-.37.83-1.75,1.28-1.85,0,0-.05,0,.12.11a2.18,2.18,0,0,1,.47.89,9.34,9.34,0,0,1,.8,4.87c-.34,1.63-1.52,2.16-3,2.4-.86.14-1.74.23-2.61.31-.45,0-2,.41-2.39.08s-.09-1.37,0-1.74a10.27,10.27,0,0,1,1.26-2.55,38.57,38.57,0,0,1,3.06-4.45,15.53,15.53,0,0,1,1.93-2,7.24,7.24,0,0,1,.9-.67,3.82,3.82,0,0,1,1.06-.61l-.76-.21c-.15-.08-.25-.42,0,.17.07.15.16.3.23.45.16.33.32.67.45,1a15.78,15.78,0,0,1,.73,2.4,16.13,16.13,0,0,1,.33,4.75c-.09,1.25-.15,3.33-1.42,3.93a14.7,14.7,0,0,1-4.91,1.26,17.68,17.68,0,0,1-2.52.06,4.9,4.9,0,0,1-2.37-.45c-.86-.56-.76-1.88-.57-2.76a18.9,18.9,0,0,1,3.86-7.43,22,22,0,0,1,7.66-6.31l-.76.2.32,0-.76-.21q-.09-.17,0,0l.18.44c.14.34.28.67.41,1l.76,1.87c.51,1.24,1,2.48,1.46,3.75.8,2.36,1.51,5.24.37,7.62-1,2.14-3.71,1.93-5.72,1.9-2.47,0-5-.23-7.14-1.56-1.65-1-3.16,1.58-1.51,2.59Z"/><path class="cls-8" d="M134,124.16a.23.23,0,0,0,0-.45.23.23,0,0,0,0,.45Z"/><path class="cls-8" d="M129,126a.23.23,0,0,0,0-.45.23.23,0,0,0,0,.45Z"/><path class="cls-8" d="M133.21,131a.23.23,0,0,0,0-.45.23.23,0,0,0,0,.45Z"/><path class="cls-8" d="M136.09,134.77a.23.23,0,0,0,0-.45.23.23,0,0,0,0,.45Z"/><path class="cls-8" d="M129.06,136.61a.23.23,0,0,0,0-.45.23.23,0,0,0,0,.45Z"/><path class="cls-8" d="M128.49,131a.23.23,0,0,0,0-.45.23.23,0,0,0,0,.45Z"/><path class="cls-8" d="M132.87,138.92a.23.23,0,0,0,0-.45.23.23,0,0,0,0,.45Z"/><path class="cls-8" d="M131.48,134.42a.23.23,0,0,0,0-.45.23.23,0,0,0,0,.45Z"/><path class="cls-8" d="M137.25,133.62a.23.23,0,0,0,0-.45.23.23,0,0,0,0,.45Z"/><path class="cls-8" d="M136.21,128.89a.23.23,0,0,0,0-.45.23.23,0,0,0,0,.45Z"/><path class="cls-8" d="M131.25,127.5a.23.23,0,0,0,0-.45.23.23,0,0,0,0,.45Z"/><path class="cls-8" d="M131.37,121.51a.23.23,0,0,0,0-.45.23.23,0,0,0,0,.45Z"/><path class="cls-8" d="M133.67,120.24a.23.23,0,0,0,0-.45.23.23,0,0,0,0,.45Z"/><path class="cls-8" d="M136.09,126.47a.23.23,0,0,0,0-.45.23.23,0,0,0,0,.45Z"/><path class="cls-8" d="M133.33,126.47a.23.23,0,0,0,0-.45.23.23,0,0,0,0,.45Z"/><path class="cls-8" d="M130.68,123.7a.23.23,0,0,0,0-.45.23.23,0,0,0,0,.45Z"/><path class="cls-8" d="M125.83,128a.23.23,0,0,0,0-.45.23.23,0,0,0,0,.45Z"/><path class="cls-7" d="M168.77,124.64c2.48,1.6,5.6,1.74,8.55,1.77,1.91,0,4,0,5.42-1.35a5.22,5.22,0,0,0,1.4-2.51c1-3.48-.43-7.13-1.79-10.47l-1.79-4.4c-.12-.29-.29-.62-.59-.69a1,1,0,0,0-.63.17,25.26,25.26,0,0,0-11.45,13c-.77,2-1.09,4.68.67,5.9a4.83,4.83,0,0,0,2.18.66,18.49,18.49,0,0,0,8.83-1.25,3.66,3.66,0,0,0,1.35-.82,3.71,3.71,0,0,0,.77-1.64,17.31,17.31,0,0,0-1.62-12.63.57.57,0,0,0-.88-.32c-3.37,1.52-5.53,4.8-7.5,7.92-1,1.52-2,3.18-1.89,5a2.23,2.23,0,0,0,.68,1.64,2.9,2.9,0,0,0,2.06.38c1.23-.09,2.45-.22,3.67-.38a6.62,6.62,0,0,0,3.24-1,4.69,4.69,0,0,0,1.62-3.76,13.84,13.84,0,0,0-.86-4.15c-.36-1.12-1.06-2.49-2.23-2.36-.74.08-1.25.75-1.66,1.37a60,60,0,0,0-3.37,5.75c-.45.86-.77,2.15.08,2.63a2.3,2.3,0,0,0,1.08.17,9.2,9.2,0,0,0,2,0,3.42,3.42,0,0,0,2.44-2.55,10.22,10.22,0,0,0,.06-3.7,1,1,0,0,0-.27-.7c-.35-.29-.87,0-1.2.31a9,9,0,0,0-2.57,4.5,4.35,4.35,0,0,0,2.4-.14"/><path class="cls-7" d="M168,125.94c2.79,1.72,6.11,1.94,9.31,2,3,0,6.28-.5,7.73-3.54,1.53-3.21.87-6.91-.27-10.13-.58-1.67-1.28-3.29-1.95-4.93-.52-1.28-.92-3.36-2.46-3.76s-3.16,1.07-4.24,1.83a27.17,27.17,0,0,0-3.46,2.87,26.72,26.72,0,0,0-5.22,7.17c-1.15,2.35-2.34,5.27-1.29,7.87,1.3,3.22,5.43,3.2,8.36,2.9s7.3-1,8.44-4.22a17.71,17.71,0,0,0,.24-9.66,18.45,18.45,0,0,0-1.67-4.42c-.89-1.66-2.25-1.65-3.78-.81a18.76,18.76,0,0,0-6.26,6.42c-1.61,2.41-3.94,5.53-3,8.61a3.42,3.42,0,0,0,3.58,2.36,34.6,34.6,0,0,0,5.17-.54,6,6,0,0,0,5.33-6.17,14.32,14.32,0,0,0-1-4.79c-.46-1.28-1.22-2.68-2.62-3.1-1.6-.48-2.9.51-3.78,1.76a45.9,45.9,0,0,0-2.74,4.51c-.71,1.28-1.57,2.64-1.41,4.16.18,1.7,1.55,2.29,3.08,2.37s3,.11,4.29-1a5.91,5.91,0,0,0,1.79-4.07c.1-1.42.19-3.85-1.25-4.65s-3,.53-3.86,1.66a10.7,10.7,0,0,0-2,4.11,1.51,1.51,0,0,0,1,1.84,6.66,6.66,0,0,0,3.2-.14c1.85-.56,1.06-3.45-.79-2.89a3.39,3.39,0,0,1-1.61.14l1,1.84a7.8,7.8,0,0,1,.88-2.21,5.75,5.75,0,0,1,.66-1,6,6,0,0,1,.42-.46c.27-.18.31-.25.13-.2l-.75-.21c-.65-.3-.08-.48-.21-.11a3,3,0,0,0,.07.75,9.38,9.38,0,0,1,0,1.3,2.9,2.9,0,0,1-.82,2,2,2,0,0,1-1.61.3,4.57,4.57,0,0,0-1.09-.07l.32.42v-.24a3.36,3.36,0,0,0,.14-.48,29,29,0,0,1,2.67-4.73c.23-.37.84-1.76,1.29-1.85,0,0-.06,0,.12.11a2,2,0,0,1,.46.89,9.2,9.2,0,0,1,.81,4.86c-.34,1.63-1.52,2.16-3.05,2.41-.87.14-1.74.22-2.61.3-.46,0-2,.41-2.39.08s-.09-1.36,0-1.74a9.84,9.84,0,0,1,1.25-2.54,37,37,0,0,1,3.07-4.45,14.9,14.9,0,0,1,1.92-2,8.44,8.44,0,0,1,.91-.66,4.08,4.08,0,0,1,1-.62l-.76-.2c-.14-.08-.24-.43,0,.17.07.15.15.29.22.44.17.34.32.67.46,1a18,18,0,0,1,.73,2.4,16.43,16.43,0,0,1,.33,4.75c-.1,1.25-.16,3.32-1.43,3.93a15.07,15.07,0,0,1-4.91,1.26,17.68,17.68,0,0,1-2.52.06,5,5,0,0,1-2.37-.45c-.86-.57-.75-1.88-.57-2.76a18.85,18.85,0,0,1,3.87-7.43,21.75,21.75,0,0,1,7.65-6.32l-.75.21.32,0-.76-.2c-.06-.11-.06-.1,0,0l.18.44c.13.34.27.68.41,1l.76,1.86c.5,1.24,1,2.48,1.45,3.75.8,2.37,1.52,5.24.38,7.63-1,2.14-3.72,1.93-5.72,1.89-2.48-.05-5-.22-7.14-1.55-1.65-1-3.16,1.58-1.52,2.59Z"/><path class="cls-8" d="M179.61,111.25a.23.23,0,0,0,0-.45.23.23,0,0,0,0,.45Z"/><path class="cls-8" d="M174.54,113.09a.23.23,0,0,0,0-.45.23.23,0,0,0,0,.45Z"/><path class="cls-8" d="M178.81,118.05a.23.23,0,0,0,0-.45.23.23,0,0,0,0,.45Z"/><path class="cls-8" d="M181.69,121.85a.23.23,0,0,0,0-.45.23.23,0,0,0,0,.45Z"/><path class="cls-8" d="M174.66,123.7a.23.23,0,0,0,0-.45.23.23,0,0,0,0,.45Z"/><path class="cls-8" d="M174.08,118.05a.23.23,0,0,0,0-.45.23.23,0,0,0,0,.45Z"/><path class="cls-8" d="M178.46,126a.23.23,0,0,0,0-.45.23.23,0,0,0,0,.45Z"/><path class="cls-8" d="M177.08,121.51a.23.23,0,0,0,0-.45.23.23,0,0,0,0,.45Z"/><path class="cls-8" d="M182.84,120.7a.23.23,0,0,0,0-.45.23.23,0,0,0,0,.45Z"/><path class="cls-8" d="M181.8,116a.23.23,0,0,0,0-.45.23.23,0,0,0,0,.45Z"/><path class="cls-8" d="M176.85,114.59a.23.23,0,0,0,0-.45.23.23,0,0,0,0,.45Z"/><path class="cls-8" d="M177,108.6a.23.23,0,0,0,0-.45.23.23,0,0,0,0,.45Z"/><path class="cls-8" d="M179.27,107.33a.23.23,0,0,0,0-.45.23.23,0,0,0,0,.45Z"/><path class="cls-8" d="M181.69,113.55a.23.23,0,0,0,0-.45.23.23,0,0,0,0,.45Z"/><path class="cls-8" d="M178.92,113.55a.23.23,0,0,0,0-.45.23.23,0,0,0,0,.45Z"/><path class="cls-8" d="M176.27,110.79a.23.23,0,0,0,0-.45.23.23,0,0,0,0,.45Z"/><path class="cls-6" d="M143,139.27a3.56,3.56,0,0,1-4,3.44,4.23,4.23,0,0,1-4-4,3.56,3.56,0,0,1,4-3.44A4.21,4.21,0,0,1,143,139.27Z"/><path class="cls-6" d="M154.17,145.39a3.59,3.59,0,0,1-4,3.48,4.2,4.2,0,0,1-4-4,3.59,3.59,0,0,1,4-3.48A4.2,4.2,0,0,1,154.17,145.39Z"/><path class="cls-6" d="M160.17,144.39a3.59,3.59,0,0,1-4,3.48,4.2,4.2,0,0,1-4-4,3.59,3.59,0,0,1,4-3.48A4.2,4.2,0,0,1,160.17,144.39Z"/><path class="cls-7" d="M194.88,170.49c1.75,1,4,1.14,6,1.16,1.34,0,2.83,0,3.82-.89a3.37,3.37,0,0,0,1-1.63c.67-2.27-.31-4.65-1.27-6.83l-1.26-2.87c-.09-.19-.2-.41-.42-.45a.71.71,0,0,0-.44.11,17,17,0,0,0-8.08,8.46c-.54,1.3-.77,3,.47,3.85a3.7,3.7,0,0,0,1.55.43,14,14,0,0,0,6.22-.82,2.6,2.6,0,0,0,.95-.53,2.29,2.29,0,0,0,.55-1.07,10.54,10.54,0,0,0-1.14-8.23.42.42,0,0,0-.63-.21c-2.37,1-3.9,3.13-5.29,5.16a5.57,5.57,0,0,0-1.33,3.25,1.43,1.43,0,0,0,.48,1.07,2.22,2.22,0,0,0,1.45.25c.87-.06,1.73-.15,2.59-.25a5.06,5.06,0,0,0,2.29-.68,3,3,0,0,0,1.14-2.46,8.21,8.21,0,0,0-.61-2.7c-.25-.74-.74-1.63-1.57-1.55a1.79,1.79,0,0,0-1.17.9,38.82,38.82,0,0,0-2.38,3.75c-.32.56-.54,1.4.06,1.71a1.62,1.62,0,0,0,.76.11,6.38,6.38,0,0,0,1.38,0,2.3,2.3,0,0,0,1.72-1.67,6.1,6.1,0,0,0,.05-2.41.62.62,0,0,0-.19-.45c-.25-.19-.62,0-.85.2a5.73,5.73,0,0,0-1.81,2.94,3.45,3.45,0,0,0,1.69-.09"/><path class="cls-7" d="M194.35,171.34a13.37,13.37,0,0,0,6.57,1.29c2.14,0,4.42-.33,5.45-2.31s.61-4.51-.19-6.61c-.42-1.09-.91-2.15-1.38-3.22-.36-.83-.65-2.18-1.74-2.45s-2.22.7-3,1.2a19.24,19.24,0,0,0-2.44,1.87,17.47,17.47,0,0,0-3.68,4.68c-.81,1.53-1.65,3.43-.91,5.12.92,2.1,3.83,2.09,5.9,1.9s5.15-.65,5.95-2.75a10.69,10.69,0,0,0,.17-6.31,11.21,11.21,0,0,0-1.18-2.88c-.63-1.08-1.58-1.07-2.66-.53a12.87,12.87,0,0,0-4.42,4.19c-1.13,1.57-2.78,3.61-2.12,5.62a2.43,2.43,0,0,0,2.53,1.54,26.23,26.23,0,0,0,3.65-.36,4,4,0,0,0,3.76-4,8.85,8.85,0,0,0-.7-3.12,3.07,3.07,0,0,0-1.85-2,2.51,2.51,0,0,0-2.66,1.15,29.84,29.84,0,0,0-1.94,2.94,4.56,4.56,0,0,0-1,2.71c.12,1.12,1.09,1.5,2.17,1.55a4,4,0,0,0,3-.67,3.75,3.75,0,0,0,1.26-2.66c.07-.92.14-2.51-.88-3s-2.09.34-2.72,1.08a6.8,6.8,0,0,0-1.41,2.68,1,1,0,0,0,.74,1.2,5,5,0,0,0,2.25-.09,1,1,0,1,0-.56-1.89,2.41,2.41,0,0,1-1.13.09l.74,1.21a4.83,4.83,0,0,1,1.09-2.07,4,4,0,0,1,.29-.29c.19-.12.22-.17.1-.14l-.54-.13c-.45-.2,0-.31-.14-.07a1.87,1.87,0,0,0,0,.48,6,6,0,0,1,0,.85,1.82,1.82,0,0,1-.58,1.34,1.54,1.54,0,0,1-1.14.19,3.35,3.35,0,0,0-.76-.05l.22.28v-.16a1.86,1.86,0,0,0,.1-.31,18.53,18.53,0,0,1,1.89-3.09c.16-.24.59-1.14.9-1.2,0,0,0,0,.09.07s.26.41.33.58a5.58,5.58,0,0,1,.56,3.17c-.23,1.06-1.07,1.41-2.15,1.57-.61.09-1.23.14-1.84.2-.32,0-1.4.26-1.68,0s-.07-.89,0-1.14a6.41,6.41,0,0,1,.88-1.65,24.43,24.43,0,0,1,2.17-2.91,10.92,10.92,0,0,1,1.35-1.28,6.51,6.51,0,0,1,.64-.43,3.26,3.26,0,0,1,.75-.41l-.54-.13c-.1-.05-.17-.27,0,.11a2.69,2.69,0,0,0,.16.29c.11.22.22.44.32.67a10.53,10.53,0,0,1,.51,1.56,9.52,9.52,0,0,1,.23,3.1c-.06.81-.11,2.17-1,2.56a11.13,11.13,0,0,1-3.47.82,11.63,11.63,0,0,1-1.77,0,3.73,3.73,0,0,1-1.67-.29c-.61-.37-.54-1.23-.41-1.8a12,12,0,0,1,2.73-4.85,15.15,15.15,0,0,1,5.4-4.11l-.53.13.22,0-.53-.13c-.05-.07-.05-.07,0,0s.09.2.13.29.2.44.29.66l.54,1.22c.36.81.72,1.62,1,2.45.57,1.54,1.07,3.41.27,5-.72,1.39-2.62,1.26-4,1.23a10.26,10.26,0,0,1-5-1c-1.17-.66-2.23,1-1.07,1.69Z"/><path class="cls-8" d="M202.53,161.76a.15.15,0,1,0,0-.29.15.15,0,1,0,0,.29Z"/><path class="cls-8" d="M199,163a.15.15,0,1,0,0-.29.15.15,0,1,0,0,.29Z"/><path class="cls-8" d="M202,166.19a.15.15,0,1,0,0-.29.15.15,0,1,0,0,.29Z"/><path class="cls-8" d="M204,168.68a.15.15,0,1,0,0-.3.15.15,0,1,0,0,.3Z"/><path class="cls-8" d="M199,169.88a.15.15,0,1,0,0-.29.15.15,0,1,0,0,.29Z"/><path class="cls-8" d="M198.63,166.19a.15.15,0,1,0,0-.29.15.15,0,1,0,0,.29Z"/><path class="cls-8" d="M201.72,171.38a.15.15,0,1,0,0-.29.15.15,0,1,0,0,.29Z"/><path class="cls-8" d="M200.74,168.45a.15.15,0,1,0,0-.29.15.15,0,1,0,0,.29Z"/><path class="cls-8" d="M204.81,167.92a.15.15,0,1,0,0-.29.15.15,0,1,0,0,.29Z"/><path class="cls-8" d="M204.08,164.84a.15.15,0,1,0,0-.29.15.15,0,1,0,0,.29Z"/><path class="cls-8" d="M200.58,163.94a.15.15,0,1,0,0-.29.15.15,0,1,0,0,.29Z"/><path class="cls-8" d="M200.66,160a.15.15,0,1,0,0-.29.15.15,0,1,0,0,.29Z"/><path class="cls-8" d="M202.29,159.2a.15.15,0,1,0,0-.29.15.15,0,1,0,0,.29Z"/><path class="cls-8" d="M204,163.26a.15.15,0,1,0,0-.29.15.15,0,1,0,0,.29Z"/><path class="cls-8" d="M202,163.26a.15.15,0,1,0,0-.29.15.15,0,1,0,0,.29Z"/><path class="cls-8" d="M200.17,161.46a.15.15,0,1,0,0-.3.15.15,0,1,0,0,.3Z"/><path class="cls-5" d="M195.73,172.93a8.79,8.79,0,0,1-4.4-4.43,9.18,9.18,0,0,1,8.22,1.57c1.23,1,2.19,2.42.64,3A6,6,0,0,1,195.73,172.93Z"/><path class="cls-5" d="M191.24,168.23a9.38,9.38,0,0,1,8.44,1.62c.59.5,1.59,1.46,1.56,2.38a1.24,1.24,0,0,1-.94,1.12,6.21,6.21,0,0,1-4.63-.16,9.13,9.13,0,0,1-4.56-4.6l-.14-.29Zm8.18,2.05a8.85,8.85,0,0,0-7.73-1.57,8.48,8.48,0,0,0,4.09,4h0a5.76,5.76,0,0,0,4.29.14c.44-.16.66-.39.67-.69a.58.58,0,0,0,0-.18A3.68,3.68,0,0,0,199.42,170.28Z"/><path class="cls-5" d="M122.16,135.2a9.93,9.93,0,0,0-8.18,0c2.18,3.61,5.61,6.8,9.81,7.28,2.11.24,4.25-.22,3.12-2.55A10,10,0,0,0,122.16,135.2Z"/><path class="cls-5" d="M113.44,135l.38-.17a10.19,10.19,0,0,1,13.43,4.91,2.13,2.13,0,0,1,.06,2.23c-.72,1-2.54,1-3.57.85-3.8-.43-7.48-3.15-10.08-7.46Zm13.09,6.71a.69.69,0,0,0,.17-.17c.23-.33.19-.82-.13-1.48a9.53,9.53,0,0,0-4.57-4.53h0a9.57,9.57,0,0,0-7.48-.19c2.47,3.89,5.84,6.34,9.31,6.74A3.94,3.94,0,0,0,126.53,141.72Z"/><path class="cls-5" d="M131.71,135.37a9.93,9.93,0,0,1,8.18.14c-2.26,3.56-5.75,6.69-9.95,7.09-2.12.2-4.25-.3-3.08-2.61A10,10,0,0,1,131.71,135.37Z"/><path class="cls-5" d="M140.2,135.71c-2.68,4.25-6.41,6.9-10.23,7.26-1,.1-2.84.11-3.55-.92a2.12,2.12,0,0,1,.11-2.23,10.19,10.19,0,0,1,13.52-4.65l.38.18Zm-10.3,6.52c3.48-.34,6.9-2.72,9.44-6.56a9.57,9.57,0,0,0-7.48,0h0a9.54,9.54,0,0,0-4.66,4.45c-.33.64-.38,1.14-.16,1.47a.94.94,0,0,0,.17.18A4,4,0,0,0,129.9,142.23Z"/><path class="cls-5" d="M165.07,129.14a8.57,8.57,0,0,1-3.72-5.57c3.05-.45,6.43.18,8.6,2.79,1.1,1.31,1.8,3,0,3.5A6.27,6.27,0,0,1,165.07,129.14Z"/><path class="cls-5" d="M161.32,123.25c3.63-.54,6.85.51,8.83,2.88.53.63,1.38,1.85,1.12,2.89a1.61,1.61,0,0,1-1.3,1.16,6.5,6.5,0,0,1-5-.75,8.88,8.88,0,0,1-3.85-5.78l-.08-.36Zm8.44,3.33c-1.8-2.15-4.72-3.14-8.06-2.73a8.12,8.12,0,0,0,3.49,5h0a6,6,0,0,0,4.66.69c.52-.13.82-.37.9-.7a.75.75,0,0,0,0-.21A3.66,3.66,0,0,0,169.76,126.58Z"/><path class="cls-6" d="M295.09,160.16a2.45,2.45,0,0,1-2.59,2.57,2.94,2.94,0,0,1-2.58-3,2.47,2.47,0,0,1,2.58-2.58A2.94,2.94,0,0,1,295.09,160.16Z"/><path class="cls-6" d="M162,166a2.44,2.44,0,0,1-2.59,2.57,2.93,2.93,0,0,1-2.58-3,2.45,2.45,0,0,1,2.58-2.57A2.93,2.93,0,0,1,162,166Z"/><path class="cls-9" d="M129,140.62a1.31,1.31,0,0,1-1.5,1.26,1.6,1.6,0,0,1-1.5-1.5,1.31,1.31,0,0,1,1.5-1.26A1.58,1.58,0,0,1,129,140.62Z"/><path class="cls-9" d="M130.33,141.93a1.32,1.32,0,0,1-1.5,1.26,1.6,1.6,0,0,1-1.5-1.5,1.31,1.31,0,0,1,1.5-1.26A1.58,1.58,0,0,1,130.33,141.93Z"/><path class="cls-9" d="M128.19,141.66a1.39,1.39,0,0,1-1.6,1.3,1.65,1.65,0,0,1-1.59-1.54,1.38,1.38,0,0,1,1.59-1.3A1.66,1.66,0,0,1,128.19,141.66Z"/><path class="cls-9" d="M127.33,142.93a1.32,1.32,0,0,1-1.5,1.26,1.6,1.6,0,0,1-1.5-1.5,1.31,1.31,0,0,1,1.5-1.26A1.58,1.58,0,0,1,127.33,142.93Z"/><path class="cls-9" d="M129.33,142.93a1.32,1.32,0,0,1-1.5,1.26,1.6,1.6,0,0,1-1.5-1.5,1.31,1.31,0,0,1,1.5-1.26A1.58,1.58,0,0,1,129.33,142.93Z"/><path class="cls-9" d="M130.33,142.93a1.32,1.32,0,0,1-1.5,1.26,1.6,1.6,0,0,1-1.5-1.5,1.31,1.31,0,0,1,1.5-1.26A1.58,1.58,0,0,1,130.33,142.93Z"/><path class="cls-9" d="M128.33,143.93a1.32,1.32,0,0,1-1.5,1.26,1.6,1.6,0,0,1-1.5-1.5,1.31,1.31,0,0,1,1.5-1.26A1.58,1.58,0,0,1,128.33,143.93Z"/><path class="cls-9" d="M130.33,143.93a1.32,1.32,0,0,1-1.5,1.26,1.6,1.6,0,0,1-1.5-1.5,1.31,1.31,0,0,1,1.5-1.26A1.58,1.58,0,0,1,130.33,143.93Z"/><path class="cls-9" d="M157.5,145.27a1.31,1.31,0,0,1-1.5,1.26,1.59,1.59,0,0,1-1.5-1.5,1.32,1.32,0,0,1,1.5-1.26A1.6,1.6,0,0,1,157.5,145.27Z"/><path class="cls-9" d="M158.83,146.58a1.31,1.31,0,0,1-1.5,1.26,1.6,1.6,0,0,1-1.5-1.5,1.31,1.31,0,0,1,1.5-1.26A1.59,1.59,0,0,1,158.83,146.58Z"/><path class="cls-9" d="M156.69,146.32a1.39,1.39,0,0,1-1.6,1.3,1.66,1.66,0,0,1-1.59-1.54,1.39,1.39,0,0,1,1.59-1.31A1.67,1.67,0,0,1,156.69,146.32Z"/><path class="cls-9" d="M155.83,147.58a1.31,1.31,0,0,1-1.5,1.26,1.6,1.6,0,0,1-1.5-1.5,1.31,1.31,0,0,1,1.5-1.26A1.59,1.59,0,0,1,155.83,147.58Z"/><path class="cls-9" d="M157.83,147.58a1.31,1.31,0,0,1-1.5,1.26,1.6,1.6,0,0,1-1.5-1.5,1.31,1.31,0,0,1,1.5-1.26A1.59,1.59,0,0,1,157.83,147.58Z"/><path class="cls-9" d="M158.83,147.58a1.31,1.31,0,0,1-1.5,1.26,1.6,1.6,0,0,1-1.5-1.5,1.31,1.31,0,0,1,1.5-1.26A1.59,1.59,0,0,1,158.83,147.58Z"/><path class="cls-9" d="M156.83,148.58a1.31,1.31,0,0,1-1.5,1.26,1.6,1.6,0,0,1-1.5-1.5,1.31,1.31,0,0,1,1.5-1.26A1.59,1.59,0,0,1,156.83,148.58Z"/><path class="cls-9" d="M158.83,148.58a1.31,1.31,0,0,1-1.5,1.26,1.6,1.6,0,0,1-1.5-1.5,1.31,1.31,0,0,1,1.5-1.26A1.59,1.59,0,0,1,158.83,148.58Z"/><path class="cls-9" d="M137.41,139.7a1.55,1.55,0,0,1-1.8,1.41,1.85,1.85,0,0,1-1.79-1.68,1.54,1.54,0,0,1,1.79-1.42A1.85,1.85,0,0,1,137.41,139.7Z"/><path class="cls-9" d="M139,141.17a1.54,1.54,0,0,1-1.79,1.42,1.85,1.85,0,0,1-1.79-1.69,1.54,1.54,0,0,1,1.79-1.42A1.84,1.84,0,0,1,139,141.17Z"/><path class="cls-9" d="M136.44,140.87a1.63,1.63,0,0,1-1.91,1.47,1.94,1.94,0,0,1-1.9-1.74,1.64,1.64,0,0,1,1.9-1.47A1.94,1.94,0,0,1,136.44,140.87Z"/><path class="cls-9" d="M135.42,142.29a1.55,1.55,0,0,1-1.8,1.42,1.84,1.84,0,0,1-1.79-1.69,1.55,1.55,0,0,1,1.79-1.42A1.86,1.86,0,0,1,135.42,142.29Z"/><path class="cls-9" d="M137.81,142.29a1.55,1.55,0,0,1-1.8,1.42,1.84,1.84,0,0,1-1.79-1.69A1.55,1.55,0,0,1,136,140.6,1.86,1.86,0,0,1,137.81,142.29Z"/><path class="cls-9" d="M139,142.29a1.54,1.54,0,0,1-1.79,1.42,1.84,1.84,0,0,1-1.79-1.69,1.55,1.55,0,0,1,1.79-1.42A1.85,1.85,0,0,1,139,142.29Z"/><path class="cls-9" d="M136.61,143.42a1.54,1.54,0,0,1-1.79,1.42,1.85,1.85,0,0,1-1.79-1.69,1.54,1.54,0,0,1,1.79-1.42A1.84,1.84,0,0,1,136.61,143.42Z"/><path class="cls-9" d="M139,143.42a1.54,1.54,0,0,1-1.79,1.42,1.85,1.85,0,0,1-1.79-1.69,1.54,1.54,0,0,1,1.79-1.42A1.84,1.84,0,0,1,139,143.42Z"/><path class="cls-9" d="M179.5,134.27a1.31,1.31,0,0,1-1.5,1.26,1.59,1.59,0,0,1-1.5-1.5,1.32,1.32,0,0,1,1.5-1.26A1.6,1.6,0,0,1,179.5,134.27Z"/><path class="cls-9" d="M180.83,135.58a1.31,1.31,0,0,1-1.5,1.26,1.6,1.6,0,0,1-1.5-1.5,1.31,1.31,0,0,1,1.5-1.26A1.59,1.59,0,0,1,180.83,135.58Z"/><path class="cls-9" d="M178.69,135.32a1.39,1.39,0,0,1-1.6,1.3,1.66,1.66,0,0,1-1.59-1.54,1.39,1.39,0,0,1,1.59-1.31A1.67,1.67,0,0,1,178.69,135.32Z"/><path class="cls-9" d="M177.83,136.58a1.31,1.31,0,0,1-1.5,1.26,1.6,1.6,0,0,1-1.5-1.5,1.31,1.31,0,0,1,1.5-1.26A1.59,1.59,0,0,1,177.83,136.58Z"/><path class="cls-9" d="M179.83,136.58a1.31,1.31,0,0,1-1.5,1.26,1.6,1.6,0,0,1-1.5-1.5,1.31,1.31,0,0,1,1.5-1.26A1.59,1.59,0,0,1,179.83,136.58Z"/><path class="cls-9" d="M180.83,136.58a1.31,1.31,0,0,1-1.5,1.26,1.6,1.6,0,0,1-1.5-1.5,1.31,1.31,0,0,1,1.5-1.26A1.59,1.59,0,0,1,180.83,136.58Z"/><path class="cls-9" d="M178.83,137.58a1.31,1.31,0,0,1-1.5,1.26,1.6,1.6,0,0,1-1.5-1.5,1.31,1.31,0,0,1,1.5-1.26A1.59,1.59,0,0,1,178.83,137.58Z"/><path class="cls-9" d="M180.83,137.58a1.31,1.31,0,0,1-1.5,1.26,1.6,1.6,0,0,1-1.5-1.5,1.31,1.31,0,0,1,1.5-1.26A1.59,1.59,0,0,1,180.83,137.58Z"/><path class="cls-9" d="M182.5,132.27a1.31,1.31,0,0,1-1.5,1.26,1.59,1.59,0,0,1-1.5-1.5,1.32,1.32,0,0,1,1.5-1.26A1.6,1.6,0,0,1,182.5,132.27Z"/><path class="cls-9" d="M183.83,133.58a1.31,1.31,0,0,1-1.5,1.26,1.6,1.6,0,0,1-1.5-1.5,1.31,1.31,0,0,1,1.5-1.26A1.59,1.59,0,0,1,183.83,133.58Z"/><path class="cls-9" d="M181.69,133.32a1.39,1.39,0,0,1-1.6,1.3,1.66,1.66,0,0,1-1.59-1.54,1.39,1.39,0,0,1,1.59-1.31A1.67,1.67,0,0,1,181.69,133.32Z"/><path class="cls-9" d="M180.83,134.58a1.31,1.31,0,0,1-1.5,1.26,1.6,1.6,0,0,1-1.5-1.5,1.31,1.31,0,0,1,1.5-1.26A1.59,1.59,0,0,1,180.83,134.58Z"/><path class="cls-9" d="M182.83,134.58a1.31,1.31,0,0,1-1.5,1.26,1.6,1.6,0,0,1-1.5-1.5,1.31,1.31,0,0,1,1.5-1.26A1.59,1.59,0,0,1,182.83,134.58Z"/><path class="cls-9" d="M183.83,134.58a1.31,1.31,0,0,1-1.5,1.26,1.6,1.6,0,0,1-1.5-1.5,1.31,1.31,0,0,1,1.5-1.26A1.59,1.59,0,0,1,183.83,134.58Z"/><path class="cls-9" d="M181.83,135.58a1.31,1.31,0,0,1-1.5,1.26,1.6,1.6,0,0,1-1.5-1.5,1.31,1.31,0,0,1,1.5-1.26A1.59,1.59,0,0,1,181.83,135.58Z"/><path class="cls-9" d="M183.83,135.58a1.31,1.31,0,0,1-1.5,1.26,1.6,1.6,0,0,1-1.5-1.5,1.31,1.31,0,0,1,1.5-1.26A1.59,1.59,0,0,1,183.83,135.58Z"/><path class="cls-9" d="M157.19,163.94a1.76,1.76,0,0,1-2.05,1.63,2.12,2.12,0,0,1-2-1.94,1.76,1.76,0,0,1,2-1.62A2.11,2.11,0,0,1,157.19,163.94Z"/><path class="cls-9" d="M159,165.63a1.76,1.76,0,0,1-2,1.63,2.12,2.12,0,0,1-2-1.94,1.77,1.77,0,0,1,2-1.63A2.13,2.13,0,0,1,159,165.63Z"/><path class="cls-9" d="M156.08,165.29a1.85,1.85,0,0,1-2.17,1.68,2.21,2.21,0,0,1-2.17-2,1.86,1.86,0,0,1,2.17-1.68A2.2,2.2,0,0,1,156.08,165.29Z"/><path class="cls-9" d="M154.92,166.92a1.77,1.77,0,0,1-2,1.63,2.11,2.11,0,0,1-2-1.94,1.75,1.75,0,0,1,2-1.62A2.11,2.11,0,0,1,154.92,166.92Z"/><path class="cls-9" d="M157.64,166.92a1.77,1.77,0,0,1-2,1.63,2.12,2.12,0,0,1-2-1.94,1.76,1.76,0,0,1,2-1.62A2.11,2.11,0,0,1,157.64,166.92Z"/><path class="cls-9" d="M159,166.92a1.76,1.76,0,0,1-2,1.63,2.11,2.11,0,0,1-2-1.94,1.75,1.75,0,0,1,2-1.62A2.11,2.11,0,0,1,159,166.92Z"/><path class="cls-9" d="M156.28,168.21a1.76,1.76,0,0,1-2.05,1.63,2.12,2.12,0,0,1-2-1.94,1.76,1.76,0,0,1,2-1.62A2.11,2.11,0,0,1,156.28,168.21Z"/><path class="cls-9" d="M159,168.21a1.76,1.76,0,0,1-2,1.63,2.11,2.11,0,0,1-2-1.94,1.75,1.75,0,0,1,2-1.62A2.11,2.11,0,0,1,159,168.21Z"/><path class="cls-6" d="M184.42,137a2.46,2.46,0,0,1-2.6,2.58,2.93,2.93,0,0,1-2.57-3,2.46,2.46,0,0,1,2.57-2.58A2.94,2.94,0,0,1,184.42,137Z"/><path class="cls-6" d="M209.25,170.29a2.46,2.46,0,0,1-2.59,2.58,2.94,2.94,0,0,1-2.57-3,2.45,2.45,0,0,1,2.57-2.58A2.93,2.93,0,0,1,209.25,170.29Z"/><path class="cls-9" d="M204.34,169.57a1.31,1.31,0,0,1-1.5,1.26,1.6,1.6,0,0,1-1.5-1.5,1.31,1.31,0,0,1,1.5-1.26A1.58,1.58,0,0,1,204.34,169.57Z"/><path class="cls-9" d="M205.67,170.88a1.32,1.32,0,0,1-1.5,1.26,1.6,1.6,0,0,1-1.5-1.5,1.31,1.31,0,0,1,1.5-1.26A1.58,1.58,0,0,1,205.67,170.88Z"/><path class="cls-9" d="M203.53,170.61a1.4,1.4,0,0,1-1.6,1.31,1.66,1.66,0,0,1-1.59-1.55,1.38,1.38,0,0,1,1.59-1.3A1.66,1.66,0,0,1,203.53,170.61Z"/><path class="cls-9" d="M202.67,171.88a1.32,1.32,0,0,1-1.5,1.26,1.6,1.6,0,0,1-1.5-1.5,1.31,1.31,0,0,1,1.5-1.26A1.58,1.58,0,0,1,202.67,171.88Z"/><path class="cls-9" d="M204.67,171.88a1.32,1.32,0,0,1-1.5,1.26,1.6,1.6,0,0,1-1.5-1.5,1.31,1.31,0,0,1,1.5-1.26A1.58,1.58,0,0,1,204.67,171.88Z"/><path class="cls-9" d="M205.67,171.88a1.32,1.32,0,0,1-1.5,1.26,1.6,1.6,0,0,1-1.5-1.5,1.31,1.31,0,0,1,1.5-1.26A1.58,1.58,0,0,1,205.67,171.88Z"/><path class="cls-9" d="M203.67,172.88a1.32,1.32,0,0,1-1.5,1.26,1.6,1.6,0,0,1-1.5-1.5,1.31,1.31,0,0,1,1.5-1.26A1.58,1.58,0,0,1,203.67,172.88Z"/><path class="cls-9" d="M205.67,172.88a1.32,1.32,0,0,1-1.5,1.26,1.6,1.6,0,0,1-1.5-1.5,1.31,1.31,0,0,1,1.5-1.26A1.58,1.58,0,0,1,205.67,172.88Z"/><path class="cls-9" d="M288.18,161.43a1.32,1.32,0,0,1-1.51,1.26,1.58,1.58,0,0,1-1.49-1.5,1.31,1.31,0,0,1,1.49-1.26A1.61,1.61,0,0,1,288.18,161.43Z"/><path class="cls-9" d="M289.51,162.74A1.31,1.31,0,0,1,288,164a1.6,1.6,0,0,1-1.5-1.5,1.32,1.32,0,0,1,1.5-1.26A1.6,1.6,0,0,1,289.51,162.74Z"/><path class="cls-9" d="M287.37,162.48a1.39,1.39,0,0,1-1.6,1.3,1.66,1.66,0,0,1-1.59-1.54,1.39,1.39,0,0,1,1.59-1.31A1.67,1.67,0,0,1,287.37,162.48Z"/><path class="cls-9" d="M286.51,163.74A1.31,1.31,0,0,1,285,165a1.6,1.6,0,0,1-1.5-1.5,1.32,1.32,0,0,1,1.5-1.26A1.6,1.6,0,0,1,286.51,163.74Z"/><path class="cls-9" d="M288.51,163.74A1.31,1.31,0,0,1,287,165a1.6,1.6,0,0,1-1.5-1.5,1.32,1.32,0,0,1,1.5-1.26A1.6,1.6,0,0,1,288.51,163.74Z"/><path class="cls-9" d="M289.51,163.74A1.31,1.31,0,0,1,288,165a1.6,1.6,0,0,1-1.5-1.5,1.32,1.32,0,0,1,1.5-1.26A1.6,1.6,0,0,1,289.51,163.74Z"/><path class="cls-9" d="M287.51,164.74A1.31,1.31,0,0,1,286,166a1.6,1.6,0,0,1-1.5-1.5,1.32,1.32,0,0,1,1.5-1.26A1.6,1.6,0,0,1,287.51,164.74Z"/><path class="cls-9" d="M289.51,164.74A1.31,1.31,0,0,1,288,166a1.6,1.6,0,0,1-1.5-1.5,1.32,1.32,0,0,1,1.5-1.26A1.6,1.6,0,0,1,289.51,164.74Z"/><path class="cls-9" d="M291.18,159.43a1.32,1.32,0,0,1-1.51,1.26,1.58,1.58,0,0,1-1.49-1.5,1.31,1.31,0,0,1,1.49-1.26A1.61,1.61,0,0,1,291.18,159.43Z"/><path class="cls-9" d="M292.51,160.74A1.31,1.31,0,0,1,291,162a1.6,1.6,0,0,1-1.5-1.5,1.32,1.32,0,0,1,1.5-1.26A1.6,1.6,0,0,1,292.51,160.74Z"/><path class="cls-9" d="M290.37,160.48a1.39,1.39,0,0,1-1.6,1.3,1.66,1.66,0,0,1-1.59-1.54,1.39,1.39,0,0,1,1.59-1.31A1.67,1.67,0,0,1,290.37,160.48Z"/><path class="cls-9" d="M289.51,161.74A1.31,1.31,0,0,1,288,163a1.6,1.6,0,0,1-1.5-1.5,1.32,1.32,0,0,1,1.5-1.26A1.6,1.6,0,0,1,289.51,161.74Z"/><path class="cls-9" d="M291.51,161.74A1.31,1.31,0,0,1,290,163a1.6,1.6,0,0,1-1.5-1.5,1.32,1.32,0,0,1,1.5-1.26A1.6,1.6,0,0,1,291.51,161.74Z"/><path class="cls-9" d="M292.51,161.74A1.31,1.31,0,0,1,291,163a1.6,1.6,0,0,1-1.5-1.5,1.32,1.32,0,0,1,1.5-1.26A1.6,1.6,0,0,1,292.51,161.74Z"/><path class="cls-9" d="M290.51,162.74A1.31,1.31,0,0,1,289,164a1.6,1.6,0,0,1-1.5-1.5,1.32,1.32,0,0,1,1.5-1.26A1.6,1.6,0,0,1,290.51,162.74Z"/><path class="cls-9" d="M292.51,162.74A1.31,1.31,0,0,1,291,164a1.6,1.6,0,0,1-1.5-1.5,1.32,1.32,0,0,1,1.5-1.26A1.6,1.6,0,0,1,292.51,162.74Z"/><path class="cls-6" d="M293.09,164.16a2.45,2.45,0,0,1-2.59,2.57,2.94,2.94,0,0,1-2.58-3,2.47,2.47,0,0,1,2.58-2.58A2.94,2.94,0,0,1,293.09,164.16Z"/></g></svg>