<svg xmlns="http://www.w3.org/2000/svg" viewBox="0 0 575 1044"><defs><style>.cls-1{fill:#f2caa2;}.cls-2{fill:#754c24;}.cls-3{fill:#0071bc;}.cls-4{fill:#fff;}.cls-5{fill:#c69c6d;}.cls-6{opacity:0.55;}.cls-7{opacity:0.58;}.cls-8{fill:#8e6d4c;}.cls-9{opacity:0.79;}.cls-10{fill:#025930;}.cls-11{fill:#6d0630;}.cls-12{fill:#e58cac;}.cls-13{fill:#f4de3b;}.cls-14{opacity:0.59;}.cls-15{fill:#f7d50b;}.cls-16{opacity:0.6;}.cls-17{opacity:0.65;}.cls-18{opacity:0.56;}.cls-19{opacity:0.66;}.cls-20{opacity:0.62;}.cls-21{opacity:0.54;}.cls-22{fill:#db9e61;}</style></defs><g id="Layer_56" data-name="Layer 56"><path class="cls-1" d="M231.5,783.08c-6.3-1.6-12.84-.92-19.17-2.53,10.93-65.09.81-66.48,1.24-121.1,7.77.26,15.44,1.81,23.21,2.2C241.67,725.06,247,717.11,231.5,783.08Z"/><path class="cls-1" d="M405.94,777.6c-7,1.9-13.94,4.21-21,6.06-13.07-40.43-35.27-100.87-41.32-141.54,9-1.49,17.74-2.53,26.66-4.45C382.09,684.51,393,731.28,405.94,777.6Z"/><path class="cls-2" d="M355.24,841.44c-1.84-6-31.19,3.58-34.92,5.8s-33.76,11.54-31.4,17.65,31.21-1.62,36.15-4.6S357.09,847.39,355.24,841.44Z"/><path class="cls-2" d="M420.36,780c-4.74,6.66-38,49.26-31.25,55.74s72.52-63.25,67.34-65.17-15.95-16.9-19.88-11.43S425.09,773.33,420.36,780Z"/><path class="cls-1" d="M369,880.43l.15.24-.71.39a2.23,2.23,0,0,0,0-.23C368.6,880.7,368.81,880.57,369,880.43Z"/><path class="cls-1" d="M369.93,880.25l-.28.15s0-.09,0-.13Z"/><path class="cls-1" d="M383.27,869.47h0c-16.81-31.68-49.06-74.38-69.64-103.63-4.61,3-9,6.36-13.54,9.4,22.91,35.08,44.46,71,66.69,106.71l0,0c.79.94,1.35,2.08,2.06,3.09.06-.27.1-.54.15-.81.05.28.09.56.13.84a.66.66,0,0,1-.17.12l-.11-.15c-2.86,16.07-6.9,31.9-10.58,47.8a18,18,0,0,0,4,.82l0-.14c1.59.5,3.17,1,4.78,1.47C372.87,917.2,393.59,883.31,383.27,869.47Zm-14.12,11.2-.71.39a2.23,2.23,0,0,0,0-.23c.2-.13.41-.26.6-.4l.15.24.5-.27s0-.09,0-.13l.26,0-.28.15-.15.89C369.39,881.08,369.27,880.87,369.15,880.67Z"/><path class="cls-1" d="M369,880.43l.15.24-.71.39a2.23,2.23,0,0,0,0-.23C368.6,880.7,368.81,880.57,369,880.43Z"/><path class="cls-1" d="M369.15,880.67l.5-.27-.15.89C369.39,881.08,369.27,880.87,369.15,880.67Z"/><path class="cls-1" d="M369.93,880.25l-.28.15s0-.09,0-.13Z"/><path class="cls-1" d="M369,884.28c.05.28.09.56.13.84a.66.66,0,0,1-.17.12l-.11-.15C368.9,884.82,368.94,884.55,369,884.28Z"/><path class="cls-1" d="M369.93,880.25l-.28.15s0-.09,0-.13Z"/><path class="cls-1" d="M366.75,882l0,0,0,0Z"/><path class="cls-1" d="M369,884.28c.05.28.09.56.13.84a.66.66,0,0,1-.17.12l-.11-.15C368.9,884.82,368.94,884.55,369,884.28Z"/><path class="cls-1" d="M369.15,880.67l-.71.39a2.23,2.23,0,0,0,0-.23c.2-.13.41-.26.6-.4Z"/><path class="cls-1" d="M488.76,811.8l.24.16c-.16.2-.32.42-.47.65,0-.05-.08-.12-.14-.19C488.52,812.22,488.65,812,488.76,811.8Z"/><path class="cls-1" d="M489.52,811.24c-.06.07-.12.16-.19.26s0-.09,0-.13Z"/><path class="cls-1" d="M490.42,815.28l.48.7a.77.77,0,0,1-.1.18l-.17-.08C490.57,815.81,490.49,815.54,490.42,815.28Z"/><path class="cls-1" d="M489.52,811.24c-.06.07-.12.16-.19.26s0-.09,0-.13Z"/><path class="cls-1" d="M487.39,814.15l.05,0-.06,0Z"/><path class="cls-1" d="M490.42,815.28l.48.7a.77.77,0,0,1-.1.18l-.17-.08C490.57,815.81,490.49,815.54,490.42,815.28Z"/><path class="cls-1" d="M489,812c-.16.2-.32.42-.47.65,0-.05-.08-.12-.14-.19.13-.2.26-.41.37-.62Z"/><path class="cls-1" d="M355.54,708.84a24.36,24.36,0,0,1,1.15-8.5l-2.38-1c-2.81,6-5.16,12.16-7.92,18.17q6.93,3.21,13.85,6.48A31.09,31.09,0,0,1,355.54,708.84Z"/><path class="cls-1" d="M416.94,725.13c-5.18,8.24-14.7,13.89-24.49,13.89l-1,0c28.25,13.78,56.35,27.92,84.7,41.85,3.88-7.31,8.34-14,12.58-21C469.69,748.23,443.33,736.27,416.94,725.13Z"/><path class="cls-1" d="M462.55,826.35c8.88,1.27,15.29,5.21,19.76,13.06a7.83,7.83,0,0,1,.34.79c1.6-26.9,4.31-53.66,6.06-80.54a157.33,157.33,0,0,1-21.47-1.28C463.22,781,463.12,803.53,462.55,826.35Z"/><path class="cls-3" d="M391.45,938.67c11,10.76,14.15,27.79,7.34,44.1S364.71,962.68,357.51,955s-19.08-18.76-6.74-30.53S380.46,927.91,391.45,938.67Z"/><path class="cls-3" d="M495.09,815.06c15.33-1.22,30.26,7.57,38.08,23.41S495.64,851,485.1,851.37s-26.67,2.06-27.45-15S479.76,816.28,495.09,815.06Z"/><path class="cls-4" d="M348.67,944.07q9.16,11.16,18.34,22.33c5.53,6.7,11.27,13.24,18.19,18.54,1.53,1.18,3-1.43,1.52-2.59-6.82-5.22-12.44-11.82-17.87-18.42q-9.06-11-18.06-22c-1.22-1.5-3.34.64-2.12,2.12Z"/><path class="cls-4" d="M380.48,976.88a81.15,81.15,0,0,1,9.08-5.68,30.38,30.38,0,0,1,4.75-2,25.49,25.49,0,0,1,2.57-.66c.39-.08.78-.15,1.18-.2a8.25,8.25,0,0,0,1.42-.12h.18c.46,0,.3-.18-.47-.6a2.43,2.43,0,0,0,.05.4c0,.45.1.93.13,1.37.07,1,.09,2,.08,3a32.65,32.65,0,0,1-.57,5.84c-.57,3-1.27,7.14-5.15,7-3.27-.13-6.37-3.06-8.45-5.35a23.08,23.08,0,0,1-1.64-2q-.36-.51-.69-1l-.28-.45-.27-.46-.2.57a15.7,15.7,0,0,0,2.2-1q1.28-.61,2.52-1.29c1.65-.91,3.22-1.91,4.78-3a11.94,11.94,0,0,1,4.5-2.29,2.59,2.59,0,0,1,2,.27c.49.44.17,1.64.12,2.24q-.23,2.91-.69,5.79c-.25,1.56-.38,3.64-1.5,4.87s-3.39,1.13-4.82.72c-3.74-1.06-3.85-5.36-3.85-8.56a1.51,1.51,0,0,0-2.56-1.06c-1.88,2.1-1.63,4.83-1.12,7.41l2.74-1.15c-.79-1.6-1.8-3.9.32-4.83a64.05,64.05,0,0,0,6.32-2.73c.95-.54,1.83-1.27,2.82-1.74,1.18-.56.92.25.93,1.24v4c0,1,.28,2.44-.17,3.33-.35.69-1.42.81-2.09,1a6.15,6.15,0,0,1-2.66.21c-1.75-.36-1.68-3.12-1.58-4.53a2.41,2.41,0,0,1,.76-1.86c.84-.6,2.25-.29,3.23-.5.34-.08,1.2-.25,1.4-.52l.1-.05c-.33-.26-.46-.27-.38,0,0,0,0,.34,0,.37a14.08,14.08,0,0,1-.32,4c-.14.67-.35,2.39-1.16,1.26a4,4,0,0,1-.48-1.67,6.17,6.17,0,0,1-.08-.62c0-.17.07-.83.05-.89s-1.69.56-.56-.34a7.27,7.27,0,0,0,0,1c0,.49-.11,1.55.11,1.83.1.12.11-.15.11-.11s-.24-.51-.15-.27a4.18,4.18,0,0,1,.05-1.86c.17-1.32-1.74-1.94-2.56-1.06a5.59,5.59,0,0,0-1.28,5.73c.64,1.8,3.54,1,2.89-.8a2.6,2.6,0,0,1,.51-2.81l-2.56-1.06c-.23,1.79-.06,3.83,1.72,4.78a2.76,2.76,0,0,0,4.11-1.79,13.82,13.82,0,0,0,0-3.15,3.14,3.14,0,0,0-1-2.6,2.85,2.85,0,0,0-4.26,1.43,7.48,7.48,0,0,0,.74,5.77,3.48,3.48,0,0,0,4.86,1.31c1.61-1.12,1.85-3.45,2.06-5.24s.53-4.13-.78-5.47a2.56,2.56,0,0,0-2.54-.63c-.41.11-.78.36-1.18.49a7.58,7.58,0,0,1-1.65.17,4.75,4.75,0,0,0-4.27,2.57,8.88,8.88,0,0,0-.5,4.84c.24,1.87.69,3.75,2.48,4.73a7.36,7.36,0,0,0,4.9.36c1.69-.33,3.54-.86,4.44-2.47s.59-4.16.58-6.06c0-1.08,0-2.15,0-3.23a4.5,4.5,0,0,0-.63-2.78c-1.42-2-3.94-1.25-5.64-.14a28.83,28.83,0,0,1-6.1,3.13c-2,.71-4,1.39-4.76,3.61s.24,4.3,1.16,6.15c.79,1.61,3.05.42,2.74-1.15-.27-1.39-.7-3.33.35-4.5l-2.56-1.06c0,4,.44,8.66,4.36,10.77a9.46,9.46,0,0,0,6.19.84,6,6,0,0,0,4.56-3.8,27.09,27.09,0,0,0,1.33-6.63c.15-1.19.29-2.39.39-3.6a8,8,0,0,0-.11-3.55c-.78-2-3.28-2.61-5.22-2.34-2.25.31-4.2,1.62-6,2.88a52.16,52.16,0,0,1-6.16,3.64c-1.59.8-4.55,1.46-4.33,3.76a6.54,6.54,0,0,0,1.45,2.86,28,28,0,0,0,2.08,2.66,25.87,25.87,0,0,0,5.08,4.43c3.63,2.4,8.95,3.23,11.7-.92a17.31,17.31,0,0,0,2.1-6.4,37.8,37.8,0,0,0,.64-7.43,33.3,33.3,0,0,0-.3-4.12,2.21,2.21,0,0,0-2.31-2,21.78,21.78,0,0,0-7.34,1.45c-4.91,1.76-9.27,4.68-13.54,7.63-1.58,1.08-.08,3.69,1.52,2.59Z"/><path class="cls-4" d="M377.33,929.52a21.58,21.58,0,0,1,8.85,8.17l.54-2.05c-4.82,2.6-9.92,4.82-13.73,8.86-1.82,1.93-4.16,2.75-6.35,4.13a16.07,16.07,0,0,0-2.61,2.11c-.81.78-1.85,2.2-3,2.53.25-.07.65.65,0-.24a9.19,9.19,0,0,0-.66-.74l-1.48-1.65L357.42,949c-.36-.41-1.52-1.3-1.58-1.81s.64-1.26.87-1.61c.32-.5.65-1,1-1.45a29.53,29.53,0,0,1,2.4-2.84,53.93,53.93,0,0,1,11.46-8.8c1.2-.72,2.41-1.43,3.62-2.12a8.83,8.83,0,0,1,1.58-1c.37,0,1.16.92,1.47,1.17,2.08,1.72,4.19,3.64,5.21,6.19l1.05-1.84c-.66.19-1.42-.93-1.81-1.34a26.19,26.19,0,0,0-2-1.91,28,28,0,0,0-4.37-3,1.52,1.52,0,0,0-2.26,1.29c-.11,2.05,1,3.7,2.36,5.15,1.09,1.21,2.84,2.54,2.88,4.31l1.11-1.45c.21-.08-.14-.33-.26-.47-.26-.32-.52-.64-.77-1l-1.56-1.92-3.11-3.85a1.53,1.53,0,0,0-1.82-.24c-2,.91-1.45,3.47-.56,5,1.07,1.81,2.74,3.59,2.76,5.8l1.5-1.5c-.52,0-1.05-1-1.31-1.35l-1.44-1.92-2.88-3.84c-.67-.9-2.51-1.06-2.74.36a7.74,7.74,0,0,0,1.77,6.07c1.24,1.66,2.88,3.1,3.29,5.22l2.5-1.46c-3.15-2.45-4.25-6.64-7.73-8.79a1.51,1.51,0,0,0-2.2,1.69,8.71,8.71,0,0,0,2.37,4.24c1.16,1.29,2.64,2.57,2.48,4.45l2.56-1.06a59.5,59.5,0,0,1-6.78-8.07,1.52,1.52,0,0,0-2.59,0c-1.43,2,.61,4.36,1.74,5.91a44.77,44.77,0,0,0,4.94,5.71l.3-2.36c-.61.33-1.64-1.54-1.93-1.9a18.63,18.63,0,0,0-2.47-2.63c-1.6-1.38-3.66-2.71-5.74-1.49l1.81,2.35a6.57,6.57,0,0,1,6.13-2.39,25.41,25.41,0,0,1,3.69,1.34,17,17,0,0,0,4.74.77c2.31.1,5.92.37,6.48-2.63a2.92,2.92,0,0,0-1.66-3c-1.28-.83-2.63-1.57-3.95-2.35-2.22-1.32-4.55-2.35-7-1-2.14,1.16-3.45,3.4-5.19,5-2.13,2-4.61,3.55-6.62,5.67-1.64,1.72-4.27,4.36-3.11,6.94a12.2,12.2,0,0,0,2.75,3.33c1.06,1,2.44,1.55,3.76.64s2.06-2.14,3.18-3.05a20,20,0,0,1,4-2.47,1.52,1.52,0,0,0,0-2.59l-3.6-2.56c-1-.7-2.08-1.47-3.3-.77-.93.53-1.1,1.5-1.69,2.29-.73,1-1.77,1.68-2.32,2.83-.93,1.94,0,4.66,2.44,4.72,1.43,0,2.23-1.29,3.07-2.25l3.11-3.56c.65-.74.55-2.33-.66-2.5a5.36,5.36,0,0,0-3.39.53c-1.72.9-.2,3.49,1.51,2.59a1.86,1.86,0,0,1,1.08-.23l-.66-2.51-3.44,3.93c-.12.14-.83.74-.81.93.39.18.51.2.36.07a.08.08,0,0,1,0-.13c.15-.15.24-.55.4-.75a9,9,0,0,1,.8-.84,8.14,8.14,0,0,0,1.23-1.46,3.7,3.7,0,0,0,.38-.74c.06-.13.13-.26.2-.39l-.61.27a15.05,15.05,0,0,0,2.2,1.56l2.21,1.56v-2.59a22.34,22.34,0,0,0-5.23,3.47c-.36.31-.71.64-1,1s-.83,1.15-1.08,1.18c.43-.05-.43-.78-.52-.88-.37-.4-.76-.79-1.12-1.21s-.59-.65-.33-1.21a7.37,7.37,0,0,1,.85-1.24,21.45,21.45,0,0,1,2.49-2.73c1.58-1.47,3.37-2.71,5-4.13s2.68-3,4.15-4.33a3.31,3.31,0,0,1,2.07-1.06,6.21,6.21,0,0,1,3,1.28c.92.55,1.84,1.1,2.77,1.64.11.07,1.52.87,1.43.55.07.26-1.3.26-1.45.26a17.41,17.41,0,0,1-7-1.07,10.79,10.79,0,0,0-6.54-1,9.4,9.4,0,0,0-5.27,3.14c-1,1.25.27,3.27,1.82,2.36.75-.44,2.09,1,2.58,1.45a18.73,18.73,0,0,1,2.34,2.69c1.27,1.72,3.09,3,5.22,1.88a1.51,1.51,0,0,0,.31-2.35,43.79,43.79,0,0,1-3.61-4c-.38-.47-3-3.5-2.6-4h-2.59a64,64,0,0,0,7.25,8.67,1.52,1.52,0,0,0,2.56-1.06,7.16,7.16,0,0,0-2-5.11c-1.14-1.37-2.61-2.52-2.93-4.38l-2.2,1.7c3.16,2,4.2,6.05,7.12,8.32a1.51,1.51,0,0,0,2.51-1.45,10.59,10.59,0,0,0-2.52-4.65c-1.13-1.38-2.86-3.1-2.54-5l-2.74.35,4,5.38c1.12,1.48,2.13,3.18,4.19,3.22a1.52,1.52,0,0,0,1.5-1.5,9.29,9.29,0,0,0-1.52-4.72c-.43-.72-.91-1.4-1.35-2.11a6,6,0,0,1-.58-1,1.92,1.92,0,0,1-.15-.48c0-.29,0-.26-.08.1l-1.82-.23,4.35,5.39c1,1.26,2.33,3.36,4.26,2.59a1.54,1.54,0,0,0,1.1-1.44c0-2.09-1.22-3.68-2.58-5.16-1.11-1.21-2.76-2.5-2.66-4.3l-2.26,1.3a24.43,24.43,0,0,1,5.35,4c1.44,1.44,2.91,3.24,5.17,2.57a1.5,1.5,0,0,0,1-1.84,17.75,17.75,0,0,0-5.07-6.75,19,19,0,0,0-3.24-2.56c-1.37-.71-2.64.14-3.83.81a76,76,0,0,0-14.4,9.89,35.49,35.49,0,0,0-5.58,6.52c-.78,1.2-1.77,2.58-1.3,4.09s2,2.73,3,3.86a32.73,32.73,0,0,0,3.57,3.95c1.24,1,2.52.48,3.71-.34a26.94,26.94,0,0,0,3.19-2.86,15.59,15.59,0,0,1,3.7-2.46,18,18,0,0,0,4.4-2.91,27.64,27.64,0,0,1,3.72-3.46c3.14-2.12,6.66-3.74,10-5.53a1.52,1.52,0,0,0,.53-2.05,24.51,24.51,0,0,0-9.93-9.25c-1.72-.86-3.24,1.72-1.51,2.59Z"/><path class="cls-4" d="M467.84,850.63a467.67,467.67,0,0,0,55.28-.22c1.92-.12,1.94-3.12,0-3a467.67,467.67,0,0,1-55.28.22c-1.93-.11-1.92,2.89,0,3Z"/><path class="cls-4" d="M515.06,847.51c-.65-6.72-.58-15.58,6.1-19.46a1.42,1.42,0,0,1,1.89,0,11.12,11.12,0,0,1,1.94,1.4,15.36,15.36,0,0,1,2.83,3.54,26.69,26.69,0,0,1,2.06,4.4,20.39,20.39,0,0,1,1.36,4.7c.17,1.66-.73,2.41-2.16,3-.69.27-1.39.51-2.08.81s-1.48.91-2.27,1.27a4.35,4.35,0,0,1-2.76,0l-3.15-.73-1.26-.29a3.41,3.41,0,0,1-1-.26c-.34-.36-.08-1.92-.08-2.4,0-3.8.44-7.44,2.61-10.66a10.64,10.64,0,0,1,3.5-3.56c.39-.18.36-.17.73.11a10.07,10.07,0,0,1,.87.72,15.65,15.65,0,0,1,1.73,1.82,15.22,15.22,0,0,1,3.25,11c-.07.69,0,1.35-.71,1.61a27.51,27.51,0,0,1-6.09,1.28c-1,.13-2,.23-3,.27-.72,0-1.36.14-1.61-.64a16,16,0,0,1-.32-5.53,24.63,24.63,0,0,1,.94-5.52c.43-1.53.95-3.73,2.13-4.87s2.79-.2,3.6.8a13.39,13.39,0,0,1,2,5.08,33.37,33.37,0,0,1,1,5.61c.14,1.67-.27,2.76-2,3.1a7.28,7.28,0,0,1-4.1-.42c-1.56-.69-2-2.11-1.93-3.72a18.65,18.65,0,0,1,1.07-5.05,6.29,6.29,0,0,1,1.22-2.13c.34-.37,1.32-1.3,1.92-1.15.08,0-.13-.16.05,0s.11.24.15.34a4.68,4.68,0,0,1,.2.9c.21,1.1.39,2.19.57,3.29.3,1.91.89,4.13.65,6.07-.18,1.42-1.39,2-2.65,2.37a13.46,13.46,0,0,1-2,.39c-.16,0-.32,0-.47,0-.81.15-.19-.09-.14.08a4.77,4.77,0,0,1,0-1.31,20.12,20.12,0,0,1,2.93-10.38,6,6,0,0,0,.73-1.13c.11-.36.58-.18-.36-.31-1.21-.18-.41-.19-.45.09a6.19,6.19,0,0,0,.27,1.29c.1.55.19,1.1.25,1.66a21.7,21.7,0,0,1,.13,5.34,3.69,3.69,0,0,1-1.76,3.07l2,.54a9.14,9.14,0,0,1,.39-8.82l-2.74-.36a29.52,29.52,0,0,1,.33,7.74c-.15,1.92,2.85,1.91,3,0A32.5,32.5,0,0,0,524,834c-.23-1.33-2.12-1.39-2.74-.36a12.22,12.22,0,0,0-.39,11.85,1.52,1.52,0,0,0,2,.53c4.24-2.1,3.51-8.42,3-12.23-.25-1.82-.93-5.68-3.73-4.4-1,.47-1.68,1.74-2.24,2.68a23.57,23.57,0,0,0-3.22,10.77c-.1,2.18-.07,5.12,2.81,5.2a11.27,11.27,0,0,0,6-1.57,5.76,5.76,0,0,0,2.43-5.74c-.26-2.83-.73-5.66-1.24-8.45-.43-2.31-1.76-4.16-4.38-3.46a7.48,7.48,0,0,0-4.71,4.59,18.87,18.87,0,0,0-1.47,7.1,6.25,6.25,0,0,0,3.15,5.64,10.22,10.22,0,0,0,6.23.94,5.19,5.19,0,0,0,4.56-3.78c.57-2.4-.22-5.34-.77-7.69-1-4.11-3-10.57-8.56-9.47-2.48.49-3.55,2.86-4.39,5a28.28,28.28,0,0,0-1.79,7.59,20.94,20.94,0,0,0,.34,7.53c.78,2.79,3.31,3,5.79,2.75a45.28,45.28,0,0,0,8.25-1.46,4,4,0,0,0,2.62-1.7,8.29,8.29,0,0,0,.69-3.41,18.45,18.45,0,0,0-4.07-12.48c-1.2-1.5-3.26-3.93-5.37-3.87a5.42,5.42,0,0,0-3,1.59,17.28,17.28,0,0,0-2.55,2.65c-3.29,4.24-3.82,9.27-3.75,14.48a4.51,4.51,0,0,0,.76,3c.85,1,2.17,1.16,3.37,1.44,2.4.55,5.31,1.7,7.76.92,1.12-.36,2-1.16,3.08-1.62s2-.69,2.89-1.17a5.32,5.32,0,0,0,2.86-5.62,25,25,0,0,0-1.91-6.39,24.72,24.72,0,0,0-3.31-5.94,14.57,14.57,0,0,0-5-4.24c-2.27-1.11-4.22,0-6,1.48-3.84,3.11-5.6,8-6.06,12.78a42.78,42.78,0,0,0,.17,8.08c.18,1.91,3.18,1.93,3,0Z"/><path class="cls-4" d="M491.2,815.6c-3.92,3.62-4.93,9-5.33,14.11-.48,6.27-.69,12.73.74,18.89a1.53,1.53,0,0,0,1.44,1.11h10.11a1.52,1.52,0,0,0,1.07-2.56c-1.52-1.84-1.66-4.49-1.77-6.76a44,44,0,0,1,.39-8.43,43.4,43.4,0,0,1,1.9-7.87c.76-2.23,1.81-4.55,3.81-5.92a1.52,1.52,0,0,0-.76-2.8,23.09,23.09,0,0,0-5,.39,1.47,1.47,0,0,0-1.07,1.64,1.52,1.52,0,0,0,1.47,1.3,5.82,5.82,0,0,0,3.4-.63,1.53,1.53,0,0,0,.69-1.7c-.39-1.51-1.85-1.78-3.21-1.69a21.15,21.15,0,0,0-5.27.67c-2.62.9-4.6,4.32-2.18,6.57a1.54,1.54,0,0,0,2.12,0,10.54,10.54,0,0,1,5.18-2.49l-1.85-1c.35,1.42-4.1,1.42-4.91,1.71a4.1,4.1,0,0,0-3,4,1.53,1.53,0,0,0,1.9,1.44,39.59,39.59,0,0,0,6-2.06l-2.21-.89c.46,1.08-3.3,1-3.95,1.25a3.77,3.77,0,0,0-2.76,3.37,1.51,1.51,0,0,0,1.1,1.45,4.06,4.06,0,0,0,3.46-.66,7.9,7.9,0,0,0,1.49-.91c.07-.08.2-.06.27-.13l-.33-.28a.58.58,0,0,1,0,.43c-.53.49-1.25.39-1.94.42a5.85,5.85,0,0,0-2.79.65,3.11,3.11,0,0,0-1.35,3.77,2.76,2.76,0,0,0,2.94,1.55,9,9,0,0,0,1.76-.41,4.54,4.54,0,0,0,.85-.23h.05c.08-.2,0-.39-.33-.56.1,0-.85.46-.83.45-.34.1-.69.15-1,.26a4.37,4.37,0,0,0-2.08,1.22c-1.2,1.38-.83,3.22-.13,4.73l2.59-1.52c-.61-.9-2-2.68-1.09-3.8l-2.5-1.46A40.17,40.17,0,0,0,488,844c.21,1.6.4,3.47,2.27,3.92a13.83,13.83,0,0,0,5.57-.4,1.51,1.51,0,0,0,1-1.85,46.61,46.61,0,0,1-2-10.26,1.56,1.56,0,0,0-1.1-1.45c-2.46-.65-3.46,1.71-3.43,3.73,0,2.67.18,5.34.39,8a1.51,1.51,0,0,0,2.25,1.3l1-.67c1.62-1,.11-3.64-1.51-2.59l-1,.67,2.26,1.29c-.13-1.61-.23-3.22-.3-4.84,0-.73-.06-1.46-.07-2.19,0-.4,0-.81,0-1.21v-.39q.25-.64-.36-.21l-1.1-1.44A49.61,49.61,0,0,0,494,846.47l1.05-1.85a18.36,18.36,0,0,1-2.08.33c-.4,0-1.65.29-1.94.07.3.23.08-.07.1-.26a6.5,6.5,0,0,0-.17-1.23c-.08-.7-.15-1.4-.19-2.1a37.55,37.55,0,0,1,.45-8.47c.22-1.3-1.45-2.74-2.51-1.46-2,2.4-.94,5.12.62,7.44a1.5,1.5,0,0,0,2.59-1.52c-.49-1-.24-1.36.76-1.63a6.21,6.21,0,0,0,2.31-.93,2.85,2.85,0,0,0,.93-3.94c-.8-1.16-2.16-1.19-3.4-.89a11,11,0,0,0-1.61.46c-.25.11-.47-.14-.16.19s.68-.09,1.1-.15c1.66-.23,3.28.05,4.54-1.35a3.5,3.5,0,0,0,0-4.56,3.12,3.12,0,0,0-3.55-.2c-.73.35-1.92,1.61-2.76,1.33l1.11,1.44c0-.63,1.42-.65,1.84-.69a7.74,7.74,0,0,0,2.9-.59,3.4,3.4,0,0,0,1.87-4.14,1.55,1.55,0,0,0-2.21-.9,35.81,35.81,0,0,1-5.27,1.76l1.9,1.45c-.08-1,1.17-1.26,2-1.37a13.53,13.53,0,0,0,3.22-.58,3.94,3.94,0,0,0,2.61-4.54,1.53,1.53,0,0,0-1.85-1.05,13.43,13.43,0,0,0-6.5,3.26h2.12c-1-.92,1.23-1.7,1.81-1.8s1.42-.15,2.12-.21l1.4-.11.47,0c.46.06.41-.09-.16-.47l.69-1.69a3.11,3.11,0,0,1-1.88.22l.4,2.95a19.51,19.51,0,0,1,4.18-.28l-.76-2.79a13.54,13.54,0,0,0-4.78,6.61,42.06,42.06,0,0,0-2.37,9.43,46.3,46.3,0,0,0-.37,9.7c.2,2.88.7,5.66,2.58,7.95l1.06-2.56H488.05l1.45,1.1c-1.31-5.67-1.06-11.58-.68-17.35.3-4.53,1-9.5,4.5-12.74,1.42-1.31-.7-3.43-2.12-2.12Z"/><rect class="cls-5" x="311" y="723" width="48" height="34"/><path class="cls-5" d="M284.86,795.05c22.07-30.69,62.57-46.66,74.77-84.09,33.8,13.3,56.93,3.25,89.49,28.37-17.93,36-44.53,47.69-58.61,96.32C354.66,823.65,319.7,809.71,284.86,795.05Z"/><path class="cls-5" d="M390.85,836.29l-.49-.17c-31-10.36-63.58-22.89-105.69-40.61l-.58-.24.36-.51c8.88-12.34,20.86-22.43,32.46-32.19,17.19-14.48,35-29.46,42.25-51.77l.16-.5.49.19c13.21,5.2,24.78,6.81,36,8.38,17.37,2.43,33.77,4.72,53.66,20.07l.32.25-.18.37c-7.2,14.43-15.94,25.16-24.39,35.53-12.67,15.55-25.77,31.63-34.19,60.7ZM285.63,794.83c41.6,17.49,73.89,29.9,104.55,40.18,8.48-29,21.56-45,34.22-60.55,8.35-10.24,17-20.83,24.09-35-19.53-15-35.72-17.23-52.86-19.62-11.1-1.55-22.58-3.16-35.69-8.25-7.46,22.31-25.21,37.26-42.39,51.72C306.17,772.92,294.4,782.83,285.63,794.83Z"/><path class="cls-5" d="M364.53,834.73c-28.1,10-51.5,9.4-75.31,30.17-44.94-62.78-44-52.2-42-122.94,25.89-3.46,42.6,1,69.32-8C332.48,761.18,360.05,802.63,364.53,834.73Z"/><path class="cls-5" d="M289.13,865.64l-.32-.45c-5.07-7.08-9.56-13.24-13.52-18.67-30.41-41.68-30.41-41.68-28.76-99.39l.16-5.61.43,0a225,225,0,0,1,25.81-1.67c13.66-.33,26.57-.65,43.41-6.35l.39-.14.2.36c2.38,4.05,5,8.41,7.79,13,16.25,27,36.48,60.54,40.3,88l.06.4-.39.14c-8.62,3.07-16.78,5.13-24.68,7.13-17.5,4.43-34,8.62-50.47,22.95ZM247.67,742.4l-.14,4.75c-1.64,57.38-1.64,57.38,28.56,98.78,3.88,5.32,8.27,11.34,13.21,18.24,16.48-14.2,33-18.38,50.47-22.81,7.75-2,15.76-4,24.2-7C360,807.25,340,774,323.86,747.21c-2.7-4.48-5.26-8.73-7.58-12.69-16.8,5.64-29.69,6-43.33,6.28A230.44,230.44,0,0,0,247.67,742.4Z"/><path class="cls-4" d="M380.68,657.2c-12.91,2.24-22.6,4-34.89,9.44a4.89,4.89,0,0,1-6.52-2.67c-9.22-23.08-8.77-48.82-17.41-71.93a4.84,4.84,0,0,1,2.28-5.94c7.75-4.11.53-10.61,1.52-18.93a4.86,4.86,0,0,1,8-3.06c32.63,27.81,39,47.08,50.87,86.89A4.88,4.88,0,0,1,380.68,657.2Z"/><path class="cls-4" d="M186.73,645.77c-6.8,22.2,18.56,30.67,43.51,27.85s43.64,15,35.88-13.42S268,594.92,253,571.47,193.52,623.57,186.73,645.77Z"/><path class="cls-4" d="M376.73,715.22c-41,21.7-87.54,30.47-129.67,49.58-9.68-77.17,8.66-122.9.4-191.12,32.81,6.73,51.4,7.82,84.06-1C324,650.87,358.73,672.68,376.73,715.22Z"/><path class="cls-3" d="M338.16,642.65c-26.89,2.93-63.38,5.61-90,2.65.62-7.54,1-15.09,1.78-22.62,28.56-.29,53.79,6.55,84.11,4C334.75,632.2,337,637.23,338.16,642.65Z"/><path class="cls-3" d="M275,647.09a248.67,248.67,0,0,1-26.88-1.29l-.49-.06,0-.48c.22-2.77.41-5.55.6-8.32.32-4.69.66-9.55,1.18-14.31l0-.44h.45c12.31-.12,24.19,1.09,35.69,2.27,15.31,1.56,31.13,3.18,48.38,1.73l.47,0,.06.47a57.56,57.56,0,0,0,2.29,9.2c.67,2.18,1.36,4.44,1.86,6.74l.11.54-.55.06C320,645.14,296.57,647.09,275,647.09Zm-26.29-2.23c26.62,2.87,62.88.17,88.89-2.64-.48-2.08-1.11-4.13-1.72-6.12a61.19,61.19,0,0,1-2.25-8.89c-17.15,1.39-32.88-.21-48.09-1.77-11.33-1.16-23-2.35-35.14-2.26-.49,4.6-.81,9.29-1.12,13.83C249.05,639.62,248.87,642.24,248.66,644.86Z"/><path class="cls-3" d="M363.23,689.43c-27.72,9.63-88.65,8.81-118.68,5.86.74-7.39,1.14-14.69,1.55-22.1,36.11,6.26,70.87,1.19,105.64-2.88C354.7,677.23,359.7,682.83,363.23,689.43Z"/><path class="cls-3" d="M289.86,697.77c-16.92,0-33.16-.79-45.36-2l-.5,0,.05-.5c.71-7.1,1.11-13.91,1.55-22.08l0-.56.55.09c33.17,5.75,65.71,1.87,97.19-1.89l8.31-1,.37,0,.15.34a68.86,68.86,0,0,0,6.46,11c1.72,2.57,3.51,5.23,5,8l.28.51-.56.19C346.75,695.69,317.4,697.77,289.86,697.77Zm-44.77-2.93c31.88,3.07,90.56,3.35,117.42-5.69-1.42-2.57-3.08-5-4.68-7.43a71.49,71.49,0,0,1-6.4-10.87l-7.94.94c-31.37,3.75-63.81,7.62-96.92,2C246.14,681.52,245.76,688.06,245.09,694.84Z"/><path class="cls-3" d="M368.27,699.89c-22.67,12.53-112.92,31-124,29,.83,11.88,1.49,23.77,2.34,35.65,43.06-18.29,82.68-27.12,130.52-49.12C373.8,710.45,371.18,705.12,368.27,699.89Z"/><path class="cls-3" d="M246.15,765.29l-.05-.69c-.45-6.29-.85-12.67-1.24-18.85-.35-5.6-.7-11.21-1.1-16.8l0-.65.63.12c11.6,2.1,101.19-16.54,123.68-29l.43-.24.25.44c.82,1.48,1.62,3,2.42,4.45,2,3.69,4,7.51,6.41,11.06l.32.49-.53.24c-26.63,12.25-50.83,20.46-74.23,28.4C284,750.78,265.89,756.91,246.79,765Zm-1.35-35.8c.38,5.4.72,10.8,1.06,16.19.37,6,.76,12.09,1.19,18.15,18.89-8,36.79-14.06,55.72-20.49,23.23-7.88,47.24-16,73.61-28.11-2.25-3.46-4.22-7.11-6.13-10.66-.72-1.33-1.44-2.67-2.18-4C345.17,712.84,258.68,730.91,244.8,729.49Z"/><g class="cls-6"><path d="M246.67,672.17l-1-.1c3.16-32.63,4.51-55.8,2.56-84.67l1-.07C251.18,616.28,249.83,639.48,246.67,672.17Z"/></g><g class="cls-7"><path d="M348.38,665.8c-11.44-26.15-17.18-39.27-18.16-69.25l1,0c1,29.79,6.69,42.85,18.07,68.88Z"/></g><path class="cls-3" d="M248,633.59c-17.24-2.88-34.5-3.22-48-15.52a77.39,77.39,0,0,1,12.76-20.16,331,331,0,0,0,36.12,19.32C248.49,622.7,248.91,628.15,248,633.59Z"/><path class="cls-3" d="M248.43,634.16l-.49-.08c-2.91-.48-5.85-.9-8.7-1.31-14.51-2.06-28.22-4-39.54-14.33l-.26-.24.13-.32a77.67,77.67,0,0,1,12.83-20.29l.28-.33.37.22a330.23,330.23,0,0,0,36.07,19.29l.32.15,0,.35c-.17,2.13-.2,4.3-.24,6.4a67.82,67.82,0,0,1-.66,10Zm-47.8-16.22c11.05,9.91,24.51,11.82,38.75,13.84,2.69.38,5.47.78,8.22,1.23a70.3,70.3,0,0,0,.57-9.36c0-2,.07-4.06.22-6.11a332.65,332.65,0,0,1-35.5-19A76.74,76.74,0,0,0,200.63,617.94Z"/><path class="cls-3" d="M377.43,629.27c-9.72,4-28,5.39-39.35,8-1-4-2.34-7.9-3.31-11.91,12.85-3.18,25.05-7.78,37.5-10.89C373.92,619.41,376.06,624.2,377.43,629.27Z"/><path class="cls-3" d="M337.72,637.84l-.12-.47c-.47-1.85-1-3.71-1.55-5.51-.61-2.09-1.24-4.25-1.77-6.41l-.12-.49.49-.12c6.54-1.61,13-3.63,19.27-5.58,6-1.86,12.12-3.78,18.23-5.31l.45-.11.14.44c.64,1.92,1.37,3.86,2.07,5.73,1.11,3,2.26,6,3.1,9.13l.12.42-.41.17c-6.22,2.57-15.77,4-25,5.47-5.3.82-10.3,1.59-14.43,2.53Zm-2.35-12.15c.5,2,1.08,4,1.64,5.89.49,1.65,1,3.36,1.43,5.07,4.07-.9,8.91-1.65,14-2.44,9-1.39,18.25-2.82,24.37-5.24-.82-2.93-1.9-5.82-2.95-8.61-.66-1.74-1.33-3.53-1.94-5.33-5.93,1.51-11.92,3.38-17.73,5.18C348.1,622.12,341.78,624.09,335.37,625.69Z"/><rect class="cls-8" x="415" y="836.5" width="1" height="1"/><path class="cls-1" d="M163.67,795c-2,9.31,29.05-.15,33.65-1.07s24.52-4,21-11-14.06-5-24.44-3.52S165.65,785.64,163.67,795Z"/><path class="cls-1" d="M209.47,795.16c-1.18,3.78-4.61,18.06,1.09,19.38s8.32-12.62,9.42-16.26,6.51-16.68,1.05-18.74S210.65,791.39,209.47,795.16Z"/><path class="cls-1" d="M231,780.18c3,7.18,6.11,13.77-3.53,16.5s-18.7-2.46-19.4-11.22,5.15-6,10.63-7.08S228.06,773,231,780.18Z"/><ellipse class="cls-3" cx="290.65" cy="566.9" rx="41.56" ry="23.44" transform="translate(-93.19 58.45) rotate(-9.91)"/><path class="cls-2" d="M331.91,769.47c8.93,23.63,16.36,37.07,31,57.35"/><path class="cls-2" d="M362.06,827.4c-15-20.88-22.3-34.33-31.08-57.58l1.87-.7c8.71,23,15.91,36.4,30.84,57.11Z"/><g class="cls-9"><path class="cls-2" d="M350.42,765.47c.92,14.33.62,18.79-4.12,32.41"/><path class="cls-2" d="M347.25,798.21l-1.89-.66c4.72-13.57,5-17.88,4.06-32l2-.13C352.33,779.65,352.05,784.38,347.25,798.21Z"/></g><path class="cls-4" d="M377.2,295.35c1.67,23.94-6.44,43.76-29.37,46.91s-36.8-14-38.8-36.72,7.64-40.5,28.6-49.49S375.53,271.41,377.2,295.35Z"/><ellipse class="cls-10" cx="349.85" cy="318.51" rx="13.26" ry="10.05" transform="translate(-19.31 614.42) rotate(-81.03)"/><ellipse class="cls-4" cx="352.5" cy="314.5" rx="2.5" ry="3.5"/><path class="cls-4" d="M336.18,326.31c.85,17.86-14.47,34-34.4,28.68s-24.07-21.36-22.71-37.89,17.33-33.5,33.77-28.58S335.33,308.44,336.18,326.31Z"/><ellipse class="cls-10" cx="316.28" cy="327.19" rx="13" ry="9" transform="translate(-73.83 561.51) rotate(-76.96)"/><ellipse class="cls-4" cx="318.43" cy="322.38" rx="3.21" ry="2.02" transform="translate(-105.24 483.1) rotate(-66.13)"/><path class="cls-4" d="M377.26,294.88c1.67,23.94-6.43,43.77-29.36,46.92s-36.8-14-38.81-36.73,7.64-40.5,28.6-49.49S375.59,270.94,377.26,294.88Z"/><ellipse class="cls-10" cx="349.92" cy="318.04" rx="13.26" ry="10.05" transform="translate(-18.8 614.08) rotate(-81.03)"/><ellipse class="cls-4" cx="352.56" cy="314.03" rx="2.5" ry="3.5"/><path class="cls-4" d="M336.24,325.84c.85,17.87-14.47,34-34.4,28.68s-24.07-21.36-22.71-37.89,17.33-33.5,33.77-28.58S335.39,308,336.24,325.84Z"/><ellipse class="cls-10" cx="316.35" cy="326.72" rx="13" ry="9" transform="translate(-73.32 561.2) rotate(-76.96)"/><ellipse class="cls-4" cx="318.49" cy="321.91" rx="3.21" ry="2.02" transform="translate(-104.78 482.88) rotate(-66.13)"/><path class="cls-11" d="M232.73,438.13c-.24-1.51-.86-3-1.21-4.48-.15-.68-.28-1.36-.4-2,.11-1.71.32-3.27.84-3.45,1-.37,4.57,1.29,5.72,1.56a117.22,117.22,0,0,1,16,4.54c5.32,2.06,10.53,4.54,16,6.3A126.17,126.17,0,0,0,285.41,444a3.09,3.09,0,0,0,2.91-.81c10.68,7.28,19.95,23.19,29.51,33.65,1.27,1.4,10.68,10.26,12.6,13-5.07-.23-10-.23-15.42-.87-5.05-.6-10.37-1-15.6-2.38a7.51,7.51,0,0,1-2.94-.85c-9.72-.78-41.33-13.41-44.74-17.59a175,175,0,0,1-18.57-28.74A4.18,4.18,0,0,0,232.73,438.13Z"/><path class="cls-12" d="M275.75,452.51a92.72,92.72,0,0,1,25.46,22.75c1.72,2.16,2.63,7.63,4.74,10.09-.12.4.39,1.11-.07,1.2a13.34,13.34,0,0,1-3.94,0,6.18,6.18,0,0,1-.85-.2c-.37-.09-1.08-.09-1.54-.21-7-1.75-13.73-4.67-20.28-7.54-.72-.32-1.26-.42-1.78-.69-3.45-1.76-6.73-3.49-10-5.52a3.14,3.14,0,0,1-.36-.25c-2.47-2.25-5-4.2-7.09-6.88a74.78,74.78,0,0,1-5.78-9.41,80.72,80.72,0,0,1-4.39-8.53,1.23,1.23,0,0,1-.14-.52A38.74,38.74,0,0,1,275.75,452.51Z"/><path class="cls-1" d="M139.12,366.22c1.3,11.11,7.48,17.5,17.54,21,3.16,1.11,5.22.56,8.16-.07,33,61.06,61.88,121.64,92.63,183.71a4.43,4.43,0,0,0,.32.72c.15.17.12.31.28.43,8.65,6.76,20.72,6.16,31.4,4.63s29.68-6.33,35.32-16.38c0,0,0,0,.05,0,0-23.58,4.46-46.74,5.16-70.29-15.5-1-29.85-5.79-44.39-10.86a4.3,4.3,0,0,1-1.06-.58,3.87,3.87,0,0,0-.73-.32,59.67,59.67,0,0,1-18.29-12c-5.64-5.37-9.3-10.66-13.21-17.12-3.08-4.46-4.94-8.76-5.05-14.26a4,4,0,0,1,.18-2.05,3.53,3.53,0,0,1,.79-1.2,3.64,3.64,0,0,1,.81-.63.79.79,0,0,1,.72-.14,4,4,0,0,0,.47.1,9.45,9.45,0,0,1,2.71.72l.29.15.54.19.35.11c.18.06.44.19.66.28a29.9,29.9,0,0,1,5.13,2.94c3.24,2.06,6.56,4.25,9.86,6.06a93.27,93.27,0,0,0,16.71,7,7.15,7.15,0,0,1,1.16.38l.14.06a78.5,78.5,0,0,0,9.21,2.87c2.58.73,5,1.75,7.6,2.36,4.83,1.14,9.72,2.11,14.57,3,1.82.34,3.55.57,5.36.83,2.49.34,5,.53,7.47.71l.53.07c2.57-82.06-1-162.07-2.4-244-75.55,13.26-151.49,21.65-226.64,35,17.43,33.66,33.5,66.81,46.09,102.62C143,354.27,138.29,359.11,139.12,366.22Z"/><path class="cls-1" d="M257.79,571.64s.18.37.2.4.06,0,0,0Z"/><path class="cls-1" d="M316.39,416.6c19.66.13,47.1-1.1,66.76-2.22,17.38-1,24.53-5.35,26.39-23.41,1.3-12.62-1.79-25.66-6.12-36.83-6.19-16-12.11-20.2-28.3-19.52-18.31.76-42.24,1-60.45,2.28-16.1,1.12-26.46,5.85-28.56,23.47-1.47,12.31-1.87,22.26.6,34.7C290.24,412.87,299,416.48,316.39,416.6Z"/><path class="cls-4" d="M372.4,290c1.22,24-7.26,43.63-30.25,46.35s-36.53-14.68-38.1-37.46,8.41-40.34,29.53-48.93S371.19,266.05,372.4,290Z"/><ellipse class="cls-10" cx="344.62" cy="312.66" rx="13.26" ry="10.05" transform="translate(-23.41 597.38) rotate(-79.94)"/><ellipse class="cls-4" cx="347.34" cy="308.7" rx="3.5" ry="2.5" transform="translate(32.12 650.13) rotate(-88.91)"/><path class="cls-4" d="M330.81,320.19c.51,17.88-15.12,33.75-34.95,28s-23.66-21.81-22-38.31,17.95-33.17,34.3-27.94S330.29,302.31,330.81,320.19Z"/><ellipse class="cls-10" cx="310.89" cy="320.7" rx="13" ry="9" transform="translate(-75.98 543.94) rotate(-75.88)"/><ellipse class="cls-4" cx="313.12" cy="315.93" rx="3.21" ry="2.02" transform="translate(-105.43 466.51) rotate(-65.04)"/><path class="cls-4" d="M372.47,289.55c1.22,24-7.26,43.64-30.25,46.35s-36.53-14.68-38.1-37.45,8.41-40.35,29.53-48.94S371.26,265.58,372.47,289.55Z"/><ellipse class="cls-10" cx="344.69" cy="312.19" rx="13.26" ry="10.05" transform="translate(-22.89 597.07) rotate(-79.94)"/><ellipse class="cls-4" cx="347.41" cy="308.23" rx="3.5" ry="2.5" transform="matrix(0.02, -1, 1, 0.02, 32.65, 649.74)"/><path class="cls-4" d="M330.88,319.73c.51,17.88-15.12,33.74-34.95,28s-23.66-21.81-22-38.31,17.95-33.17,34.3-27.93S330.36,301.84,330.88,319.73Z"/><ellipse class="cls-10" cx="310.96" cy="320.23" rx="13" ry="9" transform="translate(-75.47 543.65) rotate(-75.88)"/><ellipse class="cls-4" cx="313.19" cy="315.47" rx="3.21" ry="2.02" transform="translate(-104.97 466.3) rotate(-65.04)"/><path class="cls-4" d="M247,434.37c0-.41.12-1.12.17-1.59,0-.14.16-.22.25-.37a3.48,3.48,0,0,1,.31-.43c.18-.24.44-.48-.09,0,.36-.22.41-.66.74-.88a5.19,5.19,0,0,1,2.14-.65c.2,0,.45.21.67.16,32.44,16,42.91,22,79.65,28-.54,2.85-1.59,5.54-2.25,8.37-37.59-3.08-50.06-13.69-81.52-31,0-.27-.05-.36,0-.67S247,434.78,247,434.37Z"/><ellipse class="cls-13" cx="259.63" cy="220.59" rx="34.79" ry="35.17"/><circle class="cls-13" cx="218.1" cy="234.81" r="32.17"/><ellipse class="cls-13" cx="306.77" cy="225.08" rx="35.34" ry="31.47" transform="matrix(0.96, -0.26, 0.26, 0.96, -48.4, 88.62)"/><circle class="cls-13" cx="342.69" cy="203.01" r="27.31"/><ellipse class="cls-13" cx="188.92" cy="244.91" rx="25.44" ry="34.79"/><ellipse class="cls-13" cx="157.12" cy="255.38" rx="22.07" ry="9.35"/><ellipse class="cls-13" cx="127.57" cy="304.02" rx="29.93" ry="24.32"/><ellipse class="cls-13" cx="153.75" cy="241.54" rx="44.15" ry="25.44"/><ellipse class="cls-13" cx="104.37" cy="270.72" rx="29.18" ry="25.44"/><ellipse class="cls-13" cx="145.52" cy="268.85" rx="29.93" ry="24.32"/><g class="cls-14"><ellipse class="cls-15" cx="316.14" cy="221.95" rx="21.75" ry="19.74" transform="translate(-39.1 70.25) rotate(-11.95)"/></g><g class="cls-16"><ellipse class="cls-15" cx="240.55" cy="227.32" rx="26.19" ry="17.21"/></g><g class="cls-14"><circle class="cls-15" cx="166.1" cy="250.89" r="20.58"/></g><g class="cls-16"><ellipse class="cls-15" cx="325.1" cy="203.75" rx="17.96" ry="18.33"/></g><g class="cls-17"><circle class="cls-15" cx="261.88" cy="214.98" r="11.6"/></g><g class="cls-18"><ellipse class="cls-15" cx="104.74" cy="267.73" rx="22.07" ry="17.96"/></g><path class="cls-13" d="M335.26,178.3a27.31,27.31,0,0,0-54.62,0"/><ellipse class="cls-13" cx="301.96" cy="196.14" rx="35.34" ry="31.47" transform="matrix(0.96, -0.26, 0.26, 0.96, -40.96, 86.33)"/><ellipse class="cls-13" cx="262.16" cy="172.11" rx="35.34" ry="31.47" transform="translate(-36.04 75.02) rotate(-15.25)"/><ellipse class="cls-13" cx="224.74" cy="202.79" rx="35.34" ry="31.47" transform="translate(-45.43 66.26) rotate(-15.25)"/><ellipse class="cls-13" cx="207.53" cy="172.11" rx="35.34" ry="31.47" transform="translate(-37.96 60.65) rotate(-15.25)"/><ellipse class="cls-13" cx="166.36" cy="187.56" rx="48.54" ry="31.47" transform="translate(-43.48 50.36) rotate(-15.25)"/><ellipse class="cls-13" cx="133.38" cy="218.24" rx="10.95" ry="16.06" transform="translate(-52.71 42.77) rotate(-15.25)"/><ellipse class="cls-13" cx="100.02" cy="235.26" rx="25.25" ry="27.71" transform="translate(-58.36 34.59) rotate(-15.25)"/><ellipse class="cls-13" cx="119.99" cy="214.05" rx="14.03" ry="17.69" transform="matrix(0.96, -0.26, 0.26, 0.96, -52.08, 39.1)"/><g class="cls-19"><ellipse class="cls-15" cx="187.05" cy="208.62" rx="23.57" ry="16.46"/></g><g class="cls-20"><circle class="cls-15" cx="247.29" cy="198.14" r="20.2"/></g><g class="cls-6"><ellipse class="cls-15" cx="300.79" cy="192.9" rx="21.33" ry="15.71" transform="matrix(0.94, -0.34, 0.34, 0.94, -47.67, 113.75)"/></g><g class="cls-6"><circle class="cls-15" cx="140.29" cy="216.1" r="24.69"/></g><g class="cls-21"><ellipse class="cls-15" cx="190.04" cy="178.31" rx="20.58" ry="13.84"/></g><ellipse class="cls-15" cx="182.56" cy="262.87" rx="25.07" ry="16.84"/><g class="cls-7"><circle class="cls-15" cx="133.93" cy="303.27" r="19.08"/></g><g class="cls-20"><ellipse class="cls-15" cx="264.5" cy="158.11" rx="25.44" ry="13.84"/></g><g class="cls-20"><ellipse class="cls-15" cx="350.55" cy="200.01" rx="13.47" ry="17.58"/></g><g class="cls-20"><ellipse class="cls-15" cx="218.1" cy="225.45" rx="17.58" ry="13.47" transform="translate(-91.22 173.32) rotate(-36.38)"/></g><g class="cls-20"><ellipse class="cls-15" cx="214.27" cy="157.89" rx="13.47" ry="17.58" transform="matrix(0.07, -1, 1, 0.07, 40.99, 359.92)"/></g><ellipse class="cls-13" cx="282.65" cy="185.69" rx="28.73" ry="20.52" transform="translate(-38.89 80.89) rotate(-15.25)"/><ellipse class="cls-13" cx="231.48" cy="193.06" rx="28.73" ry="20.52" transform="translate(-42.63 67.69) rotate(-15.25)"/><ellipse class="cls-13" cx="185.83" cy="187.82" rx="28.73" ry="20.52" transform="translate(-42.86 55.49) rotate(-15.25)"/><ellipse class="cls-13" cx="175.36" cy="240.95" rx="28.73" ry="20.52" transform="translate(-57.2 54.61) rotate(-15.25)"/><ellipse class="cls-13" cx="146.93" cy="225.24" rx="28.73" ry="20.52" transform="translate(-54.07 46.58) rotate(-15.25)"/><ellipse class="cls-13" cx="118.49" cy="281.35" rx="28.73" ry="20.52" transform="translate(-69.83 41.07) rotate(-15.25)"/><ellipse class="cls-13" cx="267.39" cy="225.24" rx="28.73" ry="20.52" transform="translate(-49.83 78.27) rotate(-15.25)"/><path class="cls-22" d="M147.79,370.06a6.94,6.94,0,0,1,2.59-1.21,5.9,5.9,0,0,0,1.58-.49,9.47,9.47,0,0,1-2.1-2.33,5.3,5.3,0,0,1-1-2.9,3,3,0,0,1,1.08-2.49,4.16,4.16,0,0,1,2.69-.88,8.84,8.84,0,0,1,4.28,1.33,10.82,10.82,0,0,1,3.45,2.87,2.79,2.79,0,0,1,.67,1.38.62.62,0,0,1-.33.46,1.14,1.14,0,0,1-.59.23c-.22,0-.6-.26-1.15-.78l-1.07-1.06a.82.82,0,0,0-.06-.72,7,7,0,0,0-2.4-1.65,6.85,6.85,0,0,0-2.8-.79,2.12,2.12,0,0,0-1.61.63,2.29,2.29,0,0,0-.6,1.64,4.86,4.86,0,0,0,1.32,3.1,7,7,0,0,0,2.36,2.05,12.4,12.4,0,0,0,2.41.34,3.4,3.4,0,0,1,2.14.63,1.48,1.48,0,0,1,.48.95c0,.31-.34.46-1,.46a8.2,8.2,0,0,1-2.8-.67,9.93,9.93,0,0,0-2.07-.68,6.13,6.13,0,0,0-3.35,1,3.42,3.42,0,0,0-1.78,2.84,4.53,4.53,0,0,0,.69,2.13,6.56,6.56,0,0,0,2.88,2.59,8.9,8.9,0,0,0,3.83.83c2,0,3.35-.45,4-1.35.17-.36.34-.73.52-1.09s.55-.75.86-.75a.85.85,0,0,1,.54.26.72.72,0,0,1,.27.52,2.59,2.59,0,0,1-1.21,1.81,5.7,5.7,0,0,1-2,1.12,16.19,16.19,0,0,1-3.8.46,8.49,8.49,0,0,1-7.13-3.45,5.2,5.2,0,0,1-1.09-3.25A3.85,3.85,0,0,1,147.79,370.06Z"/></g></svg>