<svg xmlns="http://www.w3.org/2000/svg" viewBox="0 0 466 423"><defs><style>.cls-1{fill:#ea8021;}.cls-2,.cls-4{fill:#006837;}.cls-3,.cls-7{fill:none;}.cls-3,.cls-4{stroke:#006837;stroke-width:0.75px;}.cls-3,.cls-4,.cls-7{stroke-miterlimit:10;}.cls-5{opacity:0.85;}.cls-6{fill:#8c6239;}.cls-7{stroke:#8c6239;stroke-width:0.25px;}</style></defs><g id="Layer_4" data-name="Layer 4"><path class="cls-1" d="M174.29,323.15,144.29,182c-1.41-6.63,1.7-13.6,6.4-14.32l79.24-12.21c5.71-.88,9.81,7.76,7.33,15.48L188,324.3C185.13,333.34,176.3,332.6,174.29,323.15Z"/><path class="cls-1" d="M237.26,162.89c2.05,18.43-17.75,35.63-43.82,38.37-25.62,2.68-47.67-9.66-49.66-27.52s16.78-34.94,42.33-38.2C212.11,132.23,235.2,144.45,237.26,162.89Z"/></g><g id="Layer_6" data-name="Layer 6"><path class="cls-2" d="M188.68,136.05a48.11,48.11,0,0,0-18.51-31.7l-1.64-1.21c-2.9-2.11-5.9-4.29-7.36-7.58l.68-.31c1.39,3.12,4.3,5.24,7.12,7.29.56.4,1.11.81,1.65,1.22A48.81,48.81,0,0,1,189.42,136Z"/><path class="cls-2" d="M193.87,135a91.69,91.69,0,0,1-2-9.63c-.87-6.9-.12-14,.61-20.82.86-8.09,1.75-16.45-.09-24.42l.73-.17c1.87,8.09,1,16.52.11,24.67-.73,6.8-1.48,13.84-.61,20.65a89,89,0,0,0,1.93,9.54Z"/><path class="cls-2" d="M186.84,117.1c1.88,1.34,3.55,3.34,3.5,5.65,0,2-1.35,3.71-2.78,5.09-1.64,1.58-3.75,3-6,2.77a6.62,6.62,0,0,1-5.14-4.18,19.54,19.54,0,0,1-1.21-6.81c-.48,1.93-3,2.86-4.81,2.14a6,6,0,0,1-3.35-4.61,17.63,17.63,0,0,1,.31-5.92c-3.22.61-7,1.08-9.39-1.14-2-1.88-2.27-5-1.87-7.73.27-1.91.29-5.19,1-6.9s1.23-1.78,3.61-1.27a12.25,12.25,0,0,1,4.87,2.28c.41.32,3.16,3.71,3.16,3.74a11.19,11.19,0,0,1,12.32,13.09C182.81,114.83,185,115.76,186.84,117.1Z"/><path class="cls-3" d="M156.08,102.36c-.4,2.73-.15,5.85,1.87,7.73,2.41,2.22,6.17,1.75,9.39,1.14a17.63,17.63,0,0,0-.31,5.92,6,6,0,0,0,3.35,4.61c1.85.72,4.33-.21,4.81-2.14a19.54,19.54,0,0,0,1.21,6.81,6.62,6.62,0,0,0,5.14,4.18c2.27.2,4.38-1.19,6-2.77,1.43-1.38,2.74-3.11,2.78-5.09,0-2.31-1.62-4.31-3.5-5.65s-4-2.27-5.76-3.8a11.19,11.19,0,0,0-12.32-13.09s-2.75-3.42-3.16-3.74a12.25,12.25,0,0,0-4.87-2.28c-2.38-.51-2.82-.54-3.61,1.27S156.35,100.45,156.08,102.36Z"/><path class="cls-2" d="M191.15,78.28c.13,6.16-9,15.83-.59,18.57-.09,3.05-3.38,5.24-4,8.35-1,4.87,1.1,4.06,3.85,5.71-3.88,4.55-7.61,16.13-1.16,20,2.26,1.37,9.87,3.3,11.91.08,1.56-2.46-.13-6.76-2-8.24,4.28-.78,6.73-3.91,5.61-9.84-.77-4-6.29-7.82-5.64-12.06,7.34-.08,1.52-10.46,0-14.62C197.94,83.41,194.59,76.52,191.15,78.28Z"/><path class="cls-2" d="M196.67,133.15a17.62,17.62,0,0,1-7.65-1.88,7.55,7.55,0,0,1-3.52-5.58c-.79-4.84,1.58-11.24,4.3-14.67a15,15,0,0,0-1.41-.64c-2-.8-3-1.44-2.24-5.25a11.33,11.33,0,0,1,2.09-4,8.84,8.84,0,0,0,1.93-4,5,5,0,0,1-3.12-2.56c-1.13-2.45.29-5.86,1.67-9.16,1-2.48,2.1-5,2.05-7.1v-.23L191,78a2.88,2.88,0,0,1,2.42-.11c3.24,1.26,5.69,7.58,6,8.29s.57,1.41.94,2.27c1.61,3.71,3.81,8.8,2.16,11.34a3.65,3.65,0,0,1-3.08,1.51c-.16,2.15,1.36,4.28,2.84,6.34,1.23,1.7,2.49,3.46,2.83,5.28.59,3.08.26,5.56-1,7.36a7,7,0,0,1-4.2,2.76c1.77,1.89,3.08,5.85,1.57,8.24C200.53,132.65,198.69,133.15,196.67,133.15Zm-5.15-54.63c0,2.17-1.09,4.7-2.11,7.16-1.31,3.15-2.67,6.41-1.68,8.56a4.5,4.5,0,0,0,2.94,2.25l.27.09v.28c-.05,1.75-1.08,3.22-2.07,4.65a10.78,10.78,0,0,0-2,3.77c-.71,3.39.07,3.71,1.79,4.41a13.2,13.2,0,0,1,1.9.9l.38.23-.29.33c-2.73,3.2-5.2,9.63-4.42,14.42a6.83,6.83,0,0,0,3.17,5.05c2.14,1.3,9.53,3.14,11.39.2,1.44-2.26-.17-6.37-2-7.74l-.66-.52.82-.15a6.54,6.54,0,0,0,4.44-2.6c1.12-1.63,1.41-3.92.87-6.8-.32-1.65-1.48-3.27-2.71-5-1.63-2.27-3.32-4.63-2.93-7.19l0-.32H199a3.11,3.11,0,0,0,2.79-1.17c1.44-2.21-.76-7.29-2.22-10.65-.37-.87-.71-1.65-1-2.3-.94-2.48-3.15-6.92-5.54-7.85A2.11,2.11,0,0,0,191.52,78.52Z"/><polygon class="cls-2" points="192.16 136.45 188.37 137.73 184.84 128.55 188.63 127.25 192.16 136.45"/><path class="cls-2" d="M188.15,138.2l-3.8-9.88,4.5-1.54,3.8,9.9Zm-2.82-9.42,3.26,8.48,3.08-1-3.27-8.49Z"/><polygon class="cls-4" points="195.5 137.5 192.5 137.38 192.5 129.5 195.5 129.61 195.5 137.5"/></g><g id="Layer_5" data-name="Layer 5"><g class="cls-5"><path class="cls-6" d="M155.59,185.28a7,7,0,0,1,4.51-3.68,20.8,20.8,0,0,1,6-.61l7.34,0c2,0,4.26,0,5.84,1.33"/><path class="cls-6" d="M156.05,185.47l-.92-.38a7.45,7.45,0,0,1,4.82-4,21,21,0,0,1,6.1-.63l7.34,0c2.31,0,4.5.09,6.16,1.44l-.64.78c-1.39-1.15-3.38-1.23-5.51-1.22l-7.35,0a20.22,20.22,0,0,0-5.81.59A6.46,6.46,0,0,0,156.05,185.47Z"/></g><g class="cls-5"><path class="cls-6" d="M180.08,211.59c6.07,0,12-1.58,18-2.23a59.63,59.63,0,0,1,16.66.54"/><path class="cls-6" d="M180.08,212.09v-1a70.68,70.68,0,0,0,11.26-1.25c2.2-.36,4.48-.74,6.74-1a60.25,60.25,0,0,1,16.8.55l-.17,1a59.08,59.08,0,0,0-16.53-.53c-2.23.24-4.49.61-6.68,1A71,71,0,0,1,180.08,212.09Z"/></g><g class="cls-5"><path class="cls-6" d="M167.09,243.9a102.6,102.6,0,0,1,15.08.38"/><path class="cls-6" d="M182.12,244.77a103,103,0,0,0-15-.37l-.05-1a103.69,103.69,0,0,1,15.16.38Z"/></g><g class="cls-5"><path class="cls-6" d="M190.05,274.48c-.17-2.44,1.57-4.57,3.4-6.19a30,30,0,0,1,13.89-6.92"/><path class="cls-6" d="M189.55,274.51c-.15-2.15,1-4.37,3.56-6.6a30.51,30.51,0,0,1,14.13-7l.2,1a29.43,29.43,0,0,0-13.66,6.8c-2.27,2-3.36,4-3.23,5.78Z"/></g><g class="cls-5"><path class="cls-6" d="M170.87,261.48a19.61,19.61,0,0,1,7.65-.89,25.46,25.46,0,0,0,5.5.33,34.2,34.2,0,0,0,4.89-1.45,14.62,14.62,0,0,1,8.66.2"/><path class="cls-6" d="M171,262l-.31-.95a20.26,20.26,0,0,1,7.85-.9c.53,0,1.06.1,1.59.17a15.34,15.34,0,0,0,3.81.15,14.36,14.36,0,0,0,3.08-.86c.57-.2,1.14-.4,1.73-.57a15.21,15.21,0,0,1,9,.2l-.32.95A14.22,14.22,0,0,0,189,260c-.56.16-1.11.36-1.67.56a12.09,12.09,0,0,1-7.34.75c-.52-.06-1-.13-1.55-.17A19.22,19.22,0,0,0,171,262Z"/></g><path class="cls-6" d="M207.47,137.52a8.36,8.36,0,0,0-6.1.63,13.57,13.57,0,0,1,3.15,4.38c-4.22-.91-7.79-5.31-12-4.43a9.52,9.52,0,0,1,.8,4.55c-1.57-.44-2.07-2.61-2.29-4.41a13,13,0,0,0-4.65,5.5,6.39,6.39,0,0,1-.66-3.41,2.34,2.34,0,0,0-.07-1.12c-.37-.78-1.42-.44-2.14-.07a13.37,13.37,0,0,1-6.57,1.53,9.84,9.84,0,0,1,3.48-3.23c4.33-2.33,9.29-1.55,14-2.25a43.54,43.54,0,0,1,8.43-.69c.5,0,.78,0,.8.52A10.6,10.6,0,0,0,207.47,137.52Z"/><path class="cls-7" d="M207.47,137.52l.6.21"/><path class="cls-7" d="M207.47,137.52a8.36,8.36,0,0,0-6.1.63,13.57,13.57,0,0,1,3.15,4.38c-4.22-.91-7.79-5.31-12-4.43a9.52,9.52,0,0,1,.8,4.55c-1.57-.44-2.07-2.61-2.29-4.41a13,13,0,0,0-4.65,5.5,6.39,6.39,0,0,1-.66-3.41,2.34,2.34,0,0,0-.07-1.12c-.37-.78-1.42-.44-2.14-.07a13.37,13.37,0,0,1-6.57,1.53,9.84,9.84,0,0,1,3.48-3.23c4.33-2.33,9.29-1.55,14-2.25a43.54,43.54,0,0,1,8.43-.69c.5,0,.78,0,.8.52A10.6,10.6,0,0,0,207.47,137.52Z"/></g></svg>