<?xml version="1.0" encoding="utf-8"?>
<!-- Generator: Adobe Illustrator 25.4.1, SVG Export Plug-In . SVG Version: 6.00 Build 0)  -->
<svg version="1.1" id="Layer_1" xmlns="http://www.w3.org/2000/svg" xmlns:xlink="http://www.w3.org/1999/xlink" x="0px" y="0px"
	 viewBox="0 0 1920 1080" style="enable-background:new 0 0 1920 1080;" xml:space="preserve">
<style type="text/css">
	.st0{fill:url(#SVGID_1_);enable-background:new    ;}
	.st1{fill:#FFFFFF;}
	.st2{fill:#F2CAA2;}
	.st3{opacity:0.5;}
	.st4{fill:#DB9E61;}
	.st5{opacity:0.51;}
	.st6{opacity:0.52;}
	.st7{opacity:0.6;}
	.st8{fill:none;stroke:#000000;stroke-width:0.3;stroke-miterlimit:10;}
	.st9{fill:#0071BC;}
	.st10{fill:url(#SVGID_00000056400641051112011750000012486764711462103689_);}
	.st11{fill:url(#SVGID_00000170970927954736956720000001411004796411690159_);}
	.st12{fill:none;}
	.st13{font-family:'Noteworthy-Light';}
	.st14{font-size:14.39px;}
	.st15{fill:#F4DE3B;}
	.st16{opacity:0.59;fill:#F7D50B;enable-background:new    ;}
	.st17{opacity:0.6;fill:#F7D50B;enable-background:new    ;}
	.st18{opacity:0.65;fill:#F7D50B;enable-background:new    ;}
	.st19{opacity:0.56;fill:#F7D50B;enable-background:new    ;}
	.st20{opacity:0.66;fill:#F7D50B;enable-background:new    ;}
	.st21{opacity:0.62;fill:#F7D50B;enable-background:new    ;}
	.st22{opacity:0.55;fill:#F7D50B;enable-background:new    ;}
	.st23{opacity:0.54;fill:#F7D50B;enable-background:new    ;}
	.st24{fill:#F7D50B;}
	.st25{opacity:0.58;fill:#F7D50B;enable-background:new    ;}
	.st26{fill:#6D0630;}
	.st27{fill:#E58CAC;}
	.st28{fill:#F25D27;}
	.st29{fill:#F266A7;}
	.st30{fill:#F266A7;stroke:#F266A7;stroke-miterlimit:10;}
	.st31{fill:#F20574;}
	.st32{fill:#F25D27;stroke:#F25D27;stroke-miterlimit:10;}
	.st33{fill:none;stroke:#000000;stroke-width:2;stroke-miterlimit:10;}
	.st34{fill:url(#SVGID_00000119095226237558219820000006538921070187769234_);}
	.st35{fill:url(#SVGID_00000120520113275219926380000006105055440115786397_);}
	.st36{opacity:0.86;}
	.st37{fill:#DB9E61;stroke:#DB9E61;stroke-width:3;stroke-miterlimit:10;}
	.st38{opacity:0.83;}
	.st39{opacity:0.79;}
	.st40{fill:none;stroke:#DB9E61;stroke-width:2;stroke-miterlimit:10;}
	.st41{opacity:0.84;}
	.st42{opacity:0.49;}
	.st43{opacity:0.53;}
	.st44{fill:#FFFFFF;stroke:#F442F0;stroke-miterlimit:10;}
	.st45{fill:#FFFFFF;stroke:#7BB1FF;stroke-width:3;stroke-miterlimit:10;}
	.st46{fill:#F064F4;}
	.st47{fill:#EFFF22;}
	.st48{fill:#6CB2FF;}
	.st49{fill:#FFFF00;}
	.st50{fill:#07C4EF;}
</style>
<radialGradient id="SVGID_1_" cx="982.74" cy="535.96" r="778.78" gradientTransform="matrix(1.02 0 0 -1.04 -45.82 1113)" gradientUnits="userSpaceOnUse">
	<stop  offset="0.48" style="stop-color:#FFFFFF"/>
	<stop  offset="1" style="stop-color:#FFF42A"/>
</radialGradient>
<rect x="-22.7" y="-5.8" class="st0" width="1949.4" height="1127.2"/>
<g id="Layer_13">
	<path class="st1" d="M1148,311.7c-6,8-8.6,16.5-10.7,25.7c0.1,0,0.1,0,0.2,0.1c0.4-0.5,0.8-1,1.3-1.4c0.2-0.1,0.3-0.3,0.4-0.5
		c2-2.2,4-4.5,5.9-6.7c0.3-0.4,0.6-0.8,1-1.2c0.2-0.2,0.3-0.4,0.4-0.6c0.3-0.5,0.7-1,1.1-1.4l0.1-0.1l0,0c0.4-0.5,0.8-1,1.3-1.5
		c0.6-0.7,1.1-1.4,1.7-2.1l0.3-0.3c0.3-0.7,0.7-1.3,1.2-1.9c0.1-0.2,0.2-0.3,0.3-0.5c0.3-0.5,0.6-1,1-1.4c0.2-0.2,0.3-0.4,0.4-0.6
		c0.3-0.3,0.5-0.6,0.7-0.9c0.3-0.5,0.6-0.9,1-1.3c0.3-0.3,0.6-0.7,0.8-1.1c0.3-0.4,0.6-0.7,0.9-1c0.3-0.3,0.5-0.6,0.8-0.9
		c0.2-0.2,0.4-0.5,0.6-0.8c0.3-0.3,0.6-0.6,0.9-0.8c0.2-0.2,0.4-0.5,0.6-0.7c0.2-0.2,0.4-0.4,0.5-0.6c0.1-0.3,0.3-0.6,0.6-0.8
		l0.3-0.3c0.2-0.2,0.4-0.3,0.6-0.4c0.1-0.3,0.3-0.5,0.5-0.7l0.5-0.5l0.3-0.3c0.3-0.6,0.7-1.2,1.2-1.7c0.1-0.3,0.2-0.5,0.3-0.8
		c0.1-0.3,0.3-0.6,0.5-0.8C1156.2,302.3,1154.8,302.7,1148,311.7z"/>
	<path class="st2" d="M1295.2,346.3c1.1,3.2,2,6.4,3.2,9.6c21.5-7,54.4-16.5,74-26.1c-1.8-3.8-3.8-7.3-5.5-11.2
		C1342.9,327.9,1319.2,337.5,1295.2,346.3z"/>
	<path class="st2" d="M1368,321.6c-1.9,4.7-1.3-0.2,0.6,5s22,8.2,24.2,1.7s-3.9-16.4-9.6-17.6S1369.9,316.9,1368,321.6z"/>
	<path class="st2" d="M1390.1,327c1.6,4.4,7.2,3.8,11.5,2s8.3-7.9,5-12.9s-4.8,4.1-8.6,4.5S1388.4,322.6,1390.1,327z"/>
	<path class="st2" d="M1386,321.5c0.5,3.6,5.3,5.8,9.6,4.9s15.3-12,10.2-15.5s-9.1,3-11.8,4.5S1385.5,317.9,1386,321.5z"/>
	<path class="st2" d="M1383.9,315.1c2.7,2.8-1.9,4.9,3.8,6.1s15.2-6.2,16.1-12.8s-16.4-9.1-17.5-4.7S1381.1,312.2,1383.9,315.1z"/>
	<path class="st2" d="M1387.9,311.3c1.7-2.7-2.4-13.3-7.1-9.8s-14.9,15.2-11,20.2s8.1,0.5,10.8-2.3S1386.2,314.1,1387.9,311.3z"/>
	<path class="st2" d="M1386.2,320.8c-4,0.5-1.7-7.3-5.6-11.4s-1.8-6,0.9-8.4s7.9,3.4,9.5,7.2S1390.2,320.3,1386.2,320.8z"/>
	<path class="st2" d="M1365.7,319.2c0.5,1,1.1,2,1.7,3c1.4-1,2.9-1.9,4.3-2.9c-0.7-1.1-1.4-2.2-2.2-3.3
		C1368.6,317.4,1367.3,318.5,1365.7,319.2z"/>
	<g class="st3">
		<path class="st4" d="M1401.4,309.3c-1,1.7-2.4,3-4.2,3.8c-1.6,0.8-4.1,1.1-5.6,0.2s-3.2,1.6-1.5,2.6c2.5,1.4,5.8,1,8.3-0.1
			c2.3-1.1,4.3-2.8,5.6-5C1405,309.2,1402.4,307.7,1401.4,309.3L1401.4,309.3z"/>
	</g>
	<g class="st5">
		<path class="st4" d="M1404.5,315.8c-2,3.1-5,5.7-8.8,6c-1.7,0.2-3.5-0.4-4.7-1.6c-0.7-0.5-1.2-1.3-1.5-2.1c-0.1-0.6,0.5-1.1,1-1.4
			c1.6-1,0.1-3.6-1.5-2.6c-1.2,0.6-2.1,1.7-2.4,3c-0.2,1.3,0.2,2.7,1,3.7c1.6,2.2,4,3.6,6.7,3.9c5.4,0.5,10.1-3.3,12.9-7.5
			C1408.2,315.7,1405.6,314.2,1404.5,315.8z"/>
	</g>
	<g class="st3">
		<path class="st4" d="M1392.3,327.6l-0.2-0.1L1392.3,327.6l-0.3-0.3c-0.1-0.1,0-0.1-0.1-0.2s0.1,0.2,0.1,0.1s-0.1-0.1-0.2-0.3
			s0,0,0,0.1v-0.7c0-0.1-0.1,0.3,0,0.2s0-0.1,0-0.2s0.1-0.3,0.1-0.4s0-0.1,0.1-0.2s-0.2,0.3-0.1,0.1l0.2-0.4
			c0.1-0.2,0.1-0.1,0.2-0.3s0,0-0.1,0.1l0.1-0.1l0.6-0.6c0.6-0.5,0.6-1.4,0.1-2l-0.1-0.1c-0.6-0.6-1.5-0.6-2.1,0c0,0,0,0,0,0
			c-1.2,0.9-1.9,2.3-2.1,3.8c-0.1,1.5,0.7,3,2,3.8c0.6,0.4,0.9-0.3,1.4-0.7S1393,328.1,1392.3,327.6L1392.3,327.6z"/>
	</g>
	<g class="st6">
		<path class="st4" d="M1391.7,309.6c0-0.2,0.1-0.4,0.2-0.5l-0.2,0.4c0.1-0.4,0.3-0.7,0.6-1l-0.2,0.3c0.3-0.3,0.6-0.6,0.9-0.9
			l-0.3,0.2c0.3-0.3,0.7-0.5,1.1-0.6l-0.4,0.1c0.4-0.2,0.8-0.3,1.2-0.3h0.2c0.8,0,1.5-0.7,1.5-1.5s-0.7-1.5-1.5-1.5
			c-2.8,0-5.2,1.8-5.9,4.5c-0.3,0.8,0.1,1.6,0.9,1.9c0.8,0.3,1.6-0.1,1.9-0.9C1391.7,309.7,1391.7,309.7,1391.7,309.6L1391.7,309.6z
			"/>
	</g>
	<g class="st5">
		<path class="st4" d="M1385,303.5c1.2,1.3,2.2,2.8,2.9,4.5c0.8,1.8,1,3.7,0.6,5.6c-0.1,0.4-0.3,0.8-0.5,1.1c0,0-0.2,0.3-0.2,0.2
			s0.2,0,0.2,0l-0.3-0.3l-0.3-0.6c-0.2-0.3-0.3-0.6-0.4-1c-0.9-2-1.6-4.1-2.1-6.2c-0.2-0.8-0.9-1.2-1.7-1c0,0-0.1,0-0.1,0
			c-0.8,0.3-1.2,1.1-1,1.9c0.4,2.1,1.1,4.2,2.1,6.1c0.7,1.7,1.7,4.3,4,4.2s3.5-2.9,3.7-5c0.1-2-0.2-4-1-5.9c-0.8-2.1-2-4-3.6-5.6
			c-0.6-0.6-1.5-0.7-2.2-0.2S1384.4,302.9,1385,303.5L1385,303.5L1385,303.5z"/>
	</g>
	<g class="st3">
		<path class="st4" d="M1381.4,314.3c0.1,0.5,0.1,1,0,1.5c-0.2,0.6-0.4,1.1-0.8,1.6c-0.6,0.9-1.4,1.6-2.4,2.1
			c-0.4,0.3-0.9,0.5-1.4,0.6c-0.3,0.1-0.5,0.1-0.8,0.2l-0.5,0.1c-0.3,0.1,0.1,0-0.2,0c-1.1,0.1-2.2,0-3.3-0.3
			c-0.8-0.2-1.6,0.2-1.8,0.9c0,0,0,0,0,0.1c-0.2,0.8,0.2,1.6,1,1.9l0,0c3,0.9,6.2,0.5,8.9-1.1c2.8-1.7,5.2-5,4.2-8.4
			c-0.2-0.8-1-1.3-1.8-1.1C1381.6,312.7,1381.2,313.5,1381.4,314.3L1381.4,314.3z"/>
	</g>
	<path class="st2" d="M1178.8,314.4c-2.2,2.5-4.3,5.2-6.6,7.6c-17.3-14.6-44.1-35.8-58.7-52.2c3.1-2.8,6.3-5.3,9.3-8.3
		C1141.5,279.3,1159.8,297.2,1178.8,314.4z"/>
	<path class="st2" d="M1120.7,264c-0.1,5,1.2,0.3-2.4,4.4s-23.5-0.7-23.1-7.6s9.8-13.7,15.5-12.7S1120.7,258.9,1120.7,264z"/>
	<path class="st2" d="M1098.2,260.6c-3.2,3.4-8.1,0.8-11.5-2.5s-4.8-10.4,0.3-13.8s2.9,5.7,6.3,7.4S1101.4,257.2,1098.2,260.6z"/>
	<path class="st2" d="M1104.1,257.1c-1.8,3.1-7.1,3.4-10.8,0.9s-9.6-16.9-3.6-18.2s7.2,6.2,9.2,8.6S1105.9,254,1104.1,257.1z"/>
	<path class="st2" d="M1108.5,252c-3.6,1.6-0.1,5.3-5.9,4.2s-11.7-11.5-10-18s18.6-2.2,18,2.2S1112.1,250.4,1108.5,252z"/>
	<path class="st2" d="M1106.1,247c-0.5-3.2,7.2-11.4,10.3-6.4s8,19.7,2.5,22.8s-7.7-2.6-9.2-6.2C1108.2,253.9,1107,250.5,1106.1,247
		z"/>
	<path class="st2" d="M1104.2,256.4c3.6,2,4.4-6.1,9.5-8.5s3.9-4.9,2.4-8.1s-8.6,0.1-11.6,3.1S1100.6,254.4,1104.2,256.4z"/>
	<path class="st2" d="M1123.7,262.6c-0.9,0.8-1.8,1.5-2.7,2.1c-0.9-1.5-2-2.9-2.9-4.4c1-0.8,2.1-1.5,3.3-2.2
		C1121.7,259.8,1122.5,261.4,1123.7,262.6z"/>
	<g class="st3">
		<path class="st4" d="M1091.5,240.6c0.4,2.5,1.5,4.9,3.3,6.7c0.9,1,2,1.7,3.2,2.3c1.3,0.7,2.7,1,4.2,0.9c0.8,0,1.5-0.7,1.5-1.5
			c0-0.7-0.7-1.6-1.5-1.5h-1c-0.1,0-0.3-0.1-0.4-0.1c-0.3-0.1-0.5-0.2-0.8-0.3l-0.4-0.2c0.2,0.1-0.1,0-0.1-0.1c-1-0.4-1.8-1-2.5-1.8
			c-0.2-0.2-0.3-0.4-0.5-0.6l-0.1-0.1l-0.2-0.4c-0.3-0.4-0.5-0.9-0.8-1.3c-0.1-0.1-0.1-0.2-0.2-0.4c0.1,0.3,0-0.1-0.1-0.2
			c-0.1-0.2-0.2-0.5-0.2-0.7c-0.2-0.6-0.3-1.1-0.4-1.7c-0.2-0.8-1-1.2-1.8-1C1091.9,238.9,1091.4,239.7,1091.5,240.6L1091.5,240.6z"
			/>
	</g>
	<g class="st5">
		<path class="st4" d="M1086.2,245.5c1,5,3.9,9.9,8.9,11.6c2.5,0.8,5.2,0.5,7.4-0.9c1.2-0.6,2.1-1.7,2.6-3c0.3-1.4-0.1-2.8-0.9-3.9
			c-0.4-0.7-1.4-0.9-2.1-0.5c-0.7,0.4-1,1.3-0.6,2c0,0,0,0.1,0.1,0.1c0.4,0.5,0.9,1.2,0.5,1.9c-0.5,0.6-1.2,1.1-1.9,1.3
			c-1.7,0.7-3.5,0.6-5.1-0.3c-3.5-1.9-5.2-5.4-6-9.1c-0.2-0.8-1-1.2-1.8-1c-0.8,0.1-1.3,0.8-1.1,1.6
			C1086.2,245.4,1086.2,245.4,1086.2,245.5L1086.2,245.5z"/>
	</g>
	<g class="st3">
		<path class="st4" d="M1095.9,262.2c1.5-0.2,2.9-1.1,3.7-2.4c0.6-1.3,0.1-2.2-0.6-3.3c-0.6-0.6-1.5-0.7-2.2-0.3
			c-0.6,0.3-1.1,0.8-0.7,1.5c0,0.1,0.1,0.1,0.1,0.2s-0.1-0.2-0.1-0.1c0.1,0.1,0.1,0.2,0.1,0.3c0.1,0.2,0.1,0.3,0.1,0.5v-0.2
			c0,0.3,0,0.5-0.1,0.8c0,0.1,0.1-0.3,0.1-0.3s-0.1,0.2-0.1,0.3s-0.1,0.1-0.1,0.2s0.1-0.2,0.1-0.1s-0.1,0.2-0.3,0.3
			s-0.1,0.1,0.1-0.1l-0.2,0.1l-0.2,0.1c-0.2,0.1,0.3-0.2,0.1-0.1c-0.2,0.1-0.3,0.2-0.5,0.3c-0.3,0.2-0.1,0,0.1,0l-0.3,0.1l-0.7,0.3
			c-0.4,0.2-0.8,0.6-1,1c-0.1,0.3-0.2,0.8,0.1,0.8C1094.2,262.3,1095.1,262.3,1095.9,262.2L1095.9,262.2z"/>
	</g>
	<g class="st6">
		<path class="st4" d="M1106.3,244.2c0.1-1.3-0.2-2.6-0.9-3.7c-0.7-1.2-1.8-2.1-3.1-2.6c-0.4-0.1-0.8,0-1.2,0.1
			c-0.3,0.2-0.6,0.5-0.7,0.9c-0.1,0.4,0,0.8,0.2,1.2c0.2,0.3,0.5,0.6,0.9,0.7l0.1,0.1l-0.4-0.2c0.3,0.1,0.7,0.3,0.9,0.6l-0.3-0.2
			c0.3,0.2,0.7,0.6,0.9,0.9l-0.2-0.3c0.3,0.3,0.5,0.7,0.6,1.1l-0.2-0.4c0.2,0.4,0.3,0.8,0.3,1.2v0.7c0,0.4,0.2,0.8,0.4,1.1
			c0.3,0.3,0.7,0.4,1.1,0.4c0.4,0,0.8-0.2,1.1-0.4C1106.1,245.1,1106.3,244.6,1106.3,244.2L1106.3,244.2z"/>
	</g>
	<g class="st5">
		<path class="st4" d="M1110.4,238.2c-3.7,1.7-6.6,4.7-8.2,8.4c-0.7,1.8-0.9,4.5,0.6,6c1.9,1.8,4.2,0.1,5.6-1.4
			c1.8-1.6,3.4-3.5,4.8-5.5c0.4-0.7,0.1-1.6-0.6-2c-0.7-0.4-1.6-0.2-2,0.5c-0.9,1.4-2,2.7-3.2,3.8c-0.6,0.6-1.1,1.2-1.7,1.7
			c-0.3,0.2-0.6,0.4-0.9,0.6l0,0c0,0,0.2,0.1,0.1,0s0.1,0.2,0,0s-0.1-0.1-0.1-0.2l0,0c-0.1-0.2-0.2-0.5-0.1-0.8
			c0-0.7,0.1-1.4,0.4-2.1c0.7-1.4,1.6-2.7,2.7-3.8c1.2-1.2,2.6-2.1,4.2-2.8c0.7-0.4,1-1.3,0.6-2.1c-0.4-0.7-1.3-1-2.1-0.6
			L1110.4,238.2z"/>
	</g>
	<g class="st3">
		<path class="st4" d="M1108.8,250.2c-2.2,2.7-1.5,6.7,0.5,9.4c1.9,2.6,4.8,4.3,8,4.6c0.8,0,1.5-0.7,1.5-1.5s-0.7-1.5-1.5-1.5
			l-1.5-0.3c-0.5-0.1-1-0.3-1.4-0.6c-1-0.5-1.9-1.3-2.5-2.2l-0.1-0.1c0,0-0.2-0.2-0.2-0.3c-0.2-0.3-0.3-0.6-0.5-0.9
			c-0.2-0.5-0.4-1-0.5-1.5c-0.3-0.9-0.1-2,0.4-2.8c0.6-0.6,0.6-1.5,0.1-2.1c0,0,0,0-0.1-0.1c-0.4-0.7-1.3-0.8-2-0.4
			C1108.9,250.1,1108.9,250.1,1108.8,250.2L1108.8,250.2z"/>
	</g>
	<path class="st1" d="M1295.9,480.7c-39.7-2.4-65.7,6.1-115.9-1.1c-2.6-0.4-4.4-2.8-4.2-5.4c4.8-41.8,0.2-87.6,22.1-125
		c0.9-1.5,2.5-2.4,4.3-2.4c25.7,0.5,50,9.5,75.4,12c2.6,0.3,4.6,2.6,4.4,5.3c0,0.2,0,0.3-0.1,0.5c-8,41.1,8.9,72.5,18.8,110
		c0.7,2.6-0.8,5.3-3.4,6C1296.8,480.7,1296.4,480.7,1295.9,480.7z"/>
	<path class="st1" d="M1204.8,336.8c-4.5-6.6-33.4-32.2-39.4-34.6c-8.6,12.1-17.8,23.8-27.7,34.9c-1.2,1.4-1.6,3.1,0.3,4.7
		c15,12.5,32.7,20.5,50.6,27.7c2.5,1,4.3,0,5-2.3c2.8-8.8,4.7-19.1,10.3-26.2C1205.6,339,1205.4,337.6,1204.8,336.8z"/>
	<g class="st7">
		<path class="st8" d="M1165.6,302c-8.7,12.3-18.1,24.1-28.1,35.3"/>
	</g>
	<path class="st1" d="M1267.9,360.6c6.2-5,41.2-21.3,47.6-21.9c4.8,14.1,10.3,27.9,16.5,41.4c0.8,1.7,0.7,3.4-1.6,4.4
		c-17.9,7.6-37.2,10.3-56.4,12.1c-2.7,0.3-4.1-1.2-4.2-3.6c-0.2-9.2,1-19.7-2.4-28C1266.6,362.5,1267.1,361.2,1267.9,360.6z"/>
	<path class="st9" d="M1153.4,352.9c4.4,2.3,8.6,4.9,13.1,6.9c6.8-15.9,10.8-26.1,25.4-36.3c-3.8-3.4-7.7-6.8-11.6-10.1
		C1169.4,325.7,1160.4,337.9,1153.4,352.9z"/>
	<path class="st9" d="M1300,343.9c-2.9,1.5-6.1,2.5-9,3.9c-2.3,1-4.2,2.4-6.4,3.5c-1.4,20.5-3.2,25.9,11.5,42.6
		c0.4-0.1,0.8-0.1,1.2-0.1c0.2,0,0.4,0,0.6,0.1c2.3-0.6,4.6-1,6.9-1.5c0.5-0.1,1-0.2,1.5-0.4c0.8-0.2,1.5-0.4,2.3-0.5l2-0.3
		C1300.1,371.2,1298.8,366.7,1300,343.9z"/>
	<path class="st9" d="M1284.2,418.4c-0.8-4.7-2.1-9.2-2.8-14c-36.3,4.9-64.1-7.2-98.7-11.5c-1.9,5.8-1.5,11.9-2.4,17.8
		C1217.5,416.8,1246,422.4,1284.2,418.4z"/>
	<path class="st9" d="M1293.2,448.9c-1.7-5.2-3.5-10.2-4.8-15.5c-44.8,6.5-66.5,2.2-109.2-7c-2.2,6.4-1.1,13.2-1.8,19.9
		C1210.4,451,1259.7,459,1293.2,448.9z"/>
	<path class="st9" d="M1301,474.9c-1-3.6-2-7.1-3.1-10.6c0-0.1,0-0.1-0.1-0.1c-0.5-0.5-0.9-1-1.3-1.6c-1.1-0.6-2.1-1.4-2.9-2.4
		c-2.5-0.1-4.8-1.4-6.3-3.4c-4.7,2-10.3,2.4-15.1,2.2c-5.9-0.3-11.8-0.2-17.7-0.3c-7.5-0.1-15,0.6-22.4,1
		c-8.8,0.5-17.6,0.1-26.3-1.1l4.4,0.6c-4.3-0.5-8.7-1.2-13-1.8c-1.1,3.8-4.6,6.5-8.6,6.6c-1.3,0-2.5-0.3-3.7-0.8
		c-0.9,0.4-1.9,0.5-2.9,0.5c-0.6,0-1.2-0.1-1.8-0.2h-0.3c-0.3,0-0.7,0-1-0.1l-0.5,0.1c-0.5,0.3-1,0.5-1.5,0.7l-0.1,0.1v0.5l-0.9,9.3
		c-0.2,2.6,1.6,5,4.2,5.4c50.2,7.2,76.3-1.1,116,1.3c2.7,0.1,4.9-2,5-4.6c0,0,0,0,0-0.1C1301.2,475.7,1301.1,475.3,1301,474.9z"/>
	<path class="st1" d="M1297.8,463.9c-0.1-0.1-0.1-0.2-0.1-0.3c-0.1-0.2-0.2-0.3-0.3-0.5c-0.2-0.2-0.3-0.5-0.4-0.8
		c-0.4-0.3-0.7-0.8-0.7-1.4c-0.2-0.1-0.4-0.3-0.5-0.6c-0.3-0.7-0.7-1.5-1-2.2c0-0.1-0.1-0.2-0.1-0.3c-1.3-0.6-2.4-1.4-3.3-2.5
		c-5.2,2-11.4,2.4-16.7,2.2c-6.5-0.3-13-0.2-19.6-0.3c-8.3-0.1-16.5,0.6-24.8,1c-9.7,0.5-19.5,0.1-29.1-1.1l4.9,0.6
		c-4.8-0.5-9.6-1.2-14.4-1.8c-1.1,3.7-5.2,6.6-9.5,6.6c-1.4,0-2.8-0.3-4.1-0.8l-0.5,0.1c0,0.8-0.3,1.7-0.7,2.4v0.2
		c37.8,6.3,70.2,10,121.1-0.3L1297.8,463.9z"/>
	
		<ellipse transform="matrix(0.2495 -0.9684 0.9684 0.2495 588.9706 1456.0685)" class="st9" cx="1233.9" cy="348" rx="20.8" ry="36.9"/>
	<path class="st2" d="M1392.5,202.3c-2.8,9.3-9.3,14-18.2,14.7c-2.4,0.3-4.9-0.2-7-1.4c-34.1,49.4-68.4,98.8-105.1,145l-0.4,0.6
		l-0.3,0.3c-5.6,5.2-23.8,0.7-28.2-0.4c-4.7-1.2-29.2-13.3-27.9-19.1l0,0c5.2-21.6,9.4-43.4,14.1-65.1c12.5,2.9,25.2,1.3,37.8-0.1
		c0.3-0.1,0.7-0.2,1-0.3c0.2-0.1,0.4-0.1,0.6-0.1c6.2-0.9,11.9-3.8,16.9-7.1c5.2-3.5,9.7-7.8,13.5-12.8c3.5-3.2,5.9-7.3,6.9-11.9
		c0.3-0.6,0.4-1.3,0.3-1.9c-0.1-0.4-0.2-0.8-0.5-1.2c-0.1-0.3-0.3-0.5-0.5-0.7c-0.1-0.2-0.3-0.3-0.5-0.2c0,0,0,0,0,0h-0.3
		c-0.7-0.1-1.3-0.1-2,0.1c-0.1,0-0.1,0-0.2,0.1l-0.4,0.1h-0.2l-0.5,0.1c-1.4,0.3-2.8,0.8-4.1,1.6c-2.7,1.1-5.3,2.3-8,3.3
		c-4.5,1.5-9.2,2.5-13.9,3c-0.3,0-0.6,0-0.9,0.1h-0.1c-2.6,0.5-5.3,0.7-8,0.8c-2.2,0.2-4.4,0.6-6.7,0.6c-4.2,0.1-8.3,0-12.5-0.1
		c-1.6-0.1-3.1-0.1-4.7-0.3c-2.2-0.1-4.3-0.4-6.5-0.7h-0.5c13.8-64.1,27.7-128.4,47.9-190.9c56,16.3,111.6,34,166,55.2
		c-18.3,25-36.2,50.6-54,76.2C1390.5,191.3,1394.3,196.4,1392.5,202.3z"/>
	<path class="st2" d="M1261.9,361.2l-0.3,0.3l0,0L1261.9,361.2z"/>
	<path class="st1" d="M1273.7,145.3c-5.4,18.5-17.6,31.1-37,26.9s-25.8-21-21-38.6s17.6-28.3,37.1-29.1S1279.1,126.8,1273.7,145.3z"
		/>
	
		<linearGradient id="SVGID_00000131327248412528519410000001511275928292967304_" gradientUnits="userSpaceOnUse" x1="1239.38" y1="929.1708" x2="1250.1801" y2="929.1708" gradientTransform="matrix(1 0 0 -1 -3.000000e-02 1080.02)">
		<stop  offset="0.11" style="stop-color:#3A6A00"/>
		<stop  offset="0.28" style="stop-color:#2A6100"/>
		<stop  offset="0.44" style="stop-color:#125500"/>
		<stop  offset="0.77" style="stop-color:#33BF00"/>
	</linearGradient>
	<path style="fill:url(#SVGID_00000131327248412528519410000001511275928292967304_);" d="M1239.5,150c0.6-3.9,3.5-6.6,6.4-6.1
		s4.8,4,4.2,7.8s-3.5,6.6-6.4,6.1S1238.9,153.9,1239.5,150z"/>
	<ellipse class="st1" cx="1245.4" cy="149.8" rx="1.3" ry="1.9"/>
	<path class="st2" d="M1264.1,222.8c-15.7-1.1-37.6-3.6-53.3-5.6c-13.9-1.7-19.4-5.2-20.3-17.9c-0.6-8.9,2.3-17.8,6.2-25.3
		c5.5-10.8,10.4-13.3,23.3-11.9c14.6,1.6,33.8,3.2,48.3,5.2c12.8,1.8,21,5.7,22,18.1c0.8,8.7,0.7,15.6-1.7,24.1
		C1285.1,221.7,1278,223.7,1264.1,222.8z"/>
	<path class="st1" d="M1293.4,168.2c-3.3,12.6-17.2,20.6-29.6,12.6s-11.8-19.9-7.3-31.1s19-19.6,29.2-12.7
		S1296.7,155.6,1293.4,168.2z"/>
	
		<linearGradient id="SVGID_00000170254637432199405150000001571450525617627071_" gradientUnits="userSpaceOnUse" x1="1267.25" y1="918.57" x2="1276.98" y2="918.57" gradientTransform="matrix(1 0 0 -1 -2.000000e-02 1080.02)">
		<stop  offset="0" style="stop-color:#1EBF00"/>
		<stop  offset="1.000000e-02" style="stop-color:#125500"/>
		<stop  offset="0.16" style="stop-color:#188C00"/>
		<stop  offset="0.9" style="stop-color:#2A6100"/>
		<stop  offset="0.98" style="stop-color:#32B200"/>
	</linearGradient>
	<path style="fill:url(#SVGID_00000170254637432199405150000001571450525617627071_);" d="M1267.3,160.7c0.6-3.8,3.2-6.5,5.8-6.1
		s4.3,3.8,3.7,7.6s-3.2,6.5-5.8,6.1S1266.8,164.4,1267.3,160.7z"/>
	
		<ellipse transform="matrix(0.4373 -0.8993 0.8993 0.4373 571.3837 1234.6448)" class="st1" cx="1272.3" cy="160.7" rx="1.7" ry="1.1"/>
	<line class="st12" x1="1377.7" y1="192.3" x2="1382" y2="202.9"/>
	<text transform="matrix(1 0 0 1 1374.21 208.89)" class="st4 st13 st14">3</text>
	<ellipse class="st15" cx="1327.9" cy="85.2" rx="24.8" ry="25"/>
	<circle class="st15" cx="1357.5" cy="95.3" r="22.9"/>
	
		<ellipse transform="matrix(0.263 -0.9648 0.9648 0.263 868.606 1313.7853)" class="st15" cx="1294.3" cy="88.3" rx="22.4" ry="25.2"/>
	<circle class="st15" cx="1268.7" cy="72.6" r="19.4"/>
	<ellipse class="st15" cx="1378.2" cy="102.5" rx="18.1" ry="24.8"/>
	<ellipse class="st15" cx="1400.9" cy="109.9" rx="15.7" ry="6.7"/>
	<ellipse class="st15" cx="1421.9" cy="144.6" rx="21.3" ry="17.3"/>
	<ellipse class="st15" cx="1403.3" cy="100.1" rx="31.4" ry="18.1"/>
	<ellipse class="st15" cx="1438.5" cy="120.9" rx="20.8" ry="18.1"/>
	<ellipse class="st15" cx="1409.2" cy="119.5" rx="21.3" ry="17.3"/>
	
		<ellipse transform="matrix(0.2094 -0.9778 0.9778 0.2094 938.6114 1329.4167)" class="st16" cx="1291.5" cy="84.2" rx="14.1" ry="15.5"/>
	<ellipse class="st17" cx="1341.5" cy="89.9" rx="18.7" ry="12.3"/>
	<circle class="st16" cx="1394.5" cy="106.7" r="14.7"/>
	<ellipse class="st17" cx="1281.2" cy="73.2" rx="12.8" ry="13.1"/>
	<circle class="st18" cx="1326.3" cy="81.2" r="8.3"/>
	<ellipse class="st19" cx="1438.2" cy="118.7" rx="15.7" ry="12.8"/>
	<path class="st15" d="M1274,55c0-10.7,8.7-19.5,19.4-19.5c10.7,0,19.5,8.7,19.5,19.5"/>
	
		<ellipse transform="matrix(0.2613 -0.9652 0.9652 0.2613 884.1883 1302.829)" class="st15" cx="1293.3" cy="73.7" rx="22.3" ry="25"/>
	
		<ellipse transform="matrix(0.263 -0.9648 0.9648 0.263 928.4551 1316.656)" class="st15" cx="1326.1" cy="50.6" rx="22.4" ry="25.2"/>
	
		<ellipse transform="matrix(0.263 -0.9648 0.9648 0.263 926.9973 1358.5282)" class="st15" cx="1352.7" cy="72.5" rx="22.4" ry="25.2"/>
	
		<ellipse transform="matrix(0.263 -0.9648 0.9648 0.263 957.1333 1354.1851)" class="st15" cx="1365" cy="50.6" rx="22.4" ry="25.2"/>
	
		<ellipse transform="matrix(0.263 -0.9648 0.9648 0.263 968.097 1390.6049)" class="st15" cx="1394.3" cy="61.6" rx="22.4" ry="34.6"/>
	
		<ellipse transform="matrix(0.263 -0.9648 0.9648 0.263 964.3442 1429.4033)" class="st15" cx="1417.8" cy="83.5" rx="11.4" ry="7.8"/>
	
		<ellipse transform="matrix(0.263 -0.9648 0.9648 0.263 970.2089 1461.2289)" class="st15" cx="1441.6" cy="95.6" rx="19.7" ry="18"/>
	
		<ellipse transform="matrix(0.2613 -0.9652 0.9652 0.2613 966.6741 1437.4279)" class="st15" cx="1422.5" cy="87.1" rx="12.5" ry="9.9"/>
	<ellipse class="st20" cx="1379.6" cy="76.6" rx="16.8" ry="11.7"/>
	<circle class="st21" cx="1336.7" cy="69.2" r="14.4"/>
	
		<ellipse transform="matrix(0.3401 -0.9404 0.9404 0.3401 795.5555 1264.4905)" class="st22" cx="1298.7" cy="65.4" rx="11.2" ry="15.2"/>
	<circle class="st22" cx="1412.9" cy="81.9" r="17.6"/>
	<ellipse class="st23" cx="1377.4" cy="55" rx="14.7" ry="9.9"/>
	<ellipse class="st24" cx="1382.8" cy="115.3" rx="17.8" ry="12"/>
	<circle class="st25" cx="1417.4" cy="144" r="13.6"/>
	<ellipse class="st21" cx="1324.4" cy="40.7" rx="18.1" ry="9.9"/>
	<ellipse class="st21" cx="1263.1" cy="70.5" rx="9.6" ry="12.5"/>
	
		<ellipse transform="matrix(0.5931 -0.8051 0.8051 0.5931 480.9309 1128.9053)" class="st21" cx="1357.4" cy="88.6" rx="9.6" ry="12.5"/>
	
		<ellipse transform="matrix(0.9973 -7.376038e-02 7.376038e-02 0.9973 0.7107 100.4416)" class="st21" cx="1360.2" cy="40.6" rx="12.5" ry="9.6"/>
	
		<ellipse transform="matrix(0.263 -0.9648 0.9648 0.263 908.3673 1309.7354)" class="st15" cx="1311.5" cy="60.3" rx="14.6" ry="20.5"/>
	
		<ellipse transform="matrix(0.263 -0.9648 0.9648 0.263 930.1018 1348.7179)" class="st15" cx="1347.9" cy="65.5" rx="14.6" ry="20.5"/>
	
		<ellipse transform="matrix(0.263 -0.9648 0.9648 0.263 957.6547 1377.3678)" class="st15" cx="1380.4" cy="61.8" rx="14.6" ry="20.5"/>
	
		<ellipse transform="matrix(0.263 -0.9648 0.9648 0.263 926.7291 1412.5083)" class="st15" cx="1387.9" cy="99.7" rx="14.6" ry="20.5"/>
	
		<ellipse transform="matrix(0.263 -0.9648 0.9648 0.263 952.4984 1423.7827)" class="st15" cx="1408.2" cy="88.4" rx="14.6" ry="20.5"/>
	
		<ellipse transform="matrix(0.263 -0.9648 0.9648 0.263 928.7795 1472.7301)" class="st15" cx="1428.4" cy="128.4" rx="14.6" ry="20.5"/>
	
		<ellipse transform="matrix(0.263 -0.9648 0.9648 0.263 889.1521 1341.032)" class="st15" cx="1322.4" cy="88.5" rx="14.6" ry="20.5"/>
	<path class="st26" d="M1294.5,248.8c0.2-1,0.8-2,1.1-3c0.1-0.5,0.3-0.9,0.4-1.4c0-1.2-0.1-2.3-0.4-2.4c-0.7-0.3-3.2,0.7-4.1,0.8
		c-3.8,0.5-7.7,1.3-11.4,2.3c-3.8,1.2-7.6,2.6-11.4,3.6c-3.7,0.8-7.4,1.3-11.1,1.6c-0.7,0.1-1.5-0.1-2-0.7
		c-7.8,4.5-15.1,15.1-22.3,21.9c-1,0.9-8,6.6-9.4,8.4c3.6,0.1,6.9,0.4,10.8,0.2c3.7,0,7.4-0.3,11-0.9c0.7,0,1.4-0.2,2.1-0.4
		c6.8,0,29.5-7.2,32-9.9c5.4-5.8,10.2-12.2,14.4-19C1294.2,249.5,1294.3,249.1,1294.5,248.8z"/>
	<path class="st27" d="M1271.4,258.4c-7.1,3.1-13.6,7.5-19.1,13c-1.3,1.3-2.4,4.8-4,6.2c0,0.3-0.3,0.7,0,0.8
		c0.9,0.2,1.8,0.3,2.7,0.3c0.2,0,0.4,0,0.6-0.1h1.1c4.9-0.7,9.7-1.9,14.4-3.4c0.5-0.1,0.9-0.2,1.3-0.3c2.4-0.8,4.9-1.8,7.2-2.9
		l0.3-0.1c1.9-1.2,3.7-2.5,5.4-4c1.7-1.8,3.2-3.7,4.7-5.7c1.3-1.7,2.5-3.4,3.7-5.2c0.1-0.1,0.1-0.2,0.1-0.3
		C1283.6,255.2,1277.2,255.8,1271.4,258.4z"/>
	<path class="st1" d="M1296.2,242.7c0-0.4-0.1-0.9-0.1-1.3l-0.2-0.3l-0.2-0.4c-0.1-0.2-0.5-0.6,0,0c-0.2-0.2-0.4-0.5-0.5-0.8
		c-0.5-0.3-1.1-0.6-1.7-0.7c-0.2,0.1-0.4,0.1-0.6,0.1c-27.3,10.1-33.4,9.8-64.1,10.3c-0.2,2.2,0.7,4.6,0.8,6.9
		c30.7,1.7,38.8-3,66.2-12.4c0-0.2,0.1-0.3,0.1-0.5C1296,243.3,1296.1,243,1296.2,242.7z"/>
</g>
<g id="Layer_20">
	<path class="st28" d="M713.4,272.1c33.7,38.9-23.8,56.3-34.9,98.7s-53.9-67.5-58.5-89.4s11-53.4,43-50.8S679.7,233.2,713.4,272.1z"
		/>
	<path class="st28" d="M663.6,273.4c12.5,27.2,2.5,27.3,6.9,48.9s-20.1,3.8-39.4-13.2s-22-150.2,18-121S651.1,246.1,663.6,273.4z"/>
	<path class="st28" d="M674.5,397.4c-3.4,5.3-16.2,13.5-21.6,12.5s11.4-18.8,12.9-23.2s0.8-12.8,7.5-8.7S677.9,392,674.5,397.4z"/>
	
		<ellipse transform="matrix(0.9973 -7.341226e-02 7.341226e-02 0.9973 -26.1295 50.3013)" class="st29" cx="671.2" cy="380.6" rx="7" ry="8"/>
	<path class="st28" d="M806,283.4c-0.6,39.9,2.7,113.8-16.8,92.2s-90.4-77-83.3-103.4s30.5-65.5,65.6-58.8S806.6,243.5,806,283.4z"
		/>
	<path class="st28" d="M800,170c9.5-1.5,20.8,43.4,11.6,94.9s-24.8,113.8-38.2,60.3s0.9-73.2,6.2-83.1S790.5,171.4,800,170z"/>
	<path class="st28" d="M803.8,393.7c-1,7.3-11.1,24.4-9.9,11.6s0.2-8.7-0.9-15.9s-4.9-12.2,2.3-12.9S804.8,386.4,803.8,393.7z"/>
	
		<ellipse transform="matrix(0.9973 -7.341226e-02 7.341226e-02 0.9973 -25.3475 59.3731)" class="st30" cx="795" cy="374.5" rx="8" ry="8.1"/>
	<path class="st2" d="M853.2,282.1c-35.8,14.2-71.2,34.6-108.1,49.1c-2.1,0.8-0.6,4.5,0.7,6c0.8,0.9,4.2,5.2,4.5,6.4
		c0.5,2,2.8,5.2,4.9,3.9c36-23.6,59.4-32.3,96.3-50.3c2.1-1,1.6-3.1,1.6-4.9c0.2-1.8,0.9-3.4,1.9-4.9
		C856.4,285.7,855.3,281.3,853.2,282.1z"/>
	<path class="st2" d="M843,288.8c3.4-1.4,6.3-3.7,9.8-4.7c1.3-9.6,7.5-15.3,13-28.9c-3-1-5-3.3-7.5-5.1
		C853.4,261.7,835,278.2,843,288.8z"/>
	<path class="st2" d="M858.2,250.4c-1.1,2.3-3.7,6.7,0.1,8.2s8-1.8,8-5s1.4-7.5-1.4-9S859.3,248.1,858.2,250.4z"/>
	<path class="st2" d="M863.5,268.6c-7.4,0.7-10.7,2.7-16.1,6.5c-2.3,1.8-4.5,3.9-6.3,6.2c0,1.1-0.2,2.2-0.1,3.4
		c-0.1,1.2-0.7,2.2-1.7,2.8c-1,0.6-2.1,1.2-3.2,1.7c-0.1,0.1-0.2,0.2-0.4,0.3c-2.2,4.8-1.7,8.9,5.7,8.7c16.2-0.4,39.4,2.1,56.6-3.3
		S870.9,267.8,863.5,268.6z"/>
	
		<rect x="639" y="224.3" transform="matrix(0.743 -0.6693 0.6693 0.743 -33.1596 508.7892)" class="st2" width="13.9" height="146.5"/>
	<path class="st2" d="M543.2,234c-0.8,8.3,25.3,8.9,34.8,10.7s21.5,10.9,25.2,2.1s-8-13.9-16.4-23S543.9,225.7,543.2,234z"/>
	<path class="st2" d="M587.5,219.7c-13.8,6.2-13.9,6.4,2.1,16.8s7-7.6,9.4-12.2s14.4-13.2,7.3-21.1S601.3,213.5,587.5,219.7z"/>
	<path class="st29" d="M795.9,484.6c-35.9,20.6-60.8,23-100.6,29.5c-3.9,0.6-6.6-1.4-7.3-5.3c-14-69.6-7.5-110.8,5.4-179.8
		c0.7-3.7,3.5-5.4,6.9-5.4c14.7,0.2,29.8-0.3,44.4-0.7c4.6-0.1,7,2.2,7.2,6.7c2.9,55.4,26.6,96.5,46.8,146.1
		C800.5,480.2,799.2,482.7,795.9,484.6z"/>
	<path class="st31" d="M736.7,336.8c-2.7,1.6-4.5,2.7-7.8,3.3c-8.1,1.4-15.7,0.4-22.8-4.3c-2.9-2.5-4.6-4.1-3.9-8.9
		s6.5-10.4,11.8-10.4c3.5,0,0.4,4.8-0.4,6.3c-0.1,0.4-0.1,0.7-0.1,1.1c0.2,0.2,0.5,0.4,0.7,0.5c2,1.2,2.4,3.1,4.9,4.1
		c4.3,1.6,9.1,1.3,13.2-0.9c0.3-0.8,0.4-1.7,0.3-2.5c-0.7-2.5-6.1-10.9-1.3-11.3c5.1-0.4,9.7,2.9,11,7.8
		C744,327.1,741.9,333.8,736.7,336.8z"/>
	<path class="st31" d="M712.8,326.8l-0.9-0.6v-1.3c0.2,0.3,0.3,0.6,0.4,0.9C712.3,326.1,712.7,326.4,712.8,326.8z"/>
	<path class="st2" d="M811.6,189.2c-13.6,44.8-55.5,92.1-110.7,82.9s-77.9-53-74.7-94s25.7-103.5,74.5-120.9
		S825.2,144.4,811.6,189.2z"/>
	<path class="st2" d="M727.5,330c-2.2,0.1-6.3,0.2-8-0.7c-3.9-2-6.3-2.6-6.3-7.9c-0.2-18.4-2.8-39.6-2.6-57.8
		c0.1-5.2,1.9-5.6,5.3-6.4c1.5-0.3,3-0.4,4.5-0.1c3.6,0.5,5,0.3,6.2,5.5c4.4,18.3,1.6,42.1,6.5,59.2
		C734.6,326.8,732.5,329.7,727.5,330z"/>
	<path class="st28" d="M632.6,89.2c-20.3,24.5-17.4,53.6-19.9,76s62.8-39,73-49.9s50.1-77.5,28-81.5S653,64.7,632.6,89.2z"/>
	<path class="st32" d="M786.2,71c17,15.6,28.9,56.2,28.9,72.4s-63.4-23.4-74-29s-56-60.2-37.3-77.3S769.2,55.4,786.2,71z"/>
	<path class="st33" d="M694.1,159.4c0,0.3,0,0.5-0.1,0.8c-0.1,0.1-0.1-0.4-0.1-0.5s-0.2-0.4-0.1-0.5S694.1,159.3,694.1,159.4z"/>
	<path class="st33" d="M646.9,151.1c-4.1,3.5-7,6.9-8.2,12.3"/>
	<path d="M644.3,162.1c3,3.3,2.8,4.1-0.4,8s-14.6-3-17.5-10.9s0.1-5.3,5.1-2.7S641.3,158.7,644.3,162.1z"/>
	
		<ellipse transform="matrix(0.9973 -7.341226e-02 7.341226e-02 0.9973 -10.4824 49.4029)" class="st1" cx="666.8" cy="167.3" rx="28.1" ry="23.4"/>
	<path class="st33" d="M638.7,163.6c8.9-25.1,42-26.6,55.3-4.3"/>
	
		<linearGradient id="SVGID_00000134232162708673142810000006710312968202403492_" gradientUnits="userSpaceOnUse" x1="655.7891" y1="910.56" x2="681.9591" y2="910.56" gradientTransform="matrix(1 0 0 -1 -1.000000e-02 1080.01)">
		<stop  offset="0.15" style="stop-color:#7F4300"/>
		<stop  offset="0.36" style="stop-color:#7F4D00"/>
		<stop  offset="0.48" style="stop-color:#7F4E00"/>
		<stop  offset="0.77" style="stop-color:#553B00"/>
	</linearGradient>
	<path style="fill:url(#SVGID_00000134232162708673142810000006710312968202403492_);" d="M668,157.7c7.2-0.5,13.5,4.3,13.9,10.8
		s-5,12.2-12.2,12.7s-13.5-4.3-13.9-10.8S660.8,158.3,668,157.7z"/>
	
		<ellipse transform="matrix(0.9976 -6.982913e-02 6.982913e-02 0.9976 -10.1541 46.7518)" class="st1" cx="663.6" cy="168.6" rx="3.2" ry="4"/>
	<path class="st33" d="M735,156.5c0,0.5,0.3,1.7-0.2,2s-0.7-1.2-0.8-1.6s0.2-1.9,0.7-1.8S735,156,735,156.5z"/>
	<path d="M778.1,148.5c-2.5,3.7-2.2,4.4,1.6,7.9s14-5.1,15.7-13.3s-0.8-5.2-5.4-1.9S780.6,144.8,778.1,148.5z"/>
	
		<ellipse transform="matrix(0.9973 -7.341226e-02 7.341226e-02 0.9973 -9.7115 56.3875)" class="st1" cx="762.2" cy="160.3" rx="28.1" ry="23.4"/>
	<path class="st33" d="M789.5,152.5c-12.5-23.5-45.5-20.2-55.4,3.8"/>
	
		<linearGradient id="SVGID_00000111149565148281205080000006261279774429877950_" gradientUnits="userSpaceOnUse" x1="747.41" y1="917.25" x2="773.59" y2="917.25" gradientTransform="matrix(1 0 0 -1 0 1080)">
		<stop  offset="8.000000e-02" style="stop-color:#7F4300"/>
		<stop  offset="0.3" style="stop-color:#7F4D00"/>
		<stop  offset="0.53" style="stop-color:#7F4E00"/>
		<stop  offset="0.8" style="stop-color:#553B00"/>
	</linearGradient>
	<path style="fill:url(#SVGID_00000111149565148281205080000006261279774429877950_);" d="M759.6,151c7.2-0.5,13.5,4.3,13.9,10.8
		s-5,12.2-12.2,12.7s-13.5-4.3-13.9-10.8S752.4,151.6,759.6,151z"/>
	<ellipse transform="matrix(0.1666 -0.986 0.986 0.1666 483.0121 891.0267)" class="st1" cx="768.6" cy="159.8" rx="3.5" ry="2.6"/>
	<g class="st36">
		<path class="st37" d="M711.4,189.6c-6.3,4.1-4.1,3.6-9.3,8.5"/>
	</g>
	<g class="st38">
		<path class="st37" d="M709.4,189.3c1.6,2.8,3.2,5.5,4.7,8.3"/>
	</g>
	<path class="st1" d="M751.3,224.6c-7.6,11.9-23.7,35.6-40.1,36.5s-40.8-42.3-29.9-32.1s26.2,14.5,37.1,13.3
		S758.9,212.7,751.3,224.6z"/>
	<g class="st39">
		<path class="st40" d="M673.9,229.8c1.8-4.9,3.4-6,9.1-6.6"/>
	</g>
	<g class="st41">
		<path class="st40" d="M747.9,218.2c5.5-0.7,7.1,0.4,10,5.6"/>
	</g>
	<path class="st2" d="M863.1,268.4c4.3-0.1,8.2,2.1,3.7,4.5s-5.4-0.3-7.3-0.9s-6.4-3.5-4.8-5.1S858.8,268.5,863.1,268.4z"/>
	<g class="st42">
		<path class="st4" d="M899.7,285.3c-7.2-2.3-14.6-4.2-22-5.7c-1.9-0.4-2.7,2.5-0.8,2.9c7.4,1.5,14.8,3.4,22,5.7
			C900.8,288.8,901.6,285.9,899.7,285.3z"/>
	</g>
	<g class="st43">
		<path class="st4" d="M900.9,292l-24-3.4c-0.8-0.2-1.6,0.2-1.8,1c-0.2,0.8,0.2,1.6,0.9,1.8c0,0,0,0,0.1,0l24,3.4
			c0.8,0.2,1.6-0.2,1.8-1C902.1,293,901.7,292.2,900.9,292C900.9,292,900.9,292,900.9,292z"/>
	</g>
	<g class="st6">
		<path class="st4" d="M852,286.5c2.2-2.5,5.3-3.7,8.6-4.3c1.7-0.3,3.4-0.5,5.2-0.7c1.6-0.3,3.2-0.1,4.7,0.5
			c1.7,0.9,3.2-1.7,1.5-2.6c-3.6-1.8-8.1-0.9-11.8-0.2s-7.7,2.1-10.3,5.1C848.6,285.9,850.7,288,852,286.5z"/>
	</g>
	<g class="st43">
		<path class="st4" d="M549.4,240c6.9-1.3,13.8-2,20.8-2.2c0.8,0,1.5-0.7,1.5-1.5s-0.7-1.5-1.5-1.5c-7.3,0.2-14.5,0.9-21.6,2.3
			C546.7,237.5,547.5,240.4,549.4,240z"/>
	</g>
	<g class="st43">
		<path class="st4" d="M545.9,234.4c7.5-3.8,16.3-3.8,24.5-3.7c0.8,0,1.5-0.7,1.5-1.5s-0.7-1.5-1.5-1.5c-8.8-0.1-18,0-26,4.1
			C542.7,232.6,544.2,235.2,545.9,234.4L545.9,234.4z"/>
	</g>
	<g class="st43">
		<path class="st4" d="M571.3,221.6c-0.2,2.8,0,5.6,0.7,8.3c0.2,0.8,1,1.3,1.8,1.1c0.8-0.2,1.3-1,1.1-1.8v-0.1
			c-0.2-0.6-0.3-1.3-0.4-1.9c0-0.1,0-0.3-0.1-0.4v-0.3c0-0.3-0.1-0.6-0.1-1c-0.1-1.3-0.1-2.6,0-3.9c0-0.8-0.7-1.5-1.5-1.5
			S571.3,220.8,571.3,221.6L571.3,221.6z"/>
	</g>
	<g class="st43">
		<path class="st4" d="M574.5,232.6c2.7,0.2,5.4,0.7,8,1.7c2.1,0.8,4.7,1.8,5.9,3.8c1,1.6,3.6,0.1,2.6-1.5c-1.6-2.6-4.4-3.9-7.2-4.9
			c-3-1.1-6.1-1.8-9.3-2C572.5,229.4,572.6,232.4,574.5,232.6z"/>
	</g>
	<path d="M641.8,140.3c3.9-4.3,8.5-8.3,14.2-9.9c6.7-1.8,13.6,0.5,20,2.6c1.8,0.6,2.6-2.3,0.8-2.9c-6.9-2.3-14.3-4.6-21.6-2.6
		c-6.2,1.7-11.3,6-15.5,10.6C638.4,139.6,640.5,141.8,641.8,140.3L641.8,140.3z"/>
	<path d="M742,128.7c4.9-4.7,11.2-8.4,18-9.1c7.5-0.7,14,2.8,20.2,6.5c0.7,0.4,1.6,0.2,2.1-0.5c0.4-0.7,0.2-1.6-0.5-2.1c0,0,0,0,0,0
		c-6.8-4-14-7.8-22.1-6.8c-7.5,0.8-14.3,4.8-19.7,9.9C738.5,127.9,740.6,130,742,128.7z"/>
</g>
<path class="st44" d="M1513.9,681c3.1,252.6-356.6,373.5-553.6,371.8s-521.7-98.2-527-342.3s308.2-338.4,511.9-357
	S1510.8,428.4,1513.9,681z"/>
<path class="st45" d="M633.7,396c13.8,1.5,27.7,2.9,41.5,4.3c1.7,19.2,3.5,39,5.2,59.4c14.8-0.2,29.7-0.3,44.5-0.2
	c-1.5-19.2-2.9-37.4-4.4-54.6c13.9,1.4,27.8,2.7,41.6,4.1c3.5,45.5,7,100.5,10.5,165.1c-13.2,0.6-26.3,1.2-39.5,1.9
	c-1.7-26.1-3.4-51.1-5.2-74.8c-14.7,0.5-29.3,1.2-44,2.1c2,24.4,4,49.5,6.1,75.3c-13.1,0.9-26.3,1.9-39.4,3
	C645,519.8,639.3,457.6,633.7,396z"/>
<path class="st45" d="M876.8,420.3c13.8,1.4,27.5,2.8,41.2,4.2c0.5,23.8,1,50.5,1.5,80.1c0.2,8.6-0.9,17.2-3.1,25.6
	c-2.1,8.1-5.7,15.6-10.7,22.3c-4.9,6.6-10,11.5-15.4,14.5c-7.5,4.1-16.6,6.5-27.3,6.8c-6.8,0.2-13.6-0.2-20.3-1.2
	c-6.7-0.8-13.1-3.2-18.7-7c-5.1-3.6-9.8-8.8-14.3-15.6c-4.2-6.3-7.4-13.3-9.5-20.6c-3-11.2-4.8-20.9-5.2-29.1
	c-1.8-33.2-3.6-62.8-5.4-88.8c13.8,1.3,27.5,2.7,41.3,4.1c1.4,25.4,2.8,54.7,4.3,87.7c0.4,8.9,2.7,16.1,6.8,21.3
	c3.9,5.1,10,8.1,16.5,7.9c6.8,0,12.1-2.5,15.8-7.4s5.5-11.8,5.2-20.4C878.7,473.1,877.7,444.9,876.8,420.3z"/>
<path class="st45" d="M947.2,568.2c-0.5-54.2-0.9-101-1.2-140.9c22.9,2.4,45.9,4.8,68.8,7.2c12.8,1.3,22.5,3.4,29.1,6.1
	c6.5,2.5,12,7,15.8,12.8c3.9,5.9,5.7,12.7,5.3,20.5c-0.1,6.2-1.9,12.2-5.3,17.3c-3.4,4.8-7.9,8.7-13.1,11.3
	c-4.5,2.1-9.3,3.4-14.2,4.1c4.7,1.9,8.2,3.7,10.3,5.5c2.3,2.1,4.4,4.5,6.2,7.1c2,2.6,3.8,5.3,5.3,8.2c6,12.6,11.9,24.9,17.7,36.7
	c-14.7,0.6-29.5,1.1-44.2,1.7c-6.7-13.9-13.5-28.1-20.4-42.4c-2.6-5.6-5-9.2-7.1-10.9c-2.8-2.3-6.2-3.6-9.8-3.8l-3.5-0.2
	c-0.1,18.7-0.2,38.3-0.3,58.7C973.4,567.4,960.3,567.8,947.2,568.2z M987,482.7l17,1.5c1.8,0.2,5.4-0.1,10.7-0.8
	c2.6-0.2,5-1.5,6.6-3.4c1.7-2,2.7-4.5,2.7-7.1c0.3-3.7-1.2-7.2-3.8-9.8c-2.7-2.4-7.7-4-15.2-4.8l-17.9-1.9
	C987.1,465,987.1,473.8,987,482.7z"/>
<path class="st45" d="M1084.9,563.5c2-40.2,4-80.3,6.1-120.9c22.9,2.4,45.8,4.8,68.6,7.2c12.7,1.3,22.3,3.3,28.9,5.9
	c6.2,2.4,11.5,6.6,15.1,12.2c3.6,5.5,5,12.2,4.1,18.7c-0.5,5.6-2.7,10.9-6.4,15.2c-3.8,4.3-8.5,7.6-13.8,9.7
	c-4.7,1.8-9.5,3-14.5,3.6c3.5,1,6.9,2.4,10,4.3c2.1,1.6,4.1,3.5,5.8,5.5c1.8,1.9,3.5,4,4.8,6.3c5.3,9.5,10.4,18.3,15.5,26.1
	c-14.7,0.9-29.4,1.7-44.1,2.5c-5.9-9.5-11.9-19.9-18.1-31c-2.3-4.3-4.5-7.3-6.5-8.7c-2.9-1.9-6.2-2.9-9.6-3l-3.5-0.2
	c-1.1,15.3-2.2,30.3-3.3,45C1111,562.4,1097.9,562.9,1084.9,563.5z M1129,495.1c5.7,0.4,11.3,0.9,17,1.3c3.6,0,7.2-0.2,10.8-0.8
	c2.6-0.2,5-1.3,6.9-3c1.8-1.7,2.9-3.9,3.1-6.4c0.5-3.3-0.8-6.6-3.3-8.9c-2.5-2.2-7.5-3.7-14.9-4.4l-17.9-1.7
	C1130.1,479.3,1129.5,487.3,1129,495.1z"/>
<path class="st45" d="M1302.1,539.2c-14.9,0.8-29.8,1.5-44.6,2.1c-2.9,4.6-5.8,9.1-8.6,13.5c-13.3,0.9-26.5,1.7-39.8,2.5
	c20-29.3,40.9-60.9,62.8-96.7c14.9,1.3,29.9,2.5,44.8,3.6c8.5,28.5,18.4,56.5,29.7,83.9c-13.6,1-27.2,2-40.8,2.9
	C1304.4,547.2,1303.3,543.3,1302.1,539.2z M1297.7,522.1c-2.7-10-5.4-21-8.3-33c-6.7,11.7-13.4,22.8-20,33.5
	C1278.8,522.5,1288.3,522.4,1297.7,522.1z"/>
<path class="st45" d="M1377.1,468c13.1,0.7,26.2,1.3,39.4,1.8c-1.7,5.6-3.5,11.2-5.2,16.8c-6,11.4-11.9,23.2-17.7,35
	c-7.8,0.7-15.6,1.4-23.5,2c0.8-11.4,1.6-23.4,2.3-36.1C1374,481.2,1375.6,474.7,1377.1,468z M1362.8,529.3c11.8-0.9,23.6-2,35.3-3.1
	l-5.5,18.4l-34.8,2.5C1359.4,541.4,1361.1,535.5,1362.8,529.3L1362.8,529.3z"/>
<path class="st46" d="M775.1,613.2h32.2c6.3,0,11.5,0.9,15.4,2.6c3.8,1.6,7.1,4.2,9.7,7.4c2.6,3.3,4.5,7.2,5.5,11.2
	c1.2,4.4,1.8,9,1.7,13.6c0,7.5-0.9,13.3-2.6,17.4c-1.6,3.9-4,7.5-7.1,10.4c-2.7,2.6-6.1,4.5-9.8,5.6c-4.2,1.2-8.5,1.8-12.9,1.9
	h-32.2V613.2z M796.8,629v38.3h5.3c4.5,0,7.8-0.5,9.7-1.5c2.1-1.2,3.7-3,4.5-5.3c1.1-2.5,1.6-6.6,1.6-12.2c0-7.4-1.2-12.5-3.6-15.3
	s-6.4-4.1-12.1-4.1H796.8z"/>
<path class="st46" d="M903.3,683.3h-18.2v-8.2c-2.2,2.9-5,5.4-8.2,7.2c-3.2,1.5-6.7,2.3-10.2,2.2c-5.3,0-9.5-1.6-12.6-4.8
	c-3.1-3.2-4.6-8.1-4.6-14.8v-32.4h19.6v28c0,3.2,0.6,5.5,1.8,6.8c1.3,1.4,3.1,2.1,5,2c2.2,0.1,4.3-0.9,5.7-2.7
	c1.5-1.8,2.2-5,2.2-9.6v-24.5h19.5L903.3,683.3z"/>
<path class="st46" d="M942,632.5h20.3l9.9,32.2l10.2-32.2h19.7l-21.6,50.8h-17.2L942,632.5z"/>
<path class="st46" d="M1025.4,648.9l-18.6-2c0.5-2.7,1.5-5.3,3-7.7c1.5-2,3.5-3.7,5.7-4.9c2.3-1.2,4.8-1.9,7.4-2.3
	c3.4-0.6,6.7-0.8,10.2-0.8c4.7-0.1,9.4,0.3,14.1,1c3.3,0.5,6.3,1.9,8.8,4.1c1.8,1.7,3.2,3.8,3.9,6.1c0.9,2.4,1.4,5,1.4,7.5v22.5
	c0,1.9,0.1,3.8,0.4,5.6c0.5,1.8,1.1,3.5,2,5.2h-18.3c-0.6-1-1-2-1.4-3c-0.3-1.1-0.5-2.1-0.7-3.2c-2.2,2.2-4.8,4-7.6,5.3
	c-3.8,1.5-7.9,2.2-12,2.1c-6.1,0-10.7-1.4-13.8-4.2c-3-2.6-4.8-6.4-4.7-10.4c-0.1-3.5,1.1-6.9,3.4-9.5c2.3-2.5,6.4-4.3,12.5-5.5
	c7.3-1.5,12-2.5,14.2-3.1c2.3-0.6,4.6-1.4,6.9-2.3c0-2.4-0.5-4.1-1.5-5c-1-0.9-2.7-1.4-5.2-1.4c-3.2,0-5.6,0.5-7.2,1.5
	C1026.9,645.6,1025.9,647.2,1025.4,648.9z M1042.3,659.2c-2.7,1-5.5,1.8-8.4,2.5c-4,1-6.5,2.1-7.5,3.1c-2,1.9-2.2,5-0.3,7.1
	c0.1,0.1,0.2,0.2,0.3,0.3c1.3,1.1,3,1.6,4.7,1.5c2.1,0,4.2-0.5,6.1-1.6c1.7-0.9,3.1-2.2,4-3.8c0.8-1.9,1.3-3.9,1.2-5.9L1042.3,659.2
	z"/>
<path class="st46" d="M1073,632.5h18.1v8.3c2.2-3,5-5.4,8.2-7.2c3.2-1.5,6.6-2.3,10.1-2.2c5.4,0,9.6,1.6,12.7,4.8
	c3,3.2,4.6,8.2,4.6,14.9v32.3h-19.5v-28c0-3.2-0.6-5.5-1.8-6.8c-1.3-1.4-3.1-2.1-5-2c-2.2-0.1-4.4,0.9-5.7,2.7
	c-1.5,1.8-2.2,5-2.2,9.6v24.4H1073V632.5z"/>
<path class="st46" d="M1191.9,613.2v70.2h-18.2v-7.5c-2.6,3.2-4.9,5.3-7,6.5c-2.9,1.5-6.1,2.2-9.4,2.2c-6.9,0-12.2-2.6-15.9-7.9
	s-5.5-11.7-5.4-19.2c0-8.4,2-14.9,6-19.3c3.9-4.4,9.5-6.9,15.4-6.7c2.8,0,5.6,0.5,8.2,1.5c2.5,1,4.7,2.6,6.6,4.6v-24.3H1191.9z
	 M1172.4,657.8c0-4-0.8-7-2.5-8.9c-1.6-1.9-3.9-3-6.4-2.9c-2.2,0-4.4,1-5.7,2.8c-1.5,1.9-2.3,5.1-2.3,9.5c0,4.2,0.8,7.2,2.4,9.1
	c1.4,1.8,3.6,2.9,5.9,2.9c2.4,0,4.7-1,6.2-2.9C1171.6,665.3,1172.4,662.2,1172.4,657.8z"/>
<path class="st46" d="M1227.3,613.2v19.3h10.7v14.3h-10.7v18c-0.1,1.5,0.1,2.9,0.6,4.3c0.7,1.1,2,1.8,3.3,1.6c2-0.1,4.1-0.5,6-1.2
	l1.4,13.4c-4.4,1-9,1.5-13.5,1.6c-4.9,0-8.4-0.6-10.7-1.9c-2.3-1.2-4.1-3.2-5.1-5.7c-1.1-2.5-1.7-6.6-1.7-12.3v-17.9h-7.2v-14.3h7.2
	v-9.3L1227.3,613.2z"/>
<path class="st47" d="M458.1,190.6c-4.3,1.3-6.5,4.6-10.4,6.6c-5.8-11.3-5.2-23.4-13.6-32.9c4.8-4.2,9.1-5.9,15.2-7.5
	C453.6,168.3,454.8,179.2,458.1,190.6z"/>
<path class="st31" d="M458.8,230.9c-4-2.9-8.4-2.7-12.7-4.8c6.2-12.6,17.2-20,20.1-33.7c6.9,1.5,11.2,4.2,16.7,8.5
	C475.6,212.2,466.8,220.5,458.8,230.9z"/>
<path class="st48" d="M510.7,279.5c-7.2,0.3-14.4,1.4-21.5,3.2c-4.1-20.8-6.1-28.1,0.2-49.2c8.4,2.6,14.9,9,23.4,11.3
	C509.6,258,511.2,266.5,510.7,279.5z"/>
<path class="st47" d="M516.3,98c-4.2,1.5-6.3,4.9-10.1,7c-6.2-11-6.1-23.1-15-32.2c4.6-4.4,8.8-6.2,14.9-8.2
	C510.9,76,512.6,86.8,516.3,98z"/>
<path class="st29" d="M547.5,195.5c-6.9,3.3-14,5.8-20.7,9.7c-8.4-16.6-16-28.2-20.1-47c7.9-1.6,15.8,1,23.7-1
	C534,172.8,541.1,181.6,547.5,195.5z"/>
<path class="st46" d="M582.6,202.1c-6.3-3-8.9-9.9-16.4-10.5c2.1-11.3-0.7-22.9,0.6-34.3c7.4,1.6,14,4.3,21.7,4.2
	C587.1,176.4,588.3,187.4,582.6,202.1z"/>
<path class="st31" d="M573.3,81.3c-5-0.1-8.5,2.5-13.2,3.2c-2.1-13.8,2.8-26.3-2.6-39.2c6.5-2.7,11.6-2.9,18.5-2.5
	C576.5,56.4,573.9,68.2,573.3,81.3z"/>
<path class="st29" d="M629.4,507.4c-7,3.2-14.1,5.6-20.8,9.4c-8.1-16.7-15.5-28.5-19.3-47.4c7.9-1.5,15.8,1.2,23.7-0.6
	C616.4,484.4,623.3,493.4,629.4,507.4z"/>
<path class="st31" d="M867.6,91.4c-5-0.1-8.5,2.5-13.2,3.2c-2.1-13.8,2.8-26.3-2.6-39.2c6.5-2.7,11.6-2.9,18.5-2.5
	C870.8,66.6,868.2,78.3,867.6,91.4z"/>
<path class="st48" d="M562.5,108.6c-7.3,0.3-14.5,1.4-21.5,3.2c-4.2-20.8-6.1-28.1,0.2-49.2c8.4,2.6,14.9,9,23.4,11.3
	C561.4,87.1,563,95.5,562.5,108.6z"/>
<path class="st47" d="M460.1,69.7c-4.5-0.1-7.7,2.3-12,2.9c-1.9-12.5,2.6-23.8-2.4-35.5c5.9-2.5,10.5-2.7,16.8-2.3
	C463,47.2,460.7,57.9,460.1,69.7z"/>
<path class="st29" d="M401.1,149.5c-7.7,0-15.2-0.7-22.8,0c-0.5-18.6-2.4-32.3,1.8-51.1c7.8,1.9,13.9,7.6,21.9,9.2
	C398.7,123.2,401.3,134.2,401.1,149.5z"/>
<path class="st46" d="M393,227.7c-6.3-3-8.9-9.9-16.4-10.5c2.1-11.3-0.7-22.9,0.6-34.3c7.4,1.6,14,4.3,21.7,4.2
	C397.5,202,398.6,213,393,227.7z"/>
<path class="st31" d="M497.8,145c-5-0.1-8.5,2.5-13.2,3.2c-2.1-13.9,2.8-26.3-2.6-39.2c6.5-2.7,11.6-2.9,18.6-2.5
	C501,120.1,498.4,131.9,497.8,145z"/>
<path class="st48" d="M1111.2,231.5c-3.7-1.7-7.7-2.7-11.8-3c8.2-19.3,10.8-26.2,24.1-42.9c2.8,4.5,2.7,11.9,5.7,16.1
	C1121.2,212.4,1117.8,220.3,1111.2,231.5z"/>
<path class="st47" d="M860.3,144.4c-4.5-0.1-7.7,2.3-12,2.9c-1.9-12.6,2.6-23.8-2.4-35.5c5.9-2.5,10.5-2.7,16.8-2.3
	C863.2,121.9,860.8,132.6,860.3,144.4z"/>
<path class="st29" d="M912.2,167.6c-7.7,0-15.2-0.7-22.8,0c-0.5-18.6-2.4-32.3,1.8-51.1c7.8,1.9,13.9,7.6,21.8,9.2
	C909.8,141.3,912.4,152.4,912.2,167.6z"/>
<path class="st46" d="M944.6,225.8c-4.6,5.2-11.9,5.9-14.6,12.9c-10.3-5.1-22.2-5.6-32.8-10.1c3.5-6.7,8-12.2,10-19.7
	C921.1,214.4,932,216.3,944.6,225.8z"/>
<path class="st31" d="M1048.8,198.9c-5-0.1-8.5,2.5-13.2,3.2c-2.1-13.9,2.8-26.3-2.6-39.2c6.5-2.7,11.6-2.9,18.6-2.5
	C1052,174.1,1049.4,185.8,1048.8,198.9z"/>
<path class="st48" d="M1525.5,290c-7.3,0.3-14.5,1.4-21.5,3.2c-4.1-20.8-6.1-28.1,0.2-49.2c8.4,2.6,14.9,9,23.4,11.3
	C1524.4,268.5,1526,277,1525.5,290z"/>
<path class="st47" d="M1361.8,472.8c-4.5-0.1-7.7,2.3-12,2.9c-1.9-12.5,2.6-23.8-2.4-35.5c5.9-2.5,10.5-2.6,16.8-2.3
	C1364.7,450.3,1362.3,461,1361.8,472.8z"/>
<path class="st29" d="M1075.2,125.2c-6.8,3.6-13.7,6.5-20.2,10.7c-9.2-16.2-17.2-27.5-22.2-46c7.8-2,15.8,0.2,23.6-2.1
	C1060.8,103,1068.3,111.6,1075.2,125.2z"/>
<path class="st46" d="M1109.8,163.2c-6.3-3-8.9-9.9-16.4-10.5c2.1-11.3-0.7-22.9,0.6-34.3c7.4,1.6,14,4.3,21.7,4.2
	C1114.2,137.5,1115.4,148.5,1109.8,163.2z"/>
<path class="st31" d="M1103,90c-5-0.1-8.5,2.5-13.2,3.2c-2.1-13.8,2.8-26.3-2.6-39.2c6.5-2.7,11.6-2.9,18.6-2.5
	C1106.2,65.1,1103.7,76.9,1103,90z"/>
<path class="st48" d="M1450.1,255.4c-6.7-2.8-13.7-4.8-20.8-6.1c4.9-20.6,6.2-28.1,20.7-44.6c6.6,5.8,9.8,14.4,16.6,20
	C1458.1,235.4,1456,243.8,1450.1,255.4z"/>
<path class="st47" d="M1066.8,241.6c-4.5-0.1-7.7,2.3-12,2.9c-1.9-12.5,2.6-23.8-2.4-35.5c5.9-2.5,10.5-2.6,16.8-2.3
	C1069.7,219.1,1067.3,229.7,1066.8,241.6z"/>
<path class="st29" d="M1478,337.9c-4.9,2.6-10,4.5-14.5,7.7c-9-16.3-16.6-27.8-22.7-45.8c5.8-0.9,12.3,2.1,18.2,0.8
	C1464.1,315.4,1470.9,324.3,1478,337.9z"/>
<path class="st46" d="M1505.4,349c-6.3-3-8.9-9.9-16.4-10.5c2.1-11.3-0.7-22.9,0.6-34.3c7.4,1.6,14,4.3,21.7,4.2
	C1509.9,323.3,1511.1,334.3,1505.4,349z"/>
<path class="st31" d="M1394.1,280.7c-3.1-3.9-7.4-4.8-11-7.9c9.2-10.6,21.8-15,28-27.5c6.3,3.2,9.8,6.9,14,12.4
	C1415.1,266.9,1404.4,272.6,1394.1,280.7z"/>
<path class="st48" d="M1150.4,407c-7.2,0.3-14.4,1.3-21.5,3.2c-4.2-20.8-6.1-28.1,0.2-49.2c8.4,2.6,14.9,9,23.4,11.3
	C1149.3,385.4,1150.9,393.9,1150.4,407z"/>
<path class="st47" d="M944,308.4c-3.1-3.2-7.1-3.7-10.6-6.2c7.4-10.3,18.5-15.2,23.1-27.1c6,2.4,9.4,5.4,13.6,10.1
	C961.8,294.2,952.7,300.2,944,308.4z"/>
<path class="st29" d="M1150.3,121.8c-7.7,0-15.2-0.7-22.8,0c-0.6-18.6-2.4-32.3,1.8-51.1c7.8,1.9,13.9,7.6,21.8,9.2
	C1147.8,95.5,1150.4,106.5,1150.3,121.8z"/>
<path class="st46" d="M1077.3,442.2c-6.3-3-8.9-9.9-16.4-10.5c2.1-11.3-0.7-22.9,0.6-34.3c7.4,1.5,14,4.3,21.7,4.2
	C1081.8,416.5,1083,427.5,1077.3,442.2z"/>
<path class="st31" d="M1048.8,306.5c-5-0.1-8.5,2.5-13.2,3.2c-2.1-13.9,2.8-26.3-2.6-39.2c6.5-2.7,11.6-2.9,18.6-2.5
	C1052,281.6,1049.4,293.4,1048.8,306.5z"/>
<path class="st46" d="M472.8,120.2c-6.7,1.9-13.2-1.6-19.3,2.8c-5.8-9.9-15.5-16.9-21.9-26.4c6.6-3.7,13.4-5.9,19.2-11
	C459.5,97.8,467.5,105.4,472.8,120.2z"/>
<path class="st48" d="M910.4,334.1c-5.7,4.5-11,9.5-15.6,15.1c-15.5-14.5-21.3-19.3-28.5-40.1c8.3-2.8,17.3-1.3,25.6-4.5
	C897,317.3,903.2,323.2,910.4,334.1z"/>
<path class="st46" d="M1501.7,209.3c-6.3-3-8.9-9.8-16.4-10.5c2.1-11.3-0.7-22.9,0.6-34.3c7.4,1.6,14,4.3,21.7,4.2
	C1506.2,183.6,1507.3,194.6,1501.7,209.3z"/>
<path class="st31" d="M850.8,231.3c-4.3-2.4-8.7-1.7-13.2-3.3c4.6-13.2,14.7-21.9,15.9-35.9c7.1,0.6,11.6,2.8,17.6,6.4
	C865.2,210.8,857.5,220,850.8,231.3z"/>
<path class="st47" d="M1483.8,289.3c-4.5-0.1-7.7,2.3-11.9,2.9c-1.9-12.5,2.6-23.8-2.4-35.5c5.9-2.5,10.5-2.6,16.8-2.3
	C1486.7,266.8,1484.4,277.4,1483.8,289.3z"/>
<path class="st47" d="M1423.3,227.8c-4.5-0.1-7.7,2.3-12,2.9c-1.9-12.5,2.6-23.8-2.4-35.5c5.9-2.5,10.5-2.6,16.8-2.3
	C1426.2,205.2,1423.8,215.9,1423.3,227.8z"/>
<path class="st48" d="M864.9,401.6c-5.7,4.4-11.1,9.2-16,14.5c-12.8-10.6-17.6-14.1-21.9-30.9c8-3.3,16.1-3,24.1-6.6
	C854.4,388.8,859.5,393.1,864.9,401.6z"/>
<path class="st31" d="M1371.9,462.2c-4.3-0.9-7.8,1.2-12.1,1.2c0.5-13.9,6.9-25.4,4.3-38.8c6.2-1.7,10.6-1.1,16.7,0.3
	C1378.9,438.3,1374.7,449.5,1371.9,462.2z"/>
<path class="st31" d="M561.1,299.5c-4-2.9-8.4-2.7-12.7-4.8c6.2-12.6,17.3-20,20.1-33.7c6.9,1.5,11.2,4.1,16.7,8.5
	C577.8,280.8,569,289,561.1,299.5z"/>
<path class="st49" d="M512.2,340.9c-6.1,4-11.7,8.6-16.8,13.7c-14.2-15.7-19.6-21-25.1-42.3c8.5-2.1,17.4,0.1,25.9-2.3
	C500.2,323,505.9,329.4,512.2,340.9z"/>
<path class="st50" d="M413,277.9c-4.8-3.4-9.2-4.2-14.1-7c3.5-9.4,13.2-13.3,13.1-24.4c7.4,2.8,12.4,6.1,19,11
	C426,265.7,418.8,270.7,413,277.9z"/>
</svg>
