<svg id="Layer_1" data-name="Layer 1" xmlns="http://www.w3.org/2000/svg" viewBox="0 0 466 423"><defs><style>.cls-1{fill:#634008;}.cls-2{fill:#f1f4b5;}.cls-3{fill:#b5f7bd;}.cls-4{fill:#fcdfb1;}.cls-5{fill:#fcd0fc;}</style></defs><circle class="cls-1" cx="211.5" cy="86.5" r="69.5"/><ellipse class="cls-2" cx="276.5" cy="121" rx="61.5" ry="58"/><ellipse class="cls-3" cx="145.5" cy="106" rx="61.5" ry="58"/><polygon class="cls-4" points="333.07 145.5 217.89 379.99 102.71 145.5 333.07 145.5"/><path class="cls-5" d="M257.74,43.76C253.4,57.57,233,50.44,223,46.38s-37.54-9.77-27.47-21.72,24.36-10.5,36.57-6.72S262.08,29.94,257.74,43.76Z"/><path class="cls-5" d="M228.36,41.84c4.22,9-4.67,19.36-12.9,21.15s-10.91-14.37-9-24.79,2.94,5.93,5.76.57S224.14,32.87,228.36,41.84Z"/><path class="cls-5" d="M236.11,66.31a73.64,73.64,0,0,1-13.2-18.83c-3.34-6.53-2.22-14.95,5.25-16.91s12.71,10.35,15.05,15.7S243.1,73.89,236.11,66.31Z"/><path class="cls-5" d="M257.84,35.76c2.62,3.16-2.45,21.38-5.56,22.68S241.33,52,241.64,49.23s4.22-4.37,9-4.33S255.21,32.6,257.84,35.76Z"/></svg>