<svg xmlns="http://www.w3.org/2000/svg" viewBox="0 0 665.81 942.75"><defs><style>.cls-1{fill:#f25d27;}.cls-2{fill:#edb0ce;}.cls-3{fill:#f2caa2;}.cls-4{fill:#f266a7;}.cls-5{fill:#f20574;}.cls-6{fill:#fff;}.cls-7{fill:#603813;}.cls-8{fill:#fcfcfc;}.cls-9{fill:#db9e61;}</style></defs><g id="Layer_44" data-name="Layer 44"><ellipse class="cls-1" cx="367.16" cy="387.4" rx="42.06" ry="76.66" transform="translate(-101.67 132.28) rotate(-17.98)"/><path class="cls-1" d="M383.36,462c-8.95,0-18.68-4.61-28.09-13.47-12.09-11.38-22.24-28.41-28.59-48s-8.14-39.3-5-55.61,10.82-27.39,21.69-30.92,23.55.84,35.72,12.29,22.24,28.41,28.58,48h0c6.35,19.56,8.14,39.31,5,55.61s-10.83,27.4-21.7,30.92A24.43,24.43,0,0,1,383.36,462ZM351,313.82a23.67,23.67,0,0,0-7.31,1.14c-10.51,3.41-18,14.12-21,30.16s-1.3,35.72,5,55.11S344,436.52,356,447.78s24.22,15.47,34.73,12.06,18-14.12,21-30.15,1.29-35.72-5-55.12S390.34,338.29,378.37,327C369.15,318.34,359.66,313.82,351,313.82Z"/><path class="cls-1" d="M426.31,500.75c9.17,9,25.8,33.91,17.6,40.25s-25.12-21.51-31.8-28-8.57-28.18-2.39-33.21S417.15,491.72,426.31,500.75Z"/><path class="cls-1" d="M441.22,542.43c-6.51,0-15.6-11.73-22.49-20.63a98.11,98.11,0,0,0-7-8.45c-4.52-4.39-6.6-14.89-6.26-22.54.24-5.51,1.63-9.56,3.91-11.42a3.5,3.5,0,0,1,3-1c2.25.53,3.82,3.95,5.81,8.28s4.49,9.82,8.41,13.68c7.28,7.17,20.54,25.84,19.94,36a6.5,6.5,0,0,1-2.38,5A4.77,4.77,0,0,1,441.22,542.43Zm-29.38-63.06a2.93,2.93,0,0,0-1.8.8c-2,1.65-3.32,5.54-3.54,10.69-.39,8.74,2.17,18.1,6,21.77a99.39,99.39,0,0,1,7.06,8.55c7.78,10.05,18.43,23.8,24.09,19.43a5.58,5.58,0,0,0,2-4.3c.54-9-11.46-27.15-19.64-35.2h0c-4-4-6.59-9.53-8.62-14-1.8-3.92-3.35-7.31-5.13-7.72A1.55,1.55,0,0,0,411.84,479.37Z"/><path class="cls-1" d="M304.62,408.27c5.38,20.18,10.3,76.66-10.84,80.56s-47.87-57.08-56.18-79.56-13.89-89.23,30.23-81.1S299.25,388.09,304.62,408.27Z"/><path class="cls-2" d="M408.77,720.68c-1.72,15.75-97.69,8.56-109.41,9.11s-106.7-2.4-106.47-18.26,95-16.22,107.52-16.77S410.48,704.92,408.77,720.68Z"/><path class="cls-3" d="M245.31,860.56c5.84-1.8,11-3.1,17.12-3-4.77-63-24.94-94.6,5.16-152.25-6.92-5-8.06-14.08-13.25-20.45C205.28,727.68,240.33,807.62,245.31,860.56Z"/><path class="cls-3" d="M326.57,861.35c5.36-3.13,10.48-4.24,16.5-5.39-16.84-65.2-31.15-84.61,3.75-151-6.08-5.93-9-13.94-14.25-20.51C275.4,740.85,308.65,798.35,326.57,861.35Z"/><path class="cls-4" d="M405.57,723.28c-44.25-9.74-161.83-17.24-178-18.47A2.85,2.85,0,0,1,225,702.9c-12.69-38.44,38.4-176.57,43.87-232.36a2.88,2.88,0,0,1,3.57-2.46c30.57,7.41,45.75,4.51,76.22,1.61a2.85,2.85,0,0,1,3.17,2.85c-2.7,83.85,50.51,221.24,57.15,247.35A2.83,2.83,0,0,1,405.57,723.28Z"/><path class="cls-4" d="M373,566.2c-4.54,4.76-.72,11.08-5.12,15.93-8.19-17.84-29.18-117.85-20.62-132.83,16.38-3.49,20.27-2.1,36.06,2.12C391.73,470.36,368.85,536.79,373,566.2Z"/><path class="cls-4" d="M281.08,483.88c-.57,0-1.36,0-1.91,0-5-.09-8-2.36-10.35-6.78a8.43,8.43,0,0,1-.77-1.87c-1.53-6.46,4.21-8.4,9.85-9.22.61-.09,2.64-.23,3.28-.22,5.93,0,11.47,1.58,10.46,8.36a10,10,0,0,1-.65,2.08C289,481,286.27,483.69,281.08,483.88Z"/><path class="cls-4" d="M248,637.1c-24,19-38.1,47.28-54.53,72a2.93,2.93,0,0,0,3,4.5c40.78-7.48,35.9-9.43,84.87-10.35a2.93,2.93,0,0,0,2-5c-24.91-25.65-19.63-29.19-30.78-59.87A2.93,2.93,0,0,0,248,637.1Z"/><path class="cls-5" d="M354.74,453.56c8.6,13.27-11.2,35.6-25.43,40.77s-44.44,8.82-46.57-9,20.68-29.26,38.37-31.76S346.13,440.29,354.74,453.56Z"/><path class="cls-3" d="M324.68,467.63c-3.39,1.54-9.29,4.84-13.39,4.54-9-.65-12.39-2.74-13.66-13.16-4.43-36.28-3.3-75.11-5.44-111.18-.61-10.36,3.48-10,10.83-12.09a19.93,19.93,0,0,1,10,.11c7.39,1.6,11.26,2.23,12.55,11.26,4.5,31.49-2.81,76.2,8.22,104.75C337,460.05,332.13,464.24,324.68,467.63Z"/><path class="cls-3" d="M392.51,230.8c1.22,60.37-29.39,119.66-92.2,140.89S177.42,329.86,163.93,258.52s38.36-152.11,115.5-146.94S391.28,170.43,392.51,230.8Z"/><path class="cls-3" d="M162,674.41c-.9,11.52,31.92-2.19,36.85-3.64s26.41-6.57,21.53-14.91-16.14-5.11-27.36-2.6S162.93,662.9,162,674.41Z"/><path class="cls-3" d="M207.27,680.8c4.08-2.81,18.62-14,14.7-18.42s-17.47,7-21.37,9.69-19.17,11.71-16.07,16.65S203.18,683.62,207.27,680.8Z"/><path class="cls-3" d="M222.31,661.63c3.78,7.19,7.79,13.78-4.5,16.51s-23.85-2.47-24.74-11.22,6.57-6,13.56-7.08S218.53,654.45,222.31,661.63Z"/><path class="cls-3" d="M223.7,575.42c-.47,15.89-15.93,99.17-1.17,98s26.15-72.11,27.72-95.48,30.34-79.91,23.64-105.86S224.17,559.54,223.7,575.42Z"/><path class="cls-3" d="M202.42,658.74c-3.76,1.07-19.57,5-17,10.36s24.89.78,28.13-.31,7.73-18.93,7.12-21.73S206.17,657.67,202.42,658.74Z"/><path class="cls-3" d="M473.65,679.81c.9,11.52-31.91-2.2-36.85-3.64s-26.41-6.57-21.53-14.91,16.14-5.11,27.36-2.6S472.76,668.3,473.65,679.81Z"/><path class="cls-3" d="M424.42,685.2c-4.08-2.82-18.62-14-14.7-18.42s17.47,7,21.37,9.69,19.17,11.7,16.07,16.65S428.51,688,424.42,685.2Z"/><path class="cls-3" d="M402.38,659c-3.78,7.18-7.79,13.77,4.5,16.5s23.85-2.46,24.74-11.22-6.57-6-13.56-7.08S406.16,651.85,402.38,659Z"/><path class="cls-3" d="M427.27,657.14c3.76,1.07,19.57,5,17,10.36s-24.9.77-28.14-.31-7.73-18.93-7.12-21.74S423.52,656.06,427.27,657.14Z"/><ellipse class="cls-6" cx="282.5" cy="214" rx="32.5" ry="29"/><path class="cls-6" d="M216.64,207.1c1.06,23.36-17.42,37.44-37.23,36.88s-33-14.87-32.69-34.15,16.74-28,34.29-28.29S215.58,183.73,216.64,207.1Z"/><ellipse class="cls-7" cx="177" cy="227.5" rx="17" ry="15.5"/><ellipse class="cls-7" cx="276.5" cy="223" rx="18.5" ry="15"/><ellipse class="cls-6" cx="167" cy="227" rx="5" ry="3" transform="translate(-68.02 382.51) rotate(-87.15)"/><ellipse class="cls-8" cx="264.5" cy="219.5" rx="2.5" ry="4.5" transform="translate(-28.38 39.61) rotate(-8.13)"/><path d="M266.73,170.27c1.58-3.6,5-6.22,8.4-8.07a32.38,32.38,0,0,1,11-3.61,46.79,46.79,0,0,1,13.42.14c4,.59,8.28,1.34,11.62,3.85,1.54,1.16,3-1.45,1.51-2.59-3.65-2.76-8.38-3.6-12.81-4.22a51,51,0,0,0-14.54-.08,34.88,34.88,0,0,0-12.1,4.12c-3.62,2.07-7.4,5-9.12,8.94-.77,1.75,1.81,3.28,2.59,1.52Z"/><path d="M169,166.32a28.3,28.3,0,0,1,19.65-10.47,37.51,37.51,0,0,1,12.75,1c3.84,1,7.73,2.36,10.61,5.18,1.38,1.35,3.51-.77,2.12-2.12-3.19-3.13-7.44-4.8-11.71-5.89a39.47,39.47,0,0,0-14.23-1.11,31.51,31.51,0,0,0-21.78,11.9c-1.18,1.54,1.43,3,2.59,1.52Z"/><path d="M253.77,202.76a31.41,31.41,0,0,1,20.55-15.26c9.83-2.14,21.45-1,29.71,5.09,4.76,3.51,7.31,8.53,9.65,13.81.58,1.3,2.34.71,2.74-.36A39.8,39.8,0,0,1,326.52,191a1.51,1.51,0,0,0-1.46-2.5,56.53,56.53,0,0,1-19.66,1.09c-1.57-.19-1.9,2.07-.75,2.79a26.63,26.63,0,0,1,9.43,10.27,1.52,1.52,0,0,0,2.59,0l7.63-10.26c.8-1.07-.52-2.56-1.69-2.2a50.52,50.52,0,0,1-13.14,2.17,1.52,1.52,0,0,0-1.06,2.56q1.5,1.71,3.13,3.32c.83.81,1.84,2.13,3.07,2.27s2.31-1.1,3.11-1.93a26.57,26.57,0,0,0,2.75-3.42,1.51,1.51,0,0,0-1.29-2.26,36.3,36.3,0,0,0-7.06.56,1.51,1.51,0,0,0-.66,2.5l2.39,2.43a1.54,1.54,0,0,0,1.82.24,5.68,5.68,0,0,0,1.47-1.25c1.21-1.49-.9-3.62-2.12-2.12a3.09,3.09,0,0,1-.87.78l1.82.23-2.39-2.43-.66,2.51a32,32,0,0,1,6.26-.45l-1.3-2.26a21.55,21.55,0,0,1-2,2.49,9.35,9.35,0,0,0-.94.95c-.53.32-.41.52.35.6-.17-.15-.34-.3-.5-.46a59.6,59.6,0,0,1-4.29-4.42l-1.06,2.56A53.19,53.19,0,0,0,323.41,193l-1.7-2.21-7.63,10.27h2.59a29.64,29.64,0,0,0-10.51-11.35l-.76,2.8a58.93,58.93,0,0,0,20.46-1.2l-1.46-2.51a43.13,43.13,0,0,0-10.87,16.4l2.74-.35c-2.25-5.07-4.71-9.93-9-13.56a32.41,32.41,0,0,0-13.82-6.69c-10.41-2.31-22.3-1.17-31.29,4.83a34.32,34.32,0,0,0-10.95,11.78,1.5,1.5,0,0,0,2.59,1.51Z"/><path d="M215.56,194.41c-5.39-11-18.4-13.82-29.49-14.9a42.68,42.68,0,0,0-10,0,71,71,0,0,0-9.53,2.17,20.36,20.36,0,0,0-7.75,3.51c-2.37,1.92-4.19,4.53-6,6.92L151,194.33c-.45.6-.83,1.44-1.6,1.57a14.91,14.91,0,0,1-4.73-.55,31.68,31.68,0,0,1-9.8-3.77,1.51,1.51,0,0,0-1.82,2.36l13,14.33a1.52,1.52,0,0,0,2.56-1.06,15.27,15.27,0,0,1,3.61-9.57c1-1.21-.32-3.39-1.82-2.36-2.87,2-6.49,1.08-9.6.21a1.52,1.52,0,0,0-1.46,2.51q2.79,3.09,5.85,5.91a1.52,1.52,0,0,0,2.56-1.06,6.51,6.51,0,0,1,.73-2.44,1.52,1.52,0,0,0-1.29-2.25l-2.29-.3c-1.91-.24-1.9,2.76,0,3l2.29.3-1.3-2.26a10.28,10.28,0,0,0-1.14,3.95l2.56-1.06q-3.06-2.82-5.85-5.91L140,198.39c3.88,1.07,8.37,1.92,11.91-.52l-1.82-2.36a18.63,18.63,0,0,0-4.48,11.7l2.56-1.06-13-14.34-1.82,2.36a34.66,34.66,0,0,0,8.39,3.56,33.93,33.93,0,0,0,3.86.81,15.16,15.16,0,0,0,4.55.29c1.38-.24,2.1-1.19,2.89-2.25.94-1.25,1.88-2.5,2.85-3.73,1.87-2.38,3.73-5,6.44-6.48s5.68-2,8.52-2.75a40,40,0,0,1,9.35-1.42,67.76,67.76,0,0,1,10.06.79,52.34,52.34,0,0,1,8.93,2c5.73,1.89,11,5.43,13.75,11,.84,1.73,3.43.21,2.59-1.52Z"/><path class="cls-9" d="M226,233.06c-1.45,7.57-4,15.88-11.38,19.67a1.5,1.5,0,0,0-.3,2.35,32,32,0,0,0,28.07,5.6,1.51,1.51,0,0,0-.8-2.9A28.75,28.75,0,0,1,216.42,253l-.3,2.36c8-4.14,11.16-13.14,12.75-21.47.36-1.88-2.53-2.69-2.89-.79Z"/><path class="cls-9" d="M286.69,285.55a18.61,18.61,0,0,1,20.82-1.2c1.65,1,3.16-1.59,1.51-2.59a21.5,21.5,0,0,0-23.84,1.2,1.55,1.55,0,0,0-.54,2.05,1.5,1.5,0,0,0,2.05.54Z"/><path class="cls-6" d="M279,334c7.07-11.77,16.67-31,18.32-43.56.44-3.42,1.95-7.26-3.4-2.8C266.59,310.38,266,305.51,227,313.79c-7.63,1.63-3,3.21.82,5.12,14.24,7.07,31.32,12.31,47.34,16.44C278,336.07,277.77,336,279,334Z"/><path class="cls-1" d="M390.47,49.79C349,3.63,266,59.84,253.06,68s-83.78,55.34-63.48,71.32,73.33-49.86,111.57-44.2S431.91,96,390.47,49.79Z"/><path class="cls-1" d="M197.32,142.33a12.56,12.56,0,0,1-8-2.63,9.38,9.38,0,0,1-3.81-8.23c1.15-21.91,64.63-62.2,67.34-63.91l1.87-1.19c9-5.74,32.79-21,59.56-29.4,33.86-10.63,59.64-6.43,76.61,12.48,10,11.09,12.91,20.61,8.78,28.3C393.45,89.23,373,94,356.85,96a226.76,226.76,0,0,1-55.77-.36c-19.2-2.84-42.48,12.73-63,26.46C222.06,132.76,207.74,142.33,197.32,142.33ZM347.5,32.26q-14.89,0-33,5.66c-26.65,8.36-50.39,23.57-59.32,29.29l-1.88,1.2c-22.74,14.34-66,46-66.87,63.11a8.29,8.29,0,0,0,3.43,7.39c9.72,7.66,27.28-4.08,47.61-17.68,20.7-13.83,44.14-29.52,63.73-26.62,29.32,4.34,87,2.25,97.51-17.33,3.91-7.28,1-16.42-8.64-27.16C379.42,38.22,365.15,32.26,347.5,32.26Z"/><path class="cls-1" d="M456.55,198c7.66,34.84,12.16,207.41-39,159s-30.4-102.39-41.31-150.35S324.76,109.76,361,58,448.9,163.12,456.55,198Z"/><path class="cls-1" d="M433.88,365.93c-5,0-10.55-2.89-16.63-8.65-35.61-33.75-36.5-70.11-37.37-105.28-.39-15.78-.76-30.68-4.09-45.31-3-13.08-8.28-26.52-13.41-39.52C348.48,132,334.1,95.54,360.57,57.72c5.76-8.24,12.28-11.69,19.37-10.28,18,3.61,36.48,38.36,48.76,66.88,14.06,32.65,25,68.5,28.34,83.54,6.41,29.16,10.4,151-17,166.42A12.44,12.44,0,0,1,433.88,365.93Zm-57-317.79c-5.58,0-10.79,3.4-15.52,10.15-26.16,37.38-11.89,73.55,1.92,108.52,5.15,13,10.47,26.5,13.46,39.65,3.35,14.74,3.72,29.69,4.11,45.52.86,35,1.75,71.11,37.06,104.58,8.37,7.93,15.65,10.24,21.65,6.85,11.42-6.45,18.76-34,20.66-77.54,1.54-35.44-1-73.17-4.18-87.8-3.3-15-14.25-50.77-28.29-83.36-12.19-28.29-30.42-62.77-48-66.29A14.54,14.54,0,0,0,376.91,48.14Z"/><path class="cls-1" d="M368.29,108.07c8,23.16,35.7,74.24,11.35,81.18s-59.89-24.91-76.94-44S275.58,94.4,308.22,77.4,360.27,84.92,368.29,108.07Z"/><path class="cls-1" d="M372.33,190.73c-28.82,0-65.58-40.21-70-45.18-12.13-13.6-17.92-29.63-15.49-42.88,2-10.78,9.09-19.43,21.15-25.71s23-7.38,32.82-3.46c6.95,2.76,19.81,10.91,28,34.41,1.54,4.47,3.87,10.08,6.33,16,8.54,20.63,19.17,46.31,13,59a12.69,12.69,0,0,1-8.36,6.81A27.22,27.22,0,0,1,372.33,190.73ZM328.88,72.23c-6.42,0-13.26,1.88-20.43,5.61-11.77,6.14-18.71,14.55-20.63,25-2.37,13,3.33,28.67,15.25,42,19.33,21.67,47.84,44.82,69.36,44.82a25.85,25.85,0,0,0,7.08-.94,11.6,11.6,0,0,0,7.73-6.29c5.93-12.27-4.6-37.72-13.07-58.17-2.46-6-4.79-11.58-6.35-16.07C362,91.35,352,79,340.44,74.43A31.1,31.1,0,0,0,328.88,72.23Z"/><path class="cls-1" d="M353.93,76.74c5.57-11.73-77.56,18-88.76,23.34S198.34,126,193.92,139.45,346.84,97.84,330.54,96.34,348.35,88.46,353.93,76.74Z"/><path class="cls-1" d="M197.74,142a6.61,6.61,0,0,1-3.75-.74,1.68,1.68,0,0,1-.55-2c3.66-11.13,41-26.78,61.11-35.19,4.64-1.94,8.31-3.48,10.41-4.48,8.45-4,82.92-31.45,89.23-25.14a2,2,0,0,1,.19,2.46c-2.9,6.09-13,10.64-20.35,14-3.27,1.47-7.32,3.3-7.37,4,0,0,.34.56,3.92.89.61.06,1.45.21,1.62.88s-.42,1.36-1.93,2.35C316.55,108.07,219.4,142,197.74,142ZM350.35,74.53c-4.48,0-14.87,1.75-39,9.41-20.44,6.5-40.91,14.17-46,16.6-2.12,1-5.8,2.54-10.45,4.49-19.93,8.35-57,23.88-60.55,34.58-.15.45,0,.66.11.79.93.94,7.53,2.9,53.61-11.43,43.21-13.43,82.31-29,83.1-32a6.1,6.1,0,0,0-.72-.13c-3.31-.3-4.66-.79-4.82-1.72-.22-1.36,2.27-2.54,7.95-5.11,7.22-3.26,17.12-7.73,19.86-13.48.42-.9.12-1.21,0-1.32C353.15,74.87,352.34,74.53,350.35,74.53Z"/><path class="cls-1" d="M455.53,249.23c10.71,78.52-25.62,282.91-66,212.89s-33.28-150.06-38.3-203.85S344.35,83.41,396.29,126.7,444.82,170.72,455.53,249.23Z"/><path class="cls-1" d="M406.39,477c-5.89,0-11.7-4.9-17.31-14.62-31.73-55-34.21-116.52-36.2-165.94-.55-13.64-1.07-26.52-2.15-38.11-1.18-12.65-10.67-124,18.88-139.55,7.3-3.84,16.39-1.3,27,7.54,48.42,40.36,48.93,44.14,57.33,107.36q1,7.2,2.08,15.5c4.26,31.17,1.12,85-7.81,133.84-4.7,25.76-17.84,86.41-38.17,93.36A11.15,11.15,0,0,1,406.39,477ZM376.7,118a14,14,0,0,0-6.62,1.62c-23.54,12.38-22.61,92.92-18.36,138.56,1.09,11.63,1.61,24.52,2.16,38.17,2,49.31,4.46,110.67,36.07,165.48,6.49,11.25,13.14,15.82,19.76,13.55C441,464.74,463.65,312.46,455,249.3c-.75-5.54-1.44-10.69-2.08-15.5-8.86-66.61-11.57-68.88-57-106.72C388.75,121.06,382.3,118,376.7,118Z"/><circle class="cls-5" cx="411" cy="479" r="13"/><path class="cls-3" d="M398.48,470.32c-4.07,5.56-11-.57-14.92-3.37s-13.16.09-13.68-7.35,13.85-11.48,20.22-8.66S402.55,464.77,398.48,470.32Z"/><path class="cls-3" d="M418.35,651.28c-8.44,3.46-11.93,13.83-19.4,18.84-33.43-42.67-41.86-161-29.31-212.09,9.92,2.81,18.82,8.61,29.07,10.36C391.25,537.31,382.89,586.26,418.35,651.28Z"/><path class="cls-4" d="M213.07,880.58c1.85,15.12,24.36,4.28,33.62.62s25.53-12.22,21.66-23.11-18.1-12.84-28.74-8.78S211.21,865.47,213.07,880.58Z"/><path class="cls-4" d="M294.55,883.09c1.62,15.34,26.11,7.28,34.35-.36s22.85-21.5,15.44-32.2-17.41-8.35-27-1.74S292.93,867.75,294.55,883.09Z"/><path class="cls-6" d="M229.82,887.84c6.43-2.41,12.72-5.15,19-7.82,5.66-2.39,11.37-4.8,16-9,1.43-1.3-.7-3.42-2.12-2.12-4.39,4-10,6.23-15.36,8.51-6.08,2.57-12.14,5.2-18.33,7.52-1.79.67-1,3.57.8,2.89Z"/><path class="cls-6" d="M215.89,869.39a30.76,30.76,0,0,1,11.21,13.84c.28.7.54,1.41.76,2.12,0,0,.17.8.16.8l.33-.44h-.27a2.65,2.65,0,0,0-.89,0c-1.79,0-3.59,0-5.38-.13a5.75,5.75,0,0,1-6.12-4.62,19.57,19.57,0,0,1-.42-6.2,12.87,12.87,0,0,1,.31-2.54c.16-.64.41-1.72,1.08-2l-.76.21c.31,0,1.22.9,1.53,1.17a25.2,25.2,0,0,1,1.82,1.76,24,24,0,0,1,2.93,3.81,25.16,25.16,0,0,1,3.43,9l1.84-1.85-6.25-1.41c-1.39-.32-3.4-.53-4.32-1.78s-.93-3.19-.94-4.56a5.59,5.59,0,0,1,1.33-4.09h-2.12a27.94,27.94,0,0,1,8.46,12l1.85-1.84a9.81,9.81,0,0,1-7.45-9.32l-2.8.76,2.68,3.72,1.22,1.71a16.14,16.14,0,0,0,1.26,1.77,1.59,1.59,0,0,1,.13.22l.08-.27s-.18.06-.23,0a3.38,3.38,0,0,1-.77-.83,18.67,18.67,0,0,0-1.92-3.21c-1.3-1.43-3.42.7-2.12,2.12s1.37,3.14,2.88,4.22a3.28,3.28,0,0,0,4.54-.53c1.33-1.79-.21-3.58-1.26-5l-3.9-5.43a1.51,1.51,0,0,0-2.79.76,12.85,12.85,0,0,0,9.65,12.21c1,.24,2.25-.72,1.85-1.85a31,31,0,0,0-9.24-13.38,1.54,1.54,0,0,0-2.12,0,8.37,8.37,0,0,0-2.2,5.51,13.4,13.4,0,0,0,1.08,6.32c.95,1.92,3,2.8,4.95,3.29,2.55.64,5.12,1.17,7.68,1.75a1.52,1.52,0,0,0,1.84-1.85,27.76,27.76,0,0,0-7.13-14.17,25.3,25.3,0,0,0-3-2.7c-1.18-.93-2.5-1.66-3.86-.53-2.18,1.81-2.25,5.36-2.31,7.95-.06,3,.18,6.17,1.87,8.73a8.84,8.84,0,0,0,7.07,3.86c1.46.12,2.94.1,4.41.13s3.26.41,4.45-.47,1.09-2.48.68-3.77a35.38,35.38,0,0,0-1.52-3.85A34,34,0,0,0,217.4,866.8c-1.6-1.09-3.1,1.51-1.51,2.59Z"/><path class="cls-6" d="M227.72,857.62c3.78,2.18,6.69,5.69,9.26,9.14a71,71,0,0,1,7.08,11.77c.83,1.74,3.42.22,2.59-1.51a70.11,70.11,0,0,0-7.54-12.38c-2.78-3.66-5.84-7.29-9.87-9.61a1.5,1.5,0,0,0-1.52,2.59Z"/><path class="cls-6" d="M321.47,888.17c3.16-.94,5.77-3,8.25-5.13a57.89,57.89,0,0,0,6.74-6.73,61.83,61.83,0,0,0,10-16.36c.74-1.78-2.16-2.55-2.9-.79a57.21,57.21,0,0,1-9.21,15,58.73,58.73,0,0,1-6.12,6.2c-2.24,2-4.66,4-7.55,4.89-1.85.55-1.06,3.44.8,2.89Z"/><path class="cls-6" d="M298.53,869.77a141.3,141.3,0,0,1,13.11,9.57,34.22,34.22,0,0,1,5.15,5.13c.31.39,1.86,2.14,1.64,2.73-.1.27-1.1.43-1.35.51-.66.23-1.32.43-2,.62a38.27,38.27,0,0,1-8,1.33c-2.35.13-5.34.41-7.49-.75-4.15-2.22-4.11-7.8-3.22-11.75.29-1.28.66-2.54,1-3.8a6,6,0,0,1,1.52-3.14c1.93-1.57,4.71-.13,6.51.91a31.55,31.55,0,0,1,10,9.12,33,33,0,0,1,1.8,2.88,13.11,13.11,0,0,1,.75,1.44c.27.68-.07.74-.66,1a34.94,34.94,0,0,1-7.71,2.51c-1.23.27-2.47.49-3.72.64a9.57,9.57,0,0,1-1.84.14,3,3,0,0,1-1.67-1c-1.74-1.52-3.35-3.1-3.87-5.43a14.4,14.4,0,0,1,.94-7.72,13,13,0,0,1,.72-1.82c.31-.6.14-.56.68-.19,1.35.93,2.66,1.92,4,2.88,4.26,3.07,9,6.09,11.23,11.06l.9-2.21c-2.12.71-4.27,1.35-6.44,1.9a31.19,31.19,0,0,1-6.38,1.32c-3.82.14-4.47-4.53-4.33-7.42a15.28,15.28,0,0,1,.44-3c.14-.6.33-1.19.52-1.77s0-.46.52-.34a10,10,0,0,1,2.41,1.67c.8.57,1.61,1.15,2.4,1.74a35.59,35.59,0,0,1,8.37,8.33l.9-2.21a22.69,22.69,0,0,1-6.59,1.15c-2.13.07-4.47,0-6.37-1-1.4-.8-2.85-2.57-2.22-4.29a2.6,2.6,0,0,1,1.51-1.52c.87-.28,1.58.28,2.25.77a46.52,46.52,0,0,1,4.95,4.24c.07.07,1.16,1.17,1.06,1.22,1-.49-.91-.49-.91-.49a7.35,7.35,0,0,1-6.6-9.89l-2.51.66a96.44,96.44,0,0,1,11.63,12l1.82-2.36a52.69,52.69,0,0,1-10.73-7.1c-1.46-1.25-3.59.86-2.12,2.12a56.28,56.28,0,0,0,11.33,7.57,1.5,1.5,0,0,0,1.82-2.35,95.73,95.73,0,0,0-11.63-12,1.52,1.52,0,0,0-2.51.66,10.34,10.34,0,0,0,10.24,13.68,3.35,3.35,0,0,0,2.75-1.19,2.85,2.85,0,0,0-.16-3.13,14.3,14.3,0,0,0-2.5-2.6c-1.05-1-2.13-1.87-3.25-2.74-1.74-1.36-3.57-2.68-5.88-1.9a5.55,5.55,0,0,0-3.66,4.62,6.8,6.8,0,0,0,2.6,5.75c2.17,1.81,5,2.31,7.78,2.33a26.48,26.48,0,0,0,8.7-1.27,1.52,1.52,0,0,0,.89-2.21A37.2,37.2,0,0,0,308.9,877c-1.61-1.25-3.26-2.44-4.93-3.6-1.42-1-3.31-2.24-4.9-.81-1.38,1.24-1.79,3.73-2.06,5.47a18.19,18.19,0,0,0,0,5.89c.58,3.28,2.7,6.46,6.26,6.75,2.27.18,4.69-.59,6.87-1.11,2.56-.62,5.09-1.36,7.6-2.19a1.53,1.53,0,0,0,.89-2.21c-2.55-5.71-8.22-9.18-13.1-12.71-2.1-1.51-5.21-4.72-7.51-1.75a11.58,11.58,0,0,0-1.56,3.45,22.38,22.38,0,0,0-1.09,4.78,11.41,11.41,0,0,0,2.06,8.23c1.64,2.16,4.15,4.78,7.05,4.7a36.55,36.55,0,0,0,9.92-2c2.25-.74,6.63-1.71,6.71-4.73,0-1.44-.91-2.87-1.61-4.08A35.49,35.49,0,0,0,310.57,871c-3.92-3-11.75-7.58-15.06-1.24a21.64,21.64,0,0,0-1.41,4.13A34.6,34.6,0,0,0,293,879a14.34,14.34,0,0,0,1.27,8.46,9.21,9.21,0,0,0,5.92,4.83,28,28,0,0,0,9.87.06,41.61,41.61,0,0,0,5.84-1.16c1.46-.41,3.42-.75,4.58-1.8,2.73-2.47-1-6.49-2.66-8.37a57.56,57.56,0,0,0-8.18-7.09q-4.68-3.56-9.58-6.78c-1.62-1.07-3.12,1.53-1.52,2.59Z"/><path class="cls-6" d="M299.58,883.11l.76,1.3a1.31,1.31,0,0,0,.39.42,1,1,0,0,0,.51.26,1,1,0,0,0,.6,0,1.09,1.09,0,0,0,.55-.18l.31-.23a1.57,1.57,0,0,0,.38-.66l.06-.4a1.45,1.45,0,0,0-.21-.76l-.76-1.29a1.06,1.06,0,0,0-.39-.42,1,1,0,0,0-.51-.27,1.22,1.22,0,0,0-.6,0,1.09,1.09,0,0,0-.55.18l-.31.23a1.54,1.54,0,0,0-.38.67l-.06.39a1.43,1.43,0,0,0,.21.76Z"/><path class="cls-6" d="M310.06,856.91a32.48,32.48,0,0,1,15,4.1,32,32,0,0,1,6.28,4.57c1.81,1.7,4.14,3.87,4.36,6.51.16,1.9,3.16,1.92,3,0-.27-3.17-2.22-5.62-4.38-7.8a34.89,34.89,0,0,0-7.05-5.47,35.63,35.63,0,0,0-17.24-4.91c-1.93,0-1.93,3,0,3Z"/></g></svg>